M48
; DRILL file {KiCad 8.0.6-8.0.6-0~ubuntu22.04.1} date 2024-10-18T13:26:58+0000
; FORMAT={2:4/ absolute / inch / suppress leading zeros}
; #@! TF.CreationDate,2024-10-18T13:26:58+00:00
; #@! TF.GenerationSoftware,Kicad,Pcbnew,8.0.6-8.0.6-0~ubuntu22.04.1
; #@! TF.FileFunction,MixedPlating,1,4
FMAT,2
INCH,TZ
; #@! TA.AperFunction,Plated,PTH,ComponentDrill
T1C0.0118
; #@! TA.AperFunction,Plated,PTH,ComponentDrill
T2C0.0118
; #@! TA.AperFunction,Plated,PTH,ViaDrill
T3C0.0157
; #@! TA.AperFunction,Plated,PTH,ComponentDrill
T4C0.0197
; #@! TA.AperFunction,Plated,PTH,ComponentDrill
T5C0.0236
; #@! TA.AperFunction,Plated,PTH,ComponentDrill
T6C0.0276
; #@! TA.AperFunction,Plated,PTH,ComponentDrill
T7C0.0320
; #@! TA.AperFunction,Plated,PTH,ComponentDrill
T8C0.0335
; #@! TA.AperFunction,Plated,PTH,ComponentDrill
T9C0.0394
; #@! TA.AperFunction,Plated,PTH,ComponentDrill
T10C0.1200
; #@! TA.AperFunction,Plated,PTH,ComponentDrill
T11C0.1260
; #@! TA.AperFunction,NonPlated,NPTH,ComponentDrill
T12C0.0256
; #@! TA.AperFunction,NonPlated,NPTH,ComponentDrill
T13C0.0591
%
G90
G05
T1
X12593Y18492
X12800Y18836
X13095Y18374
X14493Y18403
T2
X13013Y30352
X13406Y30352
X14532Y24673
X15005Y24673
X15477Y24673
X15950Y24673
X16265Y2291
X16265Y1897
X17363Y30352
X17757Y30352
X18027Y14604
X18027Y14289
X18027Y13974
X18027Y13659
X18027Y13344
X18027Y13029
X18027Y12714
X18027Y12399
X18027Y12084
X18027Y11770
X18027Y11455
X18027Y11140
X18027Y10825
X18027Y10510
X18027Y9880
X18027Y9329
X18027Y9014
X18027Y8699
X18027Y8384
X18027Y8069
X18027Y7754
X18027Y16297
X18027Y10195
X18184Y4919
X18499Y4919
X18814Y4919
X18883Y24673
X19129Y4919
X19355Y24673
X19444Y4919
X19759Y4919
X19828Y24673
X20074Y4919
X20300Y24673
X20389Y4919
X20625Y18856
X20704Y4919
X21019Y4919
X21097Y18856
X21334Y4919
X21570Y18856
X21649Y4919
X22042Y18856
X22515Y18856
X22593Y4919
X22908Y4919
X22987Y18856
X23223Y4919
X23460Y18856
X23538Y4919
X23853Y4919
X23932Y18856
X24168Y4919
X24404Y18856
X24483Y4919
X24798Y4919
X24877Y18856
X25113Y4919
X25349Y18856
X25822Y18856
X26294Y18856
X26767Y18856
X26806Y4919
X27239Y18856
X27712Y18856
X27869Y4919
X28184Y18856
X28263Y4919
X28656Y18856
X29129Y18856
X29601Y18856
X30074Y18856
X30576Y28787
X30950Y28787
X30969Y32212
X31019Y18856
X31176Y17872
X31176Y17478
X31176Y13266
X31176Y12872
X31176Y12478
X31176Y12084
X31176Y11691
X31176Y11297
X31176Y10903
X31176Y10510
X31176Y9486
X31176Y9171
X31176Y7321
X31176Y6770
X31176Y4919
X31324Y32212
X31324Y28787
X34296Y15808
X34690Y15808
X35084Y15808
X35981Y15808
X36381Y15808
X37308Y26277
X37702Y26277
X38095Y26277
X38489Y26277
T3
X231Y29840
X251Y23817
X259Y3136
X404Y16494
X428Y32124
X507Y27183
X625Y36140
X698Y13202
X936Y26545
X936Y25096
X936Y23049
X956Y21691
X977Y19610
X979Y2951
X983Y7848
X1058Y6691
X1061Y7467
X1097Y5510
X1176Y17084
X1255Y32970
X1609Y20411
X1643Y17104
X1649Y8384
X1751Y17608
X2219Y26553
X2219Y23049
X2239Y25273
X2239Y19624
X2248Y21916
X2249Y18423
X2279Y8305
X2281Y17042
X2308Y6675
X2475Y32833
X2475Y273
X2500Y30680
X2515Y3856
X2620Y13840
X2652Y16167
X2751Y4959
X2830Y8266
X2908Y470
X2942Y5872
X2960Y17300
X3020Y10260
X3020Y9880
X3110Y22990
X3130Y26990
X3130Y20990
X3263Y825
X3404Y32866
X3499Y3817
X3538Y2990
X3538Y2045
X3576Y10516
X3578Y8266
X3578Y5864
X3597Y32478
X3630Y35600
X3767Y5122
X4010Y33050
X4040Y34460
X4175Y4598
X4318Y8309
X4326Y5864
X4404Y1297
X4838Y4644
X4916Y2951
X5074Y8462
X5349Y2163
X5349Y1297
X5368Y37337
X5428Y4565
X5448Y8226
X5467Y5392
X5704Y38659
X5704Y9408
X5901Y8305
X6137Y4604
X6137Y2163
X6137Y1297
X6156Y6356
X6570Y9604
X6661Y28939
X6850Y17290
X6885Y1297
X6924Y2163
X7003Y31888
X7042Y26848
X7082Y29762
X7121Y6691
X7377Y22616
X7435Y19653
X7436Y25392
X7475Y4683
X7790Y19053
X7790Y17124
X7790Y16455
X7810Y22183
X7830Y24998
X7834Y10829
X7948Y1691
X8184Y27045
X8263Y29998
X8263Y28974
X8328Y29525
X8385Y385
X8479Y31514
X8578Y28305
X8640Y10817
X8696Y13541
X8696Y2596
X8735Y2186
X8814Y3029
X8912Y27596
X8971Y5077
X9011Y32163
X9050Y234
X9208Y14053
X9404Y1336
X9444Y588
X9562Y6691
X9660Y30018
X9717Y9062
X9759Y31376
X9916Y38738
X9936Y28088
X10109Y29563
X10192Y11770
X10212Y19955
X10231Y25529
X10231Y22754
X10231Y17754
X10231Y17203
X10271Y23699
X10290Y20940
X10290Y18183
X10290Y15389
X10290Y12671
X10310Y14486
X10428Y26159
X10704Y17742
X10861Y23226
X10861Y14919
X10901Y20431
X10901Y12163
X10940Y28088
X10940Y11100
X11137Y10746
X11334Y20451
X11410Y19956
X11491Y14447
X11511Y13541
X11530Y22754
X11570Y25529
X11570Y9722
X11594Y11569
X11806Y12360
X11885Y26336
X11924Y29565
X11944Y28069
X11964Y9998
X12121Y12675
X12121Y11356
X12200Y10707
X12219Y24250
X12338Y21770
X12357Y16770
X12377Y16002
X12436Y14289
X12515Y30982
X12670Y33050
X12680Y34470
X12908Y21770
X12928Y11710
X13027Y24289
X13266Y16749
X13730Y34490
X13740Y33060
X13755Y9978
X13785Y10952
X14011Y21770
X14326Y30864
X14409Y14257
X14542Y12596
X14703Y10712
X14877Y31494
X15034Y18856
X15034Y16927
X15153Y13502
X15199Y9864
X15200Y34490
X15231Y12714
X15260Y33040
X15507Y30825
X15586Y9525
X15625Y13305
X15704Y18896
X15908Y19226
X15940Y21218
X15979Y31927
X16360Y9033
X16373Y29525
X16373Y27203
X16412Y12399
X16412Y24722
X16412Y15825
X16412Y13974
X16412Y9447
X16530Y17439
X16530Y6809
X16570Y1455
X16584Y2681
X16609Y3777
X16629Y4171
X16806Y30864
X17020Y33060
X17030Y34480
X17121Y23147
X17198Y38615
X17219Y3718
X17298Y7596
X17456Y5167
X17534Y4294
X17534Y3920
X17633Y15116
X17633Y234
X17672Y17714
X17712Y6179
X17735Y9667
X17967Y3819
X18050Y23167
X18090Y34470
X18090Y33060
X18302Y2124
X18617Y30864
X18696Y1336
X18745Y4169
X19011Y20273
X19011Y273
X19247Y2439
X19444Y32124
X20034Y20313
X20063Y22204
X20153Y30825
X20153Y4565
X20153Y588
X20426Y2591
X20610Y33060
X20625Y32124
X20625Y29250
X20660Y34470
X20704Y1336
X20743Y25510
X20861Y392
X21530Y38659
X21609Y28147
X21632Y26688
X21845Y31573
X21885Y2399
X21924Y4644
X21964Y273
X22056Y27905
X22274Y3463
X22987Y32124
X23027Y21376
X23105Y28896
X23440Y33870
X23656Y3147
X23814Y29246
X23932Y21218
X24208Y31455
X24208Y24604
X24360Y33580
X24401Y3797
X24562Y28620
X24562Y22990
X24798Y25943
X24995Y27714
X25034Y4447
X25271Y32084
X25300Y33430
X25822Y4604
X26412Y29801
X26681Y27636
X26688Y25982
X26806Y352
X27160Y38738
X27180Y33430
X27200Y25313
X27318Y4565
X27900Y4219
X27908Y24053
X28030Y33300
X28656Y27518
X29136Y31940
X29430Y33280
X29956Y22596
X30113Y2399
X30310Y33020
X30349Y4565
X30511Y20077
X30546Y27203
X30546Y19151
X30546Y24053
X30704Y21612
X30800Y33010
X31019Y392
X31097Y23817
X31294Y25313
X31452Y18423
X31452Y17006
X31491Y13817
X31491Y9998
X31530Y12911
X31530Y8738
X31530Y7793
X31530Y3344
X31570Y7045
X31570Y6336
X31609Y20510
X31753Y30358
X32750Y32464
X32830Y8581
X32908Y352
X33027Y27041
X33105Y15483
X33150Y17560
X33184Y10746
X33302Y12833
X33341Y32464
X33341Y17006
X33391Y18147
X33420Y38856
X33420Y21651
X33696Y26691
X33814Y32439
X33893Y431
X34601Y26730
X34857Y15451
X35074Y11573
X35153Y26730
X35428Y8187
X35546Y13226
X35664Y26730
X36412Y392
X37042Y26809
X37042Y13187
X37593Y28246
X37830Y9486
X37985Y31619
X37985Y30634
X37985Y29650
X38066Y15352
X38145Y14092
X38243Y6415
X38381Y12636
X38499Y5825
X38709Y30126
X38930Y32209
X38971Y13384
X39028Y28958
X39129Y26770
X39129Y15431
X39610Y7060
X40280Y33850
X41020Y16250
X41290Y18130
X41650Y29450
X43050Y33700
X43200Y29440
X43290Y15980
X44960Y7050
X44970Y18400
T4
X428Y37990
X428Y1376
X705Y38658
X705Y37322
X705Y2044
X705Y708
X1373Y38935
X1373Y37045
X1373Y2321
X1373Y431
X2041Y38658
X2041Y37322
X2041Y2044
X2041Y708
X2318Y37990
X2318Y1376
X37042Y37990
X37042Y1376
X37319Y38658
X37319Y37322
X37319Y2044
X37319Y708
X37987Y38935
X37987Y37045
X37987Y2321
X37987Y431
X38655Y38658
X38655Y37322
X38655Y2044
X38655Y708
X38932Y37990
X38932Y1376
T6
X22633Y2163
X22633Y1533
X23322Y2478
X23322Y1848
X23322Y1218
T7
X7239Y7655
X7239Y5726
X7298Y8896
X8105Y7655
X8105Y5726
X8971Y7655
X8971Y5726
X9227Y8896
X17111Y2547
X17111Y1047
X23422Y27695
X23422Y26695
X23422Y25695
X23422Y24695
X23422Y23695
X23422Y22695
T8
X32672Y5116
X32672Y4132
X32672Y3147
X32672Y2163
X32672Y1179
T9
X1176Y4525
X2176Y4525
X3176Y4525
X4058Y27494
X4058Y26494
X4058Y25494
X4058Y24494
X4058Y23494
X4058Y22494
X4058Y21494
X4058Y20494
X4058Y19494
X4062Y14990
X4062Y13990
X4062Y12990
X4062Y11990
X5058Y27494
X5058Y26494
X5058Y25494
X5058Y24494
X5058Y23494
X5058Y22494
X5058Y21494
X5058Y20494
X5058Y19494
X5062Y14990
X5062Y13990
X5062Y12990
X5062Y11990
X9050Y4329
X9985Y8374
X9985Y7646
X9985Y5697
X9985Y953
X12593Y22636
X13735Y22636
X15546Y23667
X15546Y22667
X15546Y21667
X15546Y20667
X15546Y19667
X16088Y8197
X16088Y5677
X16088Y4929
X16088Y3236
X16088Y775
X16546Y23667
X16546Y22667
X16546Y21667
X16546Y20667
X16546Y19667
X17546Y23667
X17546Y22667
X17546Y21667
X17546Y20667
X17546Y19667
X18546Y23667
X18546Y22667
X18546Y21667
X18546Y20667
X18546Y19667
X19546Y23667
X19546Y22667
X19546Y21667
X19546Y20667
X19546Y19667
X20546Y23667
X20546Y22667
X20546Y21667
X20546Y20667
X20546Y19667
X24601Y2951
X24601Y982
X32751Y9447
X32751Y7596
X33637Y14919
X34032Y31138
X34032Y30138
X34032Y29138
X34637Y14919
X35032Y31138
X35032Y30138
X35032Y29138
X35637Y14919
X36637Y14919
X37637Y14919
X38637Y14919
X42007Y28494
X42007Y27494
X42007Y26494
X42007Y25494
X42007Y24494
X42007Y23494
X42007Y22494
X42007Y21494
X42007Y20494
X42007Y19494
X42007Y14990
X42007Y13990
X42007Y12990
X42007Y11990
X42007Y10990
X42007Y9990
X42007Y8990
X42007Y7990
X43007Y28494
X43007Y27494
X43007Y26494
X43007Y25494
X43007Y24494
X43007Y23494
X43007Y22494
X43007Y21494
X43007Y20494
X43007Y19494
X43007Y14990
X43007Y13990
X43007Y12990
X43007Y11990
X43007Y10990
X43007Y9990
X43007Y8990
X43007Y7990
T10
X28422Y29695
X28422Y20695
T11
X1373Y37990
X1373Y1376
X37987Y37990
X37987Y1376
T12
X18542Y2598
X20818Y2598
T13
X36216Y11455
X36216Y8502
T5
X17979Y3012G85X17979Y2579
G05
X17979Y1268G85X17979Y1031
G05
X21381Y3012G85X21381Y2579
G05
X21381Y1268G85X21381Y1031
G05
T6
X22721Y3285G85X23233Y3285
G05
X22721Y411G85X23233Y411
G05
M30
