M48
INCH,TZ
T01C0.013750
T02C0.021650
T03C0.026600
T04C0.032500
T05C0.039200
T06C0.043300
T07C0.059100
T08C0.120000
T09C0.126000
%
T01
X12598Y18500
X12805Y18844
X13100Y18382
X14498Y18411
X13018Y30360
X13411Y30360
X14537Y24681
X15010Y24681
X15482Y24681
X15955Y24681
X16270Y2299
X16270Y1905
X17368Y30360
X17762Y30360
X18032Y14612
X18032Y14297
X18032Y13982
X18032Y13667
X18032Y13352
X18032Y13037
X18032Y12722
X18032Y12407
X18032Y12092
X18032Y11778
X18032Y11463
X18032Y11148
X18032Y10833
X18032Y10518
X18032Y9888
X18032Y9337
X18032Y9022
X18032Y8707
X18032Y8392
X18032Y8077
X18032Y7762
X18032Y16305
X18032Y10203
X18189Y4927
X18504Y4927
X18819Y4927
X18888Y24681
X19134Y4927
X19360Y24681
X19449Y4927
X19764Y4927
X19833Y24681
X20079Y4927
X20305Y24681
X20394Y4927
X20630Y18864
X20709Y4927
X21024Y4927
X21102Y18864
X21339Y4927
X21575Y18864
X21654Y4927
X22047Y18864
X22520Y18864
X22598Y4927
X22913Y4927
X22992Y18864
X23228Y4927
X23465Y18864
X23543Y4927
X23858Y4927
X23937Y18864
X24173Y4927
X24409Y18864
X24488Y4927
X24803Y4927
X24882Y18864
X25118Y4927
X25354Y18864
X25827Y18864
X26299Y18864
X26772Y18864
X26811Y4927
X27244Y18864
X27717Y18864
X27874Y4927
X28189Y18864
X28268Y4927
X28661Y18864
X29134Y18864
X29606Y18864
X30079Y18864
X30581Y28795
X30955Y28795
X30974Y32220
X31024Y18864
X31181Y17880
X31181Y17486
X31181Y13274
X31181Y12880
X31181Y12486
X31181Y12092
X31181Y11699
X31181Y11305
X31181Y10911
X31181Y10518
X31181Y9494
X31181Y9179
X31181Y7329
X31181Y6778
X31181Y4927
X31329Y32220
X31329Y28795
X34301Y15816
X34695Y15816
X35089Y15816
X35986Y15816
X36386Y15816
X37313Y26285
X37707Y26285
X38100Y26285
X38494Y26285
X236Y29848
X256Y23825
X264Y3144
X409Y16502
X433Y32132
X512Y27191
X630Y36148
X703Y13210
X941Y26553
X941Y25104
X941Y23057
X961Y21699
X982Y19618
X984Y2959
X988Y7856
X1063Y6699
X1066Y7475
X1102Y5518
X1181Y17092
X1260Y32978
X1614Y20419
X1648Y17112
X1654Y8392
X1756Y17616
X2224Y26561
X2224Y23057
X2244Y25281
X2244Y19632
X2253Y21924
X2254Y18431
X2284Y8313
X2286Y17050
X2313Y6683
X2480Y32841
X2480Y281
X2505Y30688
X2520Y3864
X2625Y13848
X2657Y16175
X2756Y4967
X2835Y8274
X2913Y478
X2947Y5880
X2965Y17308
X3025Y10268
X3025Y9888
X3115Y22998
X3135Y26998
X3135Y20998
X3268Y833
X3409Y32874
X3504Y3825
X3543Y2998
X3543Y2053
X3581Y10524
X3583Y8274
X3583Y5872
X3602Y32486
X3635Y35608
X3772Y5130
X4015Y33058
X4045Y34468
X4180Y4606
X4323Y8317
X4331Y5872
X4409Y1305
X4843Y4652
X4921Y2959
X5079Y8470
X5354Y2171
X5354Y1305
X5373Y37345
X5433Y4573
X5453Y8234
X5472Y5400
X5709Y38667
X5709Y9416
X5906Y8313
X6142Y4612
X6142Y2171
X6142Y1305
X6161Y6364
X6575Y9612
X6666Y28947
X6855Y17298
X6890Y1305
X6929Y2171
X7008Y31896
X7047Y26856
X7087Y29770
X7126Y6699
X7382Y22624
X7440Y19661
X7441Y25400
X7480Y4691
X7795Y19061
X7795Y17132
X7795Y16463
X7815Y22191
X7835Y25006
X7839Y10837
X7953Y1699
X8189Y27053
X8268Y30006
X8268Y28982
X8333Y29533
X8390Y393
X8484Y31522
X8583Y28313
X8645Y10825
X8701Y13549
X8701Y2604
X8740Y2194
X8819Y3037
X8917Y27604
X8976Y5085
X9016Y32171
X9055Y242
X9213Y14061
X9409Y1344
X9449Y596
X9567Y6699
X9665Y30026
X9722Y9070
X9764Y31384
X9921Y38746
X9941Y28096
X10114Y29571
X10197Y11778
X10217Y19963
X10236Y25537
X10236Y22762
X10236Y17762
X10236Y17211
X10276Y23707
X10295Y20948
X10295Y18191
X10295Y15397
X10295Y12679
X10315Y14494
X10433Y26167
X10709Y17750
X10866Y23234
X10866Y14927
X10906Y20439
X10906Y12171
X10945Y28096
X10945Y11108
X11142Y10754
X11339Y20459
X11415Y19964
X11496Y14455
X11516Y13549
X11535Y22762
X11575Y25537
X11575Y9730
X11599Y11577
X11811Y12368
X11890Y26344
X11929Y29573
X11949Y28077
X11969Y10006
X12126Y12683
X12126Y11364
X12205Y10715
X12224Y24258
X12343Y21778
X12362Y16778
X12382Y16010
X12441Y14297
X12520Y30990
X12675Y33058
X12685Y34478
X12913Y21778
X12933Y11718
X13032Y24297
X13271Y16757
X13735Y34498
X13745Y33068
X13760Y9986
X13790Y10960
X14016Y21778
X14331Y30872
X14414Y14265
X14547Y12604
X14708Y10720
X14882Y31502
X15039Y18864
X15039Y16935
X15158Y13510
X15204Y9872
X15205Y34498
X15236Y12722
X15265Y33048
X15512Y30833
X15591Y9533
X15630Y13313
X15709Y18904
X15913Y19234
X15945Y21226
X15984Y31935
X16365Y9041
X16378Y29533
X16378Y27211
X16417Y12407
X16417Y24730
X16417Y15833
X16417Y13982
X16417Y9455
X16535Y17447
X16535Y6817
X16575Y1463
X16589Y2689
X16614Y3785
X16634Y4179
X16811Y30872
X17025Y33068
X17035Y34488
X17126Y23155
X17203Y38623
X17224Y3726
X17303Y7604
X17461Y5175
X17539Y4302
X17539Y3928
X17638Y15124
X17638Y242
X17677Y17722
X17717Y6187
X17740Y9675
X17972Y3827
X18055Y23175
X18095Y34478
X18095Y33068
X18307Y2132
X18622Y30872
X18701Y1344
X18750Y4177
X19016Y20281
X19016Y281
X19252Y2447
X19449Y32132
X20039Y20321
X20068Y22212
X20158Y30833
X20158Y4573
X20158Y596
X20431Y2599
X20615Y33068
X20630Y32132
X20630Y29258
X20665Y34478
X20709Y1344
X20748Y25518
X20866Y400
X21535Y38667
X21614Y28155
X21637Y26696
X21850Y31581
X21890Y2407
X21929Y4652
X21969Y281
X22061Y27913
X22279Y3471
X22992Y32132
X23032Y21384
X23110Y28904
X23445Y33878
X23661Y3155
X23819Y29254
X23937Y21226
X24213Y31463
X24213Y24612
X24365Y33588
X24406Y3805
X24567Y28628
X24567Y22998
X24803Y25951
X25000Y27722
X25039Y4455
X25276Y32092
X25305Y33438
X25827Y4612
X26417Y29809
X26686Y27644
X26693Y25990
X26811Y360
X27165Y38746
X27185Y33438
X27205Y25321
X27323Y4573
X27905Y4227
X27913Y24061
X28035Y33308
X28661Y27526
X29141Y31948
X29435Y33288
X29961Y22604
X30118Y2407
X30315Y33028
X30354Y4573
X30516Y20085
X30551Y27211
X30551Y19159
X30551Y24061
X30709Y21620
X30805Y33018
X31024Y400
X31102Y23825
X31299Y25321
X31457Y18431
X31457Y17014
X31496Y13825
X31496Y10006
X31535Y12919
X31535Y8746
X31535Y7801
X31535Y3352
X31575Y7053
X31575Y6344
X31614Y20518
X31758Y30366
X32755Y32472
X32835Y8589
X32913Y360
X33032Y27049
X33110Y15491
X33155Y17568
X33189Y10754
X33307Y12841
X33346Y32472
X33346Y17014
X33396Y18155
X33425Y38864
X33425Y21659
X33701Y26699
X33819Y32447
X33898Y439
X34606Y26738
X34862Y15459
X35079Y11581
X35158Y26738
X35433Y8195
X35551Y13234
X35669Y26738
X36417Y400
X37047Y26817
X37047Y13195
X37598Y28254
X37835Y9494
X37990Y31627
X37990Y30642
X37990Y29658
X38071Y15360
X38150Y14100
X38248Y6423
X38386Y12644
X38504Y5833
X38714Y30134
X38935Y32217
X38976Y13392
X39033Y28966
X39134Y26778
X39134Y15439
X39615Y7068
X40285Y33858
X41025Y16258
X41295Y18138
X41655Y29458
X43055Y33708
X43205Y29448
X43295Y15988
X44965Y7058
X44975Y18408
X10783Y663
X10511Y1299
X10725Y1684
X10084Y2113
X10044Y2449
X10241Y3039
X10517Y3295
X10635Y3826
X10241Y4122
X10044Y3630
X10044Y4811
X10044Y6386
X10517Y6366
X11628Y6658
X12675Y6633
X12997Y6345
X14050Y6270
X15162Y6386
X15950Y6386
X15477Y5382
X14832Y5376
X14892Y4130
X15359Y4220
X15527Y3740
X15950Y4023
X15528Y2855
X16224Y2683
X16265Y2291
X16265Y1897
X15583Y1991
X15273Y1502
X15660Y1185
X15263Y755
X14874Y1134
X14799Y1858
X14847Y2291
X13531Y1306
X13531Y677
X12612Y663
X11757Y663
X11980Y1305
X12564Y2330
X12957Y3777
X12210Y3826
X12643Y4336
X13232Y5334
X14178Y7291
X15110Y7358
X15162Y7763
X15950Y7567
X15556Y6976
X13082Y8116
X13124Y8522
X12295Y8106
X12030Y7703
X10593Y7780
X11002Y7145
X10162Y6912
X30429Y32207
X30682Y32055
X30969Y32213
X31324Y32213
X30990Y31211
X30885Y30937
X31098Y30694
X30585Y31244
X31325Y29765
X31324Y28788
X30950Y28788
X30576Y28788
X18509Y30362
X20155Y30335
X19326Y30313
X16802Y29591
X17559Y29582
X18338Y29556
X20167Y29508
X19235Y29506
X18533Y29334
X20139Y29160
X16930Y29073
X18245Y29043
X16796Y28768
X20330Y28712
X18783Y28635
X17537Y28624
X19858Y28470
X18847Y28347
X18824Y28053
X19225Y27811
X18419Y27679
X18745Y27626
X18027Y27616
X16944Y27596
X17316Y27546
X17666Y27506
X18324Y27285
X16796Y26976
X18371Y26907
X18795Y26593
X18509Y26474
X18005Y26376
X19468Y26354
X16956Y26311
X18765Y26288
X20139Y26219
X20080Y25923
X18810Y25740
X20309Y25728
X17436Y25401
X17428Y24925
X17259Y24683
X17672Y24673
X16777Y24657
X17757Y30352
X17363Y30352
X20300Y24673
X19828Y24673
X19356Y24673
X18883Y24673
X14512Y30224
X12544Y30224
X15851Y30185
X14434Y29358
X13371Y29201
X12544Y29083
X15851Y28846
X14945Y28453
X13961Y28413
X13331Y27862
X12544Y27823
X15851Y27429
X15142Y27193
X12544Y27114
X14451Y27028
X12898Y26602
X13764Y26091
X12819Y25854
X15851Y25697
X12544Y25382
X15026Y25064
X14158Y24791
X12819Y24791
X13406Y30352
X13012Y30352
X15949Y24673
X15477Y24673
X15005Y24673
X14532Y24673
X36757Y15745
X33827Y15820
X35497Y15864
X38863Y15864
X38673Y16097
X37393Y16153
X37082Y16153
X34059Y16307
X35650Y16535
X34952Y16627
X37580Y16690
X38513Y16827
X38785Y17119
X33745Y17222
X34382Y17268
X34759Y17310
X36066Y17385
X37303Y17389
X38824Y17665
X36738Y17746
X38027Y17871
X36078Y17931
X35031Y17940
X36788Y18049
X38863Y18147
X33740Y18944
X38056Y19112
X36251Y19402
X35312Y19632
X36812Y19633
X36019Y19634
X35776Y19840
X38962Y19860
X36117Y19918
X34740Y20225
X36875Y20433
X34791Y20522
X38932Y20647
X35438Y20663
X34785Y20832
X38218Y20850
X36836Y20923
X35836Y20982
X35161Y21135
X38135Y21139
X37402Y21440
X34436Y21458
X34135Y21466
X38942Y21838
X34304Y22045
X33719Y22070
X34603Y22079
X33938Y22336
X35580Y22474
X36427Y22520
X36940Y22590
X37840Y22590
X38141Y22590
X38442Y22590
X38743Y22590
X37348Y22594
X35812Y22970
X36029Y23226
X38984Y25301
X37235Y25518
X33982Y25558
X34395Y25706
X37328Y25805
X34976Y25844
X35251Y25844
X35527Y25844
X34415Y26021
X38991Y26041
X34976Y26149
X35251Y26149
X34001Y26346
X34296Y15808
X34690Y15808
X35084Y15808
X35982Y15808
X36382Y15808
X37308Y26277
X37702Y26277
X38096Y26277
X38489Y26277
X31018Y18856
X30542Y18825
X30310Y18635
X30074Y18856
X29837Y18655
X29601Y18856
X29365Y18655
X29129Y18856
X28892Y18655
X28656Y18856
X28420Y18655
X28184Y18856
X27948Y18655
X27711Y18856
X27475Y18655
X27239Y18856
X27003Y18655
X26766Y18856
X26530Y18655
X26294Y18856
X26058Y18655
X25822Y18856
X25585Y18655
X25349Y18856
X25113Y18655
X24877Y18856
X24640Y18655
X24404Y18856
X24168Y18655
X23932Y18856
X23696Y18655
X23459Y18856
X23223Y18655
X22987Y18856
X22751Y18655
X22514Y18856
X22278Y18655
X22042Y18856
X21806Y18655
X21570Y18856
X21333Y18655
X21097Y18856
X20861Y18655
X20625Y18856
X20310Y18698
X20317Y18163
X20744Y17969
X21195Y17959
X21637Y17952
X22110Y17954
X22615Y16907
X22925Y16907
X23172Y17380
X23770Y17177
X24066Y17168
X23909Y16897
X23792Y16215
X24047Y15947
X24144Y15406
X23705Y15406
X23245Y15526
X23245Y15194
X23245Y14899
X23251Y14608
X22921Y13924
X22376Y13928
X22514Y13344
X23144Y13423
X23214Y12591
X23229Y12205
X23577Y12399
X23811Y12599
X24068Y12166
X24761Y11865
X25359Y11848
X25706Y12144
X26481Y11969
X26463Y12524
X26473Y13071
X27181Y12944
X27136Y12145
X27162Y11380
X27184Y10570
X26481Y10530
X26481Y10815
X26481Y11100
X26481Y10229
X25693Y9913
X25706Y9628
X25738Y9330
X25688Y8848
X25284Y8797
X24654Y8319
X24277Y8331
X23341Y8187
X23016Y8787
X22808Y8584
X22826Y9111
X22468Y9158
X23019Y9342
X23225Y10485
X23448Y10714
X23494Y11397
X23785Y11408
X23298Y11616
X22629Y11616
X21763Y11805
X21569Y12019
X21365Y12223
X21163Y12425
X21166Y11612
X21613Y11147
X21626Y10446
X21250Y10544
X21373Y10076
X21575Y9539
X21335Y9313
X21141Y8915
X21333Y8659
X21434Y8276
X21474Y7970
X21176Y8068
X20672Y8270
X20616Y8571
X20672Y9133
X20525Y9378
X20782Y9761
X20800Y10252
X19572Y10644
X19262Y10958
X19444Y11179
X19479Y11699
X18026Y11769
X18026Y11454
X18026Y11139
X18026Y10824
X18026Y10509
X18026Y10194
X18026Y9880
X18165Y9602
X18026Y9328
X18026Y9013
X18026Y8698
X18026Y8383
X18026Y8068
X18026Y7754
X18383Y7666
X18166Y7422
X18475Y6720
X18479Y5785
X18852Y5741
X18854Y6026
X19227Y5785
X19129Y4919
X19444Y4919
X19759Y4919
X20074Y4919
X20388Y4919
X20703Y4919
X21018Y4919
X21333Y4919
X21648Y4919
X22239Y5116
X22593Y4919
X22908Y4919
X23223Y4919
X23538Y4919
X23853Y4919
X24168Y4919
X24483Y4919
X24798Y4919
X25113Y4919
X25625Y4958
X25531Y5613
X25929Y5649
X26274Y5604
X26553Y5906
X26495Y5151
X26806Y4919
X27869Y4919
X28263Y4919
X28624Y4943
X28616Y5406
X28846Y5851
X28927Y6724
X29367Y6501
X28181Y6189
X27718Y5870
X27761Y6721
X27318Y6769
X26833Y7197
X26825Y7482
X26757Y7842
X26754Y8138
X27484Y8039
X27475Y8423
X27484Y8748
X27145Y9076
X27484Y9456
X27468Y9808
X27488Y10103
X27171Y9785
X28166Y9357
X28169Y8913
X29345Y9057
X29325Y9578
X29326Y9967
X28501Y10432
X28201Y10393
X28178Y10846
X28178Y11133
X28178Y11420
X28178Y11836
X28178Y12122
X28160Y12546
X28160Y12854
X28160Y13143
X27936Y13883
X27656Y13978
X27344Y14373
X27642Y14693
X27642Y15259
X27649Y15545
X27558Y16206
X27761Y16951
X27593Y17183
X27893Y17218
X28518Y17382
X28814Y17382
X29440Y17177
X29726Y17177
X29562Y16894
X29458Y16218
X29617Y15949
X29797Y15372
X29321Y15372
X28835Y15526
X28835Y15194
X28835Y14899
X28842Y14608
X29605Y14386
X29601Y14009
X30404Y14001
X30377Y14335
X30672Y13903
X31151Y13860
X31176Y13265
X31176Y12872
X31176Y12478
X31176Y12084
X31176Y11691
X31176Y11297
X31176Y10903
X31176Y10509
X31137Y9880
X31176Y9486
X31176Y9171
X31176Y8797
X31048Y8314
X31137Y7950
X31176Y7320
X30892Y7210
X31176Y6769
X31155Y5607
X31176Y4919
X30152Y8187
X30026Y8482
X29157Y7997
X27165Y7705
X26288Y7257
X26156Y6868
X25818Y6939
X25395Y7261
X24955Y7360
X24214Y7282
X23686Y6346
X23546Y6067
X23475Y5760
X23213Y6450
X22382Y6421
X22190Y6096
X21446Y6442
X21520Y7290
X21226Y7290
X20935Y7290
X19749Y7232
X19719Y6769
X19994Y6238
X20020Y5334
X21130Y5207
X18814Y4919
X18499Y4919
X18184Y4919
X19378Y7823
X19534Y8062
X19306Y8354
X19089Y8781
X19530Y8779
X19628Y9463
X19112Y9752
X18836Y9198
X18825Y10407
X18026Y12084
X18026Y12399
X18026Y12714
X18026Y13029
X18026Y13344
X18026Y13659
X18026Y13974
X18026Y14289
X18026Y14604
X18545Y15218
X18105Y15824
X18026Y16297
X18597Y16895
X18597Y17214
X18597Y17532
X18597Y17850
X18597Y18169
X18961Y18495
X18243Y18538
X19839Y17707
X19706Y17128
X20270Y16218
X20503Y15514
X20489Y15194
X20494Y14906
X20495Y14608
X21282Y14386
X21291Y13973
X21801Y14358
X22091Y14574
X22091Y15147
X22054Y15533
X21450Y15399
X20950Y15406
X21290Y15952
X21169Y16618
X21486Y16618
X21832Y16618
X20822Y16629
X22633Y16218
X24849Y15533
X24847Y15134
X24847Y14695
X24765Y14311
X24038Y14333
X24089Y14051
X25231Y13919
X25555Y13911
X25577Y13419
X25987Y13699
X26058Y14528
X26035Y14899
X26048Y15194
X26058Y15694
X26353Y15431
X27022Y15386
X26822Y15928
X26893Y16804
X26662Y17384
X25952Y17177
X25660Y17177
X25802Y16887
X25679Y16218
X25033Y17338
X24705Y17389
X26700Y14380
X26899Y13974
X28512Y13924
X29046Y13305
X29046Y12544
X29046Y11783
X29045Y11021
X25362Y11074
X25566Y10749
X25404Y9861
X26483Y8761
X25684Y6138
X25240Y6234
X25147Y6504
X24944Y6141
X22438Y7483
X22380Y7766
X20807Y13299
X20428Y12950
X19341Y13095
X19390Y13824
X19702Y13792
X20165Y13924
X18630Y13617
X24952Y12562
X30438Y15106
X30400Y15571
X30682Y15893
X31173Y15932
X30575Y16484
X30841Y16796
X31176Y17478
X31176Y17872
X31156Y18457
X30585Y18265
X30388Y17382
X31048Y14574
X12800Y18837
X12593Y18493
X13095Y18374
X14493Y18404
T02
X433Y37998
X433Y1384
X710Y38666
X710Y37330
X710Y2052
X710Y716
X1378Y38943
X1378Y37053
X1378Y2329
X1378Y439
X2046Y38666
X2046Y37330
X2046Y2052
X2046Y716
X2323Y37998
X2323Y1384
X37047Y37998
X37047Y1384
X37324Y38666
X37324Y37330
X37324Y2052
X37324Y716
X37992Y38943
X37992Y37053
X37992Y2329
X37992Y439
X38660Y38666
X38660Y37330
X38660Y2052
X38660Y716
X38937Y37998
X38937Y1384
X17984Y3020G85X17984Y2587
X17984Y1276G85X17984Y1039
X21386Y3020G85X21386Y2587
X21386Y1276G85X21386Y1039
T03
X22638Y2171
X22638Y1541
X23327Y2486
X23327Y1856
X23327Y1226
X22726Y3293G85X23238Y3293
X22726Y419G85X23238Y419
X18547Y2606
X20823Y2606
T04
X7244Y7663
X7244Y5734
X7303Y8904
X8110Y7663
X8110Y5734
X8976Y7663
X8976Y5734
X9232Y8904
X17116Y2555
X17116Y1055
X23427Y27703
X23427Y26703
X23427Y25703
X23427Y24703
X23427Y23703
X23427Y22703
X32677Y5124
X32677Y4140
X32677Y3155
X32677Y2171
X32677Y1187
X25081Y13561
X23503Y13561
X22081Y13561
T05
X1181Y4533
X2181Y4533
X3181Y4533
X4063Y27502
X4063Y26502
X4063Y25502
X4063Y24502
X4063Y23502
X4063Y22502
X4063Y21502
X4063Y20502
X4063Y19502
X4067Y14998
X4067Y13998
X4067Y12998
X4067Y11998
X5063Y27502
X5063Y26502
X5063Y25502
X5063Y24502
X5063Y23502
X5063Y22502
X5063Y21502
X5063Y20502
X5063Y19502
X5067Y14998
X5067Y13998
X5067Y12998
X5067Y11998
X9055Y4337
X9990Y8382
X9990Y7654
X9990Y5705
X9990Y961
X12598Y22644
X13740Y22644
X15551Y23675
X15551Y22675
X15551Y21675
X15551Y20675
X15551Y19675
X16093Y8205
X16093Y5685
X16093Y4937
X16093Y3244
X16093Y783
X16551Y23675
X16551Y22675
X16551Y21675
X16551Y20675
X16551Y19675
X17551Y23675
X17551Y22675
X17551Y21675
X17551Y20675
X17551Y19675
X18551Y23675
X18551Y22675
X18551Y21675
X18551Y20675
X18551Y19675
X19551Y23675
X19551Y22675
X19551Y21675
X19551Y20675
X19551Y19675
X20551Y23675
X20551Y22675
X20551Y21675
X20551Y20675
X20551Y19675
X24606Y2959
X24606Y990
X32756Y9455
X32756Y7604
X33642Y14927
X34037Y31146
X34037Y30146
X34037Y29146
X34642Y14927
X35037Y31146
X35037Y30146
X35037Y29146
X35642Y14927
X36642Y14927
X37642Y14927
X38642Y14927
X42012Y28502
X42012Y27502
X42012Y26502
X42012Y25502
X42012Y24502
X42012Y23502
X42012Y22502
X42012Y21502
X42012Y20502
X42012Y19502
X42012Y14998
X42012Y13998
X42012Y12998
X42012Y11998
X42012Y10998
X42012Y9998
X42012Y8998
X42012Y7998
X43012Y28502
X43012Y27502
X43012Y26502
X43012Y25502
X43012Y24502
X43012Y23502
X43012Y22502
X43012Y21502
X43012Y20502
X43012Y19502
X43012Y14998
X43012Y13998
X43012Y12998
X43012Y11998
X43012Y10998
X43012Y9998
X43012Y8998
X43012Y7998
X9985Y952
X9985Y5697
X16088Y5677
X16088Y4929
X16088Y3236
X16088Y775
X16088Y8197
X9985Y8374
X9985Y7645
X37978Y23131
X36796Y23919
X37978Y24706
X38056Y16005
X37656Y18005
X38456Y18005
X30861Y5234
X21782Y6205
X21782Y5405
X19782Y5805
T06
X34169Y22954
X34169Y23954
X34169Y24954
T07
X36221Y11463
X36221Y8510
T08
X28427Y29703
X28427Y20703
T09
X1378Y37998
X1378Y1384
X37992Y37998
X37992Y1384
M30
