G04 #@! TF.GenerationSoftware,KiCad,Pcbnew,8.0.6-8.0.6-0~ubuntu22.04.1*
G04 #@! TF.CreationDate,2024-10-18T13:26:58+00:00*
G04 #@! TF.ProjectId,uefi2,75656669-322e-46b6-9963-61645f706362,C*
G04 #@! TF.SameCoordinates,PX2fb21b8PY98952e8*
G04 #@! TF.FileFunction,Paste,Bot*
G04 #@! TF.FilePolarity,Positive*
%FSLAX46Y46*%
G04 Gerber Fmt 4.6, Leading zero omitted, Abs format (unit mm)*
G04 Created by KiCad (PCBNEW 8.0.6-8.0.6-0~ubuntu22.04.1) date 2024-10-18 13:26:58*
%MOMM*%
%LPD*%
G01*
G04 APERTURE LIST*
%ADD10R,2.299995X4.399991*%
%ADD11R,2.299995X3.999992*%
G04 APERTURE END LIST*
G04 #@! TO.C,D8*
G36*
G01*
X54387400Y81251623D02*
X54687400Y81251623D01*
G75*
G02*
X54837400Y81101623I0J-150000D01*
G01*
X54837400Y79926623D01*
G75*
G02*
X54687400Y79776623I-150000J0D01*
G01*
X54387400Y79776623D01*
G75*
G02*
X54237400Y79926623I0J150000D01*
G01*
X54237400Y81101623D01*
G75*
G02*
X54387400Y81251623I150000J0D01*
G01*
G37*
G36*
G01*
X56287400Y81251623D02*
X56587400Y81251623D01*
G75*
G02*
X56737400Y81101623I0J-150000D01*
G01*
X56737400Y79926623D01*
G75*
G02*
X56587400Y79776623I-150000J0D01*
G01*
X56287400Y79776623D01*
G75*
G02*
X56137400Y79926623I0J150000D01*
G01*
X56137400Y81101623D01*
G75*
G02*
X56287400Y81251623I150000J0D01*
G01*
G37*
G36*
G01*
X55337400Y79376623D02*
X55637400Y79376623D01*
G75*
G02*
X55787400Y79226623I0J-150000D01*
G01*
X55787400Y78051623D01*
G75*
G02*
X55637400Y77901623I-150000J0D01*
G01*
X55337400Y77901623D01*
G75*
G02*
X55187400Y78051623I0J150000D01*
G01*
X55187400Y79226623D01*
G75*
G02*
X55337400Y79376623I150000J0D01*
G01*
G37*
G04 #@! TD*
G04 #@! TO.C,C10*
G36*
G01*
X12637400Y13454600D02*
X11587400Y13454600D01*
G75*
G02*
X11487400Y13554600I0J100000D01*
G01*
X11487400Y14354600D01*
G75*
G02*
X11587400Y14454600I100000J0D01*
G01*
X12637400Y14454600D01*
G75*
G02*
X12737400Y14354600I0J-100000D01*
G01*
X12737400Y13554600D01*
G75*
G02*
X12637400Y13454600I-100000J0D01*
G01*
G37*
G36*
G01*
X12637400Y15454600D02*
X11587400Y15454600D01*
G75*
G02*
X11487400Y15554600I0J100000D01*
G01*
X11487400Y16354600D01*
G75*
G02*
X11587400Y16454600I100000J0D01*
G01*
X12637400Y16454600D01*
G75*
G02*
X12737400Y16354600I0J-100000D01*
G01*
X12737400Y15554600D01*
G75*
G02*
X12637400Y15454600I-100000J0D01*
G01*
G37*
G04 #@! TD*
G04 #@! TO.C,C27*
G36*
G01*
X61447400Y66309601D02*
X62127400Y66309601D01*
G75*
G02*
X62212400Y66224601I0J-85000D01*
G01*
X62212400Y65544601D01*
G75*
G02*
X62127400Y65459601I-85000J0D01*
G01*
X61447400Y65459601D01*
G75*
G02*
X61362400Y65544601I0J85000D01*
G01*
X61362400Y66224601D01*
G75*
G02*
X61447400Y66309601I85000J0D01*
G01*
G37*
G36*
G01*
X61447400Y64729599D02*
X62127400Y64729599D01*
G75*
G02*
X62212400Y64644599I0J-85000D01*
G01*
X62212400Y63964599D01*
G75*
G02*
X62127400Y63879599I-85000J0D01*
G01*
X61447400Y63879599D01*
G75*
G02*
X61362400Y63964599I0J85000D01*
G01*
X61362400Y64644599D01*
G75*
G02*
X61447400Y64729599I85000J0D01*
G01*
G37*
G04 #@! TD*
G04 #@! TO.C,D4*
G36*
G01*
X19497400Y75894600D02*
X18477400Y75894600D01*
G75*
G02*
X18387400Y75984600I0J90000D01*
G01*
X18387400Y76704600D01*
G75*
G02*
X18477400Y76794600I90000J0D01*
G01*
X19497400Y76794600D01*
G75*
G02*
X19587400Y76704600I0J-90000D01*
G01*
X19587400Y75984600D01*
G75*
G02*
X19497400Y75894600I-90000J0D01*
G01*
G37*
G36*
G01*
X19497400Y79194600D02*
X18477400Y79194600D01*
G75*
G02*
X18387400Y79284600I0J90000D01*
G01*
X18387400Y80004600D01*
G75*
G02*
X18477400Y80094600I90000J0D01*
G01*
X19497400Y80094600D01*
G75*
G02*
X19587400Y80004600I0J-90000D01*
G01*
X19587400Y79284600D01*
G75*
G02*
X19497400Y79194600I-90000J0D01*
G01*
G37*
G04 #@! TD*
D10*
G04 #@! TO.C,BT1*
X91987400Y17494648D03*
D11*
X91987400Y33494667D03*
G04 #@! TD*
G04 #@! TO.C,U10*
G36*
G01*
X1082400Y62894600D02*
X1382400Y62894600D01*
G75*
G02*
X1532400Y62744600I0J-150000D01*
G01*
X1532400Y61094600D01*
G75*
G02*
X1382400Y60944600I-150000J0D01*
G01*
X1082400Y60944600D01*
G75*
G02*
X932400Y61094600I0J150000D01*
G01*
X932400Y62744600D01*
G75*
G02*
X1082400Y62894600I150000J0D01*
G01*
G37*
G36*
G01*
X2352400Y62894600D02*
X2652400Y62894600D01*
G75*
G02*
X2802400Y62744600I0J-150000D01*
G01*
X2802400Y61094600D01*
G75*
G02*
X2652400Y60944600I-150000J0D01*
G01*
X2352400Y60944600D01*
G75*
G02*
X2202400Y61094600I0J150000D01*
G01*
X2202400Y62744600D01*
G75*
G02*
X2352400Y62894600I150000J0D01*
G01*
G37*
G36*
G01*
X3622400Y62894600D02*
X3922400Y62894600D01*
G75*
G02*
X4072400Y62744600I0J-150000D01*
G01*
X4072400Y61094600D01*
G75*
G02*
X3922400Y60944600I-150000J0D01*
G01*
X3622400Y60944600D01*
G75*
G02*
X3472400Y61094600I0J150000D01*
G01*
X3472400Y62744600D01*
G75*
G02*
X3622400Y62894600I150000J0D01*
G01*
G37*
G36*
G01*
X4892400Y62894600D02*
X5192400Y62894600D01*
G75*
G02*
X5342400Y62744600I0J-150000D01*
G01*
X5342400Y61094600D01*
G75*
G02*
X5192400Y60944600I-150000J0D01*
G01*
X4892400Y60944600D01*
G75*
G02*
X4742400Y61094600I0J150000D01*
G01*
X4742400Y62744600D01*
G75*
G02*
X4892400Y62894600I150000J0D01*
G01*
G37*
G36*
G01*
X4892400Y57944600D02*
X5192400Y57944600D01*
G75*
G02*
X5342400Y57794600I0J-150000D01*
G01*
X5342400Y56144600D01*
G75*
G02*
X5192400Y55994600I-150000J0D01*
G01*
X4892400Y55994600D01*
G75*
G02*
X4742400Y56144600I0J150000D01*
G01*
X4742400Y57794600D01*
G75*
G02*
X4892400Y57944600I150000J0D01*
G01*
G37*
G36*
G01*
X3622400Y57944600D02*
X3922400Y57944600D01*
G75*
G02*
X4072400Y57794600I0J-150000D01*
G01*
X4072400Y56144600D01*
G75*
G02*
X3922400Y55994600I-150000J0D01*
G01*
X3622400Y55994600D01*
G75*
G02*
X3472400Y56144600I0J150000D01*
G01*
X3472400Y57794600D01*
G75*
G02*
X3622400Y57944600I150000J0D01*
G01*
G37*
G36*
G01*
X2352400Y57944600D02*
X2652400Y57944600D01*
G75*
G02*
X2802400Y57794600I0J-150000D01*
G01*
X2802400Y56144600D01*
G75*
G02*
X2652400Y55994600I-150000J0D01*
G01*
X2352400Y55994600D01*
G75*
G02*
X2202400Y56144600I0J150000D01*
G01*
X2202400Y57794600D01*
G75*
G02*
X2352400Y57944600I150000J0D01*
G01*
G37*
G36*
G01*
X1082400Y57944600D02*
X1382400Y57944600D01*
G75*
G02*
X1532400Y57794600I0J-150000D01*
G01*
X1532400Y56144600D01*
G75*
G02*
X1382400Y55994600I-150000J0D01*
G01*
X1082400Y55994600D01*
G75*
G02*
X932400Y56144600I0J150000D01*
G01*
X932400Y57794600D01*
G75*
G02*
X1082400Y57944600I150000J0D01*
G01*
G37*
G04 #@! TD*
G04 #@! TO.C,R31*
G36*
G01*
X2927400Y40644600D02*
X2147400Y40644600D01*
G75*
G02*
X2077400Y40714600I0J70000D01*
G01*
X2077400Y41274600D01*
G75*
G02*
X2147400Y41344600I70000J0D01*
G01*
X2927400Y41344600D01*
G75*
G02*
X2997400Y41274600I0J-70000D01*
G01*
X2997400Y40714600D01*
G75*
G02*
X2927400Y40644600I-70000J0D01*
G01*
G37*
G36*
G01*
X2927400Y42244600D02*
X2147400Y42244600D01*
G75*
G02*
X2077400Y42314600I0J70000D01*
G01*
X2077400Y42874600D01*
G75*
G02*
X2147400Y42944600I70000J0D01*
G01*
X2927400Y42944600D01*
G75*
G02*
X2997400Y42874600I0J-70000D01*
G01*
X2997400Y42314600D01*
G75*
G02*
X2927400Y42244600I-70000J0D01*
G01*
G37*
G04 #@! TD*
G04 #@! TO.C,C30*
G36*
G01*
X58392402Y82934600D02*
X58392402Y82254600D01*
G75*
G02*
X58307402Y82169600I-85000J0D01*
G01*
X57627402Y82169600D01*
G75*
G02*
X57542402Y82254600I0J85000D01*
G01*
X57542402Y82934600D01*
G75*
G02*
X57627402Y83019600I85000J0D01*
G01*
X58307402Y83019600D01*
G75*
G02*
X58392402Y82934600I0J-85000D01*
G01*
G37*
G36*
G01*
X56812400Y82934600D02*
X56812400Y82254600D01*
G75*
G02*
X56727400Y82169600I-85000J0D01*
G01*
X56047400Y82169600D01*
G75*
G02*
X55962400Y82254600I0J85000D01*
G01*
X55962400Y82934600D01*
G75*
G02*
X56047400Y83019600I85000J0D01*
G01*
X56727400Y83019600D01*
G75*
G02*
X56812400Y82934600I0J-85000D01*
G01*
G37*
G04 #@! TD*
G04 #@! TO.C,C7*
G36*
G01*
X6637400Y13454600D02*
X5587400Y13454600D01*
G75*
G02*
X5487400Y13554600I0J100000D01*
G01*
X5487400Y14354600D01*
G75*
G02*
X5587400Y14454600I100000J0D01*
G01*
X6637400Y14454600D01*
G75*
G02*
X6737400Y14354600I0J-100000D01*
G01*
X6737400Y13554600D01*
G75*
G02*
X6637400Y13454600I-100000J0D01*
G01*
G37*
G36*
G01*
X6637400Y15454600D02*
X5587400Y15454600D01*
G75*
G02*
X5487400Y15554600I0J100000D01*
G01*
X5487400Y16354600D01*
G75*
G02*
X5587400Y16454600I100000J0D01*
G01*
X6637400Y16454600D01*
G75*
G02*
X6737400Y16354600I0J-100000D01*
G01*
X6737400Y15554600D01*
G75*
G02*
X6637400Y15454600I-100000J0D01*
G01*
G37*
G04 #@! TD*
G04 #@! TO.C,C33*
G36*
G01*
X96647400Y35209601D02*
X97327400Y35209601D01*
G75*
G02*
X97412400Y35124601I0J-85000D01*
G01*
X97412400Y34444601D01*
G75*
G02*
X97327400Y34359601I-85000J0D01*
G01*
X96647400Y34359601D01*
G75*
G02*
X96562400Y34444601I0J85000D01*
G01*
X96562400Y35124601D01*
G75*
G02*
X96647400Y35209601I85000J0D01*
G01*
G37*
G36*
G01*
X96647400Y33629599D02*
X97327400Y33629599D01*
G75*
G02*
X97412400Y33544599I0J-85000D01*
G01*
X97412400Y32864599D01*
G75*
G02*
X97327400Y32779599I-85000J0D01*
G01*
X96647400Y32779599D01*
G75*
G02*
X96562400Y32864599I0J85000D01*
G01*
X96562400Y33544599D01*
G75*
G02*
X96647400Y33629599I85000J0D01*
G01*
G37*
G04 #@! TD*
G04 #@! TO.C,C29*
G36*
G01*
X54272399Y76736623D02*
X54272399Y77416623D01*
G75*
G02*
X54357399Y77501623I85000J0D01*
G01*
X55037399Y77501623D01*
G75*
G02*
X55122399Y77416623I0J-85000D01*
G01*
X55122399Y76736623D01*
G75*
G02*
X55037399Y76651623I-85000J0D01*
G01*
X54357399Y76651623D01*
G75*
G02*
X54272399Y76736623I0J85000D01*
G01*
G37*
G36*
G01*
X55852401Y76736623D02*
X55852401Y77416623D01*
G75*
G02*
X55937401Y77501623I85000J0D01*
G01*
X56617401Y77501623D01*
G75*
G02*
X56702401Y77416623I0J-85000D01*
G01*
X56702401Y76736623D01*
G75*
G02*
X56617401Y76651623I-85000J0D01*
G01*
X55937401Y76651623D01*
G75*
G02*
X55852401Y76736623I0J85000D01*
G01*
G37*
G04 #@! TD*
G04 #@! TO.C,R34*
G36*
G01*
X6277400Y40644600D02*
X5497400Y40644600D01*
G75*
G02*
X5427400Y40714600I0J70000D01*
G01*
X5427400Y41274600D01*
G75*
G02*
X5497400Y41344600I70000J0D01*
G01*
X6277400Y41344600D01*
G75*
G02*
X6347400Y41274600I0J-70000D01*
G01*
X6347400Y40714600D01*
G75*
G02*
X6277400Y40644600I-70000J0D01*
G01*
G37*
G36*
G01*
X6277400Y42244600D02*
X5497400Y42244600D01*
G75*
G02*
X5427400Y42314600I0J70000D01*
G01*
X5427400Y42874600D01*
G75*
G02*
X5497400Y42944600I70000J0D01*
G01*
X6277400Y42944600D01*
G75*
G02*
X6347400Y42874600I0J-70000D01*
G01*
X6347400Y42314600D01*
G75*
G02*
X6277400Y42244600I-70000J0D01*
G01*
G37*
G04 #@! TD*
G04 #@! TO.C,C17*
G36*
G01*
X16062400Y10994600D02*
X17112400Y10994600D01*
G75*
G02*
X17212400Y10894600I0J-100000D01*
G01*
X17212400Y10094600D01*
G75*
G02*
X17112400Y9994600I-100000J0D01*
G01*
X16062400Y9994600D01*
G75*
G02*
X15962400Y10094600I0J100000D01*
G01*
X15962400Y10894600D01*
G75*
G02*
X16062400Y10994600I100000J0D01*
G01*
G37*
G36*
G01*
X16062400Y8994600D02*
X17112400Y8994600D01*
G75*
G02*
X17212400Y8894600I0J-100000D01*
G01*
X17212400Y8094600D01*
G75*
G02*
X17112400Y7994600I-100000J0D01*
G01*
X16062400Y7994600D01*
G75*
G02*
X15962400Y8094600I0J100000D01*
G01*
X15962400Y8894600D01*
G75*
G02*
X16062400Y8994600I100000J0D01*
G01*
G37*
G04 #@! TD*
G04 #@! TO.C,R20*
G36*
G01*
X27462400Y63819600D02*
X27462400Y60969600D01*
G75*
G02*
X27212400Y60719600I-250000J0D01*
G01*
X26487400Y60719600D01*
G75*
G02*
X26237400Y60969600I0J250000D01*
G01*
X26237400Y63819600D01*
G75*
G02*
X26487400Y64069600I250000J0D01*
G01*
X27212400Y64069600D01*
G75*
G02*
X27462400Y63819600I0J-250000D01*
G01*
G37*
G36*
G01*
X21537400Y63819600D02*
X21537400Y60969600D01*
G75*
G02*
X21287400Y60719600I-250000J0D01*
G01*
X20562400Y60719600D01*
G75*
G02*
X20312400Y60969600I0J250000D01*
G01*
X20312400Y63819600D01*
G75*
G02*
X20562400Y64069600I250000J0D01*
G01*
X21287400Y64069600D01*
G75*
G02*
X21537400Y63819600I0J-250000D01*
G01*
G37*
G04 #@! TD*
G04 #@! TO.C,C3*
G36*
G01*
X7587400Y20454600D02*
X8637400Y20454600D01*
G75*
G02*
X8737400Y20354600I0J-100000D01*
G01*
X8737400Y19554600D01*
G75*
G02*
X8637400Y19454600I-100000J0D01*
G01*
X7587400Y19454600D01*
G75*
G02*
X7487400Y19554600I0J100000D01*
G01*
X7487400Y20354600D01*
G75*
G02*
X7587400Y20454600I100000J0D01*
G01*
G37*
G36*
G01*
X7587400Y18454600D02*
X8637400Y18454600D01*
G75*
G02*
X8737400Y18354600I0J-100000D01*
G01*
X8737400Y17554600D01*
G75*
G02*
X8637400Y17454600I-100000J0D01*
G01*
X7587400Y17454600D01*
G75*
G02*
X7487400Y17554600I0J100000D01*
G01*
X7487400Y18354600D01*
G75*
G02*
X7587400Y18454600I100000J0D01*
G01*
G37*
G04 #@! TD*
G04 #@! TO.C,C23*
G36*
G01*
X19112400Y3994600D02*
X18062400Y3994600D01*
G75*
G02*
X17962400Y4094600I0J100000D01*
G01*
X17962400Y4894600D01*
G75*
G02*
X18062400Y4994600I100000J0D01*
G01*
X19112400Y4994600D01*
G75*
G02*
X19212400Y4894600I0J-100000D01*
G01*
X19212400Y4094600D01*
G75*
G02*
X19112400Y3994600I-100000J0D01*
G01*
G37*
G36*
G01*
X19112400Y5994600D02*
X18062400Y5994600D01*
G75*
G02*
X17962400Y6094600I0J100000D01*
G01*
X17962400Y6894600D01*
G75*
G02*
X18062400Y6994600I100000J0D01*
G01*
X19112400Y6994600D01*
G75*
G02*
X19212400Y6894600I0J-100000D01*
G01*
X19212400Y6094600D01*
G75*
G02*
X19112400Y5994600I-100000J0D01*
G01*
G37*
G04 #@! TD*
G04 #@! TO.C,U4*
G36*
G01*
X53432400Y75244600D02*
X53732400Y75244600D01*
G75*
G02*
X53882400Y75094600I0J-150000D01*
G01*
X53882400Y73444600D01*
G75*
G02*
X53732400Y73294600I-150000J0D01*
G01*
X53432400Y73294600D01*
G75*
G02*
X53282400Y73444600I0J150000D01*
G01*
X53282400Y75094600D01*
G75*
G02*
X53432400Y75244600I150000J0D01*
G01*
G37*
G36*
G01*
X54702400Y75244600D02*
X55002400Y75244600D01*
G75*
G02*
X55152400Y75094600I0J-150000D01*
G01*
X55152400Y73444600D01*
G75*
G02*
X55002400Y73294600I-150000J0D01*
G01*
X54702400Y73294600D01*
G75*
G02*
X54552400Y73444600I0J150000D01*
G01*
X54552400Y75094600D01*
G75*
G02*
X54702400Y75244600I150000J0D01*
G01*
G37*
G36*
G01*
X55972400Y75244600D02*
X56272400Y75244600D01*
G75*
G02*
X56422400Y75094600I0J-150000D01*
G01*
X56422400Y73444600D01*
G75*
G02*
X56272400Y73294600I-150000J0D01*
G01*
X55972400Y73294600D01*
G75*
G02*
X55822400Y73444600I0J150000D01*
G01*
X55822400Y75094600D01*
G75*
G02*
X55972400Y75244600I150000J0D01*
G01*
G37*
G36*
G01*
X57242400Y75244600D02*
X57542400Y75244600D01*
G75*
G02*
X57692400Y75094600I0J-150000D01*
G01*
X57692400Y73444600D01*
G75*
G02*
X57542400Y73294600I-150000J0D01*
G01*
X57242400Y73294600D01*
G75*
G02*
X57092400Y73444600I0J150000D01*
G01*
X57092400Y75094600D01*
G75*
G02*
X57242400Y75244600I150000J0D01*
G01*
G37*
G36*
G01*
X57242400Y70294600D02*
X57542400Y70294600D01*
G75*
G02*
X57692400Y70144600I0J-150000D01*
G01*
X57692400Y68494600D01*
G75*
G02*
X57542400Y68344600I-150000J0D01*
G01*
X57242400Y68344600D01*
G75*
G02*
X57092400Y68494600I0J150000D01*
G01*
X57092400Y70144600D01*
G75*
G02*
X57242400Y70294600I150000J0D01*
G01*
G37*
G36*
G01*
X55972400Y70294600D02*
X56272400Y70294600D01*
G75*
G02*
X56422400Y70144600I0J-150000D01*
G01*
X56422400Y68494600D01*
G75*
G02*
X56272400Y68344600I-150000J0D01*
G01*
X55972400Y68344600D01*
G75*
G02*
X55822400Y68494600I0J150000D01*
G01*
X55822400Y70144600D01*
G75*
G02*
X55972400Y70294600I150000J0D01*
G01*
G37*
G36*
G01*
X54702400Y70294600D02*
X55002400Y70294600D01*
G75*
G02*
X55152400Y70144600I0J-150000D01*
G01*
X55152400Y68494600D01*
G75*
G02*
X55002400Y68344600I-150000J0D01*
G01*
X54702400Y68344600D01*
G75*
G02*
X54552400Y68494600I0J150000D01*
G01*
X54552400Y70144600D01*
G75*
G02*
X54702400Y70294600I150000J0D01*
G01*
G37*
G36*
G01*
X53432400Y70294600D02*
X53732400Y70294600D01*
G75*
G02*
X53882400Y70144600I0J-150000D01*
G01*
X53882400Y68494600D01*
G75*
G02*
X53732400Y68344600I-150000J0D01*
G01*
X53432400Y68344600D01*
G75*
G02*
X53282400Y68494600I0J150000D01*
G01*
X53282400Y70144600D01*
G75*
G02*
X53432400Y70294600I150000J0D01*
G01*
G37*
G04 #@! TD*
G04 #@! TO.C,C1*
G36*
G01*
X3587400Y20454600D02*
X4637400Y20454600D01*
G75*
G02*
X4737400Y20354600I0J-100000D01*
G01*
X4737400Y19554600D01*
G75*
G02*
X4637400Y19454600I-100000J0D01*
G01*
X3587400Y19454600D01*
G75*
G02*
X3487400Y19554600I0J100000D01*
G01*
X3487400Y20354600D01*
G75*
G02*
X3587400Y20454600I100000J0D01*
G01*
G37*
G36*
G01*
X3587400Y18454600D02*
X4637400Y18454600D01*
G75*
G02*
X4737400Y18354600I0J-100000D01*
G01*
X4737400Y17554600D01*
G75*
G02*
X4637400Y17454600I-100000J0D01*
G01*
X3587400Y17454600D01*
G75*
G02*
X3487400Y17554600I0J100000D01*
G01*
X3487400Y18354600D01*
G75*
G02*
X3587400Y18454600I100000J0D01*
G01*
G37*
G04 #@! TD*
G04 #@! TO.C,R26*
G36*
G01*
X27462400Y42819600D02*
X27462400Y39969600D01*
G75*
G02*
X27212400Y39719600I-250000J0D01*
G01*
X26487400Y39719600D01*
G75*
G02*
X26237400Y39969600I0J250000D01*
G01*
X26237400Y42819600D01*
G75*
G02*
X26487400Y43069600I250000J0D01*
G01*
X27212400Y43069600D01*
G75*
G02*
X27462400Y42819600I0J-250000D01*
G01*
G37*
G36*
G01*
X21537400Y42819600D02*
X21537400Y39969600D01*
G75*
G02*
X21287400Y39719600I-250000J0D01*
G01*
X20562400Y39719600D01*
G75*
G02*
X20312400Y39969600I0J250000D01*
G01*
X20312400Y42819600D01*
G75*
G02*
X20562400Y43069600I250000J0D01*
G01*
X21287400Y43069600D01*
G75*
G02*
X21537400Y42819600I0J-250000D01*
G01*
G37*
G04 #@! TD*
G04 #@! TO.C,U11*
G36*
G01*
X1082400Y54344600D02*
X1382400Y54344600D01*
G75*
G02*
X1532400Y54194600I0J-150000D01*
G01*
X1532400Y52544600D01*
G75*
G02*
X1382400Y52394600I-150000J0D01*
G01*
X1082400Y52394600D01*
G75*
G02*
X932400Y52544600I0J150000D01*
G01*
X932400Y54194600D01*
G75*
G02*
X1082400Y54344600I150000J0D01*
G01*
G37*
G36*
G01*
X2352400Y54344600D02*
X2652400Y54344600D01*
G75*
G02*
X2802400Y54194600I0J-150000D01*
G01*
X2802400Y52544600D01*
G75*
G02*
X2652400Y52394600I-150000J0D01*
G01*
X2352400Y52394600D01*
G75*
G02*
X2202400Y52544600I0J150000D01*
G01*
X2202400Y54194600D01*
G75*
G02*
X2352400Y54344600I150000J0D01*
G01*
G37*
G36*
G01*
X3622400Y54344600D02*
X3922400Y54344600D01*
G75*
G02*
X4072400Y54194600I0J-150000D01*
G01*
X4072400Y52544600D01*
G75*
G02*
X3922400Y52394600I-150000J0D01*
G01*
X3622400Y52394600D01*
G75*
G02*
X3472400Y52544600I0J150000D01*
G01*
X3472400Y54194600D01*
G75*
G02*
X3622400Y54344600I150000J0D01*
G01*
G37*
G36*
G01*
X4892400Y54344600D02*
X5192400Y54344600D01*
G75*
G02*
X5342400Y54194600I0J-150000D01*
G01*
X5342400Y52544600D01*
G75*
G02*
X5192400Y52394600I-150000J0D01*
G01*
X4892400Y52394600D01*
G75*
G02*
X4742400Y52544600I0J150000D01*
G01*
X4742400Y54194600D01*
G75*
G02*
X4892400Y54344600I150000J0D01*
G01*
G37*
G36*
G01*
X4892400Y49394600D02*
X5192400Y49394600D01*
G75*
G02*
X5342400Y49244600I0J-150000D01*
G01*
X5342400Y47594600D01*
G75*
G02*
X5192400Y47444600I-150000J0D01*
G01*
X4892400Y47444600D01*
G75*
G02*
X4742400Y47594600I0J150000D01*
G01*
X4742400Y49244600D01*
G75*
G02*
X4892400Y49394600I150000J0D01*
G01*
G37*
G36*
G01*
X3622400Y49394600D02*
X3922400Y49394600D01*
G75*
G02*
X4072400Y49244600I0J-150000D01*
G01*
X4072400Y47594600D01*
G75*
G02*
X3922400Y47444600I-150000J0D01*
G01*
X3622400Y47444600D01*
G75*
G02*
X3472400Y47594600I0J150000D01*
G01*
X3472400Y49244600D01*
G75*
G02*
X3622400Y49394600I150000J0D01*
G01*
G37*
G36*
G01*
X2352400Y49394600D02*
X2652400Y49394600D01*
G75*
G02*
X2802400Y49244600I0J-150000D01*
G01*
X2802400Y47594600D01*
G75*
G02*
X2652400Y47444600I-150000J0D01*
G01*
X2352400Y47444600D01*
G75*
G02*
X2202400Y47594600I0J150000D01*
G01*
X2202400Y49244600D01*
G75*
G02*
X2352400Y49394600I150000J0D01*
G01*
G37*
G36*
G01*
X1082400Y49394600D02*
X1382400Y49394600D01*
G75*
G02*
X1532400Y49244600I0J-150000D01*
G01*
X1532400Y47594600D01*
G75*
G02*
X1382400Y47444600I-150000J0D01*
G01*
X1082400Y47444600D01*
G75*
G02*
X932400Y47594600I0J150000D01*
G01*
X932400Y49244600D01*
G75*
G02*
X1082400Y49394600I150000J0D01*
G01*
G37*
G04 #@! TD*
G04 #@! TO.C,C31*
G36*
G01*
X59927400Y72279599D02*
X59247400Y72279599D01*
G75*
G02*
X59162400Y72364599I0J85000D01*
G01*
X59162400Y73044599D01*
G75*
G02*
X59247400Y73129599I85000J0D01*
G01*
X59927400Y73129599D01*
G75*
G02*
X60012400Y73044599I0J-85000D01*
G01*
X60012400Y72364599D01*
G75*
G02*
X59927400Y72279599I-85000J0D01*
G01*
G37*
G36*
G01*
X59927400Y73859601D02*
X59247400Y73859601D01*
G75*
G02*
X59162400Y73944601I0J85000D01*
G01*
X59162400Y74624601D01*
G75*
G02*
X59247400Y74709601I85000J0D01*
G01*
X59927400Y74709601D01*
G75*
G02*
X60012400Y74624601I0J-85000D01*
G01*
X60012400Y73944601D01*
G75*
G02*
X59927400Y73859601I-85000J0D01*
G01*
G37*
G04 #@! TD*
G04 #@! TO.C,F9*
G36*
G01*
X29831150Y35669600D02*
X30343650Y35669600D01*
G75*
G02*
X30562400Y35450850I0J-218750D01*
G01*
X30562400Y35013350D01*
G75*
G02*
X30343650Y34794600I-218750J0D01*
G01*
X29831150Y34794600D01*
G75*
G02*
X29612400Y35013350I0J218750D01*
G01*
X29612400Y35450850D01*
G75*
G02*
X29831150Y35669600I218750J0D01*
G01*
G37*
G36*
G01*
X29831150Y34094600D02*
X30343650Y34094600D01*
G75*
G02*
X30562400Y33875850I0J-218750D01*
G01*
X30562400Y33438350D01*
G75*
G02*
X30343650Y33219600I-218750J0D01*
G01*
X29831150Y33219600D01*
G75*
G02*
X29612400Y33438350I0J218750D01*
G01*
X29612400Y33875850D01*
G75*
G02*
X29831150Y34094600I218750J0D01*
G01*
G37*
G04 #@! TD*
G04 #@! TO.C,C14*
G36*
G01*
X10062400Y10994600D02*
X11112400Y10994600D01*
G75*
G02*
X11212400Y10894600I0J-100000D01*
G01*
X11212400Y10094600D01*
G75*
G02*
X11112400Y9994600I-100000J0D01*
G01*
X10062400Y9994600D01*
G75*
G02*
X9962400Y10094600I0J100000D01*
G01*
X9962400Y10894600D01*
G75*
G02*
X10062400Y10994600I100000J0D01*
G01*
G37*
G36*
G01*
X10062400Y8994600D02*
X11112400Y8994600D01*
G75*
G02*
X11212400Y8894600I0J-100000D01*
G01*
X11212400Y8094600D01*
G75*
G02*
X11112400Y7994600I-100000J0D01*
G01*
X10062400Y7994600D01*
G75*
G02*
X9962400Y8094600I0J100000D01*
G01*
X9962400Y8894600D01*
G75*
G02*
X10062400Y8994600I100000J0D01*
G01*
G37*
G04 #@! TD*
G04 #@! TO.C,C19*
G36*
G01*
X11112400Y3994600D02*
X10062400Y3994600D01*
G75*
G02*
X9962400Y4094600I0J100000D01*
G01*
X9962400Y4894600D01*
G75*
G02*
X10062400Y4994600I100000J0D01*
G01*
X11112400Y4994600D01*
G75*
G02*
X11212400Y4894600I0J-100000D01*
G01*
X11212400Y4094600D01*
G75*
G02*
X11112400Y3994600I-100000J0D01*
G01*
G37*
G36*
G01*
X11112400Y5994600D02*
X10062400Y5994600D01*
G75*
G02*
X9962400Y6094600I0J100000D01*
G01*
X9962400Y6894600D01*
G75*
G02*
X10062400Y6994600I100000J0D01*
G01*
X11112400Y6994600D01*
G75*
G02*
X11212400Y6894600I0J-100000D01*
G01*
X11212400Y6094600D01*
G75*
G02*
X11112400Y5994600I-100000J0D01*
G01*
G37*
G04 #@! TD*
G04 #@! TO.C,F6*
G36*
G01*
X29781150Y63619600D02*
X30293650Y63619600D01*
G75*
G02*
X30512400Y63400850I0J-218750D01*
G01*
X30512400Y62963350D01*
G75*
G02*
X30293650Y62744600I-218750J0D01*
G01*
X29781150Y62744600D01*
G75*
G02*
X29562400Y62963350I0J218750D01*
G01*
X29562400Y63400850D01*
G75*
G02*
X29781150Y63619600I218750J0D01*
G01*
G37*
G36*
G01*
X29781150Y62044600D02*
X30293650Y62044600D01*
G75*
G02*
X30512400Y61825850I0J-218750D01*
G01*
X30512400Y61388350D01*
G75*
G02*
X30293650Y61169600I-218750J0D01*
G01*
X29781150Y61169600D01*
G75*
G02*
X29562400Y61388350I0J218750D01*
G01*
X29562400Y61825850D01*
G75*
G02*
X29781150Y62044600I218750J0D01*
G01*
G37*
G04 #@! TD*
G04 #@! TO.C,R27*
G36*
G01*
X27462400Y35819600D02*
X27462400Y32969600D01*
G75*
G02*
X27212400Y32719600I-250000J0D01*
G01*
X26487400Y32719600D01*
G75*
G02*
X26237400Y32969600I0J250000D01*
G01*
X26237400Y35819600D01*
G75*
G02*
X26487400Y36069600I250000J0D01*
G01*
X27212400Y36069600D01*
G75*
G02*
X27462400Y35819600I0J-250000D01*
G01*
G37*
G36*
G01*
X21537400Y35819600D02*
X21537400Y32969600D01*
G75*
G02*
X21287400Y32719600I-250000J0D01*
G01*
X20562400Y32719600D01*
G75*
G02*
X20312400Y32969600I0J250000D01*
G01*
X20312400Y35819600D01*
G75*
G02*
X20562400Y36069600I250000J0D01*
G01*
X21287400Y36069600D01*
G75*
G02*
X21537400Y35819600I0J-250000D01*
G01*
G37*
G04 #@! TD*
G04 #@! TO.C,R21*
G36*
G01*
X27462400Y56819600D02*
X27462400Y53969600D01*
G75*
G02*
X27212400Y53719600I-250000J0D01*
G01*
X26487400Y53719600D01*
G75*
G02*
X26237400Y53969600I0J250000D01*
G01*
X26237400Y56819600D01*
G75*
G02*
X26487400Y57069600I250000J0D01*
G01*
X27212400Y57069600D01*
G75*
G02*
X27462400Y56819600I0J-250000D01*
G01*
G37*
G36*
G01*
X21537400Y56819600D02*
X21537400Y53969600D01*
G75*
G02*
X21287400Y53719600I-250000J0D01*
G01*
X20562400Y53719600D01*
G75*
G02*
X20312400Y53969600I0J250000D01*
G01*
X20312400Y56819600D01*
G75*
G02*
X20562400Y57069600I250000J0D01*
G01*
X21287400Y57069600D01*
G75*
G02*
X21537400Y56819600I0J-250000D01*
G01*
G37*
G04 #@! TD*
G04 #@! TO.C,C4*
G36*
G01*
X9587400Y20454600D02*
X10637400Y20454600D01*
G75*
G02*
X10737400Y20354600I0J-100000D01*
G01*
X10737400Y19554600D01*
G75*
G02*
X10637400Y19454600I-100000J0D01*
G01*
X9587400Y19454600D01*
G75*
G02*
X9487400Y19554600I0J100000D01*
G01*
X9487400Y20354600D01*
G75*
G02*
X9587400Y20454600I100000J0D01*
G01*
G37*
G36*
G01*
X9587400Y18454600D02*
X10637400Y18454600D01*
G75*
G02*
X10737400Y18354600I0J-100000D01*
G01*
X10737400Y17554600D01*
G75*
G02*
X10637400Y17454600I-100000J0D01*
G01*
X9587400Y17454600D01*
G75*
G02*
X9487400Y17554600I0J100000D01*
G01*
X9487400Y18354600D01*
G75*
G02*
X9587400Y18454600I100000J0D01*
G01*
G37*
G04 #@! TD*
G04 #@! TO.C,F10*
G36*
G01*
X82881150Y33669600D02*
X83393650Y33669600D01*
G75*
G02*
X83612400Y33450850I0J-218750D01*
G01*
X83612400Y33013350D01*
G75*
G02*
X83393650Y32794600I-218750J0D01*
G01*
X82881150Y32794600D01*
G75*
G02*
X82662400Y33013350I0J218750D01*
G01*
X82662400Y33450850D01*
G75*
G02*
X82881150Y33669600I218750J0D01*
G01*
G37*
G36*
G01*
X82881150Y32094600D02*
X83393650Y32094600D01*
G75*
G02*
X83612400Y31875850I0J-218750D01*
G01*
X83612400Y31438350D01*
G75*
G02*
X83393650Y31219600I-218750J0D01*
G01*
X82881150Y31219600D01*
G75*
G02*
X82662400Y31438350I0J218750D01*
G01*
X82662400Y31875850D01*
G75*
G02*
X82881150Y32094600I218750J0D01*
G01*
G37*
G04 #@! TD*
G04 #@! TO.C,D2*
G36*
G01*
X19497400Y68394600D02*
X18477400Y68394600D01*
G75*
G02*
X18387400Y68484600I0J90000D01*
G01*
X18387400Y69204600D01*
G75*
G02*
X18477400Y69294600I90000J0D01*
G01*
X19497400Y69294600D01*
G75*
G02*
X19587400Y69204600I0J-90000D01*
G01*
X19587400Y68484600D01*
G75*
G02*
X19497400Y68394600I-90000J0D01*
G01*
G37*
G36*
G01*
X19497400Y71694600D02*
X18477400Y71694600D01*
G75*
G02*
X18387400Y71784600I0J90000D01*
G01*
X18387400Y72504600D01*
G75*
G02*
X18477400Y72594600I90000J0D01*
G01*
X19497400Y72594600D01*
G75*
G02*
X19587400Y72504600I0J-90000D01*
G01*
X19587400Y71784600D01*
G75*
G02*
X19497400Y71694600I-90000J0D01*
G01*
G37*
G04 #@! TD*
G04 #@! TO.C,D1*
G36*
G01*
X87127400Y15694600D02*
X86647400Y15694600D01*
G75*
G02*
X86587400Y15754600I0J60000D01*
G01*
X86587400Y16234600D01*
G75*
G02*
X86647400Y16294600I60000J0D01*
G01*
X87127400Y16294600D01*
G75*
G02*
X87187400Y16234600I0J-60000D01*
G01*
X87187400Y15754600D01*
G75*
G02*
X87127400Y15694600I-60000J0D01*
G01*
G37*
G36*
G01*
X89327400Y15694600D02*
X88847400Y15694600D01*
G75*
G02*
X88787400Y15754600I0J60000D01*
G01*
X88787400Y16234600D01*
G75*
G02*
X88847400Y16294600I60000J0D01*
G01*
X89327400Y16294600D01*
G75*
G02*
X89387400Y16234600I0J-60000D01*
G01*
X89387400Y15754600D01*
G75*
G02*
X89327400Y15694600I-60000J0D01*
G01*
G37*
G04 #@! TD*
G04 #@! TO.C,R19*
G36*
G01*
X28889900Y47244600D02*
X28109900Y47244600D01*
G75*
G02*
X28039900Y47314600I0J70000D01*
G01*
X28039900Y47874600D01*
G75*
G02*
X28109900Y47944600I70000J0D01*
G01*
X28889900Y47944600D01*
G75*
G02*
X28959900Y47874600I0J-70000D01*
G01*
X28959900Y47314600D01*
G75*
G02*
X28889900Y47244600I-70000J0D01*
G01*
G37*
G36*
G01*
X28889900Y48844600D02*
X28109900Y48844600D01*
G75*
G02*
X28039900Y48914600I0J70000D01*
G01*
X28039900Y49474600D01*
G75*
G02*
X28109900Y49544600I70000J0D01*
G01*
X28889900Y49544600D01*
G75*
G02*
X28959900Y49474600I0J-70000D01*
G01*
X28959900Y48914600D01*
G75*
G02*
X28889900Y48844600I-70000J0D01*
G01*
G37*
G04 #@! TD*
G04 #@! TO.C,R33*
G36*
G01*
X31597400Y29144600D02*
X32377400Y29144600D01*
G75*
G02*
X32447400Y29074600I0J-70000D01*
G01*
X32447400Y28514600D01*
G75*
G02*
X32377400Y28444600I-70000J0D01*
G01*
X31597400Y28444600D01*
G75*
G02*
X31527400Y28514600I0J70000D01*
G01*
X31527400Y29074600D01*
G75*
G02*
X31597400Y29144600I70000J0D01*
G01*
G37*
G36*
G01*
X31597400Y27544600D02*
X32377400Y27544600D01*
G75*
G02*
X32447400Y27474600I0J-70000D01*
G01*
X32447400Y26914600D01*
G75*
G02*
X32377400Y26844600I-70000J0D01*
G01*
X31597400Y26844600D01*
G75*
G02*
X31527400Y26914600I0J70000D01*
G01*
X31527400Y27474600D01*
G75*
G02*
X31597400Y27544600I70000J0D01*
G01*
G37*
G04 #@! TD*
G04 #@! TO.C,C21*
G36*
G01*
X15112400Y3994600D02*
X14062400Y3994600D01*
G75*
G02*
X13962400Y4094600I0J100000D01*
G01*
X13962400Y4894600D01*
G75*
G02*
X14062400Y4994600I100000J0D01*
G01*
X15112400Y4994600D01*
G75*
G02*
X15212400Y4894600I0J-100000D01*
G01*
X15212400Y4094600D01*
G75*
G02*
X15112400Y3994600I-100000J0D01*
G01*
G37*
G36*
G01*
X15112400Y5994600D02*
X14062400Y5994600D01*
G75*
G02*
X13962400Y6094600I0J100000D01*
G01*
X13962400Y6894600D01*
G75*
G02*
X14062400Y6994600I100000J0D01*
G01*
X15112400Y6994600D01*
G75*
G02*
X15212400Y6894600I0J-100000D01*
G01*
X15212400Y6094600D01*
G75*
G02*
X15112400Y5994600I-100000J0D01*
G01*
G37*
G04 #@! TD*
G04 #@! TO.C,F8*
G36*
G01*
X29831150Y42669600D02*
X30343650Y42669600D01*
G75*
G02*
X30562400Y42450850I0J-218750D01*
G01*
X30562400Y42013350D01*
G75*
G02*
X30343650Y41794600I-218750J0D01*
G01*
X29831150Y41794600D01*
G75*
G02*
X29612400Y42013350I0J218750D01*
G01*
X29612400Y42450850D01*
G75*
G02*
X29831150Y42669600I218750J0D01*
G01*
G37*
G36*
G01*
X29831150Y41094600D02*
X30343650Y41094600D01*
G75*
G02*
X30562400Y40875850I0J-218750D01*
G01*
X30562400Y40438350D01*
G75*
G02*
X30343650Y40219600I-218750J0D01*
G01*
X29831150Y40219600D01*
G75*
G02*
X29612400Y40438350I0J218750D01*
G01*
X29612400Y40875850D01*
G75*
G02*
X29831150Y41094600I218750J0D01*
G01*
G37*
G04 #@! TD*
G04 #@! TO.C,R23*
G36*
G01*
X28889900Y40244600D02*
X28109900Y40244600D01*
G75*
G02*
X28039900Y40314600I0J70000D01*
G01*
X28039900Y40874600D01*
G75*
G02*
X28109900Y40944600I70000J0D01*
G01*
X28889900Y40944600D01*
G75*
G02*
X28959900Y40874600I0J-70000D01*
G01*
X28959900Y40314600D01*
G75*
G02*
X28889900Y40244600I-70000J0D01*
G01*
G37*
G36*
G01*
X28889900Y41844600D02*
X28109900Y41844600D01*
G75*
G02*
X28039900Y41914600I0J70000D01*
G01*
X28039900Y42474600D01*
G75*
G02*
X28109900Y42544600I70000J0D01*
G01*
X28889900Y42544600D01*
G75*
G02*
X28959900Y42474600I0J-70000D01*
G01*
X28959900Y41914600D01*
G75*
G02*
X28889900Y41844600I-70000J0D01*
G01*
G37*
G04 #@! TD*
G04 #@! TO.C,R7*
G36*
G01*
X49377400Y3222918D02*
X48597400Y3222918D01*
G75*
G02*
X48527400Y3292918I0J70000D01*
G01*
X48527400Y3852918D01*
G75*
G02*
X48597400Y3922918I70000J0D01*
G01*
X49377400Y3922918D01*
G75*
G02*
X49447400Y3852918I0J-70000D01*
G01*
X49447400Y3292918D01*
G75*
G02*
X49377400Y3222918I-70000J0D01*
G01*
G37*
G36*
G01*
X49377400Y4822918D02*
X48597400Y4822918D01*
G75*
G02*
X48527400Y4892918I0J70000D01*
G01*
X48527400Y5452918D01*
G75*
G02*
X48597400Y5522918I70000J0D01*
G01*
X49377400Y5522918D01*
G75*
G02*
X49447400Y5452918I0J-70000D01*
G01*
X49447400Y4892918D01*
G75*
G02*
X49377400Y4822918I-70000J0D01*
G01*
G37*
G04 #@! TD*
G04 #@! TO.C,R24*
G36*
G01*
X28889900Y33244600D02*
X28109900Y33244600D01*
G75*
G02*
X28039900Y33314600I0J70000D01*
G01*
X28039900Y33874600D01*
G75*
G02*
X28109900Y33944600I70000J0D01*
G01*
X28889900Y33944600D01*
G75*
G02*
X28959900Y33874600I0J-70000D01*
G01*
X28959900Y33314600D01*
G75*
G02*
X28889900Y33244600I-70000J0D01*
G01*
G37*
G36*
G01*
X28889900Y34844600D02*
X28109900Y34844600D01*
G75*
G02*
X28039900Y34914600I0J70000D01*
G01*
X28039900Y35474600D01*
G75*
G02*
X28109900Y35544600I70000J0D01*
G01*
X28889900Y35544600D01*
G75*
G02*
X28959900Y35474600I0J-70000D01*
G01*
X28959900Y34914600D01*
G75*
G02*
X28889900Y34844600I-70000J0D01*
G01*
G37*
G04 #@! TD*
G04 #@! TO.C,F7*
G36*
G01*
X29881150Y49619600D02*
X30393650Y49619600D01*
G75*
G02*
X30612400Y49400850I0J-218750D01*
G01*
X30612400Y48963350D01*
G75*
G02*
X30393650Y48744600I-218750J0D01*
G01*
X29881150Y48744600D01*
G75*
G02*
X29662400Y48963350I0J218750D01*
G01*
X29662400Y49400850D01*
G75*
G02*
X29881150Y49619600I218750J0D01*
G01*
G37*
G36*
G01*
X29881150Y48044600D02*
X30393650Y48044600D01*
G75*
G02*
X30612400Y47825850I0J-218750D01*
G01*
X30612400Y47388350D01*
G75*
G02*
X30393650Y47169600I-218750J0D01*
G01*
X29881150Y47169600D01*
G75*
G02*
X29662400Y47388350I0J218750D01*
G01*
X29662400Y47825850D01*
G75*
G02*
X29881150Y48044600I218750J0D01*
G01*
G37*
G04 #@! TD*
G04 #@! TO.C,C32*
G36*
G01*
X61727400Y72279599D02*
X61047400Y72279599D01*
G75*
G02*
X60962400Y72364599I0J85000D01*
G01*
X60962400Y73044599D01*
G75*
G02*
X61047400Y73129599I85000J0D01*
G01*
X61727400Y73129599D01*
G75*
G02*
X61812400Y73044599I0J-85000D01*
G01*
X61812400Y72364599D01*
G75*
G02*
X61727400Y72279599I-85000J0D01*
G01*
G37*
G36*
G01*
X61727400Y73859601D02*
X61047400Y73859601D01*
G75*
G02*
X60962400Y73944601I0J85000D01*
G01*
X60962400Y74624601D01*
G75*
G02*
X61047400Y74709601I85000J0D01*
G01*
X61727400Y74709601D01*
G75*
G02*
X61812400Y74624601I0J-85000D01*
G01*
X61812400Y73944601D01*
G75*
G02*
X61727400Y73859601I-85000J0D01*
G01*
G37*
G04 #@! TD*
G04 #@! TO.C,R16*
G36*
G01*
X5427400Y88694600D02*
X4647400Y88694600D01*
G75*
G02*
X4577400Y88764600I0J70000D01*
G01*
X4577400Y89324600D01*
G75*
G02*
X4647400Y89394600I70000J0D01*
G01*
X5427400Y89394600D01*
G75*
G02*
X5497400Y89324600I0J-70000D01*
G01*
X5497400Y88764600D01*
G75*
G02*
X5427400Y88694600I-70000J0D01*
G01*
G37*
G36*
G01*
X5427400Y90294600D02*
X4647400Y90294600D01*
G75*
G02*
X4577400Y90364600I0J70000D01*
G01*
X4577400Y90924600D01*
G75*
G02*
X4647400Y90994600I70000J0D01*
G01*
X5427400Y90994600D01*
G75*
G02*
X5497400Y90924600I0J-70000D01*
G01*
X5497400Y90364600D01*
G75*
G02*
X5427400Y90294600I-70000J0D01*
G01*
G37*
G04 #@! TD*
G04 #@! TO.C,U9*
G36*
G01*
X1082400Y71644600D02*
X1382400Y71644600D01*
G75*
G02*
X1532400Y71494600I0J-150000D01*
G01*
X1532400Y69844600D01*
G75*
G02*
X1382400Y69694600I-150000J0D01*
G01*
X1082400Y69694600D01*
G75*
G02*
X932400Y69844600I0J150000D01*
G01*
X932400Y71494600D01*
G75*
G02*
X1082400Y71644600I150000J0D01*
G01*
G37*
G36*
G01*
X2352400Y71644600D02*
X2652400Y71644600D01*
G75*
G02*
X2802400Y71494600I0J-150000D01*
G01*
X2802400Y69844600D01*
G75*
G02*
X2652400Y69694600I-150000J0D01*
G01*
X2352400Y69694600D01*
G75*
G02*
X2202400Y69844600I0J150000D01*
G01*
X2202400Y71494600D01*
G75*
G02*
X2352400Y71644600I150000J0D01*
G01*
G37*
G36*
G01*
X3622400Y71644600D02*
X3922400Y71644600D01*
G75*
G02*
X4072400Y71494600I0J-150000D01*
G01*
X4072400Y69844600D01*
G75*
G02*
X3922400Y69694600I-150000J0D01*
G01*
X3622400Y69694600D01*
G75*
G02*
X3472400Y69844600I0J150000D01*
G01*
X3472400Y71494600D01*
G75*
G02*
X3622400Y71644600I150000J0D01*
G01*
G37*
G36*
G01*
X4892400Y71644600D02*
X5192400Y71644600D01*
G75*
G02*
X5342400Y71494600I0J-150000D01*
G01*
X5342400Y69844600D01*
G75*
G02*
X5192400Y69694600I-150000J0D01*
G01*
X4892400Y69694600D01*
G75*
G02*
X4742400Y69844600I0J150000D01*
G01*
X4742400Y71494600D01*
G75*
G02*
X4892400Y71644600I150000J0D01*
G01*
G37*
G36*
G01*
X4892400Y66694600D02*
X5192400Y66694600D01*
G75*
G02*
X5342400Y66544600I0J-150000D01*
G01*
X5342400Y64894600D01*
G75*
G02*
X5192400Y64744600I-150000J0D01*
G01*
X4892400Y64744600D01*
G75*
G02*
X4742400Y64894600I0J150000D01*
G01*
X4742400Y66544600D01*
G75*
G02*
X4892400Y66694600I150000J0D01*
G01*
G37*
G36*
G01*
X3622400Y66694600D02*
X3922400Y66694600D01*
G75*
G02*
X4072400Y66544600I0J-150000D01*
G01*
X4072400Y64894600D01*
G75*
G02*
X3922400Y64744600I-150000J0D01*
G01*
X3622400Y64744600D01*
G75*
G02*
X3472400Y64894600I0J150000D01*
G01*
X3472400Y66544600D01*
G75*
G02*
X3622400Y66694600I150000J0D01*
G01*
G37*
G36*
G01*
X2352400Y66694600D02*
X2652400Y66694600D01*
G75*
G02*
X2802400Y66544600I0J-150000D01*
G01*
X2802400Y64894600D01*
G75*
G02*
X2652400Y64744600I-150000J0D01*
G01*
X2352400Y64744600D01*
G75*
G02*
X2202400Y64894600I0J150000D01*
G01*
X2202400Y66544600D01*
G75*
G02*
X2352400Y66694600I150000J0D01*
G01*
G37*
G36*
G01*
X1082400Y66694600D02*
X1382400Y66694600D01*
G75*
G02*
X1532400Y66544600I0J-150000D01*
G01*
X1532400Y64894600D01*
G75*
G02*
X1382400Y64744600I-150000J0D01*
G01*
X1082400Y64744600D01*
G75*
G02*
X932400Y64894600I0J150000D01*
G01*
X932400Y66544600D01*
G75*
G02*
X1082400Y66694600I150000J0D01*
G01*
G37*
G04 #@! TD*
G04 #@! TO.C,R30*
G36*
G01*
X36577400Y24994600D02*
X35797400Y24994600D01*
G75*
G02*
X35727400Y25064600I0J70000D01*
G01*
X35727400Y25624600D01*
G75*
G02*
X35797400Y25694600I70000J0D01*
G01*
X36577400Y25694600D01*
G75*
G02*
X36647400Y25624600I0J-70000D01*
G01*
X36647400Y25064600D01*
G75*
G02*
X36577400Y24994600I-70000J0D01*
G01*
G37*
G36*
G01*
X36577400Y26594600D02*
X35797400Y26594600D01*
G75*
G02*
X35727400Y26664600I0J70000D01*
G01*
X35727400Y27224600D01*
G75*
G02*
X35797400Y27294600I70000J0D01*
G01*
X36577400Y27294600D01*
G75*
G02*
X36647400Y27224600I0J-70000D01*
G01*
X36647400Y26664600D01*
G75*
G02*
X36577400Y26594600I-70000J0D01*
G01*
G37*
G04 #@! TD*
G04 #@! TO.C,R22*
G36*
G01*
X27462400Y49819600D02*
X27462400Y46969600D01*
G75*
G02*
X27212400Y46719600I-250000J0D01*
G01*
X26487400Y46719600D01*
G75*
G02*
X26237400Y46969600I0J250000D01*
G01*
X26237400Y49819600D01*
G75*
G02*
X26487400Y50069600I250000J0D01*
G01*
X27212400Y50069600D01*
G75*
G02*
X27462400Y49819600I0J-250000D01*
G01*
G37*
G36*
G01*
X21537400Y49819600D02*
X21537400Y46969600D01*
G75*
G02*
X21287400Y46719600I-250000J0D01*
G01*
X20562400Y46719600D01*
G75*
G02*
X20312400Y46969600I0J250000D01*
G01*
X20312400Y49819600D01*
G75*
G02*
X20562400Y50069600I250000J0D01*
G01*
X21287400Y50069600D01*
G75*
G02*
X21537400Y49819600I0J-250000D01*
G01*
G37*
G04 #@! TD*
G04 #@! TO.C,R25*
G36*
G01*
X28889900Y26244600D02*
X28109900Y26244600D01*
G75*
G02*
X28039900Y26314600I0J70000D01*
G01*
X28039900Y26874600D01*
G75*
G02*
X28109900Y26944600I70000J0D01*
G01*
X28889900Y26944600D01*
G75*
G02*
X28959900Y26874600I0J-70000D01*
G01*
X28959900Y26314600D01*
G75*
G02*
X28889900Y26244600I-70000J0D01*
G01*
G37*
G36*
G01*
X28889900Y27844600D02*
X28109900Y27844600D01*
G75*
G02*
X28039900Y27914600I0J70000D01*
G01*
X28039900Y28474600D01*
G75*
G02*
X28109900Y28544600I70000J0D01*
G01*
X28889900Y28544600D01*
G75*
G02*
X28959900Y28474600I0J-70000D01*
G01*
X28959900Y27914600D01*
G75*
G02*
X28889900Y27844600I-70000J0D01*
G01*
G37*
G04 #@! TD*
G04 #@! TO.C,L2*
G36*
G01*
X54231150Y86219600D02*
X54743650Y86219600D01*
G75*
G02*
X54962400Y86000850I0J-218750D01*
G01*
X54962400Y85563350D01*
G75*
G02*
X54743650Y85344600I-218750J0D01*
G01*
X54231150Y85344600D01*
G75*
G02*
X54012400Y85563350I0J218750D01*
G01*
X54012400Y86000850D01*
G75*
G02*
X54231150Y86219600I218750J0D01*
G01*
G37*
G36*
G01*
X54231150Y84644600D02*
X54743650Y84644600D01*
G75*
G02*
X54962400Y84425850I0J-218750D01*
G01*
X54962400Y83988350D01*
G75*
G02*
X54743650Y83769600I-218750J0D01*
G01*
X54231150Y83769600D01*
G75*
G02*
X54012400Y83988350I0J218750D01*
G01*
X54012400Y84425850D01*
G75*
G02*
X54231150Y84644600I218750J0D01*
G01*
G37*
G04 #@! TD*
G04 #@! TO.C,C16*
G36*
G01*
X14062400Y10994600D02*
X15112400Y10994600D01*
G75*
G02*
X15212400Y10894600I0J-100000D01*
G01*
X15212400Y10094600D01*
G75*
G02*
X15112400Y9994600I-100000J0D01*
G01*
X14062400Y9994600D01*
G75*
G02*
X13962400Y10094600I0J100000D01*
G01*
X13962400Y10894600D01*
G75*
G02*
X14062400Y10994600I100000J0D01*
G01*
G37*
G36*
G01*
X14062400Y8994600D02*
X15112400Y8994600D01*
G75*
G02*
X15212400Y8894600I0J-100000D01*
G01*
X15212400Y8094600D01*
G75*
G02*
X15112400Y7994600I-100000J0D01*
G01*
X14062400Y7994600D01*
G75*
G02*
X13962400Y8094600I0J100000D01*
G01*
X13962400Y8894600D01*
G75*
G02*
X14062400Y8994600I100000J0D01*
G01*
G37*
G04 #@! TD*
G04 #@! TO.C,R17*
G36*
G01*
X28889900Y61244600D02*
X28109900Y61244600D01*
G75*
G02*
X28039900Y61314600I0J70000D01*
G01*
X28039900Y61874600D01*
G75*
G02*
X28109900Y61944600I70000J0D01*
G01*
X28889900Y61944600D01*
G75*
G02*
X28959900Y61874600I0J-70000D01*
G01*
X28959900Y61314600D01*
G75*
G02*
X28889900Y61244600I-70000J0D01*
G01*
G37*
G36*
G01*
X28889900Y62844600D02*
X28109900Y62844600D01*
G75*
G02*
X28039900Y62914600I0J70000D01*
G01*
X28039900Y63474600D01*
G75*
G02*
X28109900Y63544600I70000J0D01*
G01*
X28889900Y63544600D01*
G75*
G02*
X28959900Y63474600I0J-70000D01*
G01*
X28959900Y62914600D01*
G75*
G02*
X28889900Y62844600I-70000J0D01*
G01*
G37*
G04 #@! TD*
G04 #@! TO.C,C22*
G36*
G01*
X17112400Y3994600D02*
X16062400Y3994600D01*
G75*
G02*
X15962400Y4094600I0J100000D01*
G01*
X15962400Y4894600D01*
G75*
G02*
X16062400Y4994600I100000J0D01*
G01*
X17112400Y4994600D01*
G75*
G02*
X17212400Y4894600I0J-100000D01*
G01*
X17212400Y4094600D01*
G75*
G02*
X17112400Y3994600I-100000J0D01*
G01*
G37*
G36*
G01*
X17112400Y5994600D02*
X16062400Y5994600D01*
G75*
G02*
X15962400Y6094600I0J100000D01*
G01*
X15962400Y6894600D01*
G75*
G02*
X16062400Y6994600I100000J0D01*
G01*
X17112400Y6994600D01*
G75*
G02*
X17212400Y6894600I0J-100000D01*
G01*
X17212400Y6094600D01*
G75*
G02*
X17112400Y5994600I-100000J0D01*
G01*
G37*
G04 #@! TD*
G04 #@! TO.C,R8*
G36*
G01*
X51877400Y3222918D02*
X51097400Y3222918D01*
G75*
G02*
X51027400Y3292918I0J70000D01*
G01*
X51027400Y3852918D01*
G75*
G02*
X51097400Y3922918I70000J0D01*
G01*
X51877400Y3922918D01*
G75*
G02*
X51947400Y3852918I0J-70000D01*
G01*
X51947400Y3292918D01*
G75*
G02*
X51877400Y3222918I-70000J0D01*
G01*
G37*
G36*
G01*
X51877400Y4822918D02*
X51097400Y4822918D01*
G75*
G02*
X51027400Y4892918I0J70000D01*
G01*
X51027400Y5452918D01*
G75*
G02*
X51097400Y5522918I70000J0D01*
G01*
X51877400Y5522918D01*
G75*
G02*
X51947400Y5452918I0J-70000D01*
G01*
X51947400Y4892918D01*
G75*
G02*
X51877400Y4822918I-70000J0D01*
G01*
G37*
G04 #@! TD*
G04 #@! TO.C,R3*
G36*
G01*
X16377400Y16844600D02*
X15597400Y16844600D01*
G75*
G02*
X15527400Y16914600I0J70000D01*
G01*
X15527400Y17474600D01*
G75*
G02*
X15597400Y17544600I70000J0D01*
G01*
X16377400Y17544600D01*
G75*
G02*
X16447400Y17474600I0J-70000D01*
G01*
X16447400Y16914600D01*
G75*
G02*
X16377400Y16844600I-70000J0D01*
G01*
G37*
G36*
G01*
X16377400Y18444600D02*
X15597400Y18444600D01*
G75*
G02*
X15527400Y18514600I0J70000D01*
G01*
X15527400Y19074600D01*
G75*
G02*
X15597400Y19144600I70000J0D01*
G01*
X16377400Y19144600D01*
G75*
G02*
X16447400Y19074600I0J-70000D01*
G01*
X16447400Y18514600D01*
G75*
G02*
X16377400Y18444600I-70000J0D01*
G01*
G37*
G04 #@! TD*
G04 #@! TO.C,R15*
G36*
G01*
X2877400Y88694600D02*
X2097400Y88694600D01*
G75*
G02*
X2027400Y88764600I0J70000D01*
G01*
X2027400Y89324600D01*
G75*
G02*
X2097400Y89394600I70000J0D01*
G01*
X2877400Y89394600D01*
G75*
G02*
X2947400Y89324600I0J-70000D01*
G01*
X2947400Y88764600D01*
G75*
G02*
X2877400Y88694600I-70000J0D01*
G01*
G37*
G36*
G01*
X2877400Y90294600D02*
X2097400Y90294600D01*
G75*
G02*
X2027400Y90364600I0J70000D01*
G01*
X2027400Y90924600D01*
G75*
G02*
X2097400Y90994600I70000J0D01*
G01*
X2877400Y90994600D01*
G75*
G02*
X2947400Y90924600I0J-70000D01*
G01*
X2947400Y90364600D01*
G75*
G02*
X2877400Y90294600I-70000J0D01*
G01*
G37*
G04 #@! TD*
G04 #@! TO.C,R13*
G36*
G01*
X30677400Y72144600D02*
X29897400Y72144600D01*
G75*
G02*
X29827400Y72214600I0J70000D01*
G01*
X29827400Y72774600D01*
G75*
G02*
X29897400Y72844600I70000J0D01*
G01*
X30677400Y72844600D01*
G75*
G02*
X30747400Y72774600I0J-70000D01*
G01*
X30747400Y72214600D01*
G75*
G02*
X30677400Y72144600I-70000J0D01*
G01*
G37*
G36*
G01*
X30677400Y73744600D02*
X29897400Y73744600D01*
G75*
G02*
X29827400Y73814600I0J70000D01*
G01*
X29827400Y74374600D01*
G75*
G02*
X29897400Y74444600I70000J0D01*
G01*
X30677400Y74444600D01*
G75*
G02*
X30747400Y74374600I0J-70000D01*
G01*
X30747400Y73814600D01*
G75*
G02*
X30677400Y73744600I-70000J0D01*
G01*
G37*
G04 #@! TD*
G04 #@! TO.C,C5*
G36*
G01*
X11587400Y20454600D02*
X12637400Y20454600D01*
G75*
G02*
X12737400Y20354600I0J-100000D01*
G01*
X12737400Y19554600D01*
G75*
G02*
X12637400Y19454600I-100000J0D01*
G01*
X11587400Y19454600D01*
G75*
G02*
X11487400Y19554600I0J100000D01*
G01*
X11487400Y20354600D01*
G75*
G02*
X11587400Y20454600I100000J0D01*
G01*
G37*
G36*
G01*
X11587400Y18454600D02*
X12637400Y18454600D01*
G75*
G02*
X12737400Y18354600I0J-100000D01*
G01*
X12737400Y17554600D01*
G75*
G02*
X12637400Y17454600I-100000J0D01*
G01*
X11587400Y17454600D01*
G75*
G02*
X11487400Y17554600I0J100000D01*
G01*
X11487400Y18354600D01*
G75*
G02*
X11587400Y18454600I100000J0D01*
G01*
G37*
G04 #@! TD*
G04 #@! TO.C,F5*
G36*
G01*
X29781150Y56619600D02*
X30293650Y56619600D01*
G75*
G02*
X30512400Y56400850I0J-218750D01*
G01*
X30512400Y55963350D01*
G75*
G02*
X30293650Y55744600I-218750J0D01*
G01*
X29781150Y55744600D01*
G75*
G02*
X29562400Y55963350I0J218750D01*
G01*
X29562400Y56400850D01*
G75*
G02*
X29781150Y56619600I218750J0D01*
G01*
G37*
G36*
G01*
X29781150Y55044600D02*
X30293650Y55044600D01*
G75*
G02*
X30512400Y54825850I0J-218750D01*
G01*
X30512400Y54388350D01*
G75*
G02*
X30293650Y54169600I-218750J0D01*
G01*
X29781150Y54169600D01*
G75*
G02*
X29562400Y54388350I0J218750D01*
G01*
X29562400Y54825850D01*
G75*
G02*
X29781150Y55044600I218750J0D01*
G01*
G37*
G04 #@! TD*
G04 #@! TO.C,R32*
G36*
G01*
X33447400Y29544600D02*
X34227400Y29544600D01*
G75*
G02*
X34297400Y29474600I0J-70000D01*
G01*
X34297400Y28914600D01*
G75*
G02*
X34227400Y28844600I-70000J0D01*
G01*
X33447400Y28844600D01*
G75*
G02*
X33377400Y28914600I0J70000D01*
G01*
X33377400Y29474600D01*
G75*
G02*
X33447400Y29544600I70000J0D01*
G01*
G37*
G36*
G01*
X33447400Y27944600D02*
X34227400Y27944600D01*
G75*
G02*
X34297400Y27874600I0J-70000D01*
G01*
X34297400Y27314600D01*
G75*
G02*
X34227400Y27244600I-70000J0D01*
G01*
X33447400Y27244600D01*
G75*
G02*
X33377400Y27314600I0J70000D01*
G01*
X33377400Y27874600D01*
G75*
G02*
X33447400Y27944600I70000J0D01*
G01*
G37*
G04 #@! TD*
G04 #@! TO.C,C28*
G36*
G01*
X52572399Y82254600D02*
X52572399Y82934600D01*
G75*
G02*
X52657399Y83019600I85000J0D01*
G01*
X53337399Y83019600D01*
G75*
G02*
X53422399Y82934600I0J-85000D01*
G01*
X53422399Y82254600D01*
G75*
G02*
X53337399Y82169600I-85000J0D01*
G01*
X52657399Y82169600D01*
G75*
G02*
X52572399Y82254600I0J85000D01*
G01*
G37*
G36*
G01*
X54152401Y82254600D02*
X54152401Y82934600D01*
G75*
G02*
X54237401Y83019600I85000J0D01*
G01*
X54917401Y83019600D01*
G75*
G02*
X55002401Y82934600I0J-85000D01*
G01*
X55002401Y82254600D01*
G75*
G02*
X54917401Y82169600I-85000J0D01*
G01*
X54237401Y82169600D01*
G75*
G02*
X54152401Y82254600I0J85000D01*
G01*
G37*
G04 #@! TD*
G04 #@! TO.C,U6*
G36*
G01*
X2367400Y87719600D02*
X2667400Y87719600D01*
G75*
G02*
X2817400Y87569600I0J-150000D01*
G01*
X2817400Y85919600D01*
G75*
G02*
X2667400Y85769600I-150000J0D01*
G01*
X2367400Y85769600D01*
G75*
G02*
X2217400Y85919600I0J150000D01*
G01*
X2217400Y87569600D01*
G75*
G02*
X2367400Y87719600I150000J0D01*
G01*
G37*
G36*
G01*
X3637400Y87719600D02*
X3937400Y87719600D01*
G75*
G02*
X4087400Y87569600I0J-150000D01*
G01*
X4087400Y85919600D01*
G75*
G02*
X3937400Y85769600I-150000J0D01*
G01*
X3637400Y85769600D01*
G75*
G02*
X3487400Y85919600I0J150000D01*
G01*
X3487400Y87569600D01*
G75*
G02*
X3637400Y87719600I150000J0D01*
G01*
G37*
G36*
G01*
X4907400Y87719600D02*
X5207400Y87719600D01*
G75*
G02*
X5357400Y87569600I0J-150000D01*
G01*
X5357400Y85919600D01*
G75*
G02*
X5207400Y85769600I-150000J0D01*
G01*
X4907400Y85769600D01*
G75*
G02*
X4757400Y85919600I0J150000D01*
G01*
X4757400Y87569600D01*
G75*
G02*
X4907400Y87719600I150000J0D01*
G01*
G37*
G36*
G01*
X6177400Y87719600D02*
X6477400Y87719600D01*
G75*
G02*
X6627400Y87569600I0J-150000D01*
G01*
X6627400Y85919600D01*
G75*
G02*
X6477400Y85769600I-150000J0D01*
G01*
X6177400Y85769600D01*
G75*
G02*
X6027400Y85919600I0J150000D01*
G01*
X6027400Y87569600D01*
G75*
G02*
X6177400Y87719600I150000J0D01*
G01*
G37*
G36*
G01*
X6177400Y82769600D02*
X6477400Y82769600D01*
G75*
G02*
X6627400Y82619600I0J-150000D01*
G01*
X6627400Y80969600D01*
G75*
G02*
X6477400Y80819600I-150000J0D01*
G01*
X6177400Y80819600D01*
G75*
G02*
X6027400Y80969600I0J150000D01*
G01*
X6027400Y82619600D01*
G75*
G02*
X6177400Y82769600I150000J0D01*
G01*
G37*
G36*
G01*
X4907400Y82769600D02*
X5207400Y82769600D01*
G75*
G02*
X5357400Y82619600I0J-150000D01*
G01*
X5357400Y80969600D01*
G75*
G02*
X5207400Y80819600I-150000J0D01*
G01*
X4907400Y80819600D01*
G75*
G02*
X4757400Y80969600I0J150000D01*
G01*
X4757400Y82619600D01*
G75*
G02*
X4907400Y82769600I150000J0D01*
G01*
G37*
G36*
G01*
X3637400Y82769600D02*
X3937400Y82769600D01*
G75*
G02*
X4087400Y82619600I0J-150000D01*
G01*
X4087400Y80969600D01*
G75*
G02*
X3937400Y80819600I-150000J0D01*
G01*
X3637400Y80819600D01*
G75*
G02*
X3487400Y80969600I0J150000D01*
G01*
X3487400Y82619600D01*
G75*
G02*
X3637400Y82769600I150000J0D01*
G01*
G37*
G36*
G01*
X2367400Y82769600D02*
X2667400Y82769600D01*
G75*
G02*
X2817400Y82619600I0J-150000D01*
G01*
X2817400Y80969600D01*
G75*
G02*
X2667400Y80819600I-150000J0D01*
G01*
X2367400Y80819600D01*
G75*
G02*
X2217400Y80969600I0J150000D01*
G01*
X2217400Y82619600D01*
G75*
G02*
X2367400Y82769600I150000J0D01*
G01*
G37*
G04 #@! TD*
G04 #@! TO.C,R29*
G36*
G01*
X4627400Y40644600D02*
X3847400Y40644600D01*
G75*
G02*
X3777400Y40714600I0J70000D01*
G01*
X3777400Y41274600D01*
G75*
G02*
X3847400Y41344600I70000J0D01*
G01*
X4627400Y41344600D01*
G75*
G02*
X4697400Y41274600I0J-70000D01*
G01*
X4697400Y40714600D01*
G75*
G02*
X4627400Y40644600I-70000J0D01*
G01*
G37*
G36*
G01*
X4627400Y42244600D02*
X3847400Y42244600D01*
G75*
G02*
X3777400Y42314600I0J70000D01*
G01*
X3777400Y42874600D01*
G75*
G02*
X3847400Y42944600I70000J0D01*
G01*
X4627400Y42944600D01*
G75*
G02*
X4697400Y42874600I0J-70000D01*
G01*
X4697400Y42314600D01*
G75*
G02*
X4627400Y42244600I-70000J0D01*
G01*
G37*
G04 #@! TD*
G04 #@! TO.C,R18*
G36*
G01*
X28889900Y54244600D02*
X28109900Y54244600D01*
G75*
G02*
X28039900Y54314600I0J70000D01*
G01*
X28039900Y54874600D01*
G75*
G02*
X28109900Y54944600I70000J0D01*
G01*
X28889900Y54944600D01*
G75*
G02*
X28959900Y54874600I0J-70000D01*
G01*
X28959900Y54314600D01*
G75*
G02*
X28889900Y54244600I-70000J0D01*
G01*
G37*
G36*
G01*
X28889900Y55844600D02*
X28109900Y55844600D01*
G75*
G02*
X28039900Y55914600I0J70000D01*
G01*
X28039900Y56474600D01*
G75*
G02*
X28109900Y56544600I70000J0D01*
G01*
X28889900Y56544600D01*
G75*
G02*
X28959900Y56474600I0J-70000D01*
G01*
X28959900Y55914600D01*
G75*
G02*
X28889900Y55844600I-70000J0D01*
G01*
G37*
G04 #@! TD*
G04 #@! TO.C,L1*
G36*
G01*
X56231150Y86219600D02*
X56743650Y86219600D01*
G75*
G02*
X56962400Y86000850I0J-218750D01*
G01*
X56962400Y85563350D01*
G75*
G02*
X56743650Y85344600I-218750J0D01*
G01*
X56231150Y85344600D01*
G75*
G02*
X56012400Y85563350I0J218750D01*
G01*
X56012400Y86000850D01*
G75*
G02*
X56231150Y86219600I218750J0D01*
G01*
G37*
G36*
G01*
X56231150Y84644600D02*
X56743650Y84644600D01*
G75*
G02*
X56962400Y84425850I0J-218750D01*
G01*
X56962400Y83988350D01*
G75*
G02*
X56743650Y83769600I-218750J0D01*
G01*
X56231150Y83769600D01*
G75*
G02*
X56012400Y83988350I0J218750D01*
G01*
X56012400Y84425850D01*
G75*
G02*
X56231150Y84644600I218750J0D01*
G01*
G37*
G04 #@! TD*
G04 #@! TO.C,C15*
G36*
G01*
X12062400Y10994600D02*
X13112400Y10994600D01*
G75*
G02*
X13212400Y10894600I0J-100000D01*
G01*
X13212400Y10094600D01*
G75*
G02*
X13112400Y9994600I-100000J0D01*
G01*
X12062400Y9994600D01*
G75*
G02*
X11962400Y10094600I0J100000D01*
G01*
X11962400Y10894600D01*
G75*
G02*
X12062400Y10994600I100000J0D01*
G01*
G37*
G36*
G01*
X12062400Y8994600D02*
X13112400Y8994600D01*
G75*
G02*
X13212400Y8894600I0J-100000D01*
G01*
X13212400Y8094600D01*
G75*
G02*
X13112400Y7994600I-100000J0D01*
G01*
X12062400Y7994600D01*
G75*
G02*
X11962400Y8094600I0J100000D01*
G01*
X11962400Y8894600D01*
G75*
G02*
X12062400Y8994600I100000J0D01*
G01*
G37*
G04 #@! TD*
G04 #@! TO.C,R28*
G36*
G01*
X27462400Y28819600D02*
X27462400Y25969600D01*
G75*
G02*
X27212400Y25719600I-250000J0D01*
G01*
X26487400Y25719600D01*
G75*
G02*
X26237400Y25969600I0J250000D01*
G01*
X26237400Y28819600D01*
G75*
G02*
X26487400Y29069600I250000J0D01*
G01*
X27212400Y29069600D01*
G75*
G02*
X27462400Y28819600I0J-250000D01*
G01*
G37*
G36*
G01*
X21537400Y28819600D02*
X21537400Y25969600D01*
G75*
G02*
X21287400Y25719600I-250000J0D01*
G01*
X20562400Y25719600D01*
G75*
G02*
X20312400Y25969600I0J250000D01*
G01*
X20312400Y28819600D01*
G75*
G02*
X20562400Y29069600I250000J0D01*
G01*
X21287400Y29069600D01*
G75*
G02*
X21537400Y28819600I0J-250000D01*
G01*
G37*
G04 #@! TD*
G04 #@! TO.C,C8*
G36*
G01*
X8637400Y13454600D02*
X7587400Y13454600D01*
G75*
G02*
X7487400Y13554600I0J100000D01*
G01*
X7487400Y14354600D01*
G75*
G02*
X7587400Y14454600I100000J0D01*
G01*
X8637400Y14454600D01*
G75*
G02*
X8737400Y14354600I0J-100000D01*
G01*
X8737400Y13554600D01*
G75*
G02*
X8637400Y13454600I-100000J0D01*
G01*
G37*
G36*
G01*
X8637400Y15454600D02*
X7587400Y15454600D01*
G75*
G02*
X7487400Y15554600I0J100000D01*
G01*
X7487400Y16354600D01*
G75*
G02*
X7587400Y16454600I100000J0D01*
G01*
X8637400Y16454600D01*
G75*
G02*
X8737400Y16354600I0J-100000D01*
G01*
X8737400Y15554600D01*
G75*
G02*
X8637400Y15454600I-100000J0D01*
G01*
G37*
G04 #@! TD*
G04 #@! TO.C,C9*
G36*
G01*
X10637400Y13454600D02*
X9587400Y13454600D01*
G75*
G02*
X9487400Y13554600I0J100000D01*
G01*
X9487400Y14354600D01*
G75*
G02*
X9587400Y14454600I100000J0D01*
G01*
X10637400Y14454600D01*
G75*
G02*
X10737400Y14354600I0J-100000D01*
G01*
X10737400Y13554600D01*
G75*
G02*
X10637400Y13454600I-100000J0D01*
G01*
G37*
G36*
G01*
X10637400Y15454600D02*
X9587400Y15454600D01*
G75*
G02*
X9487400Y15554600I0J100000D01*
G01*
X9487400Y16354600D01*
G75*
G02*
X9587400Y16454600I100000J0D01*
G01*
X10637400Y16454600D01*
G75*
G02*
X10737400Y16354600I0J-100000D01*
G01*
X10737400Y15554600D01*
G75*
G02*
X10637400Y15454600I-100000J0D01*
G01*
G37*
G04 #@! TD*
G04 #@! TO.C,C6*
G36*
G01*
X4637400Y13454600D02*
X3587400Y13454600D01*
G75*
G02*
X3487400Y13554600I0J100000D01*
G01*
X3487400Y14354600D01*
G75*
G02*
X3587400Y14454600I100000J0D01*
G01*
X4637400Y14454600D01*
G75*
G02*
X4737400Y14354600I0J-100000D01*
G01*
X4737400Y13554600D01*
G75*
G02*
X4637400Y13454600I-100000J0D01*
G01*
G37*
G36*
G01*
X4637400Y15454600D02*
X3587400Y15454600D01*
G75*
G02*
X3487400Y15554600I0J100000D01*
G01*
X3487400Y16354600D01*
G75*
G02*
X3587400Y16454600I100000J0D01*
G01*
X4637400Y16454600D01*
G75*
G02*
X4737400Y16354600I0J-100000D01*
G01*
X4737400Y15554600D01*
G75*
G02*
X4637400Y15454600I-100000J0D01*
G01*
G37*
G04 #@! TD*
G04 #@! TO.C,C2*
G36*
G01*
X5587400Y20454600D02*
X6637400Y20454600D01*
G75*
G02*
X6737400Y20354600I0J-100000D01*
G01*
X6737400Y19554600D01*
G75*
G02*
X6637400Y19454600I-100000J0D01*
G01*
X5587400Y19454600D01*
G75*
G02*
X5487400Y19554600I0J100000D01*
G01*
X5487400Y20354600D01*
G75*
G02*
X5587400Y20454600I100000J0D01*
G01*
G37*
G36*
G01*
X5587400Y18454600D02*
X6637400Y18454600D01*
G75*
G02*
X6737400Y18354600I0J-100000D01*
G01*
X6737400Y17554600D01*
G75*
G02*
X6637400Y17454600I-100000J0D01*
G01*
X5587400Y17454600D01*
G75*
G02*
X5487400Y17554600I0J100000D01*
G01*
X5487400Y18354600D01*
G75*
G02*
X5587400Y18454600I100000J0D01*
G01*
G37*
G04 #@! TD*
G04 #@! TO.C,C18*
G36*
G01*
X18062400Y10994600D02*
X19112400Y10994600D01*
G75*
G02*
X19212400Y10894600I0J-100000D01*
G01*
X19212400Y10094600D01*
G75*
G02*
X19112400Y9994600I-100000J0D01*
G01*
X18062400Y9994600D01*
G75*
G02*
X17962400Y10094600I0J100000D01*
G01*
X17962400Y10894600D01*
G75*
G02*
X18062400Y10994600I100000J0D01*
G01*
G37*
G36*
G01*
X18062400Y8994600D02*
X19112400Y8994600D01*
G75*
G02*
X19212400Y8894600I0J-100000D01*
G01*
X19212400Y8094600D01*
G75*
G02*
X19112400Y7994600I-100000J0D01*
G01*
X18062400Y7994600D01*
G75*
G02*
X17962400Y8094600I0J100000D01*
G01*
X17962400Y8894600D01*
G75*
G02*
X18062400Y8994600I100000J0D01*
G01*
G37*
G04 #@! TD*
G04 #@! TO.C,R12*
G36*
G01*
X30677400Y75544600D02*
X29897400Y75544600D01*
G75*
G02*
X29827400Y75614600I0J70000D01*
G01*
X29827400Y76174600D01*
G75*
G02*
X29897400Y76244600I70000J0D01*
G01*
X30677400Y76244600D01*
G75*
G02*
X30747400Y76174600I0J-70000D01*
G01*
X30747400Y75614600D01*
G75*
G02*
X30677400Y75544600I-70000J0D01*
G01*
G37*
G36*
G01*
X30677400Y77144600D02*
X29897400Y77144600D01*
G75*
G02*
X29827400Y77214600I0J70000D01*
G01*
X29827400Y77774600D01*
G75*
G02*
X29897400Y77844600I70000J0D01*
G01*
X30677400Y77844600D01*
G75*
G02*
X30747400Y77774600I0J-70000D01*
G01*
X30747400Y77214600D01*
G75*
G02*
X30677400Y77144600I-70000J0D01*
G01*
G37*
G04 #@! TD*
G04 #@! TO.C,C20*
G36*
G01*
X13112400Y3994600D02*
X12062400Y3994600D01*
G75*
G02*
X11962400Y4094600I0J100000D01*
G01*
X11962400Y4894600D01*
G75*
G02*
X12062400Y4994600I100000J0D01*
G01*
X13112400Y4994600D01*
G75*
G02*
X13212400Y4894600I0J-100000D01*
G01*
X13212400Y4094600D01*
G75*
G02*
X13112400Y3994600I-100000J0D01*
G01*
G37*
G36*
G01*
X13112400Y5994600D02*
X12062400Y5994600D01*
G75*
G02*
X11962400Y6094600I0J100000D01*
G01*
X11962400Y6894600D01*
G75*
G02*
X12062400Y6994600I100000J0D01*
G01*
X13112400Y6994600D01*
G75*
G02*
X13212400Y6894600I0J-100000D01*
G01*
X13212400Y6094600D01*
G75*
G02*
X13112400Y5994600I-100000J0D01*
G01*
G37*
G04 #@! TD*
G04 #@! TO.C,R5*
G36*
G01*
X56497400Y62944600D02*
X57277400Y62944600D01*
G75*
G02*
X57347400Y62874600I0J-70000D01*
G01*
X57347400Y62314600D01*
G75*
G02*
X57277400Y62244600I-70000J0D01*
G01*
X56497400Y62244600D01*
G75*
G02*
X56427400Y62314600I0J70000D01*
G01*
X56427400Y62874600D01*
G75*
G02*
X56497400Y62944600I70000J0D01*
G01*
G37*
G36*
G01*
X56497400Y61344600D02*
X57277400Y61344600D01*
G75*
G02*
X57347400Y61274600I0J-70000D01*
G01*
X57347400Y60714600D01*
G75*
G02*
X57277400Y60644600I-70000J0D01*
G01*
X56497400Y60644600D01*
G75*
G02*
X56427400Y60714600I0J70000D01*
G01*
X56427400Y61274600D01*
G75*
G02*
X56497400Y61344600I70000J0D01*
G01*
G37*
G04 #@! TD*
G04 #@! TO.C,R6*
G36*
G01*
X77197400Y71944600D02*
X77977400Y71944600D01*
G75*
G02*
X78047400Y71874600I0J-70000D01*
G01*
X78047400Y71314600D01*
G75*
G02*
X77977400Y71244600I-70000J0D01*
G01*
X77197400Y71244600D01*
G75*
G02*
X77127400Y71314600I0J70000D01*
G01*
X77127400Y71874600D01*
G75*
G02*
X77197400Y71944600I70000J0D01*
G01*
G37*
G36*
G01*
X77197400Y70344600D02*
X77977400Y70344600D01*
G75*
G02*
X78047400Y70274600I0J-70000D01*
G01*
X78047400Y69714600D01*
G75*
G02*
X77977400Y69644600I-70000J0D01*
G01*
X77197400Y69644600D01*
G75*
G02*
X77127400Y69714600I0J70000D01*
G01*
X77127400Y70274600D01*
G75*
G02*
X77197400Y70344600I70000J0D01*
G01*
G37*
G04 #@! TD*
G04 #@! TO.C,R2*
G36*
G01*
X16377400Y19844600D02*
X15597400Y19844600D01*
G75*
G02*
X15527400Y19914600I0J70000D01*
G01*
X15527400Y20474600D01*
G75*
G02*
X15597400Y20544600I70000J0D01*
G01*
X16377400Y20544600D01*
G75*
G02*
X16447400Y20474600I0J-70000D01*
G01*
X16447400Y19914600D01*
G75*
G02*
X16377400Y19844600I-70000J0D01*
G01*
G37*
G36*
G01*
X16377400Y21444600D02*
X15597400Y21444600D01*
G75*
G02*
X15527400Y21514600I0J70000D01*
G01*
X15527400Y22074600D01*
G75*
G02*
X15597400Y22144600I70000J0D01*
G01*
X16377400Y22144600D01*
G75*
G02*
X16447400Y22074600I0J-70000D01*
G01*
X16447400Y21514600D01*
G75*
G02*
X16377400Y21444600I-70000J0D01*
G01*
G37*
G04 #@! TD*
G04 #@! TO.C,U8*
G36*
G01*
X28762400Y77644600D02*
X28762400Y77344600D01*
G75*
G02*
X28612400Y77194600I-150000J0D01*
G01*
X26962400Y77194600D01*
G75*
G02*
X26812400Y77344600I0J150000D01*
G01*
X26812400Y77644600D01*
G75*
G02*
X26962400Y77794600I150000J0D01*
G01*
X28612400Y77794600D01*
G75*
G02*
X28762400Y77644600I0J-150000D01*
G01*
G37*
G36*
G01*
X28762400Y76374600D02*
X28762400Y76074600D01*
G75*
G02*
X28612400Y75924600I-150000J0D01*
G01*
X26962400Y75924600D01*
G75*
G02*
X26812400Y76074600I0J150000D01*
G01*
X26812400Y76374600D01*
G75*
G02*
X26962400Y76524600I150000J0D01*
G01*
X28612400Y76524600D01*
G75*
G02*
X28762400Y76374600I0J-150000D01*
G01*
G37*
G36*
G01*
X28762400Y75104600D02*
X28762400Y74804600D01*
G75*
G02*
X28612400Y74654600I-150000J0D01*
G01*
X26962400Y74654600D01*
G75*
G02*
X26812400Y74804600I0J150000D01*
G01*
X26812400Y75104600D01*
G75*
G02*
X26962400Y75254600I150000J0D01*
G01*
X28612400Y75254600D01*
G75*
G02*
X28762400Y75104600I0J-150000D01*
G01*
G37*
G36*
G01*
X28762400Y73834600D02*
X28762400Y73534600D01*
G75*
G02*
X28612400Y73384600I-150000J0D01*
G01*
X26962400Y73384600D01*
G75*
G02*
X26812400Y73534600I0J150000D01*
G01*
X26812400Y73834600D01*
G75*
G02*
X26962400Y73984600I150000J0D01*
G01*
X28612400Y73984600D01*
G75*
G02*
X28762400Y73834600I0J-150000D01*
G01*
G37*
G36*
G01*
X23812400Y73834600D02*
X23812400Y73534600D01*
G75*
G02*
X23662400Y73384600I-150000J0D01*
G01*
X22012400Y73384600D01*
G75*
G02*
X21862400Y73534600I0J150000D01*
G01*
X21862400Y73834600D01*
G75*
G02*
X22012400Y73984600I150000J0D01*
G01*
X23662400Y73984600D01*
G75*
G02*
X23812400Y73834600I0J-150000D01*
G01*
G37*
G36*
G01*
X23812400Y75104600D02*
X23812400Y74804600D01*
G75*
G02*
X23662400Y74654600I-150000J0D01*
G01*
X22012400Y74654600D01*
G75*
G02*
X21862400Y74804600I0J150000D01*
G01*
X21862400Y75104600D01*
G75*
G02*
X22012400Y75254600I150000J0D01*
G01*
X23662400Y75254600D01*
G75*
G02*
X23812400Y75104600I0J-150000D01*
G01*
G37*
G36*
G01*
X23812400Y76374600D02*
X23812400Y76074600D01*
G75*
G02*
X23662400Y75924600I-150000J0D01*
G01*
X22012400Y75924600D01*
G75*
G02*
X21862400Y76074600I0J150000D01*
G01*
X21862400Y76374600D01*
G75*
G02*
X22012400Y76524600I150000J0D01*
G01*
X23662400Y76524600D01*
G75*
G02*
X23812400Y76374600I0J-150000D01*
G01*
G37*
G36*
G01*
X23812400Y77644600D02*
X23812400Y77344600D01*
G75*
G02*
X23662400Y77194600I-150000J0D01*
G01*
X22012400Y77194600D01*
G75*
G02*
X21862400Y77344600I0J150000D01*
G01*
X21862400Y77644600D01*
G75*
G02*
X22012400Y77794600I150000J0D01*
G01*
X23662400Y77794600D01*
G75*
G02*
X23812400Y77644600I0J-150000D01*
G01*
G37*
G04 #@! TD*
M02*
