G04 #@! TF.GenerationSoftware,KiCad,Pcbnew,8.0.6-8.0.6-0~ubuntu22.04.1*
G04 #@! TF.CreationDate,2024-10-18T13:00:30+00:00*
G04 #@! TF.ProjectId,uefi2,75656669-322e-46b6-9963-61645f706362,C*
G04 #@! TF.SameCoordinates,PX2fb21b8PY98952e8*
G04 #@! TF.FileFunction,Paste,Top*
G04 #@! TF.FilePolarity,Positive*
%FSLAX46Y46*%
G04 Gerber Fmt 4.6, Leading zero omitted, Abs format (unit mm)*
G04 Created by KiCad (PCBNEW 8.0.6-8.0.6-0~ubuntu22.04.1) date 2024-10-18 13:00:30*
%MOMM*%
%LPD*%
G01*
G04 APERTURE LIST*
%ADD10O,0.000001X0.000001*%
%ADD11R,1.300000X1.000000*%
%ADD12R,1.950000X1.160000*%
%ADD13R,2.000000X0.650000*%
%ADD14R,0.300000X1.150000*%
%ADD15R,0.690000X1.350000*%
G04 APERTURE END LIST*
G04 #@! TO.C,R40*
G36*
G01*
X96731778Y74686000D02*
X96731778Y75936000D01*
G75*
G02*
X96831778Y76036000I100000J0D01*
G01*
X97631778Y76036000D01*
G75*
G02*
X97731778Y75936000I0J-100000D01*
G01*
X97731778Y74686000D01*
G75*
G02*
X97631778Y74586000I-100000J0D01*
G01*
X96831778Y74586000D01*
G75*
G02*
X96731778Y74686000I0J100000D01*
G01*
G37*
G36*
G01*
X98631800Y74686000D02*
X98631800Y75936000D01*
G75*
G02*
X98731800Y76036000I100000J0D01*
G01*
X99531800Y76036000D01*
G75*
G02*
X99631800Y75936000I0J-100000D01*
G01*
X99631800Y74686000D01*
G75*
G02*
X99531800Y74586000I-100000J0D01*
G01*
X98731800Y74586000D01*
G75*
G02*
X98631800Y74686000I0J100000D01*
G01*
G37*
G04 #@! TD*
G04 #@! TO.C,U7*
G36*
G01*
X28762400Y75104600D02*
X28762400Y74804600D01*
G75*
G02*
X28612400Y74654600I-150000J0D01*
G01*
X26962400Y74654600D01*
G75*
G02*
X26812400Y74804600I0J150000D01*
G01*
X26812400Y75104600D01*
G75*
G02*
X26962400Y75254600I150000J0D01*
G01*
X28612400Y75254600D01*
G75*
G02*
X28762400Y75104600I0J-150000D01*
G01*
G37*
G36*
G01*
X28762400Y76374600D02*
X28762400Y76074600D01*
G75*
G02*
X28612400Y75924600I-150000J0D01*
G01*
X26962400Y75924600D01*
G75*
G02*
X26812400Y76074600I0J150000D01*
G01*
X26812400Y76374600D01*
G75*
G02*
X26962400Y76524600I150000J0D01*
G01*
X28612400Y76524600D01*
G75*
G02*
X28762400Y76374600I0J-150000D01*
G01*
G37*
G36*
G01*
X28762400Y77644600D02*
X28762400Y77344600D01*
G75*
G02*
X28612400Y77194600I-150000J0D01*
G01*
X26962400Y77194600D01*
G75*
G02*
X26812400Y77344600I0J150000D01*
G01*
X26812400Y77644600D01*
G75*
G02*
X26962400Y77794600I150000J0D01*
G01*
X28612400Y77794600D01*
G75*
G02*
X28762400Y77644600I0J-150000D01*
G01*
G37*
G36*
G01*
X28762400Y78914600D02*
X28762400Y78614600D01*
G75*
G02*
X28612400Y78464600I-150000J0D01*
G01*
X26962400Y78464600D01*
G75*
G02*
X26812400Y78614600I0J150000D01*
G01*
X26812400Y78914600D01*
G75*
G02*
X26962400Y79064600I150000J0D01*
G01*
X28612400Y79064600D01*
G75*
G02*
X28762400Y78914600I0J-150000D01*
G01*
G37*
G36*
G01*
X23812400Y78914600D02*
X23812400Y78614600D01*
G75*
G02*
X23662400Y78464600I-150000J0D01*
G01*
X22012400Y78464600D01*
G75*
G02*
X21862400Y78614600I0J150000D01*
G01*
X21862400Y78914600D01*
G75*
G02*
X22012400Y79064600I150000J0D01*
G01*
X23662400Y79064600D01*
G75*
G02*
X23812400Y78914600I0J-150000D01*
G01*
G37*
G36*
G01*
X23812400Y77644600D02*
X23812400Y77344600D01*
G75*
G02*
X23662400Y77194600I-150000J0D01*
G01*
X22012400Y77194600D01*
G75*
G02*
X21862400Y77344600I0J150000D01*
G01*
X21862400Y77644600D01*
G75*
G02*
X22012400Y77794600I150000J0D01*
G01*
X23662400Y77794600D01*
G75*
G02*
X23812400Y77644600I0J-150000D01*
G01*
G37*
G36*
G01*
X23812400Y76374600D02*
X23812400Y76074600D01*
G75*
G02*
X23662400Y75924600I-150000J0D01*
G01*
X22012400Y75924600D01*
G75*
G02*
X21862400Y76074600I0J150000D01*
G01*
X21862400Y76374600D01*
G75*
G02*
X22012400Y76524600I150000J0D01*
G01*
X23662400Y76524600D01*
G75*
G02*
X23812400Y76374600I0J-150000D01*
G01*
G37*
G36*
G01*
X23812400Y75104600D02*
X23812400Y74804600D01*
G75*
G02*
X23662400Y74654600I-150000J0D01*
G01*
X22012400Y74654600D01*
G75*
G02*
X21862400Y74804600I0J150000D01*
G01*
X21862400Y75104600D01*
G75*
G02*
X22012400Y75254600I150000J0D01*
G01*
X23662400Y75254600D01*
G75*
G02*
X23812400Y75104600I0J-150000D01*
G01*
G37*
G04 #@! TD*
G04 #@! TO.C,C24*
G36*
G01*
X7247400Y10209601D02*
X7927400Y10209601D01*
G75*
G02*
X8012400Y10124601I0J-85000D01*
G01*
X8012400Y9444601D01*
G75*
G02*
X7927400Y9359601I-85000J0D01*
G01*
X7247400Y9359601D01*
G75*
G02*
X7162400Y9444601I0J85000D01*
G01*
X7162400Y10124601D01*
G75*
G02*
X7247400Y10209601I85000J0D01*
G01*
G37*
G36*
G01*
X7247400Y8629599D02*
X7927400Y8629599D01*
G75*
G02*
X8012400Y8544599I0J-85000D01*
G01*
X8012400Y7864599D01*
G75*
G02*
X7927400Y7779599I-85000J0D01*
G01*
X7247400Y7779599D01*
G75*
G02*
X7162400Y7864599I0J85000D01*
G01*
X7162400Y8544599D01*
G75*
G02*
X7247400Y8629599I85000J0D01*
G01*
G37*
G04 #@! TD*
G04 #@! TO.C,R39*
G36*
G01*
X96731778Y77186000D02*
X96731778Y78436000D01*
G75*
G02*
X96831778Y78536000I100000J0D01*
G01*
X97631778Y78536000D01*
G75*
G02*
X97731778Y78436000I0J-100000D01*
G01*
X97731778Y77186000D01*
G75*
G02*
X97631778Y77086000I-100000J0D01*
G01*
X96831778Y77086000D01*
G75*
G02*
X96731778Y77186000I0J100000D01*
G01*
G37*
G36*
G01*
X98631800Y77186000D02*
X98631800Y78436000D01*
G75*
G02*
X98731800Y78536000I100000J0D01*
G01*
X99531800Y78536000D01*
G75*
G02*
X99631800Y78436000I0J-100000D01*
G01*
X99631800Y77186000D01*
G75*
G02*
X99531800Y77086000I-100000J0D01*
G01*
X98731800Y77086000D01*
G75*
G02*
X98631800Y77186000I0J100000D01*
G01*
G37*
G04 #@! TD*
G04 #@! TO.C,Q10*
G36*
G01*
X28787400Y39564600D02*
X28787400Y38864600D01*
G75*
G02*
X28537400Y38614600I-250000J0D01*
G01*
X26837400Y38614600D01*
G75*
G02*
X26587400Y38864600I0J250000D01*
G01*
X26587400Y39564600D01*
G75*
G02*
X26837400Y39814600I250000J0D01*
G01*
X28537400Y39814600D01*
G75*
G02*
X28787400Y39564600I0J-250000D01*
G01*
G37*
G36*
G01*
X24587400Y41094600D02*
X24587400Y38844600D01*
G75*
G02*
X24337400Y38594600I-250000J0D01*
G01*
X21787400Y38594600D01*
G75*
G02*
X21537400Y38844600I0J250000D01*
G01*
X21537400Y41094600D01*
G75*
G02*
X21787400Y41344600I250000J0D01*
G01*
X24337400Y41344600D01*
G75*
G02*
X24587400Y41094600I0J-250000D01*
G01*
G37*
G36*
G01*
X24587400Y44144600D02*
X24587400Y41894600D01*
G75*
G02*
X24337400Y41644600I-250000J0D01*
G01*
X21787400Y41644600D01*
G75*
G02*
X21537400Y41894600I0J250000D01*
G01*
X21537400Y44144600D01*
G75*
G02*
X21787400Y44394600I250000J0D01*
G01*
X24337400Y44394600D01*
G75*
G02*
X24587400Y44144600I0J-250000D01*
G01*
G37*
G36*
G01*
X21237400Y41094600D02*
X21237400Y38844600D01*
G75*
G02*
X20987400Y38594600I-250000J0D01*
G01*
X18437400Y38594600D01*
G75*
G02*
X18187400Y38844600I0J250000D01*
G01*
X18187400Y41094600D01*
G75*
G02*
X18437400Y41344600I250000J0D01*
G01*
X20987400Y41344600D01*
G75*
G02*
X21237400Y41094600I0J-250000D01*
G01*
G37*
G36*
G01*
X21237400Y44144600D02*
X21237400Y41894600D01*
G75*
G02*
X20987400Y41644600I-250000J0D01*
G01*
X18437400Y41644600D01*
G75*
G02*
X18187400Y41894600I0J250000D01*
G01*
X18187400Y44144600D01*
G75*
G02*
X18437400Y44394600I250000J0D01*
G01*
X20987400Y44394600D01*
G75*
G02*
X21237400Y44144600I0J-250000D01*
G01*
G37*
G36*
G01*
X28787400Y44124600D02*
X28787400Y43424600D01*
G75*
G02*
X28537400Y43174600I-250000J0D01*
G01*
X26837400Y43174600D01*
G75*
G02*
X26587400Y43424600I0J250000D01*
G01*
X26587400Y44124600D01*
G75*
G02*
X26837400Y44374600I250000J0D01*
G01*
X28537400Y44374600D01*
G75*
G02*
X28787400Y44124600I0J-250000D01*
G01*
G37*
G04 #@! TD*
G04 #@! TO.C,Q7*
G36*
G01*
X28787400Y60564600D02*
X28787400Y59864600D01*
G75*
G02*
X28537400Y59614600I-250000J0D01*
G01*
X26837400Y59614600D01*
G75*
G02*
X26587400Y59864600I0J250000D01*
G01*
X26587400Y60564600D01*
G75*
G02*
X26837400Y60814600I250000J0D01*
G01*
X28537400Y60814600D01*
G75*
G02*
X28787400Y60564600I0J-250000D01*
G01*
G37*
G36*
G01*
X24587400Y62094600D02*
X24587400Y59844600D01*
G75*
G02*
X24337400Y59594600I-250000J0D01*
G01*
X21787400Y59594600D01*
G75*
G02*
X21537400Y59844600I0J250000D01*
G01*
X21537400Y62094600D01*
G75*
G02*
X21787400Y62344600I250000J0D01*
G01*
X24337400Y62344600D01*
G75*
G02*
X24587400Y62094600I0J-250000D01*
G01*
G37*
G36*
G01*
X24587400Y65144600D02*
X24587400Y62894600D01*
G75*
G02*
X24337400Y62644600I-250000J0D01*
G01*
X21787400Y62644600D01*
G75*
G02*
X21537400Y62894600I0J250000D01*
G01*
X21537400Y65144600D01*
G75*
G02*
X21787400Y65394600I250000J0D01*
G01*
X24337400Y65394600D01*
G75*
G02*
X24587400Y65144600I0J-250000D01*
G01*
G37*
G36*
G01*
X21237400Y62094600D02*
X21237400Y59844600D01*
G75*
G02*
X20987400Y59594600I-250000J0D01*
G01*
X18437400Y59594600D01*
G75*
G02*
X18187400Y59844600I0J250000D01*
G01*
X18187400Y62094600D01*
G75*
G02*
X18437400Y62344600I250000J0D01*
G01*
X20987400Y62344600D01*
G75*
G02*
X21237400Y62094600I0J-250000D01*
G01*
G37*
G36*
G01*
X21237400Y65144600D02*
X21237400Y62894600D01*
G75*
G02*
X20987400Y62644600I-250000J0D01*
G01*
X18437400Y62644600D01*
G75*
G02*
X18187400Y62894600I0J250000D01*
G01*
X18187400Y65144600D01*
G75*
G02*
X18437400Y65394600I250000J0D01*
G01*
X20987400Y65394600D01*
G75*
G02*
X21237400Y65144600I0J-250000D01*
G01*
G37*
G36*
G01*
X28787400Y65124600D02*
X28787400Y64424600D01*
G75*
G02*
X28537400Y64174600I-250000J0D01*
G01*
X26837400Y64174600D01*
G75*
G02*
X26587400Y64424600I0J250000D01*
G01*
X26587400Y65124600D01*
G75*
G02*
X26837400Y65374600I250000J0D01*
G01*
X28537400Y65374600D01*
G75*
G02*
X28787400Y65124600I0J-250000D01*
G01*
G37*
G04 #@! TD*
G04 #@! TO.C,Q8*
G36*
G01*
X28787400Y53564600D02*
X28787400Y52864600D01*
G75*
G02*
X28537400Y52614600I-250000J0D01*
G01*
X26837400Y52614600D01*
G75*
G02*
X26587400Y52864600I0J250000D01*
G01*
X26587400Y53564600D01*
G75*
G02*
X26837400Y53814600I250000J0D01*
G01*
X28537400Y53814600D01*
G75*
G02*
X28787400Y53564600I0J-250000D01*
G01*
G37*
G36*
G01*
X24587400Y55094600D02*
X24587400Y52844600D01*
G75*
G02*
X24337400Y52594600I-250000J0D01*
G01*
X21787400Y52594600D01*
G75*
G02*
X21537400Y52844600I0J250000D01*
G01*
X21537400Y55094600D01*
G75*
G02*
X21787400Y55344600I250000J0D01*
G01*
X24337400Y55344600D01*
G75*
G02*
X24587400Y55094600I0J-250000D01*
G01*
G37*
G36*
G01*
X24587400Y58144600D02*
X24587400Y55894600D01*
G75*
G02*
X24337400Y55644600I-250000J0D01*
G01*
X21787400Y55644600D01*
G75*
G02*
X21537400Y55894600I0J250000D01*
G01*
X21537400Y58144600D01*
G75*
G02*
X21787400Y58394600I250000J0D01*
G01*
X24337400Y58394600D01*
G75*
G02*
X24587400Y58144600I0J-250000D01*
G01*
G37*
G36*
G01*
X21237400Y55094600D02*
X21237400Y52844600D01*
G75*
G02*
X20987400Y52594600I-250000J0D01*
G01*
X18437400Y52594600D01*
G75*
G02*
X18187400Y52844600I0J250000D01*
G01*
X18187400Y55094600D01*
G75*
G02*
X18437400Y55344600I250000J0D01*
G01*
X20987400Y55344600D01*
G75*
G02*
X21237400Y55094600I0J-250000D01*
G01*
G37*
G36*
G01*
X21237400Y58144600D02*
X21237400Y55894600D01*
G75*
G02*
X20987400Y55644600I-250000J0D01*
G01*
X18437400Y55644600D01*
G75*
G02*
X18187400Y55894600I0J250000D01*
G01*
X18187400Y58144600D01*
G75*
G02*
X18437400Y58394600I250000J0D01*
G01*
X20987400Y58394600D01*
G75*
G02*
X21237400Y58144600I0J-250000D01*
G01*
G37*
G36*
G01*
X28787400Y58124600D02*
X28787400Y57424600D01*
G75*
G02*
X28537400Y57174600I-250000J0D01*
G01*
X26837400Y57174600D01*
G75*
G02*
X26587400Y57424600I0J250000D01*
G01*
X26587400Y58124600D01*
G75*
G02*
X26837400Y58374600I250000J0D01*
G01*
X28537400Y58374600D01*
G75*
G02*
X28787400Y58124600I0J-250000D01*
G01*
G37*
G04 #@! TD*
G04 #@! TO.C,C26*
G36*
G01*
X23247400Y6709601D02*
X23927400Y6709601D01*
G75*
G02*
X24012400Y6624601I0J-85000D01*
G01*
X24012400Y5944601D01*
G75*
G02*
X23927400Y5859601I-85000J0D01*
G01*
X23247400Y5859601D01*
G75*
G02*
X23162400Y5944601I0J85000D01*
G01*
X23162400Y6624601D01*
G75*
G02*
X23247400Y6709601I85000J0D01*
G01*
G37*
G36*
G01*
X23247400Y5129599D02*
X23927400Y5129599D01*
G75*
G02*
X24012400Y5044599I0J-85000D01*
G01*
X24012400Y4364599D01*
G75*
G02*
X23927400Y4279599I-85000J0D01*
G01*
X23247400Y4279599D01*
G75*
G02*
X23162400Y4364599I0J85000D01*
G01*
X23162400Y5044599D01*
G75*
G02*
X23247400Y5129599I85000J0D01*
G01*
G37*
G04 #@! TD*
G04 #@! TO.C,R1*
G36*
G01*
X36069897Y80309600D02*
X36069897Y79529600D01*
G75*
G02*
X35999897Y79459600I-70000J0D01*
G01*
X35439897Y79459600D01*
G75*
G02*
X35369897Y79529600I0J70000D01*
G01*
X35369897Y80309600D01*
G75*
G02*
X35439897Y80379600I70000J0D01*
G01*
X35999897Y80379600D01*
G75*
G02*
X36069897Y80309600I0J-70000D01*
G01*
G37*
G36*
G01*
X34469897Y80309600D02*
X34469897Y79529600D01*
G75*
G02*
X34399897Y79459600I-70000J0D01*
G01*
X33839897Y79459600D01*
G75*
G02*
X33769897Y79529600I0J70000D01*
G01*
X33769897Y80309600D01*
G75*
G02*
X33839897Y80379600I70000J0D01*
G01*
X34399897Y80379600D01*
G75*
G02*
X34469897Y80309600I0J-70000D01*
G01*
G37*
G04 #@! TD*
G04 #@! TO.C,C13*
G36*
G01*
X16372400Y16169601D02*
X17052400Y16169601D01*
G75*
G02*
X17137400Y16084601I0J-85000D01*
G01*
X17137400Y15404601D01*
G75*
G02*
X17052400Y15319601I-85000J0D01*
G01*
X16372400Y15319601D01*
G75*
G02*
X16287400Y15404601I0J85000D01*
G01*
X16287400Y16084601D01*
G75*
G02*
X16372400Y16169601I85000J0D01*
G01*
G37*
G36*
G01*
X16372400Y14589599D02*
X17052400Y14589599D01*
G75*
G02*
X17137400Y14504599I0J-85000D01*
G01*
X17137400Y13824599D01*
G75*
G02*
X17052400Y13739599I-85000J0D01*
G01*
X16372400Y13739599D01*
G75*
G02*
X16287400Y13824599I0J85000D01*
G01*
X16287400Y14504599D01*
G75*
G02*
X16372400Y14589599I85000J0D01*
G01*
G37*
G04 #@! TD*
G04 #@! TO.C,F4*
G36*
G01*
X17487400Y18099610D02*
X17487400Y18789610D01*
G75*
G02*
X17717400Y19019610I230000J0D01*
G01*
X19057400Y19019610D01*
G75*
G02*
X19287400Y18789610I0J-230000D01*
G01*
X19287400Y18099610D01*
G75*
G02*
X19057400Y17869610I-230000J0D01*
G01*
X17717400Y17869610D01*
G75*
G02*
X17487400Y18099610I0J230000D01*
G01*
G37*
G36*
G01*
X17487400Y15199590D02*
X17487400Y15889590D01*
G75*
G02*
X17717400Y16119590I230000J0D01*
G01*
X19057400Y16119590D01*
G75*
G02*
X19287400Y15889590I0J-230000D01*
G01*
X19287400Y15199590D01*
G75*
G02*
X19057400Y14969590I-230000J0D01*
G01*
X17717400Y14969590D01*
G75*
G02*
X17487400Y15199590I0J230000D01*
G01*
G37*
G04 #@! TD*
G04 #@! TO.C,R37*
G36*
G01*
X93281778Y74686000D02*
X93281778Y75936000D01*
G75*
G02*
X93381778Y76036000I100000J0D01*
G01*
X94181778Y76036000D01*
G75*
G02*
X94281778Y75936000I0J-100000D01*
G01*
X94281778Y74686000D01*
G75*
G02*
X94181778Y74586000I-100000J0D01*
G01*
X93381778Y74586000D01*
G75*
G02*
X93281778Y74686000I0J100000D01*
G01*
G37*
G36*
G01*
X95181800Y74686000D02*
X95181800Y75936000D01*
G75*
G02*
X95281800Y76036000I100000J0D01*
G01*
X96081800Y76036000D01*
G75*
G02*
X96181800Y75936000I0J-100000D01*
G01*
X96181800Y74686000D01*
G75*
G02*
X96081800Y74586000I-100000J0D01*
G01*
X95281800Y74586000D01*
G75*
G02*
X95181800Y74686000I0J100000D01*
G01*
G37*
G04 #@! TD*
G04 #@! TO.C,C11*
G36*
G01*
X1247400Y18509601D02*
X1927400Y18509601D01*
G75*
G02*
X2012400Y18424601I0J-85000D01*
G01*
X2012400Y17744601D01*
G75*
G02*
X1927400Y17659601I-85000J0D01*
G01*
X1247400Y17659601D01*
G75*
G02*
X1162400Y17744601I0J85000D01*
G01*
X1162400Y18424601D01*
G75*
G02*
X1247400Y18509601I85000J0D01*
G01*
G37*
G36*
G01*
X1247400Y16929599D02*
X1927400Y16929599D01*
G75*
G02*
X2012400Y16844599I0J-85000D01*
G01*
X2012400Y16164599D01*
G75*
G02*
X1927400Y16079599I-85000J0D01*
G01*
X1247400Y16079599D01*
G75*
G02*
X1162400Y16164599I0J85000D01*
G01*
X1162400Y16844599D01*
G75*
G02*
X1247400Y16929599I85000J0D01*
G01*
G37*
G04 #@! TD*
G04 #@! TO.C,R10*
G36*
G01*
X29737400Y72834600D02*
X29737400Y72054600D01*
G75*
G02*
X29667400Y71984600I-70000J0D01*
G01*
X29107400Y71984600D01*
G75*
G02*
X29037400Y72054600I0J70000D01*
G01*
X29037400Y72834600D01*
G75*
G02*
X29107400Y72904600I70000J0D01*
G01*
X29667400Y72904600D01*
G75*
G02*
X29737400Y72834600I0J-70000D01*
G01*
G37*
G36*
G01*
X28137400Y72834600D02*
X28137400Y72054600D01*
G75*
G02*
X28067400Y71984600I-70000J0D01*
G01*
X27507400Y71984600D01*
G75*
G02*
X27437400Y72054600I0J70000D01*
G01*
X27437400Y72834600D01*
G75*
G02*
X27507400Y72904600I70000J0D01*
G01*
X28067400Y72904600D01*
G75*
G02*
X28137400Y72834600I0J-70000D01*
G01*
G37*
G04 #@! TD*
G04 #@! TO.C,F3*
G36*
G01*
X19687400Y18099610D02*
X19687400Y18789610D01*
G75*
G02*
X19917400Y19019610I230000J0D01*
G01*
X21257400Y19019610D01*
G75*
G02*
X21487400Y18789610I0J-230000D01*
G01*
X21487400Y18099610D01*
G75*
G02*
X21257400Y17869610I-230000J0D01*
G01*
X19917400Y17869610D01*
G75*
G02*
X19687400Y18099610I0J230000D01*
G01*
G37*
G36*
G01*
X19687400Y15199590D02*
X19687400Y15889590D01*
G75*
G02*
X19917400Y16119590I230000J0D01*
G01*
X21257400Y16119590D01*
G75*
G02*
X21487400Y15889590I0J-230000D01*
G01*
X21487400Y15199590D01*
G75*
G02*
X21257400Y14969590I-230000J0D01*
G01*
X19917400Y14969590D01*
G75*
G02*
X19687400Y15199590I0J230000D01*
G01*
G37*
G04 #@! TD*
G04 #@! TO.C,C25*
G36*
G01*
X7927400Y4279599D02*
X7247400Y4279599D01*
G75*
G02*
X7162400Y4364599I0J85000D01*
G01*
X7162400Y5044599D01*
G75*
G02*
X7247400Y5129599I85000J0D01*
G01*
X7927400Y5129599D01*
G75*
G02*
X8012400Y5044599I0J-85000D01*
G01*
X8012400Y4364599D01*
G75*
G02*
X7927400Y4279599I-85000J0D01*
G01*
G37*
G36*
G01*
X7927400Y5859601D02*
X7247400Y5859601D01*
G75*
G02*
X7162400Y5944601I0J85000D01*
G01*
X7162400Y6624601D01*
G75*
G02*
X7247400Y6709601I85000J0D01*
G01*
X7927400Y6709601D01*
G75*
G02*
X8012400Y6624601I0J-85000D01*
G01*
X8012400Y5944601D01*
G75*
G02*
X7927400Y5859601I-85000J0D01*
G01*
G37*
G04 #@! TD*
G04 #@! TO.C,Q12*
G36*
G01*
X28787400Y25564600D02*
X28787400Y24864600D01*
G75*
G02*
X28537400Y24614600I-250000J0D01*
G01*
X26837400Y24614600D01*
G75*
G02*
X26587400Y24864600I0J250000D01*
G01*
X26587400Y25564600D01*
G75*
G02*
X26837400Y25814600I250000J0D01*
G01*
X28537400Y25814600D01*
G75*
G02*
X28787400Y25564600I0J-250000D01*
G01*
G37*
G36*
G01*
X24587400Y27094600D02*
X24587400Y24844600D01*
G75*
G02*
X24337400Y24594600I-250000J0D01*
G01*
X21787400Y24594600D01*
G75*
G02*
X21537400Y24844600I0J250000D01*
G01*
X21537400Y27094600D01*
G75*
G02*
X21787400Y27344600I250000J0D01*
G01*
X24337400Y27344600D01*
G75*
G02*
X24587400Y27094600I0J-250000D01*
G01*
G37*
G36*
G01*
X24587400Y30144600D02*
X24587400Y27894600D01*
G75*
G02*
X24337400Y27644600I-250000J0D01*
G01*
X21787400Y27644600D01*
G75*
G02*
X21537400Y27894600I0J250000D01*
G01*
X21537400Y30144600D01*
G75*
G02*
X21787400Y30394600I250000J0D01*
G01*
X24337400Y30394600D01*
G75*
G02*
X24587400Y30144600I0J-250000D01*
G01*
G37*
G36*
G01*
X21237400Y27094600D02*
X21237400Y24844600D01*
G75*
G02*
X20987400Y24594600I-250000J0D01*
G01*
X18437400Y24594600D01*
G75*
G02*
X18187400Y24844600I0J250000D01*
G01*
X18187400Y27094600D01*
G75*
G02*
X18437400Y27344600I250000J0D01*
G01*
X20987400Y27344600D01*
G75*
G02*
X21237400Y27094600I0J-250000D01*
G01*
G37*
G36*
G01*
X21237400Y30144600D02*
X21237400Y27894600D01*
G75*
G02*
X20987400Y27644600I-250000J0D01*
G01*
X18437400Y27644600D01*
G75*
G02*
X18187400Y27894600I0J250000D01*
G01*
X18187400Y30144600D01*
G75*
G02*
X18437400Y30394600I250000J0D01*
G01*
X20987400Y30394600D01*
G75*
G02*
X21237400Y30144600I0J-250000D01*
G01*
G37*
G36*
G01*
X28787400Y30124600D02*
X28787400Y29424600D01*
G75*
G02*
X28537400Y29174600I-250000J0D01*
G01*
X26837400Y29174600D01*
G75*
G02*
X26587400Y29424600I0J250000D01*
G01*
X26587400Y30124600D01*
G75*
G02*
X26837400Y30374600I250000J0D01*
G01*
X28537400Y30374600D01*
G75*
G02*
X28787400Y30124600I0J-250000D01*
G01*
G37*
G04 #@! TD*
D10*
G04 #@! TO.C,M7*
X30887403Y48294599D03*
G04 #@! TD*
G04 #@! TO.C,R9*
G36*
G01*
X16322400Y19104600D02*
X17102400Y19104600D01*
G75*
G02*
X17172400Y19034600I0J-70000D01*
G01*
X17172400Y18474600D01*
G75*
G02*
X17102400Y18404600I-70000J0D01*
G01*
X16322400Y18404600D01*
G75*
G02*
X16252400Y18474600I0J70000D01*
G01*
X16252400Y19034600D01*
G75*
G02*
X16322400Y19104600I70000J0D01*
G01*
G37*
G36*
G01*
X16322400Y17504600D02*
X17102400Y17504600D01*
G75*
G02*
X17172400Y17434600I0J-70000D01*
G01*
X17172400Y16874600D01*
G75*
G02*
X17102400Y16804600I-70000J0D01*
G01*
X16322400Y16804600D01*
G75*
G02*
X16252400Y16874600I0J70000D01*
G01*
X16252400Y17434600D01*
G75*
G02*
X16322400Y17504600I70000J0D01*
G01*
G37*
G04 #@! TD*
G04 #@! TO.C,Q9*
G36*
G01*
X28787400Y46564600D02*
X28787400Y45864600D01*
G75*
G02*
X28537400Y45614600I-250000J0D01*
G01*
X26837400Y45614600D01*
G75*
G02*
X26587400Y45864600I0J250000D01*
G01*
X26587400Y46564600D01*
G75*
G02*
X26837400Y46814600I250000J0D01*
G01*
X28537400Y46814600D01*
G75*
G02*
X28787400Y46564600I0J-250000D01*
G01*
G37*
G36*
G01*
X24587400Y48094600D02*
X24587400Y45844600D01*
G75*
G02*
X24337400Y45594600I-250000J0D01*
G01*
X21787400Y45594600D01*
G75*
G02*
X21537400Y45844600I0J250000D01*
G01*
X21537400Y48094600D01*
G75*
G02*
X21787400Y48344600I250000J0D01*
G01*
X24337400Y48344600D01*
G75*
G02*
X24587400Y48094600I0J-250000D01*
G01*
G37*
G36*
G01*
X24587400Y51144600D02*
X24587400Y48894600D01*
G75*
G02*
X24337400Y48644600I-250000J0D01*
G01*
X21787400Y48644600D01*
G75*
G02*
X21537400Y48894600I0J250000D01*
G01*
X21537400Y51144600D01*
G75*
G02*
X21787400Y51394600I250000J0D01*
G01*
X24337400Y51394600D01*
G75*
G02*
X24587400Y51144600I0J-250000D01*
G01*
G37*
G36*
G01*
X21237400Y48094600D02*
X21237400Y45844600D01*
G75*
G02*
X20987400Y45594600I-250000J0D01*
G01*
X18437400Y45594600D01*
G75*
G02*
X18187400Y45844600I0J250000D01*
G01*
X18187400Y48094600D01*
G75*
G02*
X18437400Y48344600I250000J0D01*
G01*
X20987400Y48344600D01*
G75*
G02*
X21237400Y48094600I0J-250000D01*
G01*
G37*
G36*
G01*
X21237400Y51144600D02*
X21237400Y48894600D01*
G75*
G02*
X20987400Y48644600I-250000J0D01*
G01*
X18437400Y48644600D01*
G75*
G02*
X18187400Y48894600I0J250000D01*
G01*
X18187400Y51144600D01*
G75*
G02*
X18437400Y51394600I250000J0D01*
G01*
X20987400Y51394600D01*
G75*
G02*
X21237400Y51144600I0J-250000D01*
G01*
G37*
G36*
G01*
X28787400Y51124600D02*
X28787400Y50424600D01*
G75*
G02*
X28537400Y50174600I-250000J0D01*
G01*
X26837400Y50174600D01*
G75*
G02*
X26587400Y50424600I0J250000D01*
G01*
X26587400Y51124600D01*
G75*
G02*
X26837400Y51374600I250000J0D01*
G01*
X28537400Y51374600D01*
G75*
G02*
X28787400Y51124600I0J-250000D01*
G01*
G37*
G04 #@! TD*
D11*
G04 #@! TO.C,U5*
X98987400Y14794600D03*
X98987400Y16294600D03*
X98987400Y17794600D03*
X98987400Y19294600D03*
X98987400Y20794600D03*
X98987400Y22294600D03*
X98987400Y23794600D03*
X98987400Y25294600D03*
X98987400Y26794600D03*
X98987400Y28294600D03*
X98987400Y29794600D03*
X98987400Y31294600D03*
X98987400Y32794600D03*
X86287400Y32794600D03*
X86287400Y31294600D03*
X86287400Y29794600D03*
X86287400Y28294600D03*
X86287400Y26794600D03*
X86287400Y25294600D03*
X86287400Y23794600D03*
X86287400Y22294600D03*
X86287400Y20794600D03*
X86287400Y19294600D03*
X86287400Y17794600D03*
X86287400Y16294600D03*
X86287400Y14794600D03*
G04 #@! TD*
G04 #@! TO.C,R35*
G36*
G01*
X93281778Y79686000D02*
X93281778Y80936000D01*
G75*
G02*
X93381778Y81036000I100000J0D01*
G01*
X94181778Y81036000D01*
G75*
G02*
X94281778Y80936000I0J-100000D01*
G01*
X94281778Y79686000D01*
G75*
G02*
X94181778Y79586000I-100000J0D01*
G01*
X93381778Y79586000D01*
G75*
G02*
X93281778Y79686000I0J100000D01*
G01*
G37*
G36*
G01*
X95181800Y79686000D02*
X95181800Y80936000D01*
G75*
G02*
X95281800Y81036000I100000J0D01*
G01*
X96081800Y81036000D01*
G75*
G02*
X96181800Y80936000I0J-100000D01*
G01*
X96181800Y79686000D01*
G75*
G02*
X96081800Y79586000I-100000J0D01*
G01*
X95281800Y79586000D01*
G75*
G02*
X95181800Y79686000I0J100000D01*
G01*
G37*
G04 #@! TD*
G04 #@! TO.C,F1*
G36*
G01*
X21887400Y18099610D02*
X21887400Y18789610D01*
G75*
G02*
X22117400Y19019610I230000J0D01*
G01*
X23457400Y19019610D01*
G75*
G02*
X23687400Y18789610I0J-230000D01*
G01*
X23687400Y18099610D01*
G75*
G02*
X23457400Y17869610I-230000J0D01*
G01*
X22117400Y17869610D01*
G75*
G02*
X21887400Y18099610I0J230000D01*
G01*
G37*
G36*
G01*
X21887400Y15199590D02*
X21887400Y15889590D01*
G75*
G02*
X22117400Y16119590I230000J0D01*
G01*
X23457400Y16119590D01*
G75*
G02*
X23687400Y15889590I0J-230000D01*
G01*
X23687400Y15199590D01*
G75*
G02*
X23457400Y14969590I-230000J0D01*
G01*
X22117400Y14969590D01*
G75*
G02*
X21887400Y15199590I0J230000D01*
G01*
G37*
G04 #@! TD*
G04 #@! TO.C,R4*
G36*
G01*
X42837009Y6014210D02*
X44087009Y6014210D01*
G75*
G02*
X44187009Y5914210I0J-100000D01*
G01*
X44187009Y5114210D01*
G75*
G02*
X44087009Y5014210I-100000J0D01*
G01*
X42837009Y5014210D01*
G75*
G02*
X42737009Y5114210I0J100000D01*
G01*
X42737009Y5914210D01*
G75*
G02*
X42837009Y6014210I100000J0D01*
G01*
G37*
G36*
G01*
X42837009Y4114188D02*
X44087009Y4114188D01*
G75*
G02*
X44187009Y4014188I0J-100000D01*
G01*
X44187009Y3214188D01*
G75*
G02*
X44087009Y3114188I-100000J0D01*
G01*
X42837009Y3114188D01*
G75*
G02*
X42737009Y3214188I0J100000D01*
G01*
X42737009Y4014188D01*
G75*
G02*
X42837009Y4114188I100000J0D01*
G01*
G37*
G04 #@! TD*
G04 #@! TO.C,R11*
G36*
G01*
X29797400Y79494600D02*
X30577400Y79494600D01*
G75*
G02*
X30647400Y79424600I0J-70000D01*
G01*
X30647400Y78864600D01*
G75*
G02*
X30577400Y78794600I-70000J0D01*
G01*
X29797400Y78794600D01*
G75*
G02*
X29727400Y78864600I0J70000D01*
G01*
X29727400Y79424600D01*
G75*
G02*
X29797400Y79494600I70000J0D01*
G01*
G37*
G36*
G01*
X29797400Y77894600D02*
X30577400Y77894600D01*
G75*
G02*
X30647400Y77824600I0J-70000D01*
G01*
X30647400Y77264600D01*
G75*
G02*
X30577400Y77194600I-70000J0D01*
G01*
X29797400Y77194600D01*
G75*
G02*
X29727400Y77264600I0J70000D01*
G01*
X29727400Y77824600D01*
G75*
G02*
X29797400Y77894600I70000J0D01*
G01*
G37*
G04 #@! TD*
G04 #@! TO.C,D3*
G36*
G01*
X19497400Y74394600D02*
X18477400Y74394600D01*
G75*
G02*
X18387400Y74484600I0J90000D01*
G01*
X18387400Y75204600D01*
G75*
G02*
X18477400Y75294600I90000J0D01*
G01*
X19497400Y75294600D01*
G75*
G02*
X19587400Y75204600I0J-90000D01*
G01*
X19587400Y74484600D01*
G75*
G02*
X19497400Y74394600I-90000J0D01*
G01*
G37*
G36*
G01*
X19497400Y77694600D02*
X18477400Y77694600D01*
G75*
G02*
X18387400Y77784600I0J90000D01*
G01*
X18387400Y78504600D01*
G75*
G02*
X18477400Y78594600I90000J0D01*
G01*
X19497400Y78594600D01*
G75*
G02*
X19587400Y78504600I0J-90000D01*
G01*
X19587400Y77784600D01*
G75*
G02*
X19497400Y77694600I-90000J0D01*
G01*
G37*
G04 #@! TD*
G04 #@! TO.C,R38*
G36*
G01*
X96731778Y79686000D02*
X96731778Y80936000D01*
G75*
G02*
X96831778Y81036000I100000J0D01*
G01*
X97631778Y81036000D01*
G75*
G02*
X97731778Y80936000I0J-100000D01*
G01*
X97731778Y79686000D01*
G75*
G02*
X97631778Y79586000I-100000J0D01*
G01*
X96831778Y79586000D01*
G75*
G02*
X96731778Y79686000I0J100000D01*
G01*
G37*
G36*
G01*
X98631800Y79686000D02*
X98631800Y80936000D01*
G75*
G02*
X98731800Y81036000I100000J0D01*
G01*
X99531800Y81036000D01*
G75*
G02*
X99631800Y80936000I0J-100000D01*
G01*
X99631800Y79686000D01*
G75*
G02*
X99531800Y79586000I-100000J0D01*
G01*
X98731800Y79586000D01*
G75*
G02*
X98631800Y79686000I0J100000D01*
G01*
G37*
G04 #@! TD*
G04 #@! TO.C,R36*
G36*
G01*
X93281778Y77186000D02*
X93281778Y78436000D01*
G75*
G02*
X93381778Y78536000I100000J0D01*
G01*
X94181778Y78536000D01*
G75*
G02*
X94281778Y78436000I0J-100000D01*
G01*
X94281778Y77186000D01*
G75*
G02*
X94181778Y77086000I-100000J0D01*
G01*
X93381778Y77086000D01*
G75*
G02*
X93281778Y77186000I0J100000D01*
G01*
G37*
G36*
G01*
X95181800Y77186000D02*
X95181800Y78436000D01*
G75*
G02*
X95281800Y78536000I100000J0D01*
G01*
X96081800Y78536000D01*
G75*
G02*
X96181800Y78436000I0J-100000D01*
G01*
X96181800Y77186000D01*
G75*
G02*
X96081800Y77086000I-100000J0D01*
G01*
X95281800Y77086000D01*
G75*
G02*
X95181800Y77186000I0J100000D01*
G01*
G37*
G04 #@! TD*
D12*
G04 #@! TO.C,U1*
X7862400Y20414600D03*
X7862400Y18954600D03*
X7862400Y17494600D03*
X7862400Y16034600D03*
X7862400Y14574600D03*
X10112400Y20414600D03*
X10112400Y18954600D03*
X10112400Y17494600D03*
X10112400Y16034600D03*
X10112400Y14574600D03*
D13*
X4187400Y19994600D03*
X4187400Y18994600D03*
X4187400Y17994600D03*
X4187400Y16994600D03*
X4187400Y15994600D03*
X4187400Y14994600D03*
X13787400Y14994600D03*
X13787400Y15994600D03*
X13787400Y16994600D03*
X13787400Y17994600D03*
X13787400Y18994600D03*
X13787400Y19994600D03*
G04 #@! TD*
D12*
G04 #@! TO.C,U2*
X14487400Y10954600D03*
X14487400Y9494600D03*
X14487400Y8034600D03*
X14487400Y6574600D03*
X14487400Y5114600D03*
X16737400Y10954600D03*
X16737400Y9494600D03*
X16737400Y8034600D03*
X16737400Y6574600D03*
X16737400Y5114600D03*
D13*
X10812400Y10534600D03*
X10812400Y9534600D03*
X10812400Y8534600D03*
X10812400Y7534600D03*
X10812400Y6534600D03*
X10812400Y5534600D03*
X20412400Y5534600D03*
X20412400Y6534600D03*
X20412400Y7534600D03*
X20412400Y8534600D03*
X20412400Y9534600D03*
X20412400Y10534600D03*
G04 #@! TD*
G04 #@! TO.C,Q11*
G36*
G01*
X28787400Y32564600D02*
X28787400Y31864600D01*
G75*
G02*
X28537400Y31614600I-250000J0D01*
G01*
X26837400Y31614600D01*
G75*
G02*
X26587400Y31864600I0J250000D01*
G01*
X26587400Y32564600D01*
G75*
G02*
X26837400Y32814600I250000J0D01*
G01*
X28537400Y32814600D01*
G75*
G02*
X28787400Y32564600I0J-250000D01*
G01*
G37*
G36*
G01*
X24587400Y34094600D02*
X24587400Y31844600D01*
G75*
G02*
X24337400Y31594600I-250000J0D01*
G01*
X21787400Y31594600D01*
G75*
G02*
X21537400Y31844600I0J250000D01*
G01*
X21537400Y34094600D01*
G75*
G02*
X21787400Y34344600I250000J0D01*
G01*
X24337400Y34344600D01*
G75*
G02*
X24587400Y34094600I0J-250000D01*
G01*
G37*
G36*
G01*
X24587400Y37144600D02*
X24587400Y34894600D01*
G75*
G02*
X24337400Y34644600I-250000J0D01*
G01*
X21787400Y34644600D01*
G75*
G02*
X21537400Y34894600I0J250000D01*
G01*
X21537400Y37144600D01*
G75*
G02*
X21787400Y37394600I250000J0D01*
G01*
X24337400Y37394600D01*
G75*
G02*
X24587400Y37144600I0J-250000D01*
G01*
G37*
G36*
G01*
X21237400Y34094600D02*
X21237400Y31844600D01*
G75*
G02*
X20987400Y31594600I-250000J0D01*
G01*
X18437400Y31594600D01*
G75*
G02*
X18187400Y31844600I0J250000D01*
G01*
X18187400Y34094600D01*
G75*
G02*
X18437400Y34344600I250000J0D01*
G01*
X20987400Y34344600D01*
G75*
G02*
X21237400Y34094600I0J-250000D01*
G01*
G37*
G36*
G01*
X21237400Y37144600D02*
X21237400Y34894600D01*
G75*
G02*
X20987400Y34644600I-250000J0D01*
G01*
X18437400Y34644600D01*
G75*
G02*
X18187400Y34894600I0J250000D01*
G01*
X18187400Y37144600D01*
G75*
G02*
X18437400Y37394600I250000J0D01*
G01*
X20987400Y37394600D01*
G75*
G02*
X21237400Y37144600I0J-250000D01*
G01*
G37*
G36*
G01*
X28787400Y37124600D02*
X28787400Y36424600D01*
G75*
G02*
X28537400Y36174600I-250000J0D01*
G01*
X26837400Y36174600D01*
G75*
G02*
X26587400Y36424600I0J250000D01*
G01*
X26587400Y37124600D01*
G75*
G02*
X26837400Y37374600I250000J0D01*
G01*
X28537400Y37374600D01*
G75*
G02*
X28787400Y37124600I0J-250000D01*
G01*
G37*
G04 #@! TD*
D14*
G04 #@! TO.C,J9*
X46637400Y7664600D03*
X47437400Y7664600D03*
X48737400Y7664600D03*
X49737400Y7664600D03*
X50237400Y7664600D03*
X51237400Y7664600D03*
X52537400Y7664600D03*
X53337400Y7664600D03*
X53037400Y7664600D03*
X52237400Y7664600D03*
X51737400Y7664600D03*
X50737400Y7664600D03*
X49237400Y7664600D03*
X48237400Y7664600D03*
X47737400Y7664600D03*
X46937400Y7664600D03*
G04 #@! TD*
G04 #@! TO.C,F2*
G36*
G01*
X19882390Y21694600D02*
X19192390Y21694600D01*
G75*
G02*
X18962390Y21924600I0J230000D01*
G01*
X18962390Y23264600D01*
G75*
G02*
X19192390Y23494600I230000J0D01*
G01*
X19882390Y23494600D01*
G75*
G02*
X20112390Y23264600I0J-230000D01*
G01*
X20112390Y21924600D01*
G75*
G02*
X19882390Y21694600I-230000J0D01*
G01*
G37*
G36*
G01*
X22782410Y21694600D02*
X22092410Y21694600D01*
G75*
G02*
X21862410Y21924600I0J230000D01*
G01*
X21862410Y23264600D01*
G75*
G02*
X22092410Y23494600I230000J0D01*
G01*
X22782410Y23494600D01*
G75*
G02*
X23012410Y23264600I0J-230000D01*
G01*
X23012410Y21924600D01*
G75*
G02*
X22782410Y21694600I-230000J0D01*
G01*
G37*
G04 #@! TD*
G04 #@! TO.C,D5*
G36*
G01*
X19497400Y66894600D02*
X18477400Y66894600D01*
G75*
G02*
X18387400Y66984600I0J90000D01*
G01*
X18387400Y67704600D01*
G75*
G02*
X18477400Y67794600I90000J0D01*
G01*
X19497400Y67794600D01*
G75*
G02*
X19587400Y67704600I0J-90000D01*
G01*
X19587400Y66984600D01*
G75*
G02*
X19497400Y66894600I-90000J0D01*
G01*
G37*
G36*
G01*
X19497400Y70194600D02*
X18477400Y70194600D01*
G75*
G02*
X18387400Y70284600I0J90000D01*
G01*
X18387400Y71004600D01*
G75*
G02*
X18477400Y71094600I90000J0D01*
G01*
X19497400Y71094600D01*
G75*
G02*
X19587400Y71004600I0J-90000D01*
G01*
X19587400Y70284600D01*
G75*
G02*
X19497400Y70194600I-90000J0D01*
G01*
G37*
G04 #@! TD*
G04 #@! TO.C,R14*
G36*
G01*
X23197400Y9544600D02*
X23977400Y9544600D01*
G75*
G02*
X24047400Y9474600I0J-70000D01*
G01*
X24047400Y8914600D01*
G75*
G02*
X23977400Y8844600I-70000J0D01*
G01*
X23197400Y8844600D01*
G75*
G02*
X23127400Y8914600I0J70000D01*
G01*
X23127400Y9474600D01*
G75*
G02*
X23197400Y9544600I70000J0D01*
G01*
G37*
G36*
G01*
X23197400Y7944600D02*
X23977400Y7944600D01*
G75*
G02*
X24047400Y7874600I0J-70000D01*
G01*
X24047400Y7314600D01*
G75*
G02*
X23977400Y7244600I-70000J0D01*
G01*
X23197400Y7244600D01*
G75*
G02*
X23127400Y7314600I0J70000D01*
G01*
X23127400Y7874600D01*
G75*
G02*
X23197400Y7944600I70000J0D01*
G01*
G37*
G04 #@! TD*
D15*
G04 #@! TO.C,U3*
X70310650Y68937100D03*
X70310650Y59094600D03*
X69040650Y59094600D03*
X67770650Y59094600D03*
X66500650Y59094600D03*
X66500650Y68937100D03*
X67770650Y68937100D03*
X69040650Y68937100D03*
G04 #@! TD*
G04 #@! TO.C,C12*
G36*
G01*
X1927400Y12979599D02*
X1247400Y12979599D01*
G75*
G02*
X1162400Y13064599I0J85000D01*
G01*
X1162400Y13744599D01*
G75*
G02*
X1247400Y13829599I85000J0D01*
G01*
X1927400Y13829599D01*
G75*
G02*
X2012400Y13744599I0J-85000D01*
G01*
X2012400Y13064599D01*
G75*
G02*
X1927400Y12979599I-85000J0D01*
G01*
G37*
G36*
G01*
X1927400Y14559601D02*
X1247400Y14559601D01*
G75*
G02*
X1162400Y14644601I0J85000D01*
G01*
X1162400Y15324601D01*
G75*
G02*
X1247400Y15409601I85000J0D01*
G01*
X1927400Y15409601D01*
G75*
G02*
X2012400Y15324601I0J-85000D01*
G01*
X2012400Y14644601D01*
G75*
G02*
X1927400Y14559601I-85000J0D01*
G01*
G37*
G04 #@! TD*
M02*
