G75*
G70*
%OFA0B0*%
%FSLAX25Y25*%
%IPPOS*%
%LPD*%
%AMOC8*
5,1,8,0,0,1.08239X$1,22.5*
%
%AMM116*
21,1,0.027170,0.052760,0.000000,-0.000000,180.000000*
21,1,0.017320,0.062600,0.000000,-0.000000,180.000000*
1,1,0.009840,-0.008660,0.026380*
1,1,0.009840,0.008660,0.026380*
1,1,0.009840,0.008660,-0.026380*
1,1,0.009840,-0.008660,-0.026380*
%
%AMM14*
21,1,0.092130,0.073230,0.000000,0.000000,270.000000*
21,1,0.069290,0.096060,0.000000,0.000000,270.000000*
1,1,0.022840,-0.036610,-0.034650*
1,1,0.022840,-0.036610,0.034650*
1,1,0.022840,0.036610,0.034650*
1,1,0.022840,0.036610,-0.034650*
%
%AMM15*
21,1,0.100000,0.111020,0.000000,0.000000,0.000000*
21,1,0.075590,0.135430,0.000000,0.000000,0.000000*
1,1,0.024410,0.037800,-0.055510*
1,1,0.024410,-0.037800,-0.055510*
1,1,0.024410,-0.037800,0.055510*
1,1,0.024410,0.037800,0.055510*
%
%AMM16*
21,1,0.080320,0.083460,0.000000,0.000000,0.000000*
21,1,0.059840,0.103940,0.000000,0.000000,0.000000*
1,1,0.020470,0.029920,-0.041730*
1,1,0.020470,-0.029920,-0.041730*
1,1,0.020470,-0.029920,0.041730*
1,1,0.020470,0.029920,0.041730*
%
%AMM17*
21,1,0.084250,0.053540,0.000000,0.000000,180.000000*
21,1,0.065350,0.072440,0.000000,0.000000,180.000000*
1,1,0.018900,-0.032680,0.026770*
1,1,0.018900,0.032680,0.026770*
1,1,0.018900,0.032680,-0.026770*
1,1,0.018900,-0.032680,-0.026770*
%
%AMM18*
21,1,0.040950,0.030320,0.000000,0.000000,90.000000*
21,1,0.028350,0.042910,0.000000,0.000000,90.000000*
1,1,0.012600,0.015160,0.014170*
1,1,0.012600,0.015160,-0.014170*
1,1,0.012600,-0.015160,-0.014170*
1,1,0.012600,-0.015160,0.014170*
%
%AMM19*
21,1,0.027170,0.052760,0.000000,0.000000,270.000000*
21,1,0.017320,0.062600,0.000000,0.000000,270.000000*
1,1,0.009840,-0.026380,-0.008660*
1,1,0.009840,-0.026380,0.008660*
1,1,0.009840,0.026380,0.008660*
1,1,0.009840,0.026380,-0.008660*
%
%AMM199*
21,1,0.029530,0.026380,-0.000000,-0.000000,90.000000*
21,1,0.020470,0.035430,-0.000000,-0.000000,90.000000*
1,1,0.009060,0.013190,0.010240*
1,1,0.009060,0.013190,-0.010240*
1,1,0.009060,-0.013190,-0.010240*
1,1,0.009060,-0.013190,0.010240*
%
%AMM20*
21,1,0.041340,0.026770,0.000000,0.000000,0.000000*
21,1,0.029130,0.038980,0.000000,0.000000,0.000000*
1,1,0.012210,0.014570,-0.013390*
1,1,0.012210,-0.014570,-0.013390*
1,1,0.012210,-0.014570,0.013390*
1,1,0.012210,0.014570,0.013390*
%
%AMM200*
21,1,0.021650,0.027950,-0.000000,-0.000000,90.000000*
21,1,0.014170,0.035430,-0.000000,-0.000000,90.000000*
1,1,0.007480,0.013980,0.007090*
1,1,0.007480,0.013980,-0.007090*
1,1,0.007480,-0.013980,-0.007090*
1,1,0.007480,-0.013980,0.007090*
%
%AMM201*
21,1,0.016540,0.028980,-0.000000,-0.000000,270.000000*
21,1,0.010080,0.035430,-0.000000,-0.000000,270.000000*
1,1,0.006460,-0.014490,-0.005040*
1,1,0.006460,-0.014490,0.005040*
1,1,0.006460,0.014490,0.005040*
1,1,0.006460,0.014490,-0.005040*
%
%AMM202*
21,1,0.027560,0.030710,-0.000000,-0.000000,0.000000*
21,1,0.018900,0.039370,-0.000000,-0.000000,0.000000*
1,1,0.008660,0.009450,-0.015350*
1,1,0.008660,-0.009450,-0.015350*
1,1,0.008660,-0.009450,0.015350*
1,1,0.008660,0.009450,0.015350*
%
%AMM203*
21,1,0.031500,0.018900,-0.000000,-0.000000,270.000000*
21,1,0.022840,0.027560,-0.000000,-0.000000,270.000000*
1,1,0.008660,-0.009450,-0.011420*
1,1,0.008660,-0.009450,0.011420*
1,1,0.008660,0.009450,0.011420*
1,1,0.008660,0.009450,-0.011420*
%
%AMM204*
21,1,0.035430,0.072440,-0.000000,-0.000000,270.000000*
21,1,0.025200,0.082680,-0.000000,-0.000000,270.000000*
1,1,0.010240,-0.036220,-0.012600*
1,1,0.010240,-0.036220,0.012600*
1,1,0.010240,0.036220,0.012600*
1,1,0.010240,0.036220,-0.012600*
%
%AMM205*
21,1,0.031500,0.018900,-0.000000,-0.000000,0.000000*
21,1,0.022840,0.027560,-0.000000,-0.000000,0.000000*
1,1,0.008660,0.011420,-0.009450*
1,1,0.008660,-0.011420,-0.009450*
1,1,0.008660,-0.011420,0.009450*
1,1,0.008660,0.011420,0.009450*
%
%AMM206*
21,1,0.027560,0.030710,-0.000000,-0.000000,90.000000*
21,1,0.018900,0.039370,-0.000000,-0.000000,90.000000*
1,1,0.008660,0.015350,0.009450*
1,1,0.008660,0.015350,-0.009450*
1,1,0.008660,-0.015350,-0.009450*
1,1,0.008660,-0.015350,0.009450*
%
%AMM207*
21,1,0.039370,0.030320,-0.000000,-0.000000,90.000000*
21,1,0.028350,0.041340,-0.000000,-0.000000,90.000000*
1,1,0.011020,0.015160,0.014170*
1,1,0.011020,0.015160,-0.014170*
1,1,0.011020,-0.015160,-0.014170*
1,1,0.011020,-0.015160,0.014170*
%
%AMM208*
21,1,0.047240,0.075980,-0.000000,-0.000000,180.000000*
21,1,0.034650,0.088580,-0.000000,-0.000000,180.000000*
1,1,0.012600,-0.017320,0.037990*
1,1,0.012600,0.017320,0.037990*
1,1,0.012600,0.017320,-0.037990*
1,1,0.012600,-0.017320,-0.037990*
%
%AMM209*
21,1,0.043310,0.035430,-0.000000,-0.000000,180.000000*
21,1,0.031500,0.047240,-0.000000,-0.000000,180.000000*
1,1,0.011810,-0.015750,0.017720*
1,1,0.011810,0.015750,0.017720*
1,1,0.011810,0.015750,-0.017720*
1,1,0.011810,-0.015750,-0.017720*
%
%AMM21*
21,1,0.076380,0.036220,0.000000,0.000000,90.000000*
21,1,0.061810,0.050790,0.000000,0.000000,90.000000*
1,1,0.014570,0.018110,0.030910*
1,1,0.014570,0.018110,-0.030910*
1,1,0.014570,-0.018110,-0.030910*
1,1,0.014570,-0.018110,0.030910*
%
%AMM210*
21,1,0.031500,0.030710,-0.000000,-0.000000,180.000000*
21,1,0.022050,0.040160,-0.000000,-0.000000,180.000000*
1,1,0.009450,-0.011020,0.015350*
1,1,0.009450,0.011020,0.015350*
1,1,0.009450,0.011020,-0.015350*
1,1,0.009450,-0.011020,-0.015350*
%
%AMM211*
21,1,0.035430,0.072440,-0.000000,-0.000000,180.000000*
21,1,0.025200,0.082680,-0.000000,-0.000000,180.000000*
1,1,0.010240,-0.012600,0.036220*
1,1,0.010240,0.012600,0.036220*
1,1,0.010240,0.012600,-0.036220*
1,1,0.010240,-0.012600,-0.036220*
%
%AMM212*
21,1,0.141730,0.067720,-0.000000,-0.000000,180.000000*
21,1,0.120870,0.088580,-0.000000,-0.000000,180.000000*
1,1,0.020870,-0.060430,0.033860*
1,1,0.020870,0.060430,0.033860*
1,1,0.020870,0.060430,-0.033860*
1,1,0.020870,-0.060430,-0.033860*
%
%AMM213*
21,1,0.047240,0.075990,-0.000000,-0.000000,180.000000*
21,1,0.034650,0.088580,-0.000000,-0.000000,180.000000*
1,1,0.012600,-0.017320,0.037990*
1,1,0.012600,0.017320,0.037990*
1,1,0.012600,0.017320,-0.037990*
1,1,0.012600,-0.017320,-0.037990*
%
%AMM214*
21,1,0.090550,0.073230,-0.000000,-0.000000,270.000000*
21,1,0.069290,0.094490,-0.000000,-0.000000,270.000000*
1,1,0.021260,-0.036610,-0.034650*
1,1,0.021260,-0.036610,0.034650*
1,1,0.021260,0.036610,0.034650*
1,1,0.021260,0.036610,-0.034650*
%
%AMM22*
21,1,0.038980,0.026770,0.000000,0.000000,0.000000*
21,1,0.026770,0.038980,0.000000,0.000000,0.000000*
1,1,0.012210,0.013390,-0.013390*
1,1,0.012210,-0.013390,-0.013390*
1,1,0.012210,-0.013390,0.013390*
1,1,0.012210,0.013390,0.013390*
%
%AMM23*
21,1,0.021260,0.016540,0.000000,0.000000,270.000000*
21,1,0.012600,0.025200,0.000000,0.000000,270.000000*
1,1,0.008660,-0.008270,-0.006300*
1,1,0.008660,-0.008270,0.006300*
1,1,0.008660,0.008270,0.006300*
1,1,0.008660,0.008270,-0.006300*
%
%AMM24*
21,1,0.029130,0.018900,0.000000,0.000000,90.000000*
21,1,0.018900,0.029130,0.000000,0.000000,90.000000*
1,1,0.010240,0.009450,0.009450*
1,1,0.010240,0.009450,-0.009450*
1,1,0.010240,-0.009450,-0.009450*
1,1,0.010240,-0.009450,0.009450*
%
%AMM25*
21,1,0.025200,0.019680,0.000000,0.000000,0.000000*
21,1,0.015750,0.029130,0.000000,0.000000,0.000000*
1,1,0.009450,0.007870,-0.009840*
1,1,0.009450,-0.007870,-0.009840*
1,1,0.009450,-0.007870,0.009840*
1,1,0.009450,0.007870,0.009840*
%
%AMM252*
21,1,0.040950,0.030320,0.000000,-0.000000,90.000000*
21,1,0.028350,0.042910,0.000000,-0.000000,90.000000*
1,1,0.012600,0.015160,0.014170*
1,1,0.012600,0.015160,-0.014170*
1,1,0.012600,-0.015160,-0.014170*
1,1,0.012600,-0.015160,0.014170*
%
%AMM253*
21,1,0.038980,0.026770,0.000000,-0.000000,270.000000*
21,1,0.026770,0.038980,0.000000,-0.000000,270.000000*
1,1,0.012210,-0.013390,-0.013390*
1,1,0.012210,-0.013390,0.013390*
1,1,0.012210,0.013390,0.013390*
1,1,0.012210,0.013390,-0.013390*
%
%AMM254*
21,1,0.033070,0.030710,0.000000,-0.000000,90.000000*
21,1,0.022050,0.041730,0.000000,-0.000000,90.000000*
1,1,0.011020,0.015350,0.011020*
1,1,0.011020,0.015350,-0.011020*
1,1,0.011020,-0.015350,-0.011020*
1,1,0.011020,-0.015350,0.011020*
%
%AMM26*
21,1,0.025200,0.019680,0.000000,0.000000,270.000000*
21,1,0.015750,0.029130,0.000000,0.000000,270.000000*
1,1,0.009450,-0.009840,-0.007870*
1,1,0.009450,-0.009840,0.007870*
1,1,0.009450,0.009840,0.007870*
1,1,0.009450,0.009840,-0.007870*
%
%ADD11C,0.06693*%
%ADD116M14*%
%ADD117M15*%
%ADD118M16*%
%ADD119M17*%
%ADD120M18*%
%ADD121M19*%
%ADD122M20*%
%ADD123M21*%
%ADD124M22*%
%ADD125M23*%
%ADD126M24*%
%ADD127M25*%
%ADD128M26*%
%ADD129C,0.02913*%
%ADD130C,0.06457*%
%ADD152R,0.02559X0.01575*%
%ADD153R,0.01575X0.02559*%
%ADD156R,0.03543X0.03150*%
%ADD158C,0.05118*%
%ADD160R,0.03150X0.03543*%
%ADD168C,0.03100*%
%ADD171C,0.03900*%
%ADD205O,0.05118X0.01260*%
%ADD206O,0.01260X0.05118*%
%ADD207O,0.04724X0.01575*%
%ADD208C,0.03494*%
%ADD21C,0.03150*%
%ADD211R,0.01772X0.01378*%
%ADD212R,0.01378X0.01772*%
%ADD217O,0.09055X0.02756*%
%ADD22C,0.25197*%
%ADD224C,0.03543*%
%ADD226C,0.04724*%
%ADD227C,0.04294*%
%ADD23C,0.06000*%
%ADD24O,0.07283X0.06693*%
%ADD25C,0.02362*%
%ADD271O,0.02520X0.01535*%
%ADD272O,0.01535X0.02520*%
%ADD297M116*%
%ADD306R,0.01181X0.05512*%
%ADD307R,0.08661X0.04724*%
%ADD308R,0.25197X0.22835*%
%ADD309R,0.07874X0.07500*%
%ADD31R,0.04331X0.04331*%
%ADD310O,0.07874X0.07500*%
%ADD32C,0.04331*%
%ADD33O,0.09449X0.04331*%
%ADD36C,0.05906*%
%ADD408M199*%
%ADD409M200*%
%ADD410M201*%
%ADD411M202*%
%ADD412M203*%
%ADD413M204*%
%ADD414M205*%
%ADD415M206*%
%ADD416M207*%
%ADD417M208*%
%ADD418M209*%
%ADD419M210*%
%ADD420M211*%
%ADD421M212*%
%ADD422M213*%
%ADD423M214*%
%ADD452O,0.02913X0.09213*%
%ADD462M252*%
%ADD463M253*%
%ADD464M254*%
%ADD49O,0.00984X0.01969*%
%ADD51O,0.01969X0.00984*%
%ADD52R,0.05118X0.03937*%
%ADD53R,0.07874X0.02559*%
%ADD54R,0.17717X0.31890*%
%ADD67R,0.01181X0.04528*%
%ADD68O,0.03937X0.08268*%
%ADD69O,0.03937X0.06299*%
%ADD70R,0.06693X0.06693*%
%ADD71O,0.06693X0.06693*%
%ADD72C,0.13000*%
%ADD73R,0.02717X0.05315*%
%ADD78C,0.00472*%
%ADD79C,0.02559*%
X0000000Y0000000D02*
%LPD*%
G01*
D78*
X0390355Y0028504D02*
X0339174Y0028504D01*
X0339174Y0056063D01*
X0390355Y0056063D01*
X0390355Y0028504D01*
G36*
X0390355Y0028504D02*
G01*
X0339174Y0028504D01*
X0339174Y0056063D01*
X0390355Y0056063D01*
X0390355Y0028504D01*
G37*
G36*
G01*
X0380884Y0294119D02*
X0380884Y0299041D01*
G75*
G02*
X0381277Y0299434I0000394J0000000D01*
G01*
X0384427Y0299434D01*
G75*
G02*
X0384821Y0299041I0000000J-000394D01*
G01*
X0384821Y0294119D01*
G75*
G02*
X0384427Y0293726I-000394J0000000D01*
G01*
X0381277Y0293726D01*
G75*
G02*
X0380884Y0294119I0000000J0000394D01*
G01*
G37*
G36*
G01*
X0388364Y0294119D02*
X0388364Y0299041D01*
G75*
G02*
X0388758Y0299434I0000394J0000000D01*
G01*
X0391907Y0299434D01*
G75*
G02*
X0392301Y0299041I0000000J-000394D01*
G01*
X0392301Y0294119D01*
G75*
G02*
X0391907Y0293726I-000394J0000000D01*
G01*
X0388758Y0293726D01*
G75*
G02*
X0388364Y0294119I0000000J0000394D01*
G01*
G37*
G36*
G01*
X0113288Y0295767D02*
X0113288Y0294586D01*
G75*
G02*
X0112697Y0293996I-000591J0000000D01*
G01*
X0106201Y0293996D01*
G75*
G02*
X0105611Y0294586I0000000J0000591D01*
G01*
X0105611Y0295767D01*
G75*
G02*
X0106201Y0296358I0000591J0000000D01*
G01*
X0112697Y0296358D01*
G75*
G02*
X0113288Y0295767I0000000J-000591D01*
G01*
G37*
G36*
G01*
X0113288Y0300767D02*
X0113288Y0299586D01*
G75*
G02*
X0112697Y0298996I-000591J0000000D01*
G01*
X0106201Y0298996D01*
G75*
G02*
X0105611Y0299586I0000000J0000591D01*
G01*
X0105611Y0300767D01*
G75*
G02*
X0106201Y0301358I0000591J0000000D01*
G01*
X0112697Y0301358D01*
G75*
G02*
X0113288Y0300767I0000000J-000591D01*
G01*
G37*
G36*
G01*
X0113288Y0305767D02*
X0113288Y0304586D01*
G75*
G02*
X0112697Y0303996I-000591J0000000D01*
G01*
X0106201Y0303996D01*
G75*
G02*
X0105611Y0304586I0000000J0000591D01*
G01*
X0105611Y0305767D01*
G75*
G02*
X0106201Y0306358I0000591J0000000D01*
G01*
X0112697Y0306358D01*
G75*
G02*
X0113288Y0305767I0000000J-000591D01*
G01*
G37*
G36*
G01*
X0113288Y0310767D02*
X0113288Y0309586D01*
G75*
G02*
X0112697Y0308996I-000591J0000000D01*
G01*
X0106201Y0308996D01*
G75*
G02*
X0105611Y0309586I0000000J0000591D01*
G01*
X0105611Y0310767D01*
G75*
G02*
X0106201Y0311358I0000591J0000000D01*
G01*
X0112697Y0311358D01*
G75*
G02*
X0113288Y0310767I0000000J-000591D01*
G01*
G37*
G36*
G01*
X0093800Y0310767D02*
X0093800Y0309586D01*
G75*
G02*
X0093209Y0308996I-000591J0000000D01*
G01*
X0086713Y0308996D01*
G75*
G02*
X0086122Y0309586I0000000J0000591D01*
G01*
X0086122Y0310767D01*
G75*
G02*
X0086713Y0311358I0000591J0000000D01*
G01*
X0093209Y0311358D01*
G75*
G02*
X0093800Y0310767I0000000J-000591D01*
G01*
G37*
G36*
G01*
X0093800Y0305767D02*
X0093800Y0304586D01*
G75*
G02*
X0093209Y0303996I-000591J0000000D01*
G01*
X0086713Y0303996D01*
G75*
G02*
X0086122Y0304586I0000000J0000591D01*
G01*
X0086122Y0305767D01*
G75*
G02*
X0086713Y0306358I0000591J0000000D01*
G01*
X0093209Y0306358D01*
G75*
G02*
X0093800Y0305767I0000000J-000591D01*
G01*
G37*
G36*
G01*
X0093800Y0300767D02*
X0093800Y0299586D01*
G75*
G02*
X0093209Y0298996I-000591J0000000D01*
G01*
X0086713Y0298996D01*
G75*
G02*
X0086122Y0299586I0000000J0000591D01*
G01*
X0086122Y0300767D01*
G75*
G02*
X0086713Y0301358I0000591J0000000D01*
G01*
X0093209Y0301358D01*
G75*
G02*
X0093800Y0300767I0000000J-000591D01*
G01*
G37*
G36*
G01*
X0093800Y0295767D02*
X0093800Y0294586D01*
G75*
G02*
X0093209Y0293996I-000591J0000000D01*
G01*
X0086713Y0293996D01*
G75*
G02*
X0086122Y0294586I0000000J0000591D01*
G01*
X0086122Y0295767D01*
G75*
G02*
X0086713Y0296358I0000591J0000000D01*
G01*
X0093209Y0296358D01*
G75*
G02*
X0093800Y0295767I0000000J-000591D01*
G01*
G37*
G36*
G01*
X0028583Y0040275D02*
X0031260Y0040275D01*
G75*
G02*
X0031595Y0039941I0000000J-000335D01*
G01*
X0031595Y0037263D01*
G75*
G02*
X0031260Y0036929I-000335J0000000D01*
G01*
X0028583Y0036929D01*
G75*
G02*
X0028248Y0037263I0000000J0000335D01*
G01*
X0028248Y0039941D01*
G75*
G02*
X0028583Y0040275I0000335J0000000D01*
G01*
G37*
G36*
G01*
X0028583Y0034055D02*
X0031260Y0034055D01*
G75*
G02*
X0031595Y0033720I0000000J-000335D01*
G01*
X0031595Y0031043D01*
G75*
G02*
X0031260Y0030708I-000335J0000000D01*
G01*
X0028583Y0030708D01*
G75*
G02*
X0028248Y0031043I0000000J0000335D01*
G01*
X0028248Y0033720D01*
G75*
G02*
X0028583Y0034055I0000335J0000000D01*
G01*
G37*
G36*
G01*
X0380884Y0303962D02*
X0380884Y0308883D01*
G75*
G02*
X0381277Y0309277I0000394J0000000D01*
G01*
X0384427Y0309277D01*
G75*
G02*
X0384821Y0308883I0000000J-000394D01*
G01*
X0384821Y0303962D01*
G75*
G02*
X0384427Y0303568I-000394J0000000D01*
G01*
X0381277Y0303568D01*
G75*
G02*
X0380884Y0303962I0000000J0000394D01*
G01*
G37*
G36*
G01*
X0388364Y0303962D02*
X0388364Y0308883D01*
G75*
G02*
X0388758Y0309277I0000394J0000000D01*
G01*
X0391907Y0309277D01*
G75*
G02*
X0392301Y0308883I0000000J-000394D01*
G01*
X0392301Y0303962D01*
G75*
G02*
X0391907Y0303568I-000394J0000000D01*
G01*
X0388758Y0303568D01*
G75*
G02*
X0388364Y0303962I0000000J0000394D01*
G01*
G37*
G36*
G01*
X0113386Y0155846D02*
X0113386Y0153090D01*
G75*
G02*
X0112402Y0152106I-000984J0000000D01*
G01*
X0105709Y0152106D01*
G75*
G02*
X0104725Y0153090I0000000J0000984D01*
G01*
X0104725Y0155846D01*
G75*
G02*
X0105709Y0156830I0000984J0000000D01*
G01*
X0112402Y0156830D01*
G75*
G02*
X0113386Y0155846I0000000J-000984D01*
G01*
G37*
G36*
G01*
X0096851Y0173878D02*
X0096851Y0153011D01*
G75*
G02*
X0095867Y0152027I-000984J0000000D01*
G01*
X0072638Y0152027D01*
G75*
G02*
X0071654Y0153011I0000000J0000984D01*
G01*
X0071654Y0173878D01*
G75*
G02*
X0072638Y0174862I0000984J0000000D01*
G01*
X0095867Y0174862D01*
G75*
G02*
X0096851Y0173878I0000000J-000984D01*
G01*
G37*
G36*
G01*
X0113386Y0173799D02*
X0113386Y0171043D01*
G75*
G02*
X0112402Y0170059I-000984J0000000D01*
G01*
X0105709Y0170059D01*
G75*
G02*
X0104725Y0171043I0000000J0000984D01*
G01*
X0104725Y0173799D01*
G75*
G02*
X0105709Y0174783I0000984J0000000D01*
G01*
X0112402Y0174783D01*
G75*
G02*
X0113386Y0173799I0000000J-000984D01*
G01*
G37*
D11*
X0327559Y0076043D03*
D21*
X0439359Y0389500D03*
X0446041Y0386732D03*
X0432678Y0386732D03*
X0448808Y0380051D03*
D22*
X0439359Y0380051D03*
D21*
X0429911Y0380051D03*
X0446041Y0373370D03*
X0432678Y0373370D03*
X0439359Y0370602D03*
G36*
G01*
X0113386Y0238523D02*
X0113386Y0235767D01*
G75*
G02*
X0112402Y0234783I-000984J0000000D01*
G01*
X0105709Y0234783D01*
G75*
G02*
X0104725Y0235767I0000000J0000984D01*
G01*
X0104725Y0238523D01*
G75*
G02*
X0105709Y0239508I0000984J0000000D01*
G01*
X0112402Y0239508D01*
G75*
G02*
X0113386Y0238523I0000000J-000984D01*
G01*
G37*
G36*
G01*
X0096851Y0256555D02*
X0096851Y0235689D01*
G75*
G02*
X0095867Y0234704I-000984J0000000D01*
G01*
X0072638Y0234704D01*
G75*
G02*
X0071654Y0235689I0000000J0000984D01*
G01*
X0071654Y0256555D01*
G75*
G02*
X0072638Y0257539I0000984J0000000D01*
G01*
X0095867Y0257539D01*
G75*
G02*
X0096851Y0256555I0000000J-000984D01*
G01*
G37*
G36*
G01*
X0113386Y0256476D02*
X0113386Y0253720D01*
G75*
G02*
X0112402Y0252736I-000984J0000000D01*
G01*
X0105709Y0252736D01*
G75*
G02*
X0104725Y0253720I0000000J0000984D01*
G01*
X0104725Y0256476D01*
G75*
G02*
X0105709Y0257460I0000984J0000000D01*
G01*
X0112402Y0257460D01*
G75*
G02*
X0113386Y0256476I0000000J-000984D01*
G01*
G37*
G36*
G01*
X0113386Y0210964D02*
X0113386Y0208208D01*
G75*
G02*
X0112402Y0207224I-000984J0000000D01*
G01*
X0105709Y0207224D01*
G75*
G02*
X0104725Y0208208I0000000J0000984D01*
G01*
X0104725Y0210964D01*
G75*
G02*
X0105709Y0211949I0000984J0000000D01*
G01*
X0112402Y0211949D01*
G75*
G02*
X0113386Y0210964I0000000J-000984D01*
G01*
G37*
G36*
G01*
X0096851Y0228996D02*
X0096851Y0208130D01*
G75*
G02*
X0095867Y0207145I-000984J0000000D01*
G01*
X0072638Y0207145D01*
G75*
G02*
X0071654Y0208130I0000000J0000984D01*
G01*
X0071654Y0228996D01*
G75*
G02*
X0072638Y0229980I0000984J0000000D01*
G01*
X0095867Y0229980D01*
G75*
G02*
X0096851Y0228996I0000000J-000984D01*
G01*
G37*
G36*
G01*
X0113386Y0228917D02*
X0113386Y0226161D01*
G75*
G02*
X0112402Y0225177I-000984J0000000D01*
G01*
X0105709Y0225177D01*
G75*
G02*
X0104725Y0226161I0000000J0000984D01*
G01*
X0104725Y0228917D01*
G75*
G02*
X0105709Y0229901I0000984J0000000D01*
G01*
X0112402Y0229901D01*
G75*
G02*
X0113386Y0228917I0000000J-000984D01*
G01*
G37*
D11*
X0125985Y0226437D03*
G36*
G01*
X0091575Y0026496D02*
X0094252Y0026496D01*
G75*
G02*
X0094587Y0026161I0000000J-000335D01*
G01*
X0094587Y0023484D01*
G75*
G02*
X0094252Y0023149I-000335J0000000D01*
G01*
X0091575Y0023149D01*
G75*
G02*
X0091241Y0023484I0000000J0000335D01*
G01*
X0091241Y0026161D01*
G75*
G02*
X0091575Y0026496I0000335J0000000D01*
G01*
G37*
G36*
G01*
X0091575Y0020275D02*
X0094252Y0020275D01*
G75*
G02*
X0094587Y0019941I0000000J-000335D01*
G01*
X0094587Y0017263D01*
G75*
G02*
X0094252Y0016929I-000335J0000000D01*
G01*
X0091575Y0016929D01*
G75*
G02*
X0091241Y0017263I0000000J0000335D01*
G01*
X0091241Y0019941D01*
G75*
G02*
X0091575Y0020275I0000335J0000000D01*
G01*
G37*
G36*
G01*
X0142057Y0316260D02*
X0142057Y0313189D01*
G75*
G02*
X0141782Y0312913I-000276J0000000D01*
G01*
X0139577Y0312913D01*
G75*
G02*
X0139302Y0313189I0000000J0000276D01*
G01*
X0139302Y0316260D01*
G75*
G02*
X0139577Y0316535I0000276J0000000D01*
G01*
X0141782Y0316535D01*
G75*
G02*
X0142057Y0316260I0000000J-000276D01*
G01*
G37*
G36*
G01*
X0135758Y0316260D02*
X0135758Y0313189D01*
G75*
G02*
X0135483Y0312913I-000276J0000000D01*
G01*
X0133278Y0312913D01*
G75*
G02*
X0133002Y0313189I0000000J0000276D01*
G01*
X0133002Y0316260D01*
G75*
G02*
X0133278Y0316535I0000276J0000000D01*
G01*
X0135483Y0316535D01*
G75*
G02*
X0135758Y0316260I0000000J-000276D01*
G01*
G37*
X0137402Y0226437D03*
G36*
G01*
X0064508Y0063740D02*
X0067185Y0063740D01*
G75*
G02*
X0067520Y0063405I0000000J-000335D01*
G01*
X0067520Y0060728D01*
G75*
G02*
X0067185Y0060393I-000335J0000000D01*
G01*
X0064508Y0060393D01*
G75*
G02*
X0064174Y0060728I0000000J0000335D01*
G01*
X0064174Y0063405D01*
G75*
G02*
X0064508Y0063740I0000335J0000000D01*
G01*
G37*
G36*
G01*
X0064508Y0057519D02*
X0067185Y0057519D01*
G75*
G02*
X0067520Y0057185I0000000J-000335D01*
G01*
X0067520Y0054508D01*
G75*
G02*
X0067185Y0054173I-000335J0000000D01*
G01*
X0064508Y0054173D01*
G75*
G02*
X0064174Y0054508I0000000J0000335D01*
G01*
X0064174Y0057185D01*
G75*
G02*
X0064508Y0057519I0000335J0000000D01*
G01*
G37*
X0021811Y0045334D03*
D21*
X0004331Y0379980D03*
X0007099Y0386661D03*
X0007099Y0373299D03*
X0013780Y0389429D03*
D22*
X0013780Y0379980D03*
D21*
X0013780Y0370531D03*
X0020461Y0386661D03*
X0020461Y0373299D03*
X0023229Y0379980D03*
D23*
X0072441Y0076634D03*
G36*
G01*
X0068898Y0071338D02*
X0068898Y0074055D01*
G75*
G02*
X0069804Y0074960I0000906J0000000D01*
G01*
X0075079Y0074960D01*
G75*
G02*
X0075985Y0074055I0000000J-000906D01*
G01*
X0075985Y0071338D01*
G75*
G02*
X0075079Y0070433I-000906J0000000D01*
G01*
X0069804Y0070433D01*
G75*
G02*
X0068898Y0071338I0000000J0000906D01*
G01*
G37*
G36*
G01*
X0068898Y0059921D02*
X0068898Y0062637D01*
G75*
G02*
X0069804Y0063543I0000906J0000000D01*
G01*
X0075079Y0063543D01*
G75*
G02*
X0075985Y0062637I0000000J-000906D01*
G01*
X0075985Y0059921D01*
G75*
G02*
X0075079Y0059015I-000906J0000000D01*
G01*
X0069804Y0059015D01*
G75*
G02*
X0068898Y0059921I0000000J0000906D01*
G01*
G37*
X0072441Y0057342D03*
G36*
G01*
X0367301Y0294119D02*
X0367301Y0299041D01*
G75*
G02*
X0367695Y0299434I0000394J0000000D01*
G01*
X0370844Y0299434D01*
G75*
G02*
X0371238Y0299041I0000000J-000394D01*
G01*
X0371238Y0294119D01*
G75*
G02*
X0370844Y0293726I-000394J0000000D01*
G01*
X0367695Y0293726D01*
G75*
G02*
X0367301Y0294119I0000000J0000394D01*
G01*
G37*
G36*
G01*
X0374781Y0294119D02*
X0374781Y0299041D01*
G75*
G02*
X0375175Y0299434I0000394J0000000D01*
G01*
X0378325Y0299434D01*
G75*
G02*
X0378719Y0299041I0000000J-000394D01*
G01*
X0378719Y0294119D01*
G75*
G02*
X0378325Y0293726I-000394J0000000D01*
G01*
X0375175Y0293726D01*
G75*
G02*
X0374781Y0294119I0000000J0000394D01*
G01*
G37*
G36*
G01*
X0004961Y0072952D02*
X0007638Y0072952D01*
G75*
G02*
X0007973Y0072618I0000000J-000335D01*
G01*
X0007973Y0069941D01*
G75*
G02*
X0007638Y0069606I-000335J0000000D01*
G01*
X0004961Y0069606D01*
G75*
G02*
X0004626Y0069941I0000000J0000335D01*
G01*
X0004626Y0072618D01*
G75*
G02*
X0004961Y0072952I0000335J0000000D01*
G01*
G37*
G36*
G01*
X0004961Y0066732D02*
X0007638Y0066732D01*
G75*
G02*
X0007973Y0066397I0000000J-000335D01*
G01*
X0007973Y0063720D01*
G75*
G02*
X0007638Y0063386I-000335J0000000D01*
G01*
X0004961Y0063386D01*
G75*
G02*
X0004626Y0063720I0000000J0000335D01*
G01*
X0004626Y0066397D01*
G75*
G02*
X0004961Y0066732I0000335J0000000D01*
G01*
G37*
G36*
G01*
X0329430Y0008523D02*
X0324115Y0008523D01*
G75*
G02*
X0323130Y0009508I0000000J0000984D01*
G01*
X0323130Y0014232D01*
G75*
G02*
X0324115Y0015216I0000984J0000000D01*
G01*
X0329430Y0015216D01*
G75*
G02*
X0330414Y0014232I0000000J-000984D01*
G01*
X0330414Y0009508D01*
G75*
G02*
X0329430Y0008523I-000984J0000000D01*
G01*
G37*
D24*
X0326772Y0021712D03*
X0326772Y0031555D03*
X0326772Y0041397D03*
X0326772Y0051240D03*
D11*
X0246063Y0029586D03*
D21*
X0004331Y0013838D03*
X0007099Y0020520D03*
X0007099Y0007157D03*
X0013780Y0023287D03*
D22*
X0013780Y0013838D03*
D21*
X0013780Y0004389D03*
X0020461Y0020520D03*
X0020461Y0007157D03*
X0023229Y0013838D03*
X0448879Y0013881D03*
X0446112Y0007199D03*
X0446112Y0020562D03*
X0439430Y0004432D03*
D22*
X0439430Y0013881D03*
D21*
X0439430Y0023330D03*
X0432749Y0007199D03*
X0432749Y0020562D03*
X0429981Y0013881D03*
D25*
X0193603Y0246811D03*
X0188878Y0246811D03*
X0198327Y0246811D03*
X0203052Y0246811D03*
X0177619Y0303602D03*
X0173681Y0303602D03*
G36*
G01*
X0117126Y0286830D02*
X0117126Y0283760D01*
G75*
G02*
X0116851Y0283484I-000276J0000000D01*
G01*
X0114646Y0283484D01*
G75*
G02*
X0114370Y0283760I0000000J0000276D01*
G01*
X0114370Y0286830D01*
G75*
G02*
X0114646Y0287106I0000276J0000000D01*
G01*
X0116851Y0287106D01*
G75*
G02*
X0117126Y0286830I0000000J-000276D01*
G01*
G37*
G36*
G01*
X0110827Y0286830D02*
X0110827Y0283760D01*
G75*
G02*
X0110552Y0283484I-000276J0000000D01*
G01*
X0108347Y0283484D01*
G75*
G02*
X0108071Y0283760I0000000J0000276D01*
G01*
X0108071Y0286830D01*
G75*
G02*
X0108347Y0287106I0000276J0000000D01*
G01*
X0110552Y0287106D01*
G75*
G02*
X0110827Y0286830I0000000J-000276D01*
G01*
G37*
D11*
X0011811Y0045334D03*
D31*
X0233268Y0012263D03*
D32*
X0226378Y0015413D03*
X0233268Y0018563D03*
X0226378Y0021712D03*
X0233268Y0024862D03*
D33*
X0229823Y0004193D03*
X0229823Y0032933D03*
D23*
X0081103Y0076634D03*
G36*
G01*
X0077559Y0071338D02*
X0077559Y0074055D01*
G75*
G02*
X0078465Y0074960I0000906J0000000D01*
G01*
X0083741Y0074960D01*
G75*
G02*
X0084646Y0074055I0000000J-000906D01*
G01*
X0084646Y0071338D01*
G75*
G02*
X0083741Y0070433I-000906J0000000D01*
G01*
X0078465Y0070433D01*
G75*
G02*
X0077559Y0071338I0000000J0000906D01*
G01*
G37*
G36*
G01*
X0077559Y0059921D02*
X0077559Y0062637D01*
G75*
G02*
X0078465Y0063543I0000906J0000000D01*
G01*
X0083741Y0063543D01*
G75*
G02*
X0084646Y0062637I0000000J-000906D01*
G01*
X0084646Y0059921D01*
G75*
G02*
X0083741Y0059015I-000906J0000000D01*
G01*
X0078465Y0059015D01*
G75*
G02*
X0077559Y0059921I0000000J0000906D01*
G01*
G37*
X0081103Y0057342D03*
D25*
X0313288Y0287952D03*
X0309548Y0287952D03*
X0305807Y0287952D03*
X0309744Y0322204D03*
X0313288Y0322204D03*
G36*
G01*
X0031260Y0016929D02*
X0028583Y0016929D01*
G75*
G02*
X0028248Y0017263I0000000J0000335D01*
G01*
X0028248Y0019941D01*
G75*
G02*
X0028583Y0020275I0000335J0000000D01*
G01*
X0031260Y0020275D01*
G75*
G02*
X0031595Y0019941I0000000J-000335D01*
G01*
X0031595Y0017263D01*
G75*
G02*
X0031260Y0016929I-000335J0000000D01*
G01*
G37*
G36*
G01*
X0031260Y0023149D02*
X0028583Y0023149D01*
G75*
G02*
X0028248Y0023484I0000000J0000335D01*
G01*
X0028248Y0026161D01*
G75*
G02*
X0028583Y0026496I0000335J0000000D01*
G01*
X0031260Y0026496D01*
G75*
G02*
X0031595Y0026161I0000000J-000335D01*
G01*
X0031595Y0023484D01*
G75*
G02*
X0031260Y0023149I-000335J0000000D01*
G01*
G37*
D11*
X0090552Y0043366D03*
D36*
X0160926Y0082047D03*
X0160926Y0056850D03*
X0160926Y0049370D03*
X0160926Y0032441D03*
D25*
X0162697Y0022992D03*
X0162697Y0019055D03*
D36*
X0160926Y0007834D03*
X0099902Y0083819D03*
X0099902Y0076535D03*
X0099902Y0057047D03*
X0099902Y0009606D03*
G36*
G01*
X0113386Y0100728D02*
X0113386Y0097972D01*
G75*
G02*
X0112402Y0096988I-000984J0000000D01*
G01*
X0105709Y0096988D01*
G75*
G02*
X0104725Y0097972I0000000J0000984D01*
G01*
X0104725Y0100728D01*
G75*
G02*
X0105709Y0101712I0000984J0000000D01*
G01*
X0112402Y0101712D01*
G75*
G02*
X0113386Y0100728I0000000J-000984D01*
G01*
G37*
G36*
G01*
X0096851Y0118760D02*
X0096851Y0097893D01*
G75*
G02*
X0095867Y0096909I-000984J0000000D01*
G01*
X0072638Y0096909D01*
G75*
G02*
X0071654Y0097893I0000000J0000984D01*
G01*
X0071654Y0118760D01*
G75*
G02*
X0072638Y0119744I0000984J0000000D01*
G01*
X0095867Y0119744D01*
G75*
G02*
X0096851Y0118760I0000000J-000984D01*
G01*
G37*
G36*
G01*
X0113386Y0118681D02*
X0113386Y0115925D01*
G75*
G02*
X0112402Y0114941I-000984J0000000D01*
G01*
X0105709Y0114941D01*
G75*
G02*
X0104725Y0115925I0000000J0000984D01*
G01*
X0104725Y0118681D01*
G75*
G02*
X0105709Y0119665I0000984J0000000D01*
G01*
X0112402Y0119665D01*
G75*
G02*
X0113386Y0118681I0000000J-000984D01*
G01*
G37*
D49*
X0121654Y0172008D03*
D51*
X0121851Y0212756D03*
X0121851Y0210787D03*
D25*
X0125985Y0185000D03*
X0128052Y0188445D03*
X0131004Y0183819D03*
X0144981Y0184114D03*
G36*
G01*
X0064311Y0075295D02*
X0067382Y0075295D01*
G75*
G02*
X0067658Y0075019I0000000J-000276D01*
G01*
X0067658Y0072815D01*
G75*
G02*
X0067382Y0072539I-000276J0000000D01*
G01*
X0064311Y0072539D01*
G75*
G02*
X0064036Y0072815I0000000J0000276D01*
G01*
X0064036Y0075019D01*
G75*
G02*
X0064311Y0075295I0000276J0000000D01*
G01*
G37*
G36*
G01*
X0064311Y0068996D02*
X0067382Y0068996D01*
G75*
G02*
X0067658Y0068720I0000000J-000276D01*
G01*
X0067658Y0066515D01*
G75*
G02*
X0067382Y0066240I-000276J0000000D01*
G01*
X0064311Y0066240D01*
G75*
G02*
X0064036Y0066515I0000000J0000276D01*
G01*
X0064036Y0068720D01*
G75*
G02*
X0064311Y0068996I0000276J0000000D01*
G01*
G37*
G36*
G01*
X0113386Y0183405D02*
X0113386Y0180649D01*
G75*
G02*
X0112402Y0179665I-000984J0000000D01*
G01*
X0105709Y0179665D01*
G75*
G02*
X0104725Y0180649I0000000J0000984D01*
G01*
X0104725Y0183405D01*
G75*
G02*
X0105709Y0184389I0000984J0000000D01*
G01*
X0112402Y0184389D01*
G75*
G02*
X0113386Y0183405I0000000J-000984D01*
G01*
G37*
G36*
G01*
X0096851Y0201437D02*
X0096851Y0180571D01*
G75*
G02*
X0095867Y0179586I-000984J0000000D01*
G01*
X0072638Y0179586D01*
G75*
G02*
X0071654Y0180571I0000000J0000984D01*
G01*
X0071654Y0201437D01*
G75*
G02*
X0072638Y0202421I0000984J0000000D01*
G01*
X0095867Y0202421D01*
G75*
G02*
X0096851Y0201437I0000000J-000984D01*
G01*
G37*
G36*
G01*
X0113386Y0201358D02*
X0113386Y0198602D01*
G75*
G02*
X0112402Y0197618I-000984J0000000D01*
G01*
X0105709Y0197618D01*
G75*
G02*
X0104725Y0198602I0000000J0000984D01*
G01*
X0104725Y0201358D01*
G75*
G02*
X0105709Y0202342I0000984J0000000D01*
G01*
X0112402Y0202342D01*
G75*
G02*
X0113386Y0201358I0000000J-000984D01*
G01*
G37*
D52*
X0389764Y0058326D03*
X0389764Y0064232D03*
X0389764Y0070137D03*
X0389764Y0076043D03*
X0389764Y0081949D03*
X0389764Y0087854D03*
X0389764Y0093760D03*
X0389764Y0099665D03*
X0389764Y0105571D03*
X0389764Y0111476D03*
X0389764Y0117382D03*
X0389764Y0123287D03*
X0389764Y0129193D03*
X0339764Y0129193D03*
X0339764Y0123287D03*
X0339764Y0117382D03*
X0339764Y0111476D03*
X0339764Y0105571D03*
X0339764Y0099665D03*
X0339764Y0093760D03*
X0339764Y0087854D03*
X0339764Y0081949D03*
X0339764Y0076043D03*
X0339764Y0070137D03*
X0339764Y0064232D03*
X0339764Y0058326D03*
G36*
G01*
X0367301Y0313804D02*
X0367301Y0318726D01*
G75*
G02*
X0367695Y0319119I0000394J0000000D01*
G01*
X0370844Y0319119D01*
G75*
G02*
X0371238Y0318726I0000000J-000394D01*
G01*
X0371238Y0313804D01*
G75*
G02*
X0370844Y0313411I-000394J0000000D01*
G01*
X0367695Y0313411D01*
G75*
G02*
X0367301Y0313804I0000000J0000394D01*
G01*
G37*
G36*
G01*
X0374781Y0313804D02*
X0374781Y0318726D01*
G75*
G02*
X0375175Y0319119I0000394J0000000D01*
G01*
X0378325Y0319119D01*
G75*
G02*
X0378719Y0318726I0000000J-000394D01*
G01*
X0378719Y0313804D01*
G75*
G02*
X0378325Y0313411I-000394J0000000D01*
G01*
X0375175Y0313411D01*
G75*
G02*
X0374781Y0313804I0000000J0000394D01*
G01*
G37*
D23*
X0089764Y0076634D03*
G36*
G01*
X0086221Y0071338D02*
X0086221Y0074055D01*
G75*
G02*
X0087126Y0074960I0000906J0000000D01*
G01*
X0092402Y0074960D01*
G75*
G02*
X0093307Y0074055I0000000J-000906D01*
G01*
X0093307Y0071338D01*
G75*
G02*
X0092402Y0070433I-000906J0000000D01*
G01*
X0087126Y0070433D01*
G75*
G02*
X0086221Y0071338I0000000J0000906D01*
G01*
G37*
G36*
G01*
X0086221Y0059921D02*
X0086221Y0062637D01*
G75*
G02*
X0087126Y0063543I0000906J0000000D01*
G01*
X0092402Y0063543D01*
G75*
G02*
X0093307Y0062637I0000000J-000906D01*
G01*
X0093307Y0059921D01*
G75*
G02*
X0092402Y0059015I-000906J0000000D01*
G01*
X0087126Y0059015D01*
G75*
G02*
X0086221Y0059921I0000000J0000906D01*
G01*
G37*
X0089764Y0057342D03*
D11*
X0155512Y0196752D03*
X0155512Y0206752D03*
X0155512Y0216752D03*
X0155512Y0226752D03*
X0155512Y0236752D03*
X0165512Y0196752D03*
X0165512Y0206752D03*
X0165512Y0216752D03*
X0165512Y0226752D03*
X0165512Y0236752D03*
X0175512Y0196752D03*
X0175512Y0206752D03*
X0175512Y0216752D03*
X0175512Y0226752D03*
X0175512Y0236752D03*
X0246063Y0009901D03*
D23*
X0171160Y0025549D03*
G36*
G01*
X0168700Y0023758D02*
X0173621Y0023758D01*
G75*
G02*
X0174015Y0023364I0000000J-000394D01*
G01*
X0174015Y0020215D01*
G75*
G02*
X0173621Y0019821I-000394J0000000D01*
G01*
X0168700Y0019821D01*
G75*
G02*
X0168306Y0020215I0000000J0000394D01*
G01*
X0168306Y0023364D01*
G75*
G02*
X0168700Y0023758I0000394J0000000D01*
G01*
G37*
G36*
G01*
X0168700Y0016278D02*
X0173621Y0016278D01*
G75*
G02*
X0174015Y0015884I0000000J-000394D01*
G01*
X0174015Y0012734D01*
G75*
G02*
X0173621Y0012341I-000394J0000000D01*
G01*
X0168700Y0012341D01*
G75*
G02*
X0168306Y0012734I0000000J0000394D01*
G01*
X0168306Y0015884D01*
G75*
G02*
X0168700Y0016278I0000394J0000000D01*
G01*
G37*
X0171160Y0010549D03*
G36*
G01*
X0117363Y0313051D02*
X0120433Y0313051D01*
G75*
G02*
X0120709Y0312775I0000000J-000276D01*
G01*
X0120709Y0310571D01*
G75*
G02*
X0120433Y0310295I-000276J0000000D01*
G01*
X0117363Y0310295D01*
G75*
G02*
X0117087Y0310571I0000000J0000276D01*
G01*
X0117087Y0312775D01*
G75*
G02*
X0117363Y0313051I0000276J0000000D01*
G01*
G37*
G36*
G01*
X0117363Y0306752D02*
X0120433Y0306752D01*
G75*
G02*
X0120709Y0306476I0000000J-000276D01*
G01*
X0120709Y0304271D01*
G75*
G02*
X0120433Y0303996I-000276J0000000D01*
G01*
X0117363Y0303996D01*
G75*
G02*
X0117087Y0304271I0000000J0000276D01*
G01*
X0117087Y0306476D01*
G75*
G02*
X0117363Y0306752I0000276J0000000D01*
G01*
G37*
G36*
G01*
X0076811Y0292972D02*
X0072796Y0292972D01*
G75*
G02*
X0072441Y0293326I0000000J0000354D01*
G01*
X0072441Y0296161D01*
G75*
G02*
X0072796Y0296515I0000354J0000000D01*
G01*
X0076811Y0296515D01*
G75*
G02*
X0077166Y0296161I0000000J-000354D01*
G01*
X0077166Y0293326D01*
G75*
G02*
X0076811Y0292972I-000354J0000000D01*
G01*
G37*
G36*
G01*
X0076811Y0305964D02*
X0072796Y0305964D01*
G75*
G02*
X0072441Y0306319I0000000J0000354D01*
G01*
X0072441Y0309153D01*
G75*
G02*
X0072796Y0309508I0000354J0000000D01*
G01*
X0076811Y0309508D01*
G75*
G02*
X0077166Y0309153I0000000J-000354D01*
G01*
X0077166Y0306319D01*
G75*
G02*
X0076811Y0305964I-000354J0000000D01*
G01*
G37*
G36*
G01*
X0380884Y0313804D02*
X0380884Y0318726D01*
G75*
G02*
X0381277Y0319119I0000394J0000000D01*
G01*
X0384427Y0319119D01*
G75*
G02*
X0384821Y0318726I0000000J-000394D01*
G01*
X0384821Y0313804D01*
G75*
G02*
X0384427Y0313411I-000394J0000000D01*
G01*
X0381277Y0313411D01*
G75*
G02*
X0380884Y0313804I0000000J0000394D01*
G01*
G37*
G36*
G01*
X0388364Y0313804D02*
X0388364Y0318726D01*
G75*
G02*
X0388758Y0319119I0000394J0000000D01*
G01*
X0391907Y0319119D01*
G75*
G02*
X0392301Y0318726I0000000J-000394D01*
G01*
X0392301Y0313804D01*
G75*
G02*
X0391907Y0313411I-000394J0000000D01*
G01*
X0388758Y0313411D01*
G75*
G02*
X0388364Y0313804I0000000J0000394D01*
G01*
G37*
G36*
G01*
X0367301Y0303962D02*
X0367301Y0308883D01*
G75*
G02*
X0367695Y0309277I0000394J0000000D01*
G01*
X0370844Y0309277D01*
G75*
G02*
X0371238Y0308883I0000000J-000394D01*
G01*
X0371238Y0303962D01*
G75*
G02*
X0370844Y0303568I-000394J0000000D01*
G01*
X0367695Y0303568D01*
G75*
G02*
X0367301Y0303962I0000000J0000394D01*
G01*
G37*
G36*
G01*
X0374781Y0303962D02*
X0374781Y0308883D01*
G75*
G02*
X0375175Y0309277I0000394J0000000D01*
G01*
X0378325Y0309277D01*
G75*
G02*
X0378719Y0308883I0000000J-000394D01*
G01*
X0378719Y0303962D01*
G75*
G02*
X0378325Y0303568I-000394J0000000D01*
G01*
X0375175Y0303568D01*
G75*
G02*
X0374781Y0303962I0000000J0000394D01*
G01*
G37*
D53*
X0016536Y0078799D03*
X0016536Y0074862D03*
X0016536Y0070925D03*
X0016536Y0066988D03*
X0016536Y0063051D03*
X0016536Y0059114D03*
X0054331Y0059114D03*
X0054331Y0063051D03*
X0054331Y0066988D03*
X0054331Y0070925D03*
X0054331Y0074862D03*
X0054331Y0078799D03*
D54*
X0035433Y0068956D03*
D53*
X0042619Y0041555D03*
X0042619Y0037618D03*
X0042619Y0033681D03*
X0042619Y0029744D03*
X0042619Y0025807D03*
X0042619Y0021870D03*
X0080414Y0021870D03*
X0080414Y0025807D03*
X0080414Y0029744D03*
X0080414Y0033681D03*
X0080414Y0037618D03*
X0080414Y0041555D03*
D54*
X0061516Y0031712D03*
D11*
X0327559Y0094547D03*
G36*
G01*
X0113386Y0128287D02*
X0113386Y0125531D01*
G75*
G02*
X0112402Y0124547I-000984J0000000D01*
G01*
X0105709Y0124547D01*
G75*
G02*
X0104725Y0125531I0000000J0000984D01*
G01*
X0104725Y0128287D01*
G75*
G02*
X0105709Y0129271I0000984J0000000D01*
G01*
X0112402Y0129271D01*
G75*
G02*
X0113386Y0128287I0000000J-000984D01*
G01*
G37*
G36*
G01*
X0096851Y0146319D02*
X0096851Y0125452D01*
G75*
G02*
X0095867Y0124468I-000984J0000000D01*
G01*
X0072638Y0124468D01*
G75*
G02*
X0071654Y0125452I0000000J0000984D01*
G01*
X0071654Y0146319D01*
G75*
G02*
X0072638Y0147303I0000984J0000000D01*
G01*
X0095867Y0147303D01*
G75*
G02*
X0096851Y0146319I0000000J-000984D01*
G01*
G37*
G36*
G01*
X0113386Y0146240D02*
X0113386Y0143484D01*
G75*
G02*
X0112402Y0142500I-000984J0000000D01*
G01*
X0105709Y0142500D01*
G75*
G02*
X0104725Y0143484I0000000J0000984D01*
G01*
X0104725Y0146240D01*
G75*
G02*
X0105709Y0147224I0000984J0000000D01*
G01*
X0112402Y0147224D01*
G75*
G02*
X0113386Y0146240I0000000J-000984D01*
G01*
G37*
D79*
X0185473Y0026063D03*
X0208229Y0026063D03*
D67*
X0183662Y0030256D03*
X0186811Y0030256D03*
X0191930Y0030256D03*
X0195867Y0030256D03*
X0197835Y0030256D03*
X0201772Y0030256D03*
X0206890Y0030256D03*
X0210040Y0030256D03*
X0208859Y0030256D03*
X0205709Y0030256D03*
X0203741Y0030256D03*
X0199804Y0030256D03*
X0193898Y0030256D03*
X0189961Y0030256D03*
X0187993Y0030256D03*
X0184843Y0030256D03*
D68*
X0179843Y0028031D03*
D69*
X0179843Y0011574D03*
D68*
X0213859Y0028031D03*
D69*
X0213859Y0011574D03*
D25*
X0150099Y0246811D03*
X0145374Y0246811D03*
X0154823Y0246811D03*
X0159548Y0246811D03*
X0134115Y0303602D03*
X0130178Y0303602D03*
D23*
X0073032Y0089035D03*
G36*
G01*
X0078327Y0085492D02*
X0075611Y0085492D01*
G75*
G02*
X0074705Y0086397I0000000J0000906D01*
G01*
X0074705Y0091673D01*
G75*
G02*
X0075611Y0092578I0000906J0000000D01*
G01*
X0078327Y0092578D01*
G75*
G02*
X0079233Y0091673I0000000J-000906D01*
G01*
X0079233Y0086397D01*
G75*
G02*
X0078327Y0085492I-000906J0000000D01*
G01*
G37*
G36*
G01*
X0089745Y0085492D02*
X0087028Y0085492D01*
G75*
G02*
X0086122Y0086397I0000000J0000906D01*
G01*
X0086122Y0091673D01*
G75*
G02*
X0087028Y0092578I0000906J0000000D01*
G01*
X0089745Y0092578D01*
G75*
G02*
X0090650Y0091673I0000000J-000906D01*
G01*
X0090650Y0086397D01*
G75*
G02*
X0089745Y0085492I-000906J0000000D01*
G01*
G37*
X0092323Y0089035D03*
G36*
G01*
X0076811Y0263445D02*
X0072796Y0263445D01*
G75*
G02*
X0072441Y0263799I0000000J0000354D01*
G01*
X0072441Y0266634D01*
G75*
G02*
X0072796Y0266988I0000354J0000000D01*
G01*
X0076811Y0266988D01*
G75*
G02*
X0077166Y0266634I0000000J-000354D01*
G01*
X0077166Y0263799D01*
G75*
G02*
X0076811Y0263445I-000354J0000000D01*
G01*
G37*
G36*
G01*
X0076811Y0276437D02*
X0072796Y0276437D01*
G75*
G02*
X0072441Y0276791I0000000J0000354D01*
G01*
X0072441Y0279626D01*
G75*
G02*
X0072796Y0279980I0000354J0000000D01*
G01*
X0076811Y0279980D01*
G75*
G02*
X0077166Y0279626I0000000J-000354D01*
G01*
X0077166Y0276791D01*
G75*
G02*
X0076811Y0276437I-000354J0000000D01*
G01*
G37*
D70*
X0386418Y0149271D03*
D71*
X0376418Y0149271D03*
X0366418Y0149271D03*
X0356418Y0149271D03*
X0346418Y0149271D03*
X0336418Y0149271D03*
G36*
G01*
X0091378Y0037657D02*
X0094449Y0037657D01*
G75*
G02*
X0094725Y0037382I0000000J-000276D01*
G01*
X0094725Y0035177D01*
G75*
G02*
X0094449Y0034901I-000276J0000000D01*
G01*
X0091378Y0034901D01*
G75*
G02*
X0091103Y0035177I0000000J0000276D01*
G01*
X0091103Y0037382D01*
G75*
G02*
X0091378Y0037657I0000276J0000000D01*
G01*
G37*
G36*
G01*
X0091378Y0031358D02*
X0094449Y0031358D01*
G75*
G02*
X0094725Y0031082I0000000J-000276D01*
G01*
X0094725Y0028878D01*
G75*
G02*
X0094449Y0028602I-000276J0000000D01*
G01*
X0091378Y0028602D01*
G75*
G02*
X0091103Y0028878I0000000J0000276D01*
G01*
X0091103Y0031082D01*
G75*
G02*
X0091378Y0031358I0000276J0000000D01*
G01*
G37*
D72*
X0284265Y0297027D03*
X0284265Y0207027D03*
D73*
X0276864Y0271486D03*
X0276864Y0232736D03*
X0271864Y0232736D03*
X0266864Y0232736D03*
X0261864Y0232736D03*
D23*
X0234265Y0277027D03*
D73*
X0261864Y0271486D03*
X0266864Y0271486D03*
D23*
X0234265Y0267027D03*
D73*
X0271864Y0271486D03*
D23*
X0234265Y0257027D03*
X0234265Y0247027D03*
X0234265Y0237027D03*
X0234265Y0227027D03*
D11*
X0031811Y0045334D03*
G36*
G01*
X0007638Y0051181D02*
X0004961Y0051181D01*
G75*
G02*
X0004626Y0051515I0000000J0000335D01*
G01*
X0004626Y0054193D01*
G75*
G02*
X0004961Y0054527I0000335J0000000D01*
G01*
X0007638Y0054527D01*
G75*
G02*
X0007973Y0054193I0000000J-000335D01*
G01*
X0007973Y0051515D01*
G75*
G02*
X0007638Y0051181I-000335J0000000D01*
G01*
G37*
G36*
G01*
X0007638Y0057401D02*
X0004961Y0057401D01*
G75*
G02*
X0004626Y0057736I0000000J0000335D01*
G01*
X0004626Y0060413D01*
G75*
G02*
X0004961Y0060748I0000335J0000000D01*
G01*
X0007638Y0060748D01*
G75*
G02*
X0007973Y0060413I0000000J-000335D01*
G01*
X0007973Y0057736D01*
G75*
G02*
X0007638Y0057401I-000335J0000000D01*
G01*
G37*
X0185512Y0196752D03*
X0185512Y0206752D03*
X0185512Y0216752D03*
X0185512Y0226752D03*
X0185512Y0236752D03*
X0195512Y0196752D03*
X0195512Y0206752D03*
X0195512Y0216752D03*
X0195512Y0226752D03*
X0195512Y0236752D03*
X0205512Y0196752D03*
X0205512Y0206752D03*
X0205512Y0216752D03*
X0205512Y0226752D03*
X0205512Y0236752D03*
D36*
X0362205Y0085099D03*
X0362205Y0114626D03*
D70*
X0430119Y0285019D03*
D71*
X0420119Y0285019D03*
X0430119Y0275019D03*
X0420119Y0275019D03*
X0430119Y0265019D03*
X0420119Y0265019D03*
X0430119Y0255019D03*
X0420119Y0255019D03*
X0430119Y0245019D03*
X0420119Y0245019D03*
X0430119Y0235019D03*
X0420119Y0235019D03*
X0430119Y0225019D03*
X0420119Y0225019D03*
X0430119Y0215019D03*
X0420119Y0215019D03*
X0430119Y0205019D03*
X0420119Y0205019D03*
X0430119Y0195019D03*
X0420119Y0195019D03*
D70*
X0350374Y0311456D03*
D71*
X0340374Y0311456D03*
X0350374Y0301456D03*
X0340374Y0301456D03*
X0350374Y0291456D03*
X0340374Y0291456D03*
D70*
X0040670Y0119980D03*
D71*
X0050670Y0119980D03*
X0040670Y0129980D03*
X0050670Y0129980D03*
X0040670Y0139980D03*
X0050670Y0139980D03*
X0040670Y0149980D03*
X0050670Y0149980D03*
D70*
X0040630Y0195019D03*
D71*
X0050630Y0195019D03*
X0040630Y0205019D03*
X0050630Y0205019D03*
X0040630Y0215019D03*
X0050630Y0215019D03*
X0040630Y0225019D03*
X0050630Y0225019D03*
X0040630Y0235019D03*
X0050630Y0235019D03*
X0040630Y0245019D03*
X0050630Y0245019D03*
X0040630Y0255019D03*
X0050630Y0255019D03*
X0040630Y0265019D03*
X0050630Y0265019D03*
X0040630Y0275019D03*
X0050630Y0275019D03*
D70*
X0430119Y0149980D03*
D71*
X0420119Y0149980D03*
X0430119Y0139980D03*
X0420119Y0139980D03*
X0430119Y0129980D03*
X0420119Y0129980D03*
X0430119Y0119980D03*
X0420119Y0119980D03*
X0430119Y0109980D03*
X0420119Y0109980D03*
X0430119Y0099980D03*
X0420119Y0099980D03*
X0430119Y0089980D03*
X0420119Y0089980D03*
X0430119Y0079980D03*
X0420119Y0079980D03*
D21*
X0090158Y0321712D03*
X0252756Y0320925D03*
X0140158Y0217775D03*
X0299607Y0226043D03*
X0096654Y0300256D03*
X0155906Y0095334D03*
X0061418Y0046122D03*
X0035827Y0082736D03*
X0143307Y0308720D03*
X0094095Y0013445D03*
X0035433Y0020531D03*
X0012599Y0329783D03*
X0397008Y0389744D03*
X0048426Y0046515D03*
X0040150Y0330580D03*
X0391339Y0267775D03*
X0316142Y0205177D03*
X0007033Y0132098D03*
X0029467Y0058802D03*
X0027559Y0049665D03*
X0258268Y0046122D03*
X0314961Y0100059D03*
X0009410Y0265535D03*
X0061418Y0021712D03*
X0144145Y0142649D03*
X0130315Y0242972D03*
X0364174Y0003996D03*
X0432050Y0294480D03*
X0085827Y0283130D03*
X0024804Y0002815D03*
X0201575Y0308326D03*
X0009818Y0196180D03*
X0207087Y0013445D03*
X0054331Y0045728D03*
X0168111Y0308720D03*
X0311024Y0238248D03*
X0416550Y0294580D03*
X0124410Y0142972D03*
X0389348Y0322171D03*
X0208662Y0003996D03*
X0108662Y0232342D03*
X0025050Y0306880D03*
X0028347Y0082736D03*
X0280350Y0333080D03*
X0115355Y0227618D03*
X0250000Y0277224D03*
X0310237Y0003996D03*
X0099213Y0387460D03*
X0053544Y0021712D03*
X0176772Y0177224D03*
X0449650Y0070580D03*
X0305155Y0200846D03*
X0190158Y0002815D03*
X0164174Y0158326D03*
X0166142Y0037854D03*
X0194489Y0321319D03*
X0264174Y0298090D03*
X0114146Y0199635D03*
X0119489Y0280767D03*
X0022244Y0265610D03*
X0006300Y0361476D03*
X0022531Y0219243D03*
X0183071Y0021319D03*
X0170350Y0344880D03*
X0231103Y0289035D03*
X0009607Y0216988D03*
X0123622Y0167775D03*
X0391339Y0154389D03*
X0315748Y0063445D03*
X0022441Y0252815D03*
X0101969Y0117775D03*
X0066659Y0289468D03*
X0053544Y0013051D03*
X0346063Y0267382D03*
X0102363Y0227618D03*
X0396150Y0070680D03*
X0432950Y0159880D03*
X0035827Y0058720D03*
X0206650Y0344780D03*
X0180950Y0330680D03*
X0095670Y0066988D03*
X0119292Y0295728D03*
X0338977Y0004389D03*
X0305512Y0191594D03*
X0378347Y0094941D03*
X0125197Y0309901D03*
X0069292Y0021712D03*
X0449750Y0184080D03*
X0177397Y0096753D03*
X0081890Y0270531D03*
X0315355Y0033523D03*
X0137599Y0099862D03*
X0271654Y0387460D03*
X0087008Y0026043D03*
X0082678Y0300059D03*
X0412950Y0181380D03*
X0070079Y0318956D03*
X0245670Y0286279D03*
X0097638Y0313838D03*
X0050788Y0084704D03*
X0115987Y0115771D03*
X0430550Y0337080D03*
X0032678Y0008326D03*
X0187008Y0013445D03*
X0009877Y0078563D03*
X0165748Y0014626D03*
X0243650Y0335880D03*
X0043229Y0083167D03*
X0151575Y0135098D03*
X0163780Y0272106D03*
X0002643Y0031441D03*
X0190158Y0202815D03*
X0291405Y0319480D03*
X0156300Y0133130D03*
X0026250Y0138480D03*
X0200394Y0203208D03*
X0104331Y0261673D03*
X0294350Y0332880D03*
X0022441Y0196319D03*
X0022540Y0184311D03*
X0152650Y0330480D03*
X0266930Y0259901D03*
X0219292Y0046515D03*
X0061418Y0013051D03*
X0218504Y0315807D03*
X0150394Y0188641D03*
X0041798Y0046056D03*
X0145473Y0126043D03*
X0164174Y0247303D03*
X0011024Y0055177D03*
X0314961Y0138248D03*
X0234450Y0338780D03*
X0150394Y0169350D03*
X0108662Y0149271D03*
X0107087Y0177502D03*
X0239370Y0212263D03*
X0334252Y0388641D03*
X0180950Y0344780D03*
X0303150Y0330280D03*
X0380709Y0153602D03*
X0084843Y0315216D03*
X0054725Y0053996D03*
X0242126Y0246122D03*
X0266864Y0276437D03*
X0022244Y0230571D03*
X0314567Y0184311D03*
X0004089Y0165016D03*
X0102166Y0199626D03*
X0206150Y0330680D03*
X0381496Y0141004D03*
X0026573Y0161752D03*
X0218898Y0024074D03*
X0331890Y0107539D03*
X0177166Y0061870D03*
X0354331Y0081949D03*
X0102363Y0177618D03*
X0102363Y0172106D03*
X0426811Y0003860D03*
X0308050Y0330180D03*
X0017559Y0176163D03*
X0206300Y0321319D03*
X0314567Y0170137D03*
X0402850Y0338580D03*
X0114961Y0144547D03*
X0370473Y0131949D03*
X0004331Y0321319D03*
X0337008Y0266988D03*
X0207481Y0255177D03*
X0022835Y0083130D03*
X0219685Y0002815D03*
X0009410Y0251043D03*
X0333465Y0170137D03*
X0137350Y0344980D03*
X0118898Y0263445D03*
X0356693Y0267382D03*
X0186221Y0308720D03*
X0348622Y0154586D03*
X0109056Y0121712D03*
X0053731Y0373453D03*
X0245670Y0229980D03*
X0094489Y0005964D03*
X0410250Y0162580D03*
X0351575Y0267382D03*
X0132715Y0167573D03*
X0333071Y0128405D03*
X0074804Y0046909D03*
X0370473Y0268169D03*
X0040450Y0344680D03*
X0009410Y0230571D03*
X0215355Y0386673D03*
X0271850Y0334380D03*
X0155119Y0308326D03*
X0355512Y0132342D03*
X0206300Y0292578D03*
X0043307Y0058720D03*
X0159843Y0319350D03*
X0172029Y0386235D03*
X0315355Y0087460D03*
X0334252Y0216594D03*
X0037721Y0051297D03*
X0068898Y0013051D03*
X0387144Y0301339D03*
X0229922Y0321319D03*
X0328347Y0085886D03*
X0126750Y0330580D03*
X0137450Y0330680D03*
X0102363Y0255374D03*
X0307087Y0216200D03*
X0164174Y0139823D03*
X0163780Y0295334D03*
X0109056Y0204389D03*
X0303544Y0045728D03*
X0126850Y0344780D03*
X0165891Y0026888D03*
X0089764Y0050846D03*
X0350788Y0115807D03*
X0024804Y0328405D03*
X0248032Y0259508D03*
X0170250Y0330680D03*
X0103150Y0144941D03*
X0061615Y0063641D03*
X0025197Y0038641D03*
X0242126Y0314626D03*
X0315355Y0078011D03*
X0165355Y0068169D03*
X0286615Y0275256D03*
X0176378Y0151240D03*
X0057087Y0386673D03*
X0253050Y0334380D03*
X0152050Y0344980D03*
X0317582Y0303664D03*
X0315748Y0070531D03*
X0079528Y0016988D03*
X0044095Y0013051D03*
X0389764Y0133917D03*
X0121260Y0113641D03*
X0002363Y0298484D03*
X0165355Y0174468D03*
X0083901Y0003928D03*
X0129134Y0217775D03*
X0089174Y0276043D03*
X0273229Y0045728D03*
X0129331Y0117185D03*
X0115748Y0255374D03*
X0329134Y0003602D03*
X0009843Y0029586D03*
X0087402Y0021936D03*
X0200682Y0222124D03*
X0390333Y0289663D03*
X0272048Y0253208D03*
X0331103Y0154915D03*
X0331549Y0175681D03*
X0312993Y0253208D03*
X0175390Y0043023D03*
X0230315Y0213838D03*
X0238189Y0292539D03*
X0250394Y0044547D03*
X0383859Y0126437D03*
X0166339Y0041791D03*
X0244061Y0038051D03*
X0070473Y0268563D03*
X0070867Y0297697D03*
X0082678Y0289823D03*
X0083326Y0295328D03*
X0029134Y0004783D03*
X0148819Y0315019D03*
X0036350Y0356080D03*
X0330315Y0270493D03*
X0375985Y0282539D03*
X0333959Y0181555D03*
X0379900Y0306423D03*
X0379900Y0316265D03*
X0379900Y0296580D03*
X0086453Y0108251D03*
X0078389Y0108368D03*
X0092126Y0140610D03*
X0087008Y0135492D03*
X0077953Y0171319D03*
X0077953Y0164626D03*
X0077953Y0190610D03*
X0074400Y0196614D03*
X0073819Y0226240D03*
X0078150Y0221909D03*
X0078347Y0250059D03*
X0074410Y0253996D03*
X0192520Y0024468D03*
X0204308Y0025986D03*
X0174607Y0051751D03*
X0301181Y0024074D03*
X0268111Y0003602D03*
X0180552Y0231752D03*
X0173032Y0076043D03*
X0171260Y0231555D03*
X0097216Y0090702D03*
X0172244Y0037263D03*
X0163652Y0090411D03*
X0164174Y0094547D03*
X0164174Y0124074D03*
X0152363Y0127224D03*
X0152041Y0098721D03*
X0065748Y0096122D03*
X0121260Y0126830D03*
X0109449Y0280964D03*
X0099410Y0280964D03*
X0035809Y0105239D03*
X0022858Y0170496D03*
X0016142Y0204193D03*
X0122048Y0107145D03*
X0031350Y0209980D03*
X0031150Y0229980D03*
X0137900Y0109600D03*
X0030250Y0102680D03*
X0011811Y0170925D03*
X0002559Y0238248D03*
X0031350Y0269980D03*
X0147080Y0107198D03*
X0016480Y0171122D03*
X0030250Y0098880D03*
X0005119Y0271909D03*
X0118111Y0123681D03*
X0119685Y0100059D03*
X0101142Y0295711D03*
X0115748Y0097303D03*
X0054528Y0082342D03*
X0057087Y0094155D03*
X0016536Y0083917D03*
X0176378Y0002421D03*
X0090552Y0002421D03*
X0279046Y0042266D03*
X0071260Y0066988D03*
X0010655Y0074751D03*
X0179723Y0038267D03*
X0035040Y0038248D03*
X0088189Y0030374D03*
X0059056Y0083130D03*
X0068550Y0172980D03*
X0029650Y0173080D03*
X0157087Y0189035D03*
X0305512Y0272106D03*
X0279134Y0240610D03*
X0305512Y0240610D03*
X0115158Y0135492D03*
X0123819Y0160098D03*
X0113386Y0204586D03*
X0123426Y0217775D03*
X0122244Y0242578D03*
X0222790Y0034705D03*
X0382481Y0064232D03*
X0236615Y0031555D03*
X0385040Y0058326D03*
X0327552Y0324724D03*
X0201575Y0005964D03*
X0201575Y0045728D03*
X0034095Y0328738D03*
X0333465Y0324724D03*
X0036024Y0324860D03*
X0338189Y0324468D03*
X0187499Y0041770D03*
X0159449Y0212263D03*
X0175393Y0039283D03*
X0159134Y0192339D03*
X0010630Y0066988D03*
X0023130Y0066830D03*
X0049213Y0029586D03*
X0035433Y0029980D03*
X0216142Y0281555D03*
X0220609Y0279132D03*
X0216368Y0266962D03*
X0102756Y0237067D03*
X0102953Y0209480D03*
X0102953Y0181910D03*
X0102953Y0153974D03*
X0102953Y0126792D03*
X0111418Y0107541D03*
X0109449Y0111082D03*
X0315355Y0129193D03*
X0096899Y0004802D02*
G01*
G75*
D116*
X0141978Y0029169D02*
D03*
X0141978Y0011452D02*
D03*
D117*
X0138651Y0053621D02*
D03*
X0111289Y0053621D02*
D03*
D118*
X0127411Y0030393D02*
D03*
X0111269Y0030393D02*
D03*
D119*
X0129182Y0012282D02*
D03*
X0113434Y0012282D02*
D03*
D120*
X0106243Y0074060D02*
D03*
X0115495Y0070320D02*
D03*
D120*
X0115495Y0077800D02*
D03*
D121*
X0138330Y0083739D02*
D03*
D121*
X0138330Y0079999D02*
D03*
X0138330Y0076259D02*
D03*
X0146794Y0076259D02*
D03*
X0146794Y0083739D02*
D03*
D122*
X0150646Y0069738D02*
D03*
X0137654Y0069738D02*
D03*
D123*
X0132360Y0070026D02*
D03*
X0120942Y0070026D02*
D03*
D124*
X0151545Y0037479D02*
D03*
X0145324Y0037479D02*
D03*
X0140954Y0037479D02*
D03*
X0134734Y0037479D02*
D03*
D125*
X0100868Y0014590D02*
D03*
X0100868Y0018724D02*
D03*
X0151423Y0056464D02*
D03*
X0151423Y0060598D02*
D03*
X0151423Y0051751D02*
D03*
X0151423Y0047617D02*
D03*
X0152315Y0032102D02*
D03*
X0152315Y0027968D02*
D03*
D126*
X0133212Y0076309D02*
D03*
X0133212Y0080246D02*
D03*
X0119537Y0077211D02*
D03*
X0128198Y0077211D02*
D03*
X0119537Y0083608D02*
D03*
X0128198Y0083608D02*
D03*
D127*
X0111164Y0083739D02*
D03*
X0114708Y0083739D02*
D03*
D128*
X0147165Y0060401D02*
D03*
X0147165Y0056857D02*
D03*
X0147165Y0051357D02*
D03*
X0147165Y0047814D02*
D03*
X0152315Y0019801D02*
D03*
X0152315Y0023345D02*
D03*
D129*
X0162647Y0022912D02*
D03*
X0162647Y0018975D02*
D03*
D130*
X0099852Y0076455D02*
D03*
X0099852Y0009526D02*
D03*
X0099852Y0056967D02*
D03*
X0160875Y0056770D02*
D03*
X0160875Y0081967D02*
D03*
X0160875Y0032361D02*
D03*
X0160875Y0049290D02*
D03*
X0160875Y0007755D02*
D03*
X0099852Y0083739D02*
D03*
X0303002Y0323306D02*
G01*
G75*
D297*
X0313226Y0308601D02*
D03*
X0305746Y0308601D02*
D03*
X0305746Y0317066D02*
D03*
X0309486Y0317066D02*
D03*
X0313226Y0292952D02*
D03*
X0305746Y0292952D02*
D03*
X0305746Y0301416D02*
D03*
X0309486Y0301416D02*
D03*
D297*
X0313226Y0317066D02*
D03*
X0313226Y0301416D02*
D03*
D129*
X0313238Y0287873D02*
D03*
X0309498Y0287873D02*
D03*
X0305758Y0287873D02*
D03*
X0309695Y0322125D02*
D03*
X0313238Y0322125D02*
D03*
X0166387Y0304998D02*
%LPD*%
G01*
D25*
X0193552Y0246730D03*
X0188828Y0246730D03*
X0198277Y0246730D03*
X0203001Y0246730D03*
X0177568Y0303522D03*
X0173631Y0303522D03*
G36*
G01*
X0184005Y0287557D02*
X0185462Y0287557D01*
G75*
G02*
X0185993Y0287026I0000000J-000531D01*
G01*
X0185993Y0285963D01*
G75*
G02*
X0185462Y0285431I-000531J0000000D01*
G01*
X0184005Y0285431D01*
G75*
G02*
X0183474Y0285963I0000000J0000531D01*
G01*
X0183474Y0287026D01*
G75*
G02*
X0184005Y0287557I0000531J0000000D01*
G01*
G37*
G36*
G01*
X0184005Y0291573D02*
X0185462Y0291573D01*
G75*
G02*
X0185993Y0291041I0000000J-000531D01*
G01*
X0185993Y0289978D01*
G75*
G02*
X0185462Y0289447I-000531J0000000D01*
G01*
X0184005Y0289447D01*
G75*
G02*
X0183474Y0289978I0000000J0000531D01*
G01*
X0183474Y0291041D01*
G75*
G02*
X0184005Y0291573I0000531J0000000D01*
G01*
G37*
G36*
G01*
X0168316Y0264309D02*
X0168316Y0265766D01*
G75*
G02*
X0168848Y0266297I0000531J0000000D01*
G01*
X0169911Y0266297D01*
G75*
G02*
X0170442Y0265766I0000000J-000531D01*
G01*
X0170442Y0264309D01*
G75*
G02*
X0169911Y0263778I-000531J0000000D01*
G01*
X0168848Y0263778D01*
G75*
G02*
X0168316Y0264309I0000000J0000531D01*
G01*
G37*
G36*
G01*
X0172332Y0264309D02*
X0172332Y0265766D01*
G75*
G02*
X0172863Y0266297I0000531J0000000D01*
G01*
X0173926Y0266297D01*
G75*
G02*
X0174458Y0265766I0000000J-000531D01*
G01*
X0174458Y0264309D01*
G75*
G02*
X0173926Y0263778I-000531J0000000D01*
G01*
X0172863Y0263778D01*
G75*
G02*
X0172332Y0264309I0000000J0000531D01*
G01*
G37*
G36*
G01*
X0200659Y0275281D02*
X0201840Y0275281D01*
G75*
G02*
X0202430Y0274691I0000000J-000591D01*
G01*
X0202430Y0268195D01*
G75*
G02*
X0201840Y0267604I-000591J0000000D01*
G01*
X0200659Y0267604D01*
G75*
G02*
X0200068Y0268195I0000000J0000591D01*
G01*
X0200068Y0274691D01*
G75*
G02*
X0200659Y0275281I0000591J0000000D01*
G01*
G37*
G36*
G01*
X0195659Y0275281D02*
X0196840Y0275281D01*
G75*
G02*
X0197430Y0274691I0000000J-000591D01*
G01*
X0197430Y0268195D01*
G75*
G02*
X0196840Y0267604I-000591J0000000D01*
G01*
X0195659Y0267604D01*
G75*
G02*
X0195068Y0268195I0000000J0000591D01*
G01*
X0195068Y0274691D01*
G75*
G02*
X0195659Y0275281I0000591J0000000D01*
G01*
G37*
G36*
G01*
X0190659Y0275281D02*
X0191840Y0275281D01*
G75*
G02*
X0192430Y0274691I0000000J-000591D01*
G01*
X0192430Y0268195D01*
G75*
G02*
X0191840Y0267604I-000591J0000000D01*
G01*
X0190659Y0267604D01*
G75*
G02*
X0190068Y0268195I0000000J0000591D01*
G01*
X0190068Y0274691D01*
G75*
G02*
X0190659Y0275281I0000591J0000000D01*
G01*
G37*
G36*
G01*
X0185659Y0275281D02*
X0186840Y0275281D01*
G75*
G02*
X0187430Y0274691I0000000J-000591D01*
G01*
X0187430Y0268195D01*
G75*
G02*
X0186840Y0267604I-000591J0000000D01*
G01*
X0185659Y0267604D01*
G75*
G02*
X0185068Y0268195I0000000J0000591D01*
G01*
X0185068Y0274691D01*
G75*
G02*
X0185659Y0275281I0000591J0000000D01*
G01*
G37*
G36*
G01*
X0185659Y0255793D02*
X0186840Y0255793D01*
G75*
G02*
X0187430Y0255203I0000000J-000591D01*
G01*
X0187430Y0248707D01*
G75*
G02*
X0186840Y0248116I-000591J0000000D01*
G01*
X0185659Y0248116D01*
G75*
G02*
X0185068Y0248707I0000000J0000591D01*
G01*
X0185068Y0255203D01*
G75*
G02*
X0185659Y0255793I0000591J0000000D01*
G01*
G37*
G36*
G01*
X0190659Y0255793D02*
X0191840Y0255793D01*
G75*
G02*
X0192430Y0255203I0000000J-000591D01*
G01*
X0192430Y0248707D01*
G75*
G02*
X0191840Y0248116I-000591J0000000D01*
G01*
X0190659Y0248116D01*
G75*
G02*
X0190068Y0248707I0000000J0000591D01*
G01*
X0190068Y0255203D01*
G75*
G02*
X0190659Y0255793I0000591J0000000D01*
G01*
G37*
G36*
G01*
X0195659Y0255793D02*
X0196840Y0255793D01*
G75*
G02*
X0197430Y0255203I0000000J-000591D01*
G01*
X0197430Y0248707D01*
G75*
G02*
X0196840Y0248116I-000591J0000000D01*
G01*
X0195659Y0248116D01*
G75*
G02*
X0195068Y0248707I0000000J0000591D01*
G01*
X0195068Y0255203D01*
G75*
G02*
X0195659Y0255793I0000591J0000000D01*
G01*
G37*
G36*
G01*
X0200659Y0255793D02*
X0201840Y0255793D01*
G75*
G02*
X0202430Y0255203I0000000J-000591D01*
G01*
X0202430Y0248707D01*
G75*
G02*
X0201840Y0248116I-000591J0000000D01*
G01*
X0200659Y0248116D01*
G75*
G02*
X0200068Y0248707I0000000J0000591D01*
G01*
X0200068Y0255203D01*
G75*
G02*
X0200659Y0255793I0000591J0000000D01*
G01*
G37*
D153*
X0201387Y0289801D03*
X0198828Y0289801D03*
X0196269Y0289801D03*
X0196269Y0282321D03*
X0198828Y0282321D03*
X0201387Y0282321D03*
G36*
G01*
X0182299Y0273640D02*
X0182299Y0272183D01*
G75*
G02*
X0181767Y0271652I-000531J0000000D01*
G01*
X0180704Y0271652D01*
G75*
G02*
X0180173Y0272183I0000000J0000531D01*
G01*
X0180173Y0273640D01*
G75*
G02*
X0180704Y0274171I0000531J0000000D01*
G01*
X0181767Y0274171D01*
G75*
G02*
X0182299Y0273640I0000000J-000531D01*
G01*
G37*
G36*
G01*
X0178283Y0273640D02*
X0178283Y0272183D01*
G75*
G02*
X0177752Y0271652I-000531J0000000D01*
G01*
X0176689Y0271652D01*
G75*
G02*
X0176157Y0272183I0000000J0000531D01*
G01*
X0176157Y0273640D01*
G75*
G02*
X0176689Y0274171I0000531J0000000D01*
G01*
X0177752Y0274171D01*
G75*
G02*
X0178283Y0273640I0000000J-000531D01*
G01*
G37*
G36*
G01*
X0176236Y0268305D02*
X0176236Y0269644D01*
G75*
G02*
X0176787Y0270195I0000551J0000000D01*
G01*
X0177889Y0270195D01*
G75*
G02*
X0178441Y0269644I0000000J-000551D01*
G01*
X0178441Y0268305D01*
G75*
G02*
X0177889Y0267754I-000551J0000000D01*
G01*
X0176787Y0267754D01*
G75*
G02*
X0176236Y0268305I0000000J0000551D01*
G01*
G37*
G36*
G01*
X0180015Y0268305D02*
X0180015Y0269644D01*
G75*
G02*
X0180567Y0270195I0000551J0000000D01*
G01*
X0181669Y0270195D01*
G75*
G02*
X0182220Y0269644I0000000J-000551D01*
G01*
X0182220Y0268305D01*
G75*
G02*
X0181669Y0267754I-000551J0000000D01*
G01*
X0180567Y0267754D01*
G75*
G02*
X0180015Y0268305I0000000J0000551D01*
G01*
G37*
G36*
G01*
X0168316Y0272183D02*
X0168316Y0273640D01*
G75*
G02*
X0168848Y0274171I0000531J0000000D01*
G01*
X0169911Y0274171D01*
G75*
G02*
X0170442Y0273640I0000000J-000531D01*
G01*
X0170442Y0272183D01*
G75*
G02*
X0169911Y0271652I-000531J0000000D01*
G01*
X0168848Y0271652D01*
G75*
G02*
X0168316Y0272183I0000000J0000531D01*
G01*
G37*
G36*
G01*
X0172332Y0272183D02*
X0172332Y0273640D01*
G75*
G02*
X0172863Y0274171I0000531J0000000D01*
G01*
X0173926Y0274171D01*
G75*
G02*
X0174458Y0273640I0000000J-000531D01*
G01*
X0174458Y0272183D01*
G75*
G02*
X0173926Y0271652I-000531J0000000D01*
G01*
X0172863Y0271652D01*
G75*
G02*
X0172332Y0272183I0000000J0000531D01*
G01*
G37*
G36*
G01*
X0174379Y0260589D02*
X0174379Y0259250D01*
G75*
G02*
X0173828Y0258699I-000551J0000000D01*
G01*
X0172726Y0258699D01*
G75*
G02*
X0172174Y0259250I0000000J0000551D01*
G01*
X0172174Y0260589D01*
G75*
G02*
X0172726Y0261140I0000551J0000000D01*
G01*
X0173828Y0261140D01*
G75*
G02*
X0174379Y0260589I0000000J-000551D01*
G01*
G37*
G36*
G01*
X0170600Y0260589D02*
X0170600Y0259250D01*
G75*
G02*
X0170048Y0258699I-000551J0000000D01*
G01*
X0168946Y0258699D01*
G75*
G02*
X0168395Y0259250I0000000J0000551D01*
G01*
X0168395Y0260589D01*
G75*
G02*
X0168946Y0261140I0000551J0000000D01*
G01*
X0170048Y0261140D01*
G75*
G02*
X0170600Y0260589I0000000J-000551D01*
G01*
G37*
G36*
G01*
X0178237Y0283718D02*
X0178237Y0282380D01*
G75*
G02*
X0177686Y0281829I-000551J0000000D01*
G01*
X0176584Y0281829D01*
G75*
G02*
X0176033Y0282380I0000000J0000551D01*
G01*
X0176033Y0283718D01*
G75*
G02*
X0176584Y0284270I0000551J0000000D01*
G01*
X0177686Y0284270D01*
G75*
G02*
X0178237Y0283718I0000000J-000551D01*
G01*
G37*
G36*
G01*
X0174458Y0283718D02*
X0174458Y0282380D01*
G75*
G02*
X0173907Y0281829I-000551J0000000D01*
G01*
X0172804Y0281829D01*
G75*
G02*
X0172253Y0282380I0000000J0000551D01*
G01*
X0172253Y0283718D01*
G75*
G02*
X0172804Y0284270I0000551J0000000D01*
G01*
X0173907Y0284270D01*
G75*
G02*
X0174458Y0283718I0000000J-000551D01*
G01*
G37*
G36*
G01*
X0181485Y0277951D02*
X0180029Y0277951D01*
G75*
G02*
X0179497Y0278482I0000000J0000531D01*
G01*
X0179497Y0279545D01*
G75*
G02*
X0180029Y0280077I0000531J0000000D01*
G01*
X0181485Y0280077D01*
G75*
G02*
X0182017Y0279545I0000000J-000531D01*
G01*
X0182017Y0278482D01*
G75*
G02*
X0181485Y0277951I-000531J0000000D01*
G01*
G37*
G36*
G01*
X0181485Y0281967D02*
X0180029Y0281967D01*
G75*
G02*
X0179497Y0282498I0000000J0000531D01*
G01*
X0179497Y0283561D01*
G75*
G02*
X0180029Y0284092I0000531J0000000D01*
G01*
X0181485Y0284092D01*
G75*
G02*
X0182017Y0283561I0000000J-000531D01*
G01*
X0182017Y0282498D01*
G75*
G02*
X0181485Y0281967I-000531J0000000D01*
G01*
G37*
G36*
G01*
X0182214Y0247124D02*
X0180875Y0247124D01*
G75*
G02*
X0180324Y0247675I0000000J0000551D01*
G01*
X0180324Y0248778D01*
G75*
G02*
X0180875Y0249329I0000551J0000000D01*
G01*
X0182214Y0249329D01*
G75*
G02*
X0182765Y0248778I0000000J-000551D01*
G01*
X0182765Y0247675D01*
G75*
G02*
X0182214Y0247124I-000551J0000000D01*
G01*
G37*
G36*
G01*
X0182214Y0250904D02*
X0180875Y0250904D01*
G75*
G02*
X0180324Y0251455I0000000J0000551D01*
G01*
X0180324Y0252557D01*
G75*
G02*
X0180875Y0253108I0000551J0000000D01*
G01*
X0182214Y0253108D01*
G75*
G02*
X0182765Y0252557I0000000J-000551D01*
G01*
X0182765Y0251455D01*
G75*
G02*
X0182214Y0250904I-000551J0000000D01*
G01*
G37*
G36*
G01*
X0187977Y0296179D02*
X0189994Y0296179D01*
G75*
G02*
X0190856Y0295318I0000000J-000861D01*
G01*
X0190856Y0293595D01*
G75*
G02*
X0189994Y0292734I-000861J0000000D01*
G01*
X0187977Y0292734D01*
G75*
G02*
X0187115Y0293595I0000000J0000861D01*
G01*
X0187115Y0295318D01*
G75*
G02*
X0187977Y0296179I0000861J0000000D01*
G01*
G37*
G36*
G01*
X0187977Y0302380D02*
X0189994Y0302380D01*
G75*
G02*
X0190856Y0301519I0000000J-000861D01*
G01*
X0190856Y0299796D01*
G75*
G02*
X0189994Y0298935I-000861J0000000D01*
G01*
X0187977Y0298935D01*
G75*
G02*
X0187115Y0299796I0000000J0000861D01*
G01*
X0187115Y0301519D01*
G75*
G02*
X0187977Y0302380I0000861J0000000D01*
G01*
G37*
G36*
G01*
X0193198Y0277400D02*
X0193198Y0278738D01*
G75*
G02*
X0193749Y0279289I0000551J0000000D01*
G01*
X0194852Y0279289D01*
G75*
G02*
X0195403Y0278738I0000000J-000551D01*
G01*
X0195403Y0277400D01*
G75*
G02*
X0194852Y0276848I-000551J0000000D01*
G01*
X0193749Y0276848D01*
G75*
G02*
X0193198Y0277400I0000000J0000551D01*
G01*
G37*
G36*
G01*
X0196978Y0277400D02*
X0196978Y0278738D01*
G75*
G02*
X0197529Y0279289I0000551J0000000D01*
G01*
X0198631Y0279289D01*
G75*
G02*
X0199182Y0278738I0000000J-000551D01*
G01*
X0199182Y0277400D01*
G75*
G02*
X0198631Y0276848I-000551J0000000D01*
G01*
X0197529Y0276848D01*
G75*
G02*
X0196978Y0277400I0000000J0000551D01*
G01*
G37*
G36*
G01*
X0196052Y0295037D02*
X0194596Y0295037D01*
G75*
G02*
X0194064Y0295569I0000000J0000531D01*
G01*
X0194064Y0296632D01*
G75*
G02*
X0194596Y0297163I0000531J0000000D01*
G01*
X0196052Y0297163D01*
G75*
G02*
X0196584Y0296632I0000000J-000531D01*
G01*
X0196584Y0295569D01*
G75*
G02*
X0196052Y0295037I-000531J0000000D01*
G01*
G37*
G36*
G01*
X0196052Y0299053D02*
X0194596Y0299053D01*
G75*
G02*
X0194064Y0299585I0000000J0000531D01*
G01*
X0194064Y0300648D01*
G75*
G02*
X0194596Y0301179I0000531J0000000D01*
G01*
X0196052Y0301179D01*
G75*
G02*
X0196584Y0300648I0000000J-000531D01*
G01*
X0196584Y0299585D01*
G75*
G02*
X0196052Y0299053I-000531J0000000D01*
G01*
G37*
G36*
G01*
X0183966Y0284092D02*
X0185422Y0284092D01*
G75*
G02*
X0185954Y0283561I0000000J-000531D01*
G01*
X0185954Y0282498D01*
G75*
G02*
X0185422Y0281967I-000531J0000000D01*
G01*
X0183966Y0281967D01*
G75*
G02*
X0183434Y0282498I0000000J0000531D01*
G01*
X0183434Y0283561D01*
G75*
G02*
X0183966Y0284092I0000531J0000000D01*
G01*
G37*
G36*
G01*
X0183966Y0280077D02*
X0185422Y0280077D01*
G75*
G02*
X0185954Y0279545I0000000J-000531D01*
G01*
X0185954Y0278482D01*
G75*
G02*
X0185422Y0277951I-000531J0000000D01*
G01*
X0183966Y0277951D01*
G75*
G02*
X0183434Y0278482I0000000J0000531D01*
G01*
X0183434Y0279545D01*
G75*
G02*
X0183966Y0280077I0000531J0000000D01*
G01*
G37*
G36*
G01*
X0178175Y0278955D02*
X0178175Y0277498D01*
G75*
G02*
X0177644Y0276967I-000531J0000000D01*
G01*
X0176581Y0276967D01*
G75*
G02*
X0176049Y0277498I0000000J0000531D01*
G01*
X0176049Y0278955D01*
G75*
G02*
X0176581Y0279486I0000531J0000000D01*
G01*
X0177644Y0279486D01*
G75*
G02*
X0178175Y0278955I0000000J-000531D01*
G01*
G37*
G36*
G01*
X0174159Y0278955D02*
X0174159Y0277498D01*
G75*
G02*
X0173628Y0276967I-000531J0000000D01*
G01*
X0172565Y0276967D01*
G75*
G02*
X0172034Y0277498I0000000J0000531D01*
G01*
X0172034Y0278955D01*
G75*
G02*
X0172565Y0279486I0000531J0000000D01*
G01*
X0173628Y0279486D01*
G75*
G02*
X0174159Y0278955I0000000J-000531D01*
G01*
G37*
G36*
G01*
X0184773Y0296297D02*
X0183434Y0296297D01*
G75*
G02*
X0182883Y0296848I0000000J0000551D01*
G01*
X0182883Y0297951D01*
G75*
G02*
X0183434Y0298502I0000551J0000000D01*
G01*
X0184773Y0298502D01*
G75*
G02*
X0185324Y0297951I0000000J-000551D01*
G01*
X0185324Y0296848D01*
G75*
G02*
X0184773Y0296297I-000551J0000000D01*
G01*
G37*
G36*
G01*
X0184773Y0300077D02*
X0183434Y0300077D01*
G75*
G02*
X0182883Y0300628I0000000J0000551D01*
G01*
X0182883Y0301730D01*
G75*
G02*
X0183434Y0302281I0000551J0000000D01*
G01*
X0184773Y0302281D01*
G75*
G02*
X0185324Y0301730I0000000J-000551D01*
G01*
X0185324Y0300628D01*
G75*
G02*
X0184773Y0300077I-000551J0000000D01*
G01*
G37*
G36*
G01*
X0176236Y0259250D02*
X0176236Y0260589D01*
G75*
G02*
X0176787Y0261140I0000551J0000000D01*
G01*
X0177889Y0261140D01*
G75*
G02*
X0178441Y0260589I0000000J-000551D01*
G01*
X0178441Y0259250D01*
G75*
G02*
X0177889Y0258699I-000551J0000000D01*
G01*
X0176787Y0258699D01*
G75*
G02*
X0176236Y0259250I0000000J0000551D01*
G01*
G37*
G36*
G01*
X0180015Y0259250D02*
X0180015Y0260589D01*
G75*
G02*
X0180567Y0261140I0000551J0000000D01*
G01*
X0181669Y0261140D01*
G75*
G02*
X0182220Y0260589I0000000J-000551D01*
G01*
X0182220Y0259250D01*
G75*
G02*
X0181669Y0258699I-000551J0000000D01*
G01*
X0180567Y0258699D01*
G75*
G02*
X0180015Y0259250I0000000J0000551D01*
G01*
G37*
G36*
G01*
X0168710Y0284270D02*
X0170167Y0284270D01*
G75*
G02*
X0170698Y0283738I0000000J-000531D01*
G01*
X0170698Y0282675D01*
G75*
G02*
X0170167Y0282144I-000531J0000000D01*
G01*
X0168710Y0282144D01*
G75*
G02*
X0168178Y0282675I0000000J0000531D01*
G01*
X0168178Y0283738D01*
G75*
G02*
X0168710Y0284270I0000531J0000000D01*
G01*
G37*
G36*
G01*
X0168710Y0280254D02*
X0170167Y0280254D01*
G75*
G02*
X0170698Y0279722I0000000J-000531D01*
G01*
X0170698Y0278659D01*
G75*
G02*
X0170167Y0278128I-000531J0000000D01*
G01*
X0168710Y0278128D01*
G75*
G02*
X0168178Y0278659I0000000J0000531D01*
G01*
X0168178Y0279722D01*
G75*
G02*
X0168710Y0280254I0000531J0000000D01*
G01*
G37*
D152*
X0169930Y0255011D03*
X0169930Y0252452D03*
X0169930Y0249893D03*
X0177411Y0249893D03*
X0177411Y0252452D03*
X0177411Y0255011D03*
G36*
G01*
X0178716Y0300960D02*
X0179897Y0300960D01*
G75*
G02*
X0180488Y0300369I0000000J-000591D01*
G01*
X0180488Y0296334D01*
G75*
G02*
X0179897Y0295743I-000591J0000000D01*
G01*
X0178716Y0295743D01*
G75*
G02*
X0178126Y0296334I0000000J0000591D01*
G01*
X0178126Y0300369D01*
G75*
G02*
X0178716Y0300960I0000591J0000000D01*
G01*
G37*
G36*
G01*
X0174976Y0300960D02*
X0176157Y0300960D01*
G75*
G02*
X0176748Y0300369I0000000J-000591D01*
G01*
X0176748Y0296334D01*
G75*
G02*
X0176157Y0295743I-000591J0000000D01*
G01*
X0174976Y0295743D01*
G75*
G02*
X0174385Y0296334I0000000J0000591D01*
G01*
X0174385Y0300369D01*
G75*
G02*
X0174976Y0300960I0000591J0000000D01*
G01*
G37*
G36*
G01*
X0171236Y0300960D02*
X0172417Y0300960D01*
G75*
G02*
X0173007Y0300369I0000000J-000591D01*
G01*
X0173007Y0296334D01*
G75*
G02*
X0172417Y0295743I-000591J0000000D01*
G01*
X0171236Y0295743D01*
G75*
G02*
X0170645Y0296334I0000000J0000591D01*
G01*
X0170645Y0300369D01*
G75*
G02*
X0171236Y0300960I0000591J0000000D01*
G01*
G37*
G36*
G01*
X0171236Y0292003D02*
X0172417Y0292003D01*
G75*
G02*
X0173007Y0291413I0000000J-000591D01*
G01*
X0173007Y0287377D01*
G75*
G02*
X0172417Y0286787I-000591J0000000D01*
G01*
X0171236Y0286787D01*
G75*
G02*
X0170645Y0287377I0000000J0000591D01*
G01*
X0170645Y0291413D01*
G75*
G02*
X0171236Y0292003I0000591J0000000D01*
G01*
G37*
G36*
G01*
X0174976Y0292003D02*
X0176157Y0292003D01*
G75*
G02*
X0176748Y0291413I0000000J-000591D01*
G01*
X0176748Y0287377D01*
G75*
G02*
X0176157Y0286787I-000591J0000000D01*
G01*
X0174976Y0286787D01*
G75*
G02*
X0174385Y0287377I0000000J0000591D01*
G01*
X0174385Y0291413D01*
G75*
G02*
X0174976Y0292003I0000591J0000000D01*
G01*
G37*
G36*
G01*
X0178716Y0292003D02*
X0179897Y0292003D01*
G75*
G02*
X0180488Y0291413I0000000J-000591D01*
G01*
X0180488Y0287377D01*
G75*
G02*
X0179897Y0286787I-000591J0000000D01*
G01*
X0178716Y0286787D01*
G75*
G02*
X0178126Y0287377I0000000J0000591D01*
G01*
X0178126Y0291413D01*
G75*
G02*
X0178716Y0292003I0000591J0000000D01*
G01*
G37*
G36*
G01*
X0190600Y0289841D02*
X0191938Y0289841D01*
G75*
G02*
X0192489Y0289289I0000000J-000551D01*
G01*
X0192489Y0288187D01*
G75*
G02*
X0191938Y0287636I-000551J0000000D01*
G01*
X0190600Y0287636D01*
G75*
G02*
X0190048Y0288187I0000000J0000551D01*
G01*
X0190048Y0289289D01*
G75*
G02*
X0190600Y0289841I0000551J0000000D01*
G01*
G37*
G36*
G01*
X0190600Y0286061D02*
X0191938Y0286061D01*
G75*
G02*
X0192489Y0285510I0000000J-000551D01*
G01*
X0192489Y0284407D01*
G75*
G02*
X0191938Y0283856I-000551J0000000D01*
G01*
X0190600Y0283856D01*
G75*
G02*
X0190048Y0284407I0000000J0000551D01*
G01*
X0190048Y0285510D01*
G75*
G02*
X0190600Y0286061I0000551J0000000D01*
G01*
G37*
G36*
G01*
X0168395Y0268305D02*
X0168395Y0269644D01*
G75*
G02*
X0168946Y0270195I0000551J0000000D01*
G01*
X0170048Y0270195D01*
G75*
G02*
X0170600Y0269644I0000000J-000551D01*
G01*
X0170600Y0268305D01*
G75*
G02*
X0170048Y0267754I-000551J0000000D01*
G01*
X0168946Y0267754D01*
G75*
G02*
X0168395Y0268305I0000000J0000551D01*
G01*
G37*
G36*
G01*
X0172174Y0268305D02*
X0172174Y0269644D01*
G75*
G02*
X0172726Y0270195I0000551J0000000D01*
G01*
X0173828Y0270195D01*
G75*
G02*
X0174379Y0269644I0000000J-000551D01*
G01*
X0174379Y0268305D01*
G75*
G02*
X0173828Y0267754I-000551J0000000D01*
G01*
X0172726Y0267754D01*
G75*
G02*
X0172174Y0268305I0000000J0000551D01*
G01*
G37*
G36*
G01*
X0176157Y0264309D02*
X0176157Y0265766D01*
G75*
G02*
X0176689Y0266297I0000531J0000000D01*
G01*
X0177752Y0266297D01*
G75*
G02*
X0178283Y0265766I0000000J-000531D01*
G01*
X0178283Y0264309D01*
G75*
G02*
X0177752Y0263778I-000531J0000000D01*
G01*
X0176689Y0263778D01*
G75*
G02*
X0176157Y0264309I0000000J0000531D01*
G01*
G37*
G36*
G01*
X0180173Y0264309D02*
X0180173Y0265766D01*
G75*
G02*
X0180704Y0266297I0000531J0000000D01*
G01*
X0181767Y0266297D01*
G75*
G02*
X0182299Y0265766I0000000J-000531D01*
G01*
X0182299Y0264309D01*
G75*
G02*
X0181767Y0263778I-000531J0000000D01*
G01*
X0180704Y0263778D01*
G75*
G02*
X0180173Y0264309I0000000J0000531D01*
G01*
G37*
X0122883Y0304998D02*
%LPD*%
G01*
D25*
X0150048Y0246730D03*
X0145324Y0246730D03*
X0154773Y0246730D03*
X0159497Y0246730D03*
X0134064Y0303522D03*
X0130127Y0303522D03*
D306*
X0135875Y0271140D03*
X0133907Y0271140D03*
X0131938Y0271140D03*
X0129970Y0271140D03*
X0128001Y0271140D03*
X0128001Y0253817D03*
X0129970Y0253817D03*
X0131938Y0253817D03*
X0133907Y0253817D03*
X0135875Y0253817D03*
G36*
G01*
X0149064Y0263620D02*
X0149064Y0260549D01*
G75*
G02*
X0148789Y0260274I-000276J0000000D01*
G01*
X0146584Y0260274D01*
G75*
G02*
X0146308Y0260549I0000000J0000276D01*
G01*
X0146308Y0263620D01*
G75*
G02*
X0146584Y0263896I0000276J0000000D01*
G01*
X0148789Y0263896D01*
G75*
G02*
X0149064Y0263620I0000000J-000276D01*
G01*
G37*
G36*
G01*
X0142765Y0263620D02*
X0142765Y0260549D01*
G75*
G02*
X0142489Y0260274I-000276J0000000D01*
G01*
X0140285Y0260274D01*
G75*
G02*
X0140009Y0260549I0000000J0000276D01*
G01*
X0140009Y0263620D01*
G75*
G02*
X0140285Y0263896I0000276J0000000D01*
G01*
X0142489Y0263896D01*
G75*
G02*
X0142765Y0263620I0000000J-000276D01*
G01*
G37*
G36*
G01*
X0155718Y0249289D02*
X0152647Y0249289D01*
G75*
G02*
X0152371Y0249565I0000000J0000276D01*
G01*
X0152371Y0251770D01*
G75*
G02*
X0152647Y0252045I0000276J0000000D01*
G01*
X0155718Y0252045D01*
G75*
G02*
X0155993Y0251770I0000000J-000276D01*
G01*
X0155993Y0249565D01*
G75*
G02*
X0155718Y0249289I-000276J0000000D01*
G01*
G37*
G36*
G01*
X0155718Y0255589D02*
X0152647Y0255589D01*
G75*
G02*
X0152371Y0255864I0000000J0000276D01*
G01*
X0152371Y0258069D01*
G75*
G02*
X0152647Y0258344I0000276J0000000D01*
G01*
X0155718Y0258344D01*
G75*
G02*
X0155993Y0258069I0000000J-000276D01*
G01*
X0155993Y0255864D01*
G75*
G02*
X0155718Y0255589I-000276J0000000D01*
G01*
G37*
G36*
G01*
X0149064Y0269526D02*
X0149064Y0266455D01*
G75*
G02*
X0148789Y0266179I-000276J0000000D01*
G01*
X0146584Y0266179D01*
G75*
G02*
X0146308Y0266455I0000000J0000276D01*
G01*
X0146308Y0269526D01*
G75*
G02*
X0146584Y0269801I0000276J0000000D01*
G01*
X0148789Y0269801D01*
G75*
G02*
X0149064Y0269526I0000000J-000276D01*
G01*
G37*
G36*
G01*
X0142765Y0269526D02*
X0142765Y0266455D01*
G75*
G02*
X0142489Y0266179I-000276J0000000D01*
G01*
X0140285Y0266179D01*
G75*
G02*
X0140009Y0266455I0000000J0000276D01*
G01*
X0140009Y0269526D01*
G75*
G02*
X0140285Y0269801I0000276J0000000D01*
G01*
X0142489Y0269801D01*
G75*
G02*
X0142765Y0269526I0000000J-000276D01*
G01*
G37*
G36*
G01*
X0152804Y0280175D02*
X0152804Y0277459D01*
G75*
G02*
X0151899Y0276553I-000906J0000000D01*
G01*
X0146623Y0276553D01*
G75*
G02*
X0145718Y0277459I0000000J0000906D01*
G01*
X0145718Y0280175D01*
G75*
G02*
X0146623Y0281081I0000906J0000000D01*
G01*
X0151899Y0281081D01*
G75*
G02*
X0152804Y0280175I0000000J-000906D01*
G01*
G37*
G36*
G01*
X0152804Y0291593D02*
X0152804Y0288876D01*
G75*
G02*
X0151899Y0287970I-000906J0000000D01*
G01*
X0146623Y0287970D01*
G75*
G02*
X0145718Y0288876I0000000J0000906D01*
G01*
X0145718Y0291593D01*
G75*
G02*
X0146623Y0292498I0000906J0000000D01*
G01*
X0151899Y0292498D01*
G75*
G02*
X0152804Y0291593I0000000J-000906D01*
G01*
G37*
G36*
G01*
X0142962Y0280175D02*
X0142962Y0277459D01*
G75*
G02*
X0142056Y0276553I-000906J0000000D01*
G01*
X0136781Y0276553D01*
G75*
G02*
X0135875Y0277459I0000000J0000906D01*
G01*
X0135875Y0280175D01*
G75*
G02*
X0136781Y0281081I0000906J0000000D01*
G01*
X0142056Y0281081D01*
G75*
G02*
X0142962Y0280175I0000000J-000906D01*
G01*
G37*
G36*
G01*
X0142962Y0291593D02*
X0142962Y0288876D01*
G75*
G02*
X0142056Y0287970I-000906J0000000D01*
G01*
X0136781Y0287970D01*
G75*
G02*
X0135875Y0288876I0000000J0000906D01*
G01*
X0135875Y0291593D01*
G75*
G02*
X0136781Y0292498I0000906J0000000D01*
G01*
X0142056Y0292498D01*
G75*
G02*
X0142962Y0291593I0000000J-000906D01*
G01*
G37*
G36*
G01*
X0149281Y0302242D02*
X0151997Y0302242D01*
G75*
G02*
X0152903Y0301337I0000000J-000906D01*
G01*
X0152903Y0296061D01*
G75*
G02*
X0151997Y0295155I-000906J0000000D01*
G01*
X0149281Y0295155D01*
G75*
G02*
X0148375Y0296061I0000000J0000906D01*
G01*
X0148375Y0301337D01*
G75*
G02*
X0149281Y0302242I0000906J0000000D01*
G01*
G37*
G36*
G01*
X0137863Y0302242D02*
X0140580Y0302242D01*
G75*
G02*
X0141485Y0301337I0000000J-000906D01*
G01*
X0141485Y0296061D01*
G75*
G02*
X0140580Y0295155I-000906J0000000D01*
G01*
X0137863Y0295155D01*
G75*
G02*
X0136958Y0296061I0000000J0000906D01*
G01*
X0136958Y0301337D01*
G75*
G02*
X0137863Y0302242I0000906J0000000D01*
G01*
G37*
G36*
G01*
X0133513Y0286868D02*
X0133513Y0284152D01*
G75*
G02*
X0132607Y0283246I-000906J0000000D01*
G01*
X0127332Y0283246D01*
G75*
G02*
X0126426Y0284152I0000000J0000906D01*
G01*
X0126426Y0286868D01*
G75*
G02*
X0127332Y0287774I0000906J0000000D01*
G01*
X0132607Y0287774D01*
G75*
G02*
X0133513Y0286868I0000000J-000906D01*
G01*
G37*
G36*
G01*
X0133513Y0298285D02*
X0133513Y0295569D01*
G75*
G02*
X0132607Y0294663I-000906J0000000D01*
G01*
X0127332Y0294663D01*
G75*
G02*
X0126426Y0295569I0000000J0000906D01*
G01*
X0126426Y0298285D01*
G75*
G02*
X0127332Y0299191I0000906J0000000D01*
G01*
X0132607Y0299191D01*
G75*
G02*
X0133513Y0298285I0000000J-000906D01*
G01*
G37*
G36*
G01*
X0155388Y0261199D02*
X0153370Y0261199D01*
G75*
G02*
X0152509Y0262060I0000000J0000861D01*
G01*
X0152509Y0263782D01*
G75*
G02*
X0153370Y0264644I0000861J0000000D01*
G01*
X0155388Y0264644D01*
G75*
G02*
X0156249Y0263782I0000000J-000861D01*
G01*
X0156249Y0262060D01*
G75*
G02*
X0155388Y0261199I-000861J0000000D01*
G01*
G37*
G36*
G01*
X0155388Y0267400D02*
X0153370Y0267400D01*
G75*
G02*
X0152509Y0268261I0000000J0000861D01*
G01*
X0152509Y0269983D01*
G75*
G02*
X0153370Y0270844I0000861J0000000D01*
G01*
X0155388Y0270844D01*
G75*
G02*
X0156249Y0269983I0000000J-000861D01*
G01*
X0156249Y0268261D01*
G75*
G02*
X0155388Y0267400I-000861J0000000D01*
G01*
G37*
G36*
G01*
X0148426Y0255254D02*
X0145749Y0255254D01*
G75*
G02*
X0145414Y0255589I0000000J0000335D01*
G01*
X0145414Y0258266D01*
G75*
G02*
X0145749Y0258600I0000335J0000000D01*
G01*
X0148426Y0258600D01*
G75*
G02*
X0148761Y0258266I0000000J-000335D01*
G01*
X0148761Y0255589D01*
G75*
G02*
X0148426Y0255254I-000335J0000000D01*
G01*
G37*
G36*
G01*
X0148426Y0249033D02*
X0145749Y0249033D01*
G75*
G02*
X0145414Y0249368I0000000J0000335D01*
G01*
X0145414Y0252045D01*
G75*
G02*
X0145749Y0252380I0000335J0000000D01*
G01*
X0148426Y0252380D01*
G75*
G02*
X0148761Y0252045I0000000J-000335D01*
G01*
X0148761Y0249368D01*
G75*
G02*
X0148426Y0249033I-000335J0000000D01*
G01*
G37*
G36*
G01*
X0143119Y0249033D02*
X0140442Y0249033D01*
G75*
G02*
X0140107Y0249368I0000000J0000335D01*
G01*
X0140107Y0252045D01*
G75*
G02*
X0140442Y0252380I0000335J0000000D01*
G01*
X0143119Y0252380D01*
G75*
G02*
X0143454Y0252045I0000000J-000335D01*
G01*
X0143454Y0249368D01*
G75*
G02*
X0143119Y0249033I-000335J0000000D01*
G01*
G37*
G36*
G01*
X0143119Y0255254D02*
X0140442Y0255254D01*
G75*
G02*
X0140107Y0255589I0000000J0000335D01*
G01*
X0140107Y0258266D01*
G75*
G02*
X0140442Y0258600I0000335J0000000D01*
G01*
X0143119Y0258600D01*
G75*
G02*
X0143454Y0258266I0000000J-000335D01*
G01*
X0143454Y0255589D01*
G75*
G02*
X0143119Y0255254I-000335J0000000D01*
G01*
G37*
G36*
G01*
X0149320Y0274447D02*
X0149320Y0271770D01*
G75*
G02*
X0148985Y0271435I-000335J0000000D01*
G01*
X0146308Y0271435D01*
G75*
G02*
X0145974Y0271770I0000000J0000335D01*
G01*
X0145974Y0274447D01*
G75*
G02*
X0146308Y0274781I0000335J0000000D01*
G01*
X0148985Y0274781D01*
G75*
G02*
X0149320Y0274447I0000000J-000335D01*
G01*
G37*
G36*
G01*
X0143100Y0274447D02*
X0143100Y0271770D01*
G75*
G02*
X0142765Y0271435I-000335J0000000D01*
G01*
X0140088Y0271435D01*
G75*
G02*
X0139753Y0271770I0000000J0000335D01*
G01*
X0139753Y0274447D01*
G75*
G02*
X0140088Y0274781I0000335J0000000D01*
G01*
X0142765Y0274781D01*
G75*
G02*
X0143100Y0274447I0000000J-000335D01*
G01*
G37*
X0391387Y0155884D02*
%LPD*%
G01*
G36*
G01*
X0355678Y0223492D02*
X0355678Y0222134D01*
G75*
G02*
X0355098Y0221553I-000581J0000000D01*
G01*
X0353936Y0221553D01*
G75*
G02*
X0353356Y0222134I0000000J0000581D01*
G01*
X0353356Y0223492D01*
G75*
G02*
X0353936Y0224073I0000581J0000000D01*
G01*
X0355098Y0224073D01*
G75*
G02*
X0355678Y0223492I0000000J-000581D01*
G01*
G37*
G36*
G01*
X0351859Y0223492D02*
X0351859Y0222134D01*
G75*
G02*
X0351279Y0221553I-000581J0000000D01*
G01*
X0350117Y0221553D01*
G75*
G02*
X0349537Y0222134I0000000J0000581D01*
G01*
X0349537Y0223492D01*
G75*
G02*
X0350117Y0224073I0000581J0000000D01*
G01*
X0351279Y0224073D01*
G75*
G02*
X0351859Y0223492I0000000J-000581D01*
G01*
G37*
G36*
G01*
X0371102Y0164919D02*
X0369743Y0164919D01*
G75*
G02*
X0369163Y0165500I0000000J0000581D01*
G01*
X0369163Y0166662D01*
G75*
G02*
X0369743Y0167242I0000581J0000000D01*
G01*
X0371102Y0167242D01*
G75*
G02*
X0371682Y0166662I0000000J-000581D01*
G01*
X0371682Y0165500D01*
G75*
G02*
X0371102Y0164919I-000581J0000000D01*
G01*
G37*
G36*
G01*
X0371102Y0168738D02*
X0369743Y0168738D01*
G75*
G02*
X0369163Y0169319I0000000J0000581D01*
G01*
X0369163Y0170480D01*
G75*
G02*
X0369743Y0171061I0000581J0000000D01*
G01*
X0371102Y0171061D01*
G75*
G02*
X0371682Y0170480I0000000J-000581D01*
G01*
X0371682Y0169319D01*
G75*
G02*
X0371102Y0168738I-000581J0000000D01*
G01*
G37*
G36*
G01*
X0355905Y0175446D02*
X0355905Y0177464D01*
G75*
G02*
X0356766Y0178325I0000861J0000000D01*
G01*
X0358488Y0178325D01*
G75*
G02*
X0359350Y0177464I0000000J-000861D01*
G01*
X0359350Y0175446D01*
G75*
G02*
X0358488Y0174585I-000861J0000000D01*
G01*
X0356766Y0174585D01*
G75*
G02*
X0355905Y0175446I0000000J0000861D01*
G01*
G37*
G36*
G01*
X0362106Y0175446D02*
X0362106Y0177464D01*
G75*
G02*
X0362967Y0178325I0000861J0000000D01*
G01*
X0364689Y0178325D01*
G75*
G02*
X0365550Y0177464I0000000J-000861D01*
G01*
X0365550Y0175446D01*
G75*
G02*
X0364689Y0174585I-000861J0000000D01*
G01*
X0362967Y0174585D01*
G75*
G02*
X0362106Y0175446I0000000J0000861D01*
G01*
G37*
G36*
G01*
X0380934Y0221937D02*
X0380934Y0223295D01*
G75*
G02*
X0381515Y0223876I0000581J0000000D01*
G01*
X0382676Y0223876D01*
G75*
G02*
X0383257Y0223295I0000000J-000581D01*
G01*
X0383257Y0221937D01*
G75*
G02*
X0382676Y0221356I-000581J0000000D01*
G01*
X0381515Y0221356D01*
G75*
G02*
X0380934Y0221937I0000000J0000581D01*
G01*
G37*
G36*
G01*
X0384753Y0221937D02*
X0384753Y0223295D01*
G75*
G02*
X0385334Y0223876I0000581J0000000D01*
G01*
X0386495Y0223876D01*
G75*
G02*
X0387076Y0223295I0000000J-000581D01*
G01*
X0387076Y0221937D01*
G75*
G02*
X0386495Y0221356I-000581J0000000D01*
G01*
X0385334Y0221356D01*
G75*
G02*
X0384753Y0221937I0000000J0000581D01*
G01*
G37*
D160*
X0365107Y0170746D03*
X0357627Y0170746D03*
X0361367Y0162872D03*
G36*
G01*
X0380934Y0217754D02*
X0380934Y0219112D01*
G75*
G02*
X0381515Y0219693I0000581J0000000D01*
G01*
X0382676Y0219693D01*
G75*
G02*
X0383257Y0219112I0000000J-000581D01*
G01*
X0383257Y0217754D01*
G75*
G02*
X0382676Y0217173I-000581J0000000D01*
G01*
X0381515Y0217173D01*
G75*
G02*
X0380934Y0217754I0000000J0000581D01*
G01*
G37*
G36*
G01*
X0384753Y0217754D02*
X0384753Y0219112D01*
G75*
G02*
X0385334Y0219693I0000581J0000000D01*
G01*
X0386495Y0219693D01*
G75*
G02*
X0387076Y0219112I0000000J-000581D01*
G01*
X0387076Y0217754D01*
G75*
G02*
X0386495Y0217173I-000581J0000000D01*
G01*
X0385334Y0217173D01*
G75*
G02*
X0384753Y0217754I0000000J0000581D01*
G01*
G37*
G36*
G01*
X0357017Y0222134D02*
X0357017Y0223492D01*
G75*
G02*
X0357598Y0224073I0000581J0000000D01*
G01*
X0358759Y0224073D01*
G75*
G02*
X0359340Y0223492I0000000J-000581D01*
G01*
X0359340Y0222134D01*
G75*
G02*
X0358759Y0221553I-000581J0000000D01*
G01*
X0357598Y0221553D01*
G75*
G02*
X0357017Y0222134I0000000J0000581D01*
G01*
G37*
G36*
G01*
X0360836Y0222134D02*
X0360836Y0223492D01*
G75*
G02*
X0361417Y0224073I0000581J0000000D01*
G01*
X0362578Y0224073D01*
G75*
G02*
X0363159Y0223492I0000000J-000581D01*
G01*
X0363159Y0222134D01*
G75*
G02*
X0362578Y0221553I-000581J0000000D01*
G01*
X0361417Y0221553D01*
G75*
G02*
X0360836Y0222134I0000000J0000581D01*
G01*
G37*
G36*
G01*
X0344753Y0218374D02*
X0344753Y0217016D01*
G75*
G02*
X0344172Y0216435I-000581J0000000D01*
G01*
X0343011Y0216435D01*
G75*
G02*
X0342430Y0217016I0000000J0000581D01*
G01*
X0342430Y0218374D01*
G75*
G02*
X0343011Y0218955I0000581J0000000D01*
G01*
X0344172Y0218955D01*
G75*
G02*
X0344753Y0218374I0000000J-000581D01*
G01*
G37*
G36*
G01*
X0340934Y0218374D02*
X0340934Y0217016D01*
G75*
G02*
X0340354Y0216435I-000581J0000000D01*
G01*
X0339192Y0216435D01*
G75*
G02*
X0338611Y0217016I0000000J0000581D01*
G01*
X0338611Y0218374D01*
G75*
G02*
X0339192Y0218955I0000581J0000000D01*
G01*
X0340354Y0218955D01*
G75*
G02*
X0340934Y0218374I0000000J-000581D01*
G01*
G37*
G36*
G01*
X0371525Y0223492D02*
X0371525Y0222134D01*
G75*
G02*
X0370944Y0221553I-000581J0000000D01*
G01*
X0369783Y0221553D01*
G75*
G02*
X0369202Y0222134I0000000J0000581D01*
G01*
X0369202Y0223492D01*
G75*
G02*
X0369783Y0224073I0000581J0000000D01*
G01*
X0370944Y0224073D01*
G75*
G02*
X0371525Y0223492I0000000J-000581D01*
G01*
G37*
G36*
G01*
X0367706Y0223492D02*
X0367706Y0222134D01*
G75*
G02*
X0367125Y0221553I-000581J0000000D01*
G01*
X0365964Y0221553D01*
G75*
G02*
X0365383Y0222134I0000000J0000581D01*
G01*
X0365383Y0223492D01*
G75*
G02*
X0365964Y0224073I0000581J0000000D01*
G01*
X0367125Y0224073D01*
G75*
G02*
X0367706Y0223492I0000000J-000581D01*
G01*
G37*
G36*
G01*
X0344753Y0183728D02*
X0344753Y0182370D01*
G75*
G02*
X0344172Y0181790I-000581J0000000D01*
G01*
X0343011Y0181790D01*
G75*
G02*
X0342430Y0182370I0000000J0000581D01*
G01*
X0342430Y0183728D01*
G75*
G02*
X0343011Y0184309I0000581J0000000D01*
G01*
X0344172Y0184309D01*
G75*
G02*
X0344753Y0183728I0000000J-000581D01*
G01*
G37*
G36*
G01*
X0340934Y0183728D02*
X0340934Y0182370D01*
G75*
G02*
X0340354Y0181790I-000581J0000000D01*
G01*
X0339192Y0181790D01*
G75*
G02*
X0338611Y0182370I0000000J0000581D01*
G01*
X0338611Y0183728D01*
G75*
G02*
X0339192Y0184309I0000581J0000000D01*
G01*
X0340354Y0184309D01*
G75*
G02*
X0340934Y0183728I0000000J-000581D01*
G01*
G37*
D307*
X0351426Y0248167D03*
D158*
X0379773Y0247065D03*
X0367962Y0239191D03*
X0379773Y0231317D03*
D308*
X0376230Y0239191D03*
D307*
X0351426Y0230215D03*
G36*
G01*
X0371200Y0172695D02*
X0369842Y0172695D01*
G75*
G02*
X0369261Y0173276I0000000J0000581D01*
G01*
X0369261Y0174437D01*
G75*
G02*
X0369842Y0175018I0000581J0000000D01*
G01*
X0371200Y0175018D01*
G75*
G02*
X0371781Y0174437I0000000J-000581D01*
G01*
X0371781Y0173276D01*
G75*
G02*
X0371200Y0172695I-000581J0000000D01*
G01*
G37*
G36*
G01*
X0371200Y0176514D02*
X0369842Y0176514D01*
G75*
G02*
X0369261Y0177095I0000000J0000581D01*
G01*
X0369261Y0178256D01*
G75*
G02*
X0369842Y0178837I0000581J0000000D01*
G01*
X0371200Y0178837D01*
G75*
G02*
X0371781Y0178256I0000000J-000581D01*
G01*
X0371781Y0177095D01*
G75*
G02*
X0371200Y0176514I-000581J0000000D01*
G01*
G37*
G36*
G01*
X0384866Y0211199D02*
X0386884Y0211199D01*
G75*
G02*
X0387745Y0210338I0000000J-000861D01*
G01*
X0387745Y0208615D01*
G75*
G02*
X0386884Y0207754I-000861J0000000D01*
G01*
X0384866Y0207754D01*
G75*
G02*
X0384005Y0208615I0000000J0000861D01*
G01*
X0384005Y0210338D01*
G75*
G02*
X0384866Y0211199I0000861J0000000D01*
G01*
G37*
G36*
G01*
X0384866Y0204998D02*
X0386884Y0204998D01*
G75*
G02*
X0387745Y0204137I0000000J-000861D01*
G01*
X0387745Y0202415D01*
G75*
G02*
X0386884Y0201553I-000861J0000000D01*
G01*
X0384866Y0201553D01*
G75*
G02*
X0384005Y0202415I0000000J0000861D01*
G01*
X0384005Y0204137D01*
G75*
G02*
X0384866Y0204998I0000861J0000000D01*
G01*
G37*
G36*
G01*
X0380934Y0213571D02*
X0380934Y0214929D01*
G75*
G02*
X0381515Y0215510I0000581J0000000D01*
G01*
X0382676Y0215510D01*
G75*
G02*
X0383257Y0214929I0000000J-000581D01*
G01*
X0383257Y0213571D01*
G75*
G02*
X0382676Y0212990I-000581J0000000D01*
G01*
X0381515Y0212990D01*
G75*
G02*
X0380934Y0213571I0000000J0000581D01*
G01*
G37*
G36*
G01*
X0384753Y0213571D02*
X0384753Y0214929D01*
G75*
G02*
X0385334Y0215510I0000581J0000000D01*
G01*
X0386495Y0215510D01*
G75*
G02*
X0387076Y0214929I0000000J-000581D01*
G01*
X0387076Y0213571D01*
G75*
G02*
X0386495Y0212990I-000581J0000000D01*
G01*
X0385334Y0212990D01*
G75*
G02*
X0384753Y0213571I0000000J0000581D01*
G01*
G37*
G36*
G01*
X0385481Y0257680D02*
X0385481Y0255663D01*
G75*
G02*
X0384620Y0254801I-000861J0000000D01*
G01*
X0382898Y0254801D01*
G75*
G02*
X0382037Y0255663I0000000J0000861D01*
G01*
X0382037Y0257680D01*
G75*
G02*
X0382898Y0258541I0000861J0000000D01*
G01*
X0384620Y0258541D01*
G75*
G02*
X0385481Y0257680I0000000J-000861D01*
G01*
G37*
G36*
G01*
X0379281Y0257680D02*
X0379281Y0255663D01*
G75*
G02*
X0378419Y0254801I-000861J0000000D01*
G01*
X0376697Y0254801D01*
G75*
G02*
X0375836Y0255663I0000000J0000861D01*
G01*
X0375836Y0257680D01*
G75*
G02*
X0376697Y0258541I0000861J0000000D01*
G01*
X0378419Y0258541D01*
G75*
G02*
X0379281Y0257680I0000000J-000861D01*
G01*
G37*
G36*
G01*
X0386884Y0189841D02*
X0384866Y0189841D01*
G75*
G02*
X0384005Y0190702I0000000J0000861D01*
G01*
X0384005Y0192424D01*
G75*
G02*
X0384866Y0193286I0000861J0000000D01*
G01*
X0386884Y0193286D01*
G75*
G02*
X0387745Y0192424I0000000J-000861D01*
G01*
X0387745Y0190702D01*
G75*
G02*
X0386884Y0189841I-000861J0000000D01*
G01*
G37*
G36*
G01*
X0386884Y0196041D02*
X0384866Y0196041D01*
G75*
G02*
X0384005Y0196903I0000000J0000861D01*
G01*
X0384005Y0198625D01*
G75*
G02*
X0384866Y0199486I0000861J0000000D01*
G01*
X0386884Y0199486D01*
G75*
G02*
X0387745Y0198625I0000000J-000861D01*
G01*
X0387745Y0196903D01*
G75*
G02*
X0386884Y0196041I-000861J0000000D01*
G01*
G37*
G36*
G01*
X0382706Y0185520D02*
X0382706Y0186878D01*
G75*
G02*
X0383287Y0187459I0000581J0000000D01*
G01*
X0384448Y0187459D01*
G75*
G02*
X0385029Y0186878I0000000J-000581D01*
G01*
X0385029Y0185520D01*
G75*
G02*
X0384448Y0184939I-000581J0000000D01*
G01*
X0383287Y0184939D01*
G75*
G02*
X0382706Y0185520I0000000J0000581D01*
G01*
G37*
G36*
G01*
X0386525Y0185520D02*
X0386525Y0186878D01*
G75*
G02*
X0387106Y0187459I0000581J0000000D01*
G01*
X0388267Y0187459D01*
G75*
G02*
X0388848Y0186878I0000000J-000581D01*
G01*
X0388848Y0185520D01*
G75*
G02*
X0388267Y0184939I-000581J0000000D01*
G01*
X0387106Y0184939D01*
G75*
G02*
X0386525Y0185520I0000000J0000581D01*
G01*
G37*
G36*
G01*
X0370029Y0219959D02*
X0371013Y0219959D01*
G75*
G02*
X0371505Y0219467I0000000J-000492D01*
G01*
X0371505Y0214545D01*
G75*
G02*
X0371013Y0214053I-000492J0000000D01*
G01*
X0370029Y0214053D01*
G75*
G02*
X0369537Y0214545I0000000J0000492D01*
G01*
X0369537Y0219467D01*
G75*
G02*
X0370029Y0219959I0000492J0000000D01*
G01*
G37*
G36*
G01*
X0366879Y0219959D02*
X0367863Y0219959D01*
G75*
G02*
X0368356Y0219467I0000000J-000492D01*
G01*
X0368356Y0214545D01*
G75*
G02*
X0367863Y0214053I-000492J0000000D01*
G01*
X0366879Y0214053D01*
G75*
G02*
X0366387Y0214545I0000000J0000492D01*
G01*
X0366387Y0219467D01*
G75*
G02*
X0366879Y0219959I0000492J0000000D01*
G01*
G37*
G36*
G01*
X0363730Y0219959D02*
X0364714Y0219959D01*
G75*
G02*
X0365206Y0219467I0000000J-000492D01*
G01*
X0365206Y0214545D01*
G75*
G02*
X0364714Y0214053I-000492J0000000D01*
G01*
X0363730Y0214053D01*
G75*
G02*
X0363237Y0214545I0000000J0000492D01*
G01*
X0363237Y0219467D01*
G75*
G02*
X0363730Y0219959I0000492J0000000D01*
G01*
G37*
G36*
G01*
X0360580Y0219959D02*
X0361564Y0219959D01*
G75*
G02*
X0362056Y0219467I0000000J-000492D01*
G01*
X0362056Y0214545D01*
G75*
G02*
X0361564Y0214053I-000492J0000000D01*
G01*
X0360580Y0214053D01*
G75*
G02*
X0360088Y0214545I0000000J0000492D01*
G01*
X0360088Y0219467D01*
G75*
G02*
X0360580Y0219959I0000492J0000000D01*
G01*
G37*
G36*
G01*
X0357430Y0219959D02*
X0358415Y0219959D01*
G75*
G02*
X0358907Y0219467I0000000J-000492D01*
G01*
X0358907Y0214545D01*
G75*
G02*
X0358415Y0214053I-000492J0000000D01*
G01*
X0357430Y0214053D01*
G75*
G02*
X0356938Y0214545I0000000J0000492D01*
G01*
X0356938Y0219467D01*
G75*
G02*
X0357430Y0219959I0000492J0000000D01*
G01*
G37*
G36*
G01*
X0354281Y0219959D02*
X0355265Y0219959D01*
G75*
G02*
X0355757Y0219467I0000000J-000492D01*
G01*
X0355757Y0214545D01*
G75*
G02*
X0355265Y0214053I-000492J0000000D01*
G01*
X0354281Y0214053D01*
G75*
G02*
X0353789Y0214545I0000000J0000492D01*
G01*
X0353789Y0219467D01*
G75*
G02*
X0354281Y0219959I0000492J0000000D01*
G01*
G37*
G36*
G01*
X0351131Y0219959D02*
X0352115Y0219959D01*
G75*
G02*
X0352607Y0219467I0000000J-000492D01*
G01*
X0352607Y0214545D01*
G75*
G02*
X0352115Y0214053I-000492J0000000D01*
G01*
X0351131Y0214053D01*
G75*
G02*
X0350639Y0214545I0000000J0000492D01*
G01*
X0350639Y0219467D01*
G75*
G02*
X0351131Y0219959I0000492J0000000D01*
G01*
G37*
G36*
G01*
X0347981Y0219959D02*
X0348966Y0219959D01*
G75*
G02*
X0349458Y0219467I0000000J-000492D01*
G01*
X0349458Y0214545D01*
G75*
G02*
X0348966Y0214053I-000492J0000000D01*
G01*
X0347981Y0214053D01*
G75*
G02*
X0347489Y0214545I0000000J0000492D01*
G01*
X0347489Y0219467D01*
G75*
G02*
X0347981Y0219959I0000492J0000000D01*
G01*
G37*
G36*
G01*
X0340600Y0212577D02*
X0345521Y0212577D01*
G75*
G02*
X0346013Y0212085I0000000J-000492D01*
G01*
X0346013Y0211101D01*
G75*
G02*
X0345521Y0210608I-000492J0000000D01*
G01*
X0340600Y0210608D01*
G75*
G02*
X0340107Y0211101I0000000J0000492D01*
G01*
X0340107Y0212085D01*
G75*
G02*
X0340600Y0212577I0000492J0000000D01*
G01*
G37*
G36*
G01*
X0340600Y0209427D02*
X0345521Y0209427D01*
G75*
G02*
X0346013Y0208935I0000000J-000492D01*
G01*
X0346013Y0207951D01*
G75*
G02*
X0345521Y0207459I-000492J0000000D01*
G01*
X0340600Y0207459D01*
G75*
G02*
X0340107Y0207951I0000000J0000492D01*
G01*
X0340107Y0208935D01*
G75*
G02*
X0340600Y0209427I0000492J0000000D01*
G01*
G37*
G36*
G01*
X0340600Y0206278D02*
X0345521Y0206278D01*
G75*
G02*
X0346013Y0205786I0000000J-000492D01*
G01*
X0346013Y0204801D01*
G75*
G02*
X0345521Y0204309I-000492J0000000D01*
G01*
X0340600Y0204309D01*
G75*
G02*
X0340107Y0204801I0000000J0000492D01*
G01*
X0340107Y0205786D01*
G75*
G02*
X0340600Y0206278I0000492J0000000D01*
G01*
G37*
G36*
G01*
X0340600Y0203128D02*
X0345521Y0203128D01*
G75*
G02*
X0346013Y0202636I0000000J-000492D01*
G01*
X0346013Y0201652D01*
G75*
G02*
X0345521Y0201160I-000492J0000000D01*
G01*
X0340600Y0201160D01*
G75*
G02*
X0340107Y0201652I0000000J0000492D01*
G01*
X0340107Y0202636D01*
G75*
G02*
X0340600Y0203128I0000492J0000000D01*
G01*
G37*
G36*
G01*
X0340600Y0199978D02*
X0345521Y0199978D01*
G75*
G02*
X0346013Y0199486I0000000J-000492D01*
G01*
X0346013Y0198502D01*
G75*
G02*
X0345521Y0198010I-000492J0000000D01*
G01*
X0340600Y0198010D01*
G75*
G02*
X0340107Y0198502I0000000J0000492D01*
G01*
X0340107Y0199486D01*
G75*
G02*
X0340600Y0199978I0000492J0000000D01*
G01*
G37*
G36*
G01*
X0340600Y0196829D02*
X0345521Y0196829D01*
G75*
G02*
X0346013Y0196337I0000000J-000492D01*
G01*
X0346013Y0195353D01*
G75*
G02*
X0345521Y0194860I-000492J0000000D01*
G01*
X0340600Y0194860D01*
G75*
G02*
X0340107Y0195353I0000000J0000492D01*
G01*
X0340107Y0196337D01*
G75*
G02*
X0340600Y0196829I0000492J0000000D01*
G01*
G37*
G36*
G01*
X0340600Y0193679D02*
X0345521Y0193679D01*
G75*
G02*
X0346013Y0193187I0000000J-000492D01*
G01*
X0346013Y0192203D01*
G75*
G02*
X0345521Y0191711I-000492J0000000D01*
G01*
X0340600Y0191711D01*
G75*
G02*
X0340107Y0192203I0000000J0000492D01*
G01*
X0340107Y0193187D01*
G75*
G02*
X0340600Y0193679I0000492J0000000D01*
G01*
G37*
G36*
G01*
X0340600Y0190530D02*
X0345521Y0190530D01*
G75*
G02*
X0346013Y0190038I0000000J-000492D01*
G01*
X0346013Y0189053D01*
G75*
G02*
X0345521Y0188561I-000492J0000000D01*
G01*
X0340600Y0188561D01*
G75*
G02*
X0340107Y0189053I0000000J0000492D01*
G01*
X0340107Y0190038D01*
G75*
G02*
X0340600Y0190530I0000492J0000000D01*
G01*
G37*
G36*
G01*
X0347981Y0187085D02*
X0348966Y0187085D01*
G75*
G02*
X0349458Y0186593I0000000J-000492D01*
G01*
X0349458Y0181671D01*
G75*
G02*
X0348966Y0181179I-000492J0000000D01*
G01*
X0347981Y0181179D01*
G75*
G02*
X0347489Y0181671I0000000J0000492D01*
G01*
X0347489Y0186593D01*
G75*
G02*
X0347981Y0187085I0000492J0000000D01*
G01*
G37*
G36*
G01*
X0351131Y0187085D02*
X0352115Y0187085D01*
G75*
G02*
X0352607Y0186593I0000000J-000492D01*
G01*
X0352607Y0181671D01*
G75*
G02*
X0352115Y0181179I-000492J0000000D01*
G01*
X0351131Y0181179D01*
G75*
G02*
X0350639Y0181671I0000000J0000492D01*
G01*
X0350639Y0186593D01*
G75*
G02*
X0351131Y0187085I0000492J0000000D01*
G01*
G37*
G36*
G01*
X0354281Y0187085D02*
X0355265Y0187085D01*
G75*
G02*
X0355757Y0186593I0000000J-000492D01*
G01*
X0355757Y0181671D01*
G75*
G02*
X0355265Y0181179I-000492J0000000D01*
G01*
X0354281Y0181179D01*
G75*
G02*
X0353789Y0181671I0000000J0000492D01*
G01*
X0353789Y0186593D01*
G75*
G02*
X0354281Y0187085I0000492J0000000D01*
G01*
G37*
G36*
G01*
X0357430Y0187085D02*
X0358415Y0187085D01*
G75*
G02*
X0358907Y0186593I0000000J-000492D01*
G01*
X0358907Y0181671D01*
G75*
G02*
X0358415Y0181179I-000492J0000000D01*
G01*
X0357430Y0181179D01*
G75*
G02*
X0356938Y0181671I0000000J0000492D01*
G01*
X0356938Y0186593D01*
G75*
G02*
X0357430Y0187085I0000492J0000000D01*
G01*
G37*
G36*
G01*
X0360580Y0187085D02*
X0361564Y0187085D01*
G75*
G02*
X0362056Y0186593I0000000J-000492D01*
G01*
X0362056Y0181671D01*
G75*
G02*
X0361564Y0181179I-000492J0000000D01*
G01*
X0360580Y0181179D01*
G75*
G02*
X0360088Y0181671I0000000J0000492D01*
G01*
X0360088Y0186593D01*
G75*
G02*
X0360580Y0187085I0000492J0000000D01*
G01*
G37*
G36*
G01*
X0363730Y0187085D02*
X0364714Y0187085D01*
G75*
G02*
X0365206Y0186593I0000000J-000492D01*
G01*
X0365206Y0181671D01*
G75*
G02*
X0364714Y0181179I-000492J0000000D01*
G01*
X0363730Y0181179D01*
G75*
G02*
X0363237Y0181671I0000000J0000492D01*
G01*
X0363237Y0186593D01*
G75*
G02*
X0363730Y0187085I0000492J0000000D01*
G01*
G37*
G36*
G01*
X0366879Y0187085D02*
X0367863Y0187085D01*
G75*
G02*
X0368356Y0186593I0000000J-000492D01*
G01*
X0368356Y0181671D01*
G75*
G02*
X0367863Y0181179I-000492J0000000D01*
G01*
X0366879Y0181179D01*
G75*
G02*
X0366387Y0181671I0000000J0000492D01*
G01*
X0366387Y0186593D01*
G75*
G02*
X0366879Y0187085I0000492J0000000D01*
G01*
G37*
G36*
G01*
X0370029Y0187085D02*
X0371013Y0187085D01*
G75*
G02*
X0371505Y0186593I0000000J-000492D01*
G01*
X0371505Y0181671D01*
G75*
G02*
X0371013Y0181179I-000492J0000000D01*
G01*
X0370029Y0181179D01*
G75*
G02*
X0369537Y0181671I0000000J0000492D01*
G01*
X0369537Y0186593D01*
G75*
G02*
X0370029Y0187085I0000492J0000000D01*
G01*
G37*
G36*
G01*
X0373474Y0190530D02*
X0378395Y0190530D01*
G75*
G02*
X0378887Y0190038I0000000J-000492D01*
G01*
X0378887Y0189053D01*
G75*
G02*
X0378395Y0188561I-000492J0000000D01*
G01*
X0373474Y0188561D01*
G75*
G02*
X0372981Y0189053I0000000J0000492D01*
G01*
X0372981Y0190038D01*
G75*
G02*
X0373474Y0190530I0000492J0000000D01*
G01*
G37*
G36*
G01*
X0373474Y0193679D02*
X0378395Y0193679D01*
G75*
G02*
X0378887Y0193187I0000000J-000492D01*
G01*
X0378887Y0192203D01*
G75*
G02*
X0378395Y0191711I-000492J0000000D01*
G01*
X0373474Y0191711D01*
G75*
G02*
X0372981Y0192203I0000000J0000492D01*
G01*
X0372981Y0193187D01*
G75*
G02*
X0373474Y0193679I0000492J0000000D01*
G01*
G37*
G36*
G01*
X0373474Y0196829D02*
X0378395Y0196829D01*
G75*
G02*
X0378887Y0196337I0000000J-000492D01*
G01*
X0378887Y0195353D01*
G75*
G02*
X0378395Y0194860I-000492J0000000D01*
G01*
X0373474Y0194860D01*
G75*
G02*
X0372981Y0195353I0000000J0000492D01*
G01*
X0372981Y0196337D01*
G75*
G02*
X0373474Y0196829I0000492J0000000D01*
G01*
G37*
G36*
G01*
X0373474Y0199978D02*
X0378395Y0199978D01*
G75*
G02*
X0378887Y0199486I0000000J-000492D01*
G01*
X0378887Y0198502D01*
G75*
G02*
X0378395Y0198010I-000492J0000000D01*
G01*
X0373474Y0198010D01*
G75*
G02*
X0372981Y0198502I0000000J0000492D01*
G01*
X0372981Y0199486D01*
G75*
G02*
X0373474Y0199978I0000492J0000000D01*
G01*
G37*
G36*
G01*
X0373474Y0203128D02*
X0378395Y0203128D01*
G75*
G02*
X0378887Y0202636I0000000J-000492D01*
G01*
X0378887Y0201652D01*
G75*
G02*
X0378395Y0201160I-000492J0000000D01*
G01*
X0373474Y0201160D01*
G75*
G02*
X0372981Y0201652I0000000J0000492D01*
G01*
X0372981Y0202636D01*
G75*
G02*
X0373474Y0203128I0000492J0000000D01*
G01*
G37*
G36*
G01*
X0373474Y0206278D02*
X0378395Y0206278D01*
G75*
G02*
X0378887Y0205786I0000000J-000492D01*
G01*
X0378887Y0204801D01*
G75*
G02*
X0378395Y0204309I-000492J0000000D01*
G01*
X0373474Y0204309D01*
G75*
G02*
X0372981Y0204801I0000000J0000492D01*
G01*
X0372981Y0205786D01*
G75*
G02*
X0373474Y0206278I0000492J0000000D01*
G01*
G37*
G36*
G01*
X0373474Y0209427D02*
X0378395Y0209427D01*
G75*
G02*
X0378887Y0208935I0000000J-000492D01*
G01*
X0378887Y0207951D01*
G75*
G02*
X0378395Y0207459I-000492J0000000D01*
G01*
X0373474Y0207459D01*
G75*
G02*
X0372981Y0207951I0000000J0000492D01*
G01*
X0372981Y0208935D01*
G75*
G02*
X0373474Y0209427I0000492J0000000D01*
G01*
G37*
G36*
G01*
X0373474Y0212577D02*
X0378395Y0212577D01*
G75*
G02*
X0378887Y0212085I0000000J-000492D01*
G01*
X0378887Y0211101D01*
G75*
G02*
X0378395Y0210608I-000492J0000000D01*
G01*
X0373474Y0210608D01*
G75*
G02*
X0372981Y0211101I0000000J0000492D01*
G01*
X0372981Y0212085D01*
G75*
G02*
X0373474Y0212577I0000492J0000000D01*
G01*
G37*
G36*
G01*
X0351928Y0177951D02*
X0353287Y0177951D01*
G75*
G02*
X0353867Y0177370I0000000J-000581D01*
G01*
X0353867Y0176209D01*
G75*
G02*
X0353287Y0175628I-000581J0000000D01*
G01*
X0351928Y0175628D01*
G75*
G02*
X0351348Y0176209I0000000J0000581D01*
G01*
X0351348Y0177370D01*
G75*
G02*
X0351928Y0177951I0000581J0000000D01*
G01*
G37*
G36*
G01*
X0351928Y0174132D02*
X0353287Y0174132D01*
G75*
G02*
X0353867Y0173551I0000000J-000581D01*
G01*
X0353867Y0172390D01*
G75*
G02*
X0353287Y0171809I-000581J0000000D01*
G01*
X0351928Y0171809D01*
G75*
G02*
X0351348Y0172390I0000000J0000581D01*
G01*
X0351348Y0173551D01*
G75*
G02*
X0351928Y0174132I0000581J0000000D01*
G01*
G37*
G36*
G01*
X0375324Y0185028D02*
X0375324Y0186386D01*
G75*
G02*
X0375905Y0186967I0000581J0000000D01*
G01*
X0377066Y0186967D01*
G75*
G02*
X0377647Y0186386I0000000J-000581D01*
G01*
X0377647Y0185028D01*
G75*
G02*
X0377066Y0184447I-000581J0000000D01*
G01*
X0375905Y0184447D01*
G75*
G02*
X0375324Y0185028I0000000J0000581D01*
G01*
G37*
G36*
G01*
X0379143Y0185028D02*
X0379143Y0186386D01*
G75*
G02*
X0379724Y0186967I0000581J0000000D01*
G01*
X0380885Y0186967D01*
G75*
G02*
X0381466Y0186386I0000000J-000581D01*
G01*
X0381466Y0185028D01*
G75*
G02*
X0380885Y0184447I-000581J0000000D01*
G01*
X0379724Y0184447D01*
G75*
G02*
X0379143Y0185028I0000000J0000581D01*
G01*
G37*
G36*
G01*
X0353287Y0161384D02*
X0351928Y0161384D01*
G75*
G02*
X0351348Y0161965I0000000J0000581D01*
G01*
X0351348Y0163126D01*
G75*
G02*
X0351928Y0163707I0000581J0000000D01*
G01*
X0353287Y0163707D01*
G75*
G02*
X0353867Y0163126I0000000J-000581D01*
G01*
X0353867Y0161965D01*
G75*
G02*
X0353287Y0161384I-000581J0000000D01*
G01*
G37*
G36*
G01*
X0353287Y0165203D02*
X0351928Y0165203D01*
G75*
G02*
X0351348Y0165784I0000000J0000581D01*
G01*
X0351348Y0166945D01*
G75*
G02*
X0351928Y0167526I0000581J0000000D01*
G01*
X0353287Y0167526D01*
G75*
G02*
X0353867Y0166945I0000000J-000581D01*
G01*
X0353867Y0165784D01*
G75*
G02*
X0353287Y0165203I-000581J0000000D01*
G01*
G37*
D156*
X0347686Y0162872D03*
X0347686Y0170353D03*
X0339812Y0166612D03*
G36*
G01*
X0373454Y0221937D02*
X0373454Y0223295D01*
G75*
G02*
X0374035Y0223876I0000581J0000000D01*
G01*
X0375196Y0223876D01*
G75*
G02*
X0375777Y0223295I0000000J-000581D01*
G01*
X0375777Y0221937D01*
G75*
G02*
X0375196Y0221356I-000581J0000000D01*
G01*
X0374035Y0221356D01*
G75*
G02*
X0373454Y0221937I0000000J0000581D01*
G01*
G37*
G36*
G01*
X0377273Y0221937D02*
X0377273Y0223295D01*
G75*
G02*
X0377854Y0223876I0000581J0000000D01*
G01*
X0379015Y0223876D01*
G75*
G02*
X0379596Y0223295I0000000J-000581D01*
G01*
X0379596Y0221937D01*
G75*
G02*
X0379015Y0221356I-000581J0000000D01*
G01*
X0377854Y0221356D01*
G75*
G02*
X0377273Y0221937I0000000J0000581D01*
G01*
G37*
G36*
G01*
X0338415Y0175810D02*
X0338415Y0177828D01*
G75*
G02*
X0339276Y0178689I0000861J0000000D01*
G01*
X0340998Y0178689D01*
G75*
G02*
X0341859Y0177828I0000000J-000861D01*
G01*
X0341859Y0175810D01*
G75*
G02*
X0340998Y0174949I-000861J0000000D01*
G01*
X0339276Y0174949D01*
G75*
G02*
X0338415Y0175810I0000000J0000861D01*
G01*
G37*
G36*
G01*
X0344615Y0175810D02*
X0344615Y0177828D01*
G75*
G02*
X0345477Y0178689I0000861J0000000D01*
G01*
X0347199Y0178689D01*
G75*
G02*
X0348060Y0177828I0000000J-000861D01*
G01*
X0348060Y0175810D01*
G75*
G02*
X0347199Y0174949I-000861J0000000D01*
G01*
X0345477Y0174949D01*
G75*
G02*
X0344615Y0175810I0000000J0000861D01*
G01*
G37*
D171*
X0380560Y0160057D03*
X0384560Y0180057D03*
X0376560Y0180057D03*
D168*
X0383060Y0165057D03*
X0378060Y0165057D03*
X0383060Y0170057D03*
X0378060Y0170057D03*
X0383060Y0175057D03*
X0378060Y0175057D03*
D309*
X0341682Y0249545D03*
D310*
X0341682Y0239545D03*
X0341682Y0229545D03*
X0312943Y0189743D02*
G01*
G75*
D408*
X0189321Y0171653D02*
D03*
X0182234Y0171653D02*
D03*
X0182234Y0181692D02*
D03*
X0189321Y0181692D02*
D03*
X0301132Y0122912D02*
D03*
X0308219Y0122912D02*
D03*
X0308219Y0132952D02*
D03*
X0301132Y0132952D02*
D03*
X0301132Y0116810D02*
D03*
X0308219Y0116810D02*
D03*
X0308219Y0106770D02*
D03*
X0301132Y0106770D02*
D03*
D409*
X0189321Y0175097D02*
D03*
X0189321Y0178247D02*
D03*
X0182234Y0178247D02*
D03*
X0182234Y0175097D02*
D03*
X0308219Y0129507D02*
D03*
X0308219Y0126357D02*
D03*
X0301132Y0126357D02*
D03*
X0301132Y0129507D02*
D03*
X0301132Y0113365D02*
D03*
X0301132Y0110215D02*
D03*
X0308219Y0110215D02*
D03*
X0308219Y0113365D02*
D03*
D410*
X0193533Y0174649D02*
D03*
X0193533Y0172090D02*
D03*
X0193533Y0169530D02*
D03*
X0201013Y0174649D02*
D03*
X0201013Y0169530D02*
D03*
X0201013Y0172090D02*
D03*
X0201013Y0179274D02*
D03*
X0201013Y0184393D02*
D03*
X0193533Y0179274D02*
D03*
X0193533Y0181834D02*
D03*
X0193533Y0184393D02*
D03*
X0201013Y0181834D02*
D03*
D205*
X0260741Y0075373D02*
D03*
X0260741Y0077341D02*
D03*
X0260741Y0079310D02*
D03*
X0260741Y0081278D02*
D03*
X0260741Y0083247D02*
D03*
X0260741Y0085215D02*
D03*
X0260741Y0087184D02*
D03*
X0260741Y0089152D02*
D03*
X0260741Y0091121D02*
D03*
X0260741Y0095058D02*
D03*
X0260741Y0097027D02*
D03*
X0260741Y0098995D02*
D03*
X0260741Y0100964D02*
D03*
X0260741Y0102932D02*
D03*
X0260741Y0104901D02*
D03*
X0260741Y0106869D02*
D03*
X0260741Y0108838D02*
D03*
X0260741Y0110806D02*
D03*
X0260741Y0112775D02*
D03*
X0260741Y0114743D02*
D03*
X0260741Y0116711D02*
D03*
X0260741Y0118680D02*
D03*
X0260741Y0120648D02*
D03*
X0260741Y0122617D02*
D03*
X0199717Y0122617D02*
D03*
X0199717Y0120648D02*
D03*
X0199717Y0118680D02*
D03*
X0199717Y0116711D02*
D03*
X0199717Y0114743D02*
D03*
X0199717Y0112775D02*
D03*
X0199717Y0110806D02*
D03*
X0199717Y0108838D02*
D03*
X0199717Y0106869D02*
D03*
X0199717Y0104901D02*
D03*
X0199717Y0102932D02*
D03*
X0199717Y0100964D02*
D03*
X0199717Y0098995D02*
D03*
X0199717Y0097027D02*
D03*
X0199717Y0095058D02*
D03*
X0199717Y0093090D02*
D03*
X0199717Y0091121D02*
D03*
X0199717Y0089152D02*
D03*
X0199717Y0087184D02*
D03*
X0199717Y0085215D02*
D03*
X0199717Y0083247D02*
D03*
X0199717Y0081278D02*
D03*
X0199717Y0079310D02*
D03*
X0199717Y0075373D02*
D03*
X0260741Y0093090D02*
D03*
X0199717Y0077341D02*
D03*
D206*
X0253851Y0129507D02*
D03*
X0249914Y0129507D02*
D03*
X0247945Y0129507D02*
D03*
X0245977Y0129507D02*
D03*
X0244008Y0129507D02*
D03*
X0242040Y0129507D02*
D03*
X0240071Y0129507D02*
D03*
X0238103Y0129507D02*
D03*
X0236134Y0129507D02*
D03*
X0234166Y0129507D02*
D03*
X0232197Y0129507D02*
D03*
X0230229Y0129507D02*
D03*
X0228260Y0129507D02*
D03*
X0226292Y0129507D02*
D03*
X0224323Y0129507D02*
D03*
X0222355Y0129507D02*
D03*
X0220386Y0129507D02*
D03*
X0218418Y0129507D02*
D03*
X0216449Y0129507D02*
D03*
X0214481Y0129507D02*
D03*
X0212512Y0129507D02*
D03*
X0210544Y0129507D02*
D03*
X0208575Y0129507D02*
D03*
X0206607Y0129507D02*
D03*
X0206607Y0068483D02*
D03*
X0208575Y0068483D02*
D03*
X0210544Y0068483D02*
D03*
X0212512Y0068483D02*
D03*
X0214481Y0068483D02*
D03*
X0216449Y0068483D02*
D03*
X0218418Y0068483D02*
D03*
X0220386Y0068483D02*
D03*
X0222355Y0068483D02*
D03*
X0224323Y0068483D02*
D03*
X0226292Y0068483D02*
D03*
X0228260Y0068483D02*
D03*
X0230229Y0068483D02*
D03*
X0232197Y0068483D02*
D03*
X0234166Y0068483D02*
D03*
X0236134Y0068483D02*
D03*
X0238103Y0068483D02*
D03*
X0240071Y0068483D02*
D03*
X0242040Y0068483D02*
D03*
X0244008Y0068483D02*
D03*
X0245977Y0068483D02*
D03*
X0247945Y0068483D02*
D03*
X0249914Y0068483D02*
D03*
X0251882Y0068483D02*
D03*
X0253851Y0068483D02*
D03*
X0251882Y0129507D02*
D03*
D207*
X0257234Y0146436D02*
D03*
X0229282Y0146436D02*
D03*
X0285187Y0146436D02*
D03*
X0279675Y0151554D02*
D03*
X0251722Y0141318D02*
D03*
X0251722Y0143877D02*
D03*
X0251722Y0146436D02*
D03*
X0251722Y0148995D02*
D03*
X0251722Y0151554D02*
D03*
X0251722Y0154113D02*
D03*
X0251722Y0156672D02*
D03*
X0229282Y0141318D02*
D03*
X0229282Y0143877D02*
D03*
X0229282Y0148995D02*
D03*
X0229282Y0151554D02*
D03*
X0229282Y0154113D02*
D03*
X0229282Y0156672D02*
D03*
X0307628Y0141318D02*
D03*
X0307628Y0143877D02*
D03*
X0307628Y0146436D02*
D03*
X0307628Y0148995D02*
D03*
X0307628Y0151554D02*
D03*
X0307628Y0154113D02*
D03*
X0307628Y0156672D02*
D03*
X0285187Y0141318D02*
D03*
X0285187Y0143877D02*
D03*
X0285187Y0148995D02*
D03*
X0285187Y0151554D02*
D03*
X0285187Y0154113D02*
D03*
X0285187Y0156672D02*
D03*
X0279675Y0141318D02*
D03*
X0279675Y0143877D02*
D03*
X0279675Y0146436D02*
D03*
X0279675Y0148995D02*
D03*
X0279675Y0154113D02*
D03*
X0279675Y0156672D02*
D03*
X0257234Y0141318D02*
D03*
X0257234Y0143877D02*
D03*
X0257234Y0148995D02*
D03*
X0257234Y0151554D02*
D03*
X0257234Y0154113D02*
D03*
X0257234Y0156672D02*
D03*
X0201329Y0156672D02*
D03*
X0201329Y0154113D02*
D03*
X0201329Y0151554D02*
D03*
X0201329Y0148995D02*
D03*
X0201329Y0146436D02*
D03*
X0201329Y0143877D02*
D03*
X0201329Y0141318D02*
D03*
X0223770Y0156672D02*
D03*
X0223770Y0154113D02*
D03*
X0223770Y0151554D02*
D03*
X0223770Y0148995D02*
D03*
X0223770Y0146436D02*
D03*
X0223770Y0143877D02*
D03*
X0223770Y0141318D02*
D03*
D208*
X0202825Y0055550D02*
D03*
X0202825Y0060550D02*
D03*
X0207825Y0055550D02*
D03*
X0207825Y0060550D02*
D03*
X0212825Y0055550D02*
D03*
X0212825Y0060550D02*
D03*
D411*
X0188534Y0054310D02*
D03*
X0184793Y0054310D02*
D03*
X0192274Y0054310D02*
D03*
X0192274Y0063759D02*
D03*
X0188534Y0063759D02*
D03*
X0184793Y0063759D02*
D03*
D412*
X0187084Y0075570D02*
D03*
X0187084Y0070845D02*
D03*
X0188553Y0085117D02*
D03*
X0275093Y0058332D02*
D03*
X0261781Y0134198D02*
D03*
X0191020Y0075570D02*
D03*
X0184615Y0085117D02*
D03*
X0189915Y0122101D02*
D03*
X0185978Y0122101D02*
D03*
X0189915Y0131156D02*
D03*
X0185978Y0131156D02*
D03*
X0191020Y0070845D02*
D03*
X0271156Y0058332D02*
D03*
X0278233Y0075047D02*
D03*
X0274296Y0075047D02*
D03*
X0257844Y0134198D02*
D03*
X0257825Y0129902D02*
D03*
X0261762Y0129902D02*
D03*
D211*
X0184627Y0093752D02*
D03*
X0184627Y0095720D02*
D03*
X0190926Y0091783D02*
D03*
X0190926Y0093752D02*
D03*
X0190926Y0089815D02*
D03*
X0190926Y0095720D02*
D03*
X0184627Y0089815D02*
D03*
X0184627Y0091783D02*
D03*
D212*
X0186792Y0095917D02*
D03*
X0188761Y0095917D02*
D03*
X0188761Y0089618D02*
D03*
X0186792Y0089618D02*
D03*
D413*
X0189532Y0100767D02*
D03*
X0189532Y0117302D02*
D03*
D414*
X0218061Y0173208D02*
D03*
X0208612Y0173208D02*
D03*
X0213337Y0173208D02*
D03*
X0222785Y0173208D02*
D03*
X0208612Y0184625D02*
D03*
X0218061Y0184625D02*
D03*
X0213337Y0184625D02*
D03*
X0222785Y0184625D02*
D03*
X0228995Y0166228D02*
D03*
X0228995Y0162291D02*
D03*
X0222785Y0180688D02*
D03*
D03*
X0222785Y0176751D02*
D03*
X0218061Y0180688D02*
D03*
X0218061Y0176751D02*
D03*
X0222785Y0169271D02*
D03*
X0213337Y0180688D02*
D03*
X0213337Y0176751D02*
D03*
X0218061Y0169271D02*
D03*
X0213337Y0169271D02*
D03*
X0208612Y0180688D02*
D03*
X0208612Y0176751D02*
D03*
X0208612Y0180688D02*
D03*
X0208612Y0169271D02*
D03*
X0218061Y0180688D02*
D03*
X0213337Y0180688D02*
D03*
X0308809Y0178326D02*
D03*
X0308809Y0182263D02*
D03*
X0284203Y0180688D02*
D03*
X0284203Y0184625D02*
D03*
X0270030Y0180688D02*
D03*
X0270030Y0184625D02*
D03*
X0251132Y0176751D02*
D03*
X0251132Y0180688D02*
D03*
X0251132Y0184625D02*
D03*
X0251132Y0180688D02*
D03*
X0236959Y0176751D02*
D03*
X0236959Y0180688D02*
D03*
X0308809Y0161593D02*
D03*
X0308809Y0165530D02*
D03*
X0303100Y0180688D02*
D03*
X0303100Y0176751D02*
D03*
X0298376Y0180688D02*
D03*
X0298376Y0176751D02*
D03*
X0293652Y0180688D02*
D03*
X0293652Y0176751D02*
D03*
X0288927Y0180688D02*
D03*
X0288927Y0176751D02*
D03*
X0303100Y0180688D02*
D03*
X0303100Y0184625D02*
D03*
X0298376Y0180688D02*
D03*
X0298376Y0184625D02*
D03*
X0293652Y0180688D02*
D03*
X0293652Y0184625D02*
D03*
X0288927Y0180688D02*
D03*
X0288927Y0184625D02*
D03*
X0284203Y0180688D02*
D03*
X0284203Y0176751D02*
D03*
X0279478Y0180688D02*
D03*
X0279478Y0176751D02*
D03*
X0274754Y0180688D02*
D03*
X0274754Y0176751D02*
D03*
X0270030Y0180688D02*
D03*
X0270030Y0176751D02*
D03*
X0279478Y0180688D02*
D03*
X0279478Y0184625D02*
D03*
X0274754Y0180688D02*
D03*
X0274754Y0184625D02*
D03*
X0265305Y0176751D02*
D03*
X0265305Y0180688D02*
D03*
X0260581Y0176751D02*
D03*
X0260581Y0180688D02*
D03*
X0255856Y0176751D02*
D03*
X0255856Y0180688D02*
D03*
X0265305Y0184625D02*
D03*
X0265305Y0180688D02*
D03*
X0260581Y0184625D02*
D03*
X0260581Y0180688D02*
D03*
X0255856Y0184625D02*
D03*
X0255856Y0180688D02*
D03*
X0246407Y0176751D02*
D03*
X0246407Y0180688D02*
D03*
X0241683Y0176751D02*
D03*
X0241683Y0180688D02*
D03*
X0232234Y0176751D02*
D03*
X0232234Y0180688D02*
D03*
X0246407Y0184625D02*
D03*
X0246407Y0180688D02*
D03*
X0241683Y0184625D02*
D03*
X0241683Y0180688D02*
D03*
X0236959Y0184625D02*
D03*
X0236959Y0180688D02*
D03*
X0232234Y0184625D02*
D03*
X0232234Y0180688D02*
D03*
X0308809Y0170649D02*
D03*
X0308809Y0174586D02*
D03*
D415*
X0244045Y0167696D02*
D03*
X0262943Y0167696D02*
D03*
X0281841Y0167696D02*
D03*
X0300738Y0167696D02*
D03*
X0272392Y0163956D02*
D03*
X0272392Y0167696D02*
D03*
X0272392Y0171436D02*
D03*
X0281841Y0171436D02*
D03*
X0281841Y0163956D02*
D03*
X0291289Y0163956D02*
D03*
X0291289Y0167696D02*
D03*
X0291289Y0171436D02*
D03*
X0300738Y0171436D02*
D03*
X0300738Y0163956D02*
D03*
X0253494Y0163956D02*
D03*
X0253494Y0167696D02*
D03*
X0253494Y0171436D02*
D03*
X0262943Y0171436D02*
D03*
X0262943Y0163956D02*
D03*
X0234596Y0163956D02*
D03*
X0234596Y0167696D02*
D03*
X0234596Y0171436D02*
D03*
X0244045Y0171436D02*
D03*
X0244045Y0163956D02*
D03*
D416*
X0278030Y0070661D02*
D03*
X0260108Y0060412D02*
D03*
D217*
X0287352Y0095784D02*
D03*
X0306250Y0100784D02*
D03*
X0306250Y0085784D02*
D03*
X0306250Y0090784D02*
D03*
X0306250Y0095784D02*
D03*
X0287352Y0085784D02*
D03*
X0287352Y0090784D02*
D03*
X0287352Y0100784D02*
D03*
D417*
X0305660Y0078143D02*
D03*
X0287549Y0078143D02*
D03*
D418*
X0271198Y0109669D02*
D03*
X0287407Y0110217D02*
D03*
X0270721Y0117829D02*
D03*
X0270721Y0125440D02*
D03*
X0287407Y0117829D02*
D03*
X0287407Y0125440D02*
D03*
X0270721Y0133052D02*
D03*
X0287407Y0133052D02*
D03*
X0277891Y0109669D02*
D03*
X0277414Y0117829D02*
D03*
X0277414Y0125440D02*
D03*
X0277414Y0133052D02*
D03*
X0294100Y0117829D02*
D03*
X0294100Y0110217D02*
D03*
X0277891Y0101692D02*
D03*
X0271198Y0101692D02*
D03*
X0271198Y0094605D02*
D03*
X0277891Y0094605D02*
D03*
X0277891Y0087519D02*
D03*
X0271198Y0087519D02*
D03*
X0271198Y0080432D02*
D03*
X0277891Y0080432D02*
D03*
X0294100Y0125440D02*
D03*
X0294100Y0133052D02*
D03*
X0271198Y0052932D02*
D03*
X0277891Y0052932D02*
D03*
D419*
X0184524Y0080345D02*
D03*
X0190824Y0080345D02*
D03*
X0191884Y0126786D02*
D03*
X0185584Y0126786D02*
D03*
D420*
X0225149Y0057403D02*
D03*
X0241684Y0057403D02*
D03*
D416*
X0260108Y0052932D02*
D03*
X0250856Y0056672D02*
D03*
X0278030Y0063181D02*
D03*
X0268778Y0066921D02*
D03*
D421*
X0296604Y0053733D02*
D03*
D422*
X0296604Y0078143D02*
D03*
D224*
X0227313Y0180688D02*
D03*
X0308219Y0186593D02*
D03*
D423*
X0190122Y0162946D02*
D03*
X0190122Y0145230D02*
D03*
D226*
X0235030Y0135609D02*
D03*
X0220817Y0135609D02*
D03*
X0250817Y0135609D02*
D03*
D227*
X0197825Y0058050D02*
D03*
X0217825Y0062050D02*
D03*
X0217825Y0054050D02*
D03*
D36*
X0308612Y0052341D02*
D03*
X0120521Y0215235D02*
G01*
G75*
D272*
X0121604Y0171928D02*
D03*
D271*
X0121801Y0212676D02*
D03*
X0121801Y0210707D02*
D03*
D462*
X0133533Y0203818D02*
D03*
X0124281Y0207558D02*
D03*
D462*
X0133533Y0211298D02*
D03*
D452*
X0145147Y0196259D02*
D03*
X0140147Y0196259D02*
D03*
X0135147Y0196259D02*
D03*
X0130147Y0196259D02*
D03*
X0145147Y0177361D02*
D03*
X0140147Y0177361D02*
D03*
X0135147Y0177361D02*
D03*
X0130147Y0177361D02*
D03*
D463*
X0124852Y0180550D02*
D03*
X0124852Y0174330D02*
D03*
X0124852Y0188896D02*
D03*
X0124852Y0195117D02*
D03*
D464*
X0138434Y0210708D02*
D03*
X0138434Y0204408D02*
D03*
D129*
X0122391Y0200078D02*
D03*
X0144930Y0184034D02*
D03*
X0130954Y0183739D02*
D03*
X0125934Y0184920D02*
D03*
X0128001Y0188365D02*
D03*
M02*
