G75*
G70*
%OFA0B0*%
%FSLAX25Y25*%
%IPPOS*%
%LPD*%
%AMOC8*
5,1,8,0,0,1.08239X$1,22.5*
%
%AMM11*
21,1,0.023620,0.018900,0.000000,0.000000,90.000000*
21,1,0.018900,0.023620,0.000000,0.000000,90.000000*
1,1,0.004720,0.009450,0.009450*
1,1,0.004720,0.009450,-0.009450*
1,1,0.004720,-0.009450,-0.009450*
1,1,0.004720,-0.009450,0.009450*
%
%AMM117*
21,1,0.023620,0.018900,0.000000,-0.000000,90.000000*
21,1,0.018900,0.023620,0.000000,-0.000000,90.000000*
1,1,0.004720,0.009450,0.009450*
1,1,0.004720,0.009450,-0.009450*
1,1,0.004720,-0.009450,-0.009450*
1,1,0.004720,-0.009450,0.009450*
%
%AMM118*
21,1,0.019680,0.019680,0.000000,-0.000000,180.000000*
21,1,0.015750,0.023620,0.000000,-0.000000,180.000000*
1,1,0.003940,-0.007870,0.009840*
1,1,0.003940,0.007870,0.009840*
1,1,0.003940,0.007870,-0.009840*
1,1,0.003940,-0.007870,-0.009840*
%
%AMM119*
21,1,0.033470,0.026770,0.000000,-0.000000,180.000000*
21,1,0.026770,0.033470,0.000000,-0.000000,180.000000*
1,1,0.006690,-0.013390,0.013390*
1,1,0.006690,0.013390,0.013390*
1,1,0.006690,0.013390,-0.013390*
1,1,0.006690,-0.013390,-0.013390*
%
%AMM12*
21,1,0.019680,0.019680,0.000000,0.000000,0.000000*
21,1,0.015750,0.023620,0.000000,0.000000,0.000000*
1,1,0.003940,0.007870,-0.009840*
1,1,0.003940,-0.007870,-0.009840*
1,1,0.003940,-0.007870,0.009840*
1,1,0.003940,0.007870,0.009840*
%
%AMM120*
21,1,0.019680,0.019680,0.000000,-0.000000,270.000000*
21,1,0.015750,0.023620,0.000000,-0.000000,270.000000*
1,1,0.003940,-0.009840,-0.007870*
1,1,0.003940,-0.009840,0.007870*
1,1,0.003940,0.009840,0.007870*
1,1,0.003940,0.009840,-0.007870*
%
%AMM13*
21,1,0.019680,0.019680,0.000000,0.000000,270.000000*
21,1,0.015750,0.023620,0.000000,0.000000,270.000000*
1,1,0.003940,-0.009840,-0.007870*
1,1,0.003940,-0.009840,0.007870*
1,1,0.003940,0.009840,0.007870*
1,1,0.003940,0.009840,-0.007870*
%
%AMM183*
21,1,0.025590,0.026380,-0.000000,-0.000000,90.000000*
21,1,0.020470,0.031500,-0.000000,-0.000000,90.000000*
1,1,0.005120,0.013190,0.010240*
1,1,0.005120,0.013190,-0.010240*
1,1,0.005120,-0.013190,-0.010240*
1,1,0.005120,-0.013190,0.010240*
%
%AMM184*
21,1,0.017720,0.027950,-0.000000,-0.000000,90.000000*
21,1,0.014170,0.031500,-0.000000,-0.000000,90.000000*
1,1,0.003540,0.013980,0.007090*
1,1,0.003540,0.013980,-0.007090*
1,1,0.003540,-0.013980,-0.007090*
1,1,0.003540,-0.013980,0.007090*
%
%AMM187*
21,1,0.027560,0.018900,-0.000000,-0.000000,270.000000*
21,1,0.022840,0.023620,-0.000000,-0.000000,270.000000*
1,1,0.004720,-0.009450,-0.011420*
1,1,0.004720,-0.009450,0.011420*
1,1,0.004720,0.009450,0.011420*
1,1,0.004720,0.009450,-0.011420*
%
%AMM189*
21,1,0.027560,0.018900,-0.000000,-0.000000,0.000000*
21,1,0.022840,0.023620,-0.000000,-0.000000,0.000000*
1,1,0.004720,0.011420,-0.009450*
1,1,0.004720,-0.011420,-0.009450*
1,1,0.004720,-0.011420,0.009450*
1,1,0.004720,0.011420,0.009450*
%
%AMM191*
21,1,0.035430,0.030320,-0.000000,-0.000000,90.000000*
21,1,0.028350,0.037400,-0.000000,-0.000000,90.000000*
1,1,0.007090,0.015160,0.014170*
1,1,0.007090,0.015160,-0.014170*
1,1,0.007090,-0.015160,-0.014170*
1,1,0.007090,-0.015160,0.014170*
%
%AMM194*
21,1,0.027560,0.030710,-0.000000,-0.000000,180.000000*
21,1,0.022050,0.036220,-0.000000,-0.000000,180.000000*
1,1,0.005510,-0.011020,0.015350*
1,1,0.005510,0.011020,0.015350*
1,1,0.005510,0.011020,-0.015350*
1,1,0.005510,-0.011020,-0.015350*
%
%AMM215*
21,1,0.033470,0.026770,-0.000000,-0.000000,270.000000*
21,1,0.026770,0.033470,-0.000000,-0.000000,270.000000*
1,1,0.006690,-0.013390,-0.013390*
1,1,0.006690,-0.013390,0.013390*
1,1,0.006690,0.013390,0.013390*
1,1,0.006690,0.013390,-0.013390*
%
%AMM216*
21,1,0.025590,0.026380,-0.000000,-0.000000,180.000000*
21,1,0.020470,0.031500,-0.000000,-0.000000,180.000000*
1,1,0.005120,-0.010240,0.013190*
1,1,0.005120,0.010240,0.013190*
1,1,0.005120,0.010240,-0.013190*
1,1,0.005120,-0.010240,-0.013190*
%
%AMM217*
21,1,0.017720,0.027950,-0.000000,-0.000000,180.000000*
21,1,0.014170,0.031500,-0.000000,-0.000000,180.000000*
1,1,0.003540,-0.007090,0.013980*
1,1,0.003540,0.007090,0.013980*
1,1,0.003540,0.007090,-0.013980*
1,1,0.003540,-0.007090,-0.013980*
%
%AMM218*
21,1,0.033470,0.026770,-0.000000,-0.000000,180.000000*
21,1,0.026770,0.033470,-0.000000,-0.000000,180.000000*
1,1,0.006690,-0.013390,0.013390*
1,1,0.006690,0.013390,0.013390*
1,1,0.006690,0.013390,-0.013390*
1,1,0.006690,-0.013390,-0.013390*
%
%AMM219*
21,1,0.078740,0.045670,-0.000000,-0.000000,0.000000*
21,1,0.067320,0.057090,-0.000000,-0.000000,0.000000*
1,1,0.011420,0.033660,-0.022840*
1,1,0.011420,-0.033660,-0.022840*
1,1,0.011420,-0.033660,0.022840*
1,1,0.011420,0.033660,0.022840*
%
%AMM220*
21,1,0.059060,0.020470,-0.000000,-0.000000,0.000000*
21,1,0.053940,0.025590,-0.000000,-0.000000,0.000000*
1,1,0.005120,0.026970,-0.010240*
1,1,0.005120,-0.026970,-0.010240*
1,1,0.005120,-0.026970,0.010240*
1,1,0.005120,0.026970,0.010240*
%
%AMM221*
21,1,0.035430,0.030320,-0.000000,-0.000000,0.000000*
21,1,0.028350,0.037400,-0.000000,-0.000000,0.000000*
1,1,0.007090,0.014170,-0.015160*
1,1,0.007090,-0.014170,-0.015160*
1,1,0.007090,-0.014170,0.015160*
1,1,0.007090,0.014170,0.015160*
%
%AMM222*
21,1,0.012600,0.028980,-0.000000,-0.000000,0.000000*
21,1,0.010080,0.031500,-0.000000,-0.000000,0.000000*
1,1,0.002520,0.005040,-0.014490*
1,1,0.002520,-0.005040,-0.014490*
1,1,0.002520,-0.005040,0.014490*
1,1,0.002520,0.005040,0.014490*
%
%AMM223*
21,1,0.070870,0.036220,-0.000000,-0.000000,180.000000*
21,1,0.061810,0.045280,-0.000000,-0.000000,180.000000*
1,1,0.009060,-0.030910,0.018110*
1,1,0.009060,0.030910,0.018110*
1,1,0.009060,0.030910,-0.018110*
1,1,0.009060,-0.030910,-0.018110*
%
%AMM224*
21,1,0.035830,0.026770,-0.000000,-0.000000,180.000000*
21,1,0.029130,0.033470,-0.000000,-0.000000,180.000000*
1,1,0.006690,-0.014570,0.013390*
1,1,0.006690,0.014570,0.013390*
1,1,0.006690,0.014570,-0.013390*
1,1,0.006690,-0.014570,-0.013390*
%
%AMM225*
21,1,0.027560,0.049610,-0.000000,-0.000000,180.000000*
21,1,0.022050,0.055120,-0.000000,-0.000000,180.000000*
1,1,0.005510,-0.011020,0.024800*
1,1,0.005510,0.011020,0.024800*
1,1,0.005510,0.011020,-0.024800*
1,1,0.005510,-0.011020,-0.024800*
%
%AMM226*
21,1,0.070870,0.036220,-0.000000,-0.000000,270.000000*
21,1,0.061810,0.045280,-0.000000,-0.000000,270.000000*
1,1,0.009060,-0.018110,-0.030910*
1,1,0.009060,-0.018110,0.030910*
1,1,0.009060,0.018110,0.030910*
1,1,0.009060,0.018110,-0.030910*
%
%AMM227*
21,1,0.027560,0.030710,-0.000000,-0.000000,270.000000*
21,1,0.022050,0.036220,-0.000000,-0.000000,270.000000*
1,1,0.005510,-0.015350,-0.011020*
1,1,0.005510,-0.015350,0.011020*
1,1,0.005510,0.015350,0.011020*
1,1,0.005510,0.015350,-0.011020*
%
%AMM27*
21,1,0.106300,0.050390,0.000000,0.000000,90.000000*
21,1,0.093700,0.062990,0.000000,0.000000,90.000000*
1,1,0.012600,0.025200,0.046850*
1,1,0.012600,0.025200,-0.046850*
1,1,0.012600,-0.025200,-0.046850*
1,1,0.012600,-0.025200,0.046850*
%
%AMM28*
21,1,0.033470,0.026770,0.000000,0.000000,270.000000*
21,1,0.026770,0.033470,0.000000,0.000000,270.000000*
1,1,0.006690,-0.013390,-0.013390*
1,1,0.006690,-0.013390,0.013390*
1,1,0.006690,0.013390,0.013390*
1,1,0.006690,0.013390,-0.013390*
%
%AMM29*
21,1,0.023620,0.018900,0.000000,0.000000,180.000000*
21,1,0.018900,0.023620,0.000000,0.000000,180.000000*
1,1,0.004720,-0.009450,0.009450*
1,1,0.004720,0.009450,0.009450*
1,1,0.004720,0.009450,-0.009450*
1,1,0.004720,-0.009450,-0.009450*
%
%AMM30*
21,1,0.122050,0.075590,0.000000,0.000000,180.000000*
21,1,0.103150,0.094490,0.000000,0.000000,180.000000*
1,1,0.018900,-0.051580,0.037800*
1,1,0.018900,0.051580,0.037800*
1,1,0.018900,0.051580,-0.037800*
1,1,0.018900,-0.051580,-0.037800*
%
%AMM31*
21,1,0.118110,0.083460,0.000000,0.000000,0.000000*
21,1,0.097240,0.104330,0.000000,0.000000,0.000000*
1,1,0.020870,0.048620,-0.041730*
1,1,0.020870,-0.048620,-0.041730*
1,1,0.020870,-0.048620,0.041730*
1,1,0.020870,0.048620,0.041730*
%
%AMM7*
21,1,0.035830,0.026770,0.000000,0.000000,0.000000*
21,1,0.029130,0.033470,0.000000,0.000000,0.000000*
1,1,0.006690,0.014570,-0.013390*
1,1,0.006690,-0.014570,-0.013390*
1,1,0.006690,-0.014570,0.013390*
1,1,0.006690,0.014570,0.013390*
%
%AMM8*
21,1,0.070870,0.036220,0.000000,0.000000,90.000000*
21,1,0.061810,0.045280,0.000000,0.000000,90.000000*
1,1,0.009060,0.018110,0.030910*
1,1,0.009060,0.018110,-0.030910*
1,1,0.009060,-0.018110,-0.030910*
1,1,0.009060,-0.018110,0.030910*
%
%ADD108M7*%
%ADD109M8*%
%ADD112M11*%
%ADD113M12*%
%ADD114M13*%
%ADD132M27*%
%ADD133M28*%
%ADD134M29*%
%ADD135O,0.01968X0.08661*%
%ADD136M30*%
%ADD137M31*%
%ADD235R,0.01378X0.01476*%
%ADD238O,0.04961X0.00984*%
%ADD240R,0.09449X0.06693*%
%ADD241R,0.01476X0.01378*%
%ADD243R,0.03937X0.04331*%
%ADD298M117*%
%ADD299M118*%
%ADD300M119*%
%ADD301M120*%
%ADD312R,0.01772X0.05709*%
%ADD313R,0.02559X0.04803*%
%ADD392M183*%
%ADD393M184*%
%ADD396M187*%
%ADD398M189*%
%ADD400M191*%
%ADD403M194*%
%ADD424M215*%
%ADD425M216*%
%ADD426M217*%
%ADD427M218*%
%ADD428M219*%
%ADD429M220*%
%ADD430M221*%
%ADD431M222*%
%ADD432M223*%
%ADD433M224*%
%ADD434M225*%
%ADD435M226*%
%ADD436M227*%
%ADD55R,0.00787X0.14567*%
%ADD56R,0.00787X0.01575*%
%ADD57R,0.00787X0.06299*%
%ADD58R,0.00787X0.38189*%
%ADD59R,0.00787X0.09055*%
%ADD60R,0.05512X0.00787*%
%ADD61R,0.25197X0.00787*%
%ADD62R,0.06693X0.00787*%
%ADD63R,0.12992X0.00787*%
%ADD64R,0.00787X0.27559*%
%ADD65R,0.00787X0.12992*%
%ADD66R,0.00787X0.24803*%
%ADD95R,0.09055X0.17323*%
%ADD96R,0.09055X0.15748*%
X0000000Y0000000D02*
%LPD*%
G01*
G36*
G01*
X0214174Y0319968D02*
X0215355Y0319968D01*
G75*
G02*
X0215945Y0319378I0000000J-000591D01*
G01*
X0215945Y0314752D01*
G75*
G02*
X0215355Y0314161I-000591J0000000D01*
G01*
X0214174Y0314161D01*
G75*
G02*
X0213583Y0314752I0000000J0000591D01*
G01*
X0213583Y0319378D01*
G75*
G02*
X0214174Y0319968I0000591J0000000D01*
G01*
G37*
G36*
G01*
X0221654Y0319968D02*
X0222835Y0319968D01*
G75*
G02*
X0223426Y0319378I0000000J-000591D01*
G01*
X0223426Y0314752D01*
G75*
G02*
X0222835Y0314161I-000591J0000000D01*
G01*
X0221654Y0314161D01*
G75*
G02*
X0221063Y0314752I0000000J0000591D01*
G01*
X0221063Y0319378D01*
G75*
G02*
X0221654Y0319968I0000591J0000000D01*
G01*
G37*
G36*
G01*
X0217914Y0312586D02*
X0219095Y0312586D01*
G75*
G02*
X0219685Y0311996I0000000J-000591D01*
G01*
X0219685Y0307370D01*
G75*
G02*
X0219095Y0306779I-000591J0000000D01*
G01*
X0217914Y0306779D01*
G75*
G02*
X0217323Y0307370I0000000J0000591D01*
G01*
X0217323Y0311996D01*
G75*
G02*
X0217914Y0312586I0000591J0000000D01*
G01*
G37*
G36*
G01*
X0049804Y0053051D02*
X0045670Y0053051D01*
G75*
G02*
X0045276Y0053445I0000000J0000394D01*
G01*
X0045276Y0056594D01*
G75*
G02*
X0045670Y0056988I0000394J0000000D01*
G01*
X0049804Y0056988D01*
G75*
G02*
X0050197Y0056594I0000000J-000394D01*
G01*
X0050197Y0053445D01*
G75*
G02*
X0049804Y0053051I-000394J0000000D01*
G01*
G37*
G36*
G01*
X0049804Y0060925D02*
X0045670Y0060925D01*
G75*
G02*
X0045276Y0061319I0000000J0000394D01*
G01*
X0045276Y0064468D01*
G75*
G02*
X0045670Y0064862I0000394J0000000D01*
G01*
X0049804Y0064862D01*
G75*
G02*
X0050197Y0064468I0000000J-000394D01*
G01*
X0050197Y0061319D01*
G75*
G02*
X0049804Y0060925I-000394J0000000D01*
G01*
G37*
G36*
G01*
X0241969Y0261141D02*
X0244646Y0261141D01*
G75*
G02*
X0244981Y0260807I0000000J-000335D01*
G01*
X0244981Y0258130D01*
G75*
G02*
X0244646Y0257795I-000335J0000000D01*
G01*
X0241969Y0257795D01*
G75*
G02*
X0241634Y0258130I0000000J0000335D01*
G01*
X0241634Y0260807D01*
G75*
G02*
X0241969Y0261141I0000335J0000000D01*
G01*
G37*
G36*
G01*
X0241969Y0254921D02*
X0244646Y0254921D01*
G75*
G02*
X0244981Y0254586I0000000J-000335D01*
G01*
X0244981Y0251909D01*
G75*
G02*
X0244646Y0251574I-000335J0000000D01*
G01*
X0241969Y0251574D01*
G75*
G02*
X0241634Y0251909I0000000J0000335D01*
G01*
X0241634Y0254586D01*
G75*
G02*
X0241969Y0254921I0000335J0000000D01*
G01*
G37*
G36*
G01*
X0076811Y0298878D02*
X0072796Y0298878D01*
G75*
G02*
X0072441Y0299232I0000000J0000354D01*
G01*
X0072441Y0302067D01*
G75*
G02*
X0072796Y0302421I0000354J0000000D01*
G01*
X0076811Y0302421D01*
G75*
G02*
X0077166Y0302067I0000000J-000354D01*
G01*
X0077166Y0299232D01*
G75*
G02*
X0076811Y0298878I-000354J0000000D01*
G01*
G37*
G36*
G01*
X0076811Y0311870D02*
X0072796Y0311870D01*
G75*
G02*
X0072441Y0312224I0000000J0000354D01*
G01*
X0072441Y0315059D01*
G75*
G02*
X0072796Y0315413I0000354J0000000D01*
G01*
X0076811Y0315413D01*
G75*
G02*
X0077166Y0315059I0000000J-000354D01*
G01*
X0077166Y0312224D01*
G75*
G02*
X0076811Y0311870I-000354J0000000D01*
G01*
G37*
D95*
X0362205Y0068957D03*
D96*
X0362205Y0131949D03*
G36*
G01*
X0004311Y0247697D02*
X0005493Y0247697D01*
G75*
G02*
X0006083Y0247106I0000000J-000591D01*
G01*
X0006083Y0240610D01*
G75*
G02*
X0005493Y0240019I-000591J0000000D01*
G01*
X0004311Y0240019D01*
G75*
G02*
X0003721Y0240610I0000000J0000591D01*
G01*
X0003721Y0247106D01*
G75*
G02*
X0004311Y0247697I0000591J0000000D01*
G01*
G37*
G36*
G01*
X0009311Y0247697D02*
X0010493Y0247697D01*
G75*
G02*
X0011083Y0247106I0000000J-000591D01*
G01*
X0011083Y0240610D01*
G75*
G02*
X0010493Y0240019I-000591J0000000D01*
G01*
X0009311Y0240019D01*
G75*
G02*
X0008721Y0240610I0000000J0000591D01*
G01*
X0008721Y0247106D01*
G75*
G02*
X0009311Y0247697I0000591J0000000D01*
G01*
G37*
G36*
G01*
X0014311Y0247697D02*
X0015493Y0247697D01*
G75*
G02*
X0016083Y0247106I0000000J-000591D01*
G01*
X0016083Y0240610D01*
G75*
G02*
X0015493Y0240019I-000591J0000000D01*
G01*
X0014311Y0240019D01*
G75*
G02*
X0013721Y0240610I0000000J0000591D01*
G01*
X0013721Y0247106D01*
G75*
G02*
X0014311Y0247697I0000591J0000000D01*
G01*
G37*
G36*
G01*
X0019311Y0247697D02*
X0020493Y0247697D01*
G75*
G02*
X0021083Y0247106I0000000J-000591D01*
G01*
X0021083Y0240610D01*
G75*
G02*
X0020493Y0240019I-000591J0000000D01*
G01*
X0019311Y0240019D01*
G75*
G02*
X0018721Y0240610I0000000J0000591D01*
G01*
X0018721Y0247106D01*
G75*
G02*
X0019311Y0247697I0000591J0000000D01*
G01*
G37*
G36*
G01*
X0019311Y0228208D02*
X0020493Y0228208D01*
G75*
G02*
X0021083Y0227618I0000000J-000591D01*
G01*
X0021083Y0221122D01*
G75*
G02*
X0020493Y0220531I-000591J0000000D01*
G01*
X0019311Y0220531D01*
G75*
G02*
X0018721Y0221122I0000000J0000591D01*
G01*
X0018721Y0227618D01*
G75*
G02*
X0019311Y0228208I0000591J0000000D01*
G01*
G37*
G36*
G01*
X0014311Y0228208D02*
X0015493Y0228208D01*
G75*
G02*
X0016083Y0227618I0000000J-000591D01*
G01*
X0016083Y0221122D01*
G75*
G02*
X0015493Y0220531I-000591J0000000D01*
G01*
X0014311Y0220531D01*
G75*
G02*
X0013721Y0221122I0000000J0000591D01*
G01*
X0013721Y0227618D01*
G75*
G02*
X0014311Y0228208I0000591J0000000D01*
G01*
G37*
G36*
G01*
X0009311Y0228208D02*
X0010493Y0228208D01*
G75*
G02*
X0011083Y0227618I0000000J-000591D01*
G01*
X0011083Y0221122D01*
G75*
G02*
X0010493Y0220531I-000591J0000000D01*
G01*
X0009311Y0220531D01*
G75*
G02*
X0008721Y0221122I0000000J0000591D01*
G01*
X0008721Y0227618D01*
G75*
G02*
X0009311Y0228208I0000591J0000000D01*
G01*
G37*
G36*
G01*
X0004311Y0228208D02*
X0005493Y0228208D01*
G75*
G02*
X0006083Y0227618I0000000J-000591D01*
G01*
X0006083Y0221122D01*
G75*
G02*
X0005493Y0220531I-000591J0000000D01*
G01*
X0004311Y0220531D01*
G75*
G02*
X0003721Y0221122I0000000J0000591D01*
G01*
X0003721Y0227618D01*
G75*
G02*
X0004311Y0228208I0000591J0000000D01*
G01*
G37*
G36*
G01*
X0011575Y0160098D02*
X0008504Y0160098D01*
G75*
G02*
X0008229Y0160374I0000000J0000276D01*
G01*
X0008229Y0162578D01*
G75*
G02*
X0008504Y0162854I0000276J0000000D01*
G01*
X0011575Y0162854D01*
G75*
G02*
X0011851Y0162578I0000000J-000276D01*
G01*
X0011851Y0160374D01*
G75*
G02*
X0011575Y0160098I-000276J0000000D01*
G01*
G37*
G36*
G01*
X0011575Y0166397D02*
X0008504Y0166397D01*
G75*
G02*
X0008229Y0166673I0000000J0000276D01*
G01*
X0008229Y0168878D01*
G75*
G02*
X0008504Y0169153I0000276J0000000D01*
G01*
X0011575Y0169153D01*
G75*
G02*
X0011851Y0168878I0000000J-000276D01*
G01*
X0011851Y0166673D01*
G75*
G02*
X0011575Y0166397I-000276J0000000D01*
G01*
G37*
G36*
G01*
X0229941Y0326594D02*
X0229941Y0323917D01*
G75*
G02*
X0229607Y0323582I-000335J0000000D01*
G01*
X0226930Y0323582D01*
G75*
G02*
X0226595Y0323917I0000000J0000335D01*
G01*
X0226595Y0326594D01*
G75*
G02*
X0226930Y0326929I0000335J0000000D01*
G01*
X0229607Y0326929D01*
G75*
G02*
X0229941Y0326594I0000000J-000335D01*
G01*
G37*
G36*
G01*
X0223721Y0326594D02*
X0223721Y0323917D01*
G75*
G02*
X0223386Y0323582I-000335J0000000D01*
G01*
X0220709Y0323582D01*
G75*
G02*
X0220374Y0323917I0000000J0000335D01*
G01*
X0220374Y0326594D01*
G75*
G02*
X0220709Y0326929I0000335J0000000D01*
G01*
X0223386Y0326929D01*
G75*
G02*
X0223721Y0326594I0000000J-000335D01*
G01*
G37*
G36*
G01*
X0026181Y0053051D02*
X0022048Y0053051D01*
G75*
G02*
X0021654Y0053445I0000000J0000394D01*
G01*
X0021654Y0056594D01*
G75*
G02*
X0022048Y0056988I0000394J0000000D01*
G01*
X0026181Y0056988D01*
G75*
G02*
X0026575Y0056594I0000000J-000394D01*
G01*
X0026575Y0053445D01*
G75*
G02*
X0026181Y0053051I-000394J0000000D01*
G01*
G37*
G36*
G01*
X0026181Y0060925D02*
X0022048Y0060925D01*
G75*
G02*
X0021654Y0061319I0000000J0000394D01*
G01*
X0021654Y0064468D01*
G75*
G02*
X0022048Y0064862I0000394J0000000D01*
G01*
X0026181Y0064862D01*
G75*
G02*
X0026575Y0064468I0000000J-000394D01*
G01*
X0026575Y0061319D01*
G75*
G02*
X0026181Y0060925I-000394J0000000D01*
G01*
G37*
G36*
G01*
X0380552Y0138700D02*
X0383229Y0138700D01*
G75*
G02*
X0383563Y0138366I0000000J-000335D01*
G01*
X0383563Y0135689D01*
G75*
G02*
X0383229Y0135354I-000335J0000000D01*
G01*
X0380552Y0135354D01*
G75*
G02*
X0380217Y0135689I0000000J0000335D01*
G01*
X0380217Y0138366D01*
G75*
G02*
X0380552Y0138700I0000335J0000000D01*
G01*
G37*
G36*
G01*
X0380552Y0132480D02*
X0383229Y0132480D01*
G75*
G02*
X0383563Y0132145I0000000J-000335D01*
G01*
X0383563Y0129468D01*
G75*
G02*
X0383229Y0129134I-000335J0000000D01*
G01*
X0380552Y0129134D01*
G75*
G02*
X0380217Y0129468I0000000J0000335D01*
G01*
X0380217Y0132145D01*
G75*
G02*
X0380552Y0132480I0000335J0000000D01*
G01*
G37*
G36*
G01*
X0213721Y0302193D02*
X0213721Y0304870D01*
G75*
G02*
X0214056Y0305204I0000335J0000000D01*
G01*
X0216733Y0305204D01*
G75*
G02*
X0217067Y0304870I0000000J-000335D01*
G01*
X0217067Y0302193D01*
G75*
G02*
X0216733Y0301858I-000335J0000000D01*
G01*
X0214056Y0301858D01*
G75*
G02*
X0213721Y0302193I0000000J0000335D01*
G01*
G37*
G36*
G01*
X0219941Y0302193D02*
X0219941Y0304870D01*
G75*
G02*
X0220276Y0305204I0000335J0000000D01*
G01*
X0222953Y0305204D01*
G75*
G02*
X0223288Y0304870I0000000J-000335D01*
G01*
X0223288Y0302193D01*
G75*
G02*
X0222953Y0301858I-000335J0000000D01*
G01*
X0220276Y0301858D01*
G75*
G02*
X0219941Y0302193I0000000J0000335D01*
G01*
G37*
G36*
G01*
X0024764Y0160098D02*
X0021693Y0160098D01*
G75*
G02*
X0021418Y0160374I0000000J0000276D01*
G01*
X0021418Y0162578D01*
G75*
G02*
X0021693Y0162854I0000276J0000000D01*
G01*
X0024764Y0162854D01*
G75*
G02*
X0025040Y0162578I0000000J-000276D01*
G01*
X0025040Y0160374D01*
G75*
G02*
X0024764Y0160098I-000276J0000000D01*
G01*
G37*
G36*
G01*
X0024764Y0166397D02*
X0021693Y0166397D01*
G75*
G02*
X0021418Y0166673I0000000J0000276D01*
G01*
X0021418Y0168878D01*
G75*
G02*
X0021693Y0169153I0000276J0000000D01*
G01*
X0024764Y0169153D01*
G75*
G02*
X0025040Y0168878I0000000J-000276D01*
G01*
X0025040Y0166673D01*
G75*
G02*
X0024764Y0166397I-000276J0000000D01*
G01*
G37*
G36*
G01*
X0063288Y0043366D02*
X0067422Y0043366D01*
G75*
G02*
X0067815Y0042972I0000000J-000394D01*
G01*
X0067815Y0039823D01*
G75*
G02*
X0067422Y0039429I-000394J0000000D01*
G01*
X0063288Y0039429D01*
G75*
G02*
X0062894Y0039823I0000000J0000394D01*
G01*
X0062894Y0042972D01*
G75*
G02*
X0063288Y0043366I0000394J0000000D01*
G01*
G37*
G36*
G01*
X0063288Y0035492D02*
X0067422Y0035492D01*
G75*
G02*
X0067815Y0035098I0000000J-000394D01*
G01*
X0067815Y0031949D01*
G75*
G02*
X0067422Y0031555I-000394J0000000D01*
G01*
X0063288Y0031555D01*
G75*
G02*
X0062894Y0031949I0000000J0000394D01*
G01*
X0062894Y0035098D01*
G75*
G02*
X0063288Y0035492I0000394J0000000D01*
G01*
G37*
G36*
G01*
X0108170Y0251338D02*
X0108170Y0240118D01*
G75*
G02*
X0107185Y0239134I-000984J0000000D01*
G01*
X0104331Y0239134D01*
G75*
G02*
X0103347Y0240118I0000000J0000984D01*
G01*
X0103347Y0251338D01*
G75*
G02*
X0104331Y0252323I0000984J0000000D01*
G01*
X0107185Y0252323D01*
G75*
G02*
X0108170Y0251338I0000000J-000984D01*
G01*
G37*
G36*
G01*
X0084843Y0251338D02*
X0084843Y0240118D01*
G75*
G02*
X0083859Y0239134I-000984J0000000D01*
G01*
X0081004Y0239134D01*
G75*
G02*
X0080020Y0240118I0000000J0000984D01*
G01*
X0080020Y0251338D01*
G75*
G02*
X0081004Y0252323I0000984J0000000D01*
G01*
X0083859Y0252323D01*
G75*
G02*
X0084843Y0251338I0000000J-000984D01*
G01*
G37*
G36*
G01*
X0029922Y0080610D02*
X0034056Y0080610D01*
G75*
G02*
X0034449Y0080216I0000000J-000394D01*
G01*
X0034449Y0077067D01*
G75*
G02*
X0034056Y0076673I-000394J0000000D01*
G01*
X0029922Y0076673D01*
G75*
G02*
X0029528Y0077067I0000000J0000394D01*
G01*
X0029528Y0080216D01*
G75*
G02*
X0029922Y0080610I0000394J0000000D01*
G01*
G37*
G36*
G01*
X0029922Y0072736D02*
X0034056Y0072736D01*
G75*
G02*
X0034449Y0072342I0000000J-000394D01*
G01*
X0034449Y0069193D01*
G75*
G02*
X0034056Y0068799I-000394J0000000D01*
G01*
X0029922Y0068799D01*
G75*
G02*
X0029528Y0069193I0000000J0000394D01*
G01*
X0029528Y0072342D01*
G75*
G02*
X0029922Y0072736I0000394J0000000D01*
G01*
G37*
G36*
G01*
X0075296Y0015807D02*
X0071162Y0015807D01*
G75*
G02*
X0070768Y0016200I0000000J0000394D01*
G01*
X0070768Y0019350D01*
G75*
G02*
X0071162Y0019744I0000394J0000000D01*
G01*
X0075296Y0019744D01*
G75*
G02*
X0075689Y0019350I0000000J-000394D01*
G01*
X0075689Y0016200D01*
G75*
G02*
X0075296Y0015807I-000394J0000000D01*
G01*
G37*
G36*
G01*
X0075296Y0023681D02*
X0071162Y0023681D01*
G75*
G02*
X0070768Y0024074I0000000J0000394D01*
G01*
X0070768Y0027224D01*
G75*
G02*
X0071162Y0027618I0000394J0000000D01*
G01*
X0075296Y0027618D01*
G75*
G02*
X0075689Y0027224I0000000J-000394D01*
G01*
X0075689Y0024074D01*
G75*
G02*
X0075296Y0023681I-000394J0000000D01*
G01*
G37*
G36*
G01*
X0210414Y0296319D02*
X0211595Y0296319D01*
G75*
G02*
X0212185Y0295728I0000000J-000591D01*
G01*
X0212185Y0289232D01*
G75*
G02*
X0211595Y0288641I-000591J0000000D01*
G01*
X0210414Y0288641D01*
G75*
G02*
X0209823Y0289232I0000000J0000591D01*
G01*
X0209823Y0295728D01*
G75*
G02*
X0210414Y0296319I0000591J0000000D01*
G01*
G37*
G36*
G01*
X0215414Y0296319D02*
X0216595Y0296319D01*
G75*
G02*
X0217185Y0295728I0000000J-000591D01*
G01*
X0217185Y0289232D01*
G75*
G02*
X0216595Y0288641I-000591J0000000D01*
G01*
X0215414Y0288641D01*
G75*
G02*
X0214823Y0289232I0000000J0000591D01*
G01*
X0214823Y0295728D01*
G75*
G02*
X0215414Y0296319I0000591J0000000D01*
G01*
G37*
G36*
G01*
X0220414Y0296319D02*
X0221595Y0296319D01*
G75*
G02*
X0222185Y0295728I0000000J-000591D01*
G01*
X0222185Y0289232D01*
G75*
G02*
X0221595Y0288641I-000591J0000000D01*
G01*
X0220414Y0288641D01*
G75*
G02*
X0219823Y0289232I0000000J0000591D01*
G01*
X0219823Y0295728D01*
G75*
G02*
X0220414Y0296319I0000591J0000000D01*
G01*
G37*
G36*
G01*
X0225414Y0296319D02*
X0226595Y0296319D01*
G75*
G02*
X0227185Y0295728I0000000J-000591D01*
G01*
X0227185Y0289232D01*
G75*
G02*
X0226595Y0288641I-000591J0000000D01*
G01*
X0225414Y0288641D01*
G75*
G02*
X0224823Y0289232I0000000J0000591D01*
G01*
X0224823Y0295728D01*
G75*
G02*
X0225414Y0296319I0000591J0000000D01*
G01*
G37*
G36*
G01*
X0225414Y0276830D02*
X0226595Y0276830D01*
G75*
G02*
X0227185Y0276240I0000000J-000591D01*
G01*
X0227185Y0269744D01*
G75*
G02*
X0226595Y0269153I-000591J0000000D01*
G01*
X0225414Y0269153D01*
G75*
G02*
X0224823Y0269744I0000000J0000591D01*
G01*
X0224823Y0276240D01*
G75*
G02*
X0225414Y0276830I0000591J0000000D01*
G01*
G37*
G36*
G01*
X0220414Y0276830D02*
X0221595Y0276830D01*
G75*
G02*
X0222185Y0276240I0000000J-000591D01*
G01*
X0222185Y0269744D01*
G75*
G02*
X0221595Y0269153I-000591J0000000D01*
G01*
X0220414Y0269153D01*
G75*
G02*
X0219823Y0269744I0000000J0000591D01*
G01*
X0219823Y0276240D01*
G75*
G02*
X0220414Y0276830I0000591J0000000D01*
G01*
G37*
G36*
G01*
X0215414Y0276830D02*
X0216595Y0276830D01*
G75*
G02*
X0217185Y0276240I0000000J-000591D01*
G01*
X0217185Y0269744D01*
G75*
G02*
X0216595Y0269153I-000591J0000000D01*
G01*
X0215414Y0269153D01*
G75*
G02*
X0214823Y0269744I0000000J0000591D01*
G01*
X0214823Y0276240D01*
G75*
G02*
X0215414Y0276830I0000591J0000000D01*
G01*
G37*
G36*
G01*
X0210414Y0276830D02*
X0211595Y0276830D01*
G75*
G02*
X0212185Y0276240I0000000J-000591D01*
G01*
X0212185Y0269744D01*
G75*
G02*
X0211595Y0269153I-000591J0000000D01*
G01*
X0210414Y0269153D01*
G75*
G02*
X0209823Y0269744I0000000J0000591D01*
G01*
X0209823Y0276240D01*
G75*
G02*
X0210414Y0276830I0000591J0000000D01*
G01*
G37*
G36*
G01*
X0014174Y0080610D02*
X0018307Y0080610D01*
G75*
G02*
X0018701Y0080216I0000000J-000394D01*
G01*
X0018701Y0077067D01*
G75*
G02*
X0018307Y0076673I-000394J0000000D01*
G01*
X0014174Y0076673D01*
G75*
G02*
X0013780Y0077067I0000000J0000394D01*
G01*
X0013780Y0080216D01*
G75*
G02*
X0014174Y0080610I0000394J0000000D01*
G01*
G37*
G36*
G01*
X0014174Y0072736D02*
X0018307Y0072736D01*
G75*
G02*
X0018701Y0072342I0000000J-000394D01*
G01*
X0018701Y0069193D01*
G75*
G02*
X0018307Y0068799I-000394J0000000D01*
G01*
X0014174Y0068799D01*
G75*
G02*
X0013780Y0069193I0000000J0000394D01*
G01*
X0013780Y0072342D01*
G75*
G02*
X0014174Y0072736I0000394J0000000D01*
G01*
G37*
G36*
G01*
X0108170Y0168661D02*
X0108170Y0157441D01*
G75*
G02*
X0107185Y0156456I-000984J0000000D01*
G01*
X0104331Y0156456D01*
G75*
G02*
X0103347Y0157441I0000000J0000984D01*
G01*
X0103347Y0168661D01*
G75*
G02*
X0104331Y0169645I0000984J0000000D01*
G01*
X0107185Y0169645D01*
G75*
G02*
X0108170Y0168661I0000000J-000984D01*
G01*
G37*
G36*
G01*
X0084843Y0168661D02*
X0084843Y0157441D01*
G75*
G02*
X0083859Y0156456I-000984J0000000D01*
G01*
X0081004Y0156456D01*
G75*
G02*
X0080020Y0157441I0000000J0000984D01*
G01*
X0080020Y0168661D01*
G75*
G02*
X0081004Y0169645I0000984J0000000D01*
G01*
X0083859Y0169645D01*
G75*
G02*
X0084843Y0168661I0000000J-000984D01*
G01*
G37*
G36*
G01*
X0004311Y0214035D02*
X0005493Y0214035D01*
G75*
G02*
X0006083Y0213445I0000000J-000591D01*
G01*
X0006083Y0206949D01*
G75*
G02*
X0005493Y0206358I-000591J0000000D01*
G01*
X0004311Y0206358D01*
G75*
G02*
X0003721Y0206949I0000000J0000591D01*
G01*
X0003721Y0213445D01*
G75*
G02*
X0004311Y0214035I0000591J0000000D01*
G01*
G37*
G36*
G01*
X0009311Y0214035D02*
X0010493Y0214035D01*
G75*
G02*
X0011083Y0213445I0000000J-000591D01*
G01*
X0011083Y0206949D01*
G75*
G02*
X0010493Y0206358I-000591J0000000D01*
G01*
X0009311Y0206358D01*
G75*
G02*
X0008721Y0206949I0000000J0000591D01*
G01*
X0008721Y0213445D01*
G75*
G02*
X0009311Y0214035I0000591J0000000D01*
G01*
G37*
G36*
G01*
X0014311Y0214035D02*
X0015493Y0214035D01*
G75*
G02*
X0016083Y0213445I0000000J-000591D01*
G01*
X0016083Y0206949D01*
G75*
G02*
X0015493Y0206358I-000591J0000000D01*
G01*
X0014311Y0206358D01*
G75*
G02*
X0013721Y0206949I0000000J0000591D01*
G01*
X0013721Y0213445D01*
G75*
G02*
X0014311Y0214035I0000591J0000000D01*
G01*
G37*
G36*
G01*
X0019311Y0214035D02*
X0020493Y0214035D01*
G75*
G02*
X0021083Y0213445I0000000J-000591D01*
G01*
X0021083Y0206949D01*
G75*
G02*
X0020493Y0206358I-000591J0000000D01*
G01*
X0019311Y0206358D01*
G75*
G02*
X0018721Y0206949I0000000J0000591D01*
G01*
X0018721Y0213445D01*
G75*
G02*
X0019311Y0214035I0000591J0000000D01*
G01*
G37*
G36*
G01*
X0019311Y0194547D02*
X0020493Y0194547D01*
G75*
G02*
X0021083Y0193956I0000000J-000591D01*
G01*
X0021083Y0187460D01*
G75*
G02*
X0020493Y0186870I-000591J0000000D01*
G01*
X0019311Y0186870D01*
G75*
G02*
X0018721Y0187460I0000000J0000591D01*
G01*
X0018721Y0193956D01*
G75*
G02*
X0019311Y0194547I0000591J0000000D01*
G01*
G37*
G36*
G01*
X0014311Y0194547D02*
X0015493Y0194547D01*
G75*
G02*
X0016083Y0193956I0000000J-000591D01*
G01*
X0016083Y0187460D01*
G75*
G02*
X0015493Y0186870I-000591J0000000D01*
G01*
X0014311Y0186870D01*
G75*
G02*
X0013721Y0187460I0000000J0000591D01*
G01*
X0013721Y0193956D01*
G75*
G02*
X0014311Y0194547I0000591J0000000D01*
G01*
G37*
G36*
G01*
X0009311Y0194547D02*
X0010493Y0194547D01*
G75*
G02*
X0011083Y0193956I0000000J-000591D01*
G01*
X0011083Y0187460D01*
G75*
G02*
X0010493Y0186870I-000591J0000000D01*
G01*
X0009311Y0186870D01*
G75*
G02*
X0008721Y0187460I0000000J0000591D01*
G01*
X0008721Y0193956D01*
G75*
G02*
X0009311Y0194547I0000591J0000000D01*
G01*
G37*
G36*
G01*
X0004311Y0194547D02*
X0005493Y0194547D01*
G75*
G02*
X0006083Y0193956I0000000J-000591D01*
G01*
X0006083Y0187460D01*
G75*
G02*
X0005493Y0186870I-000591J0000000D01*
G01*
X0004311Y0186870D01*
G75*
G02*
X0003721Y0187460I0000000J0000591D01*
G01*
X0003721Y0193956D01*
G75*
G02*
X0004311Y0194547I0000591J0000000D01*
G01*
G37*
G36*
G01*
X0235985Y0284645D02*
X0233307Y0284645D01*
G75*
G02*
X0232973Y0284980I0000000J0000335D01*
G01*
X0232973Y0287657D01*
G75*
G02*
X0233307Y0287992I0000335J0000000D01*
G01*
X0235985Y0287992D01*
G75*
G02*
X0236319Y0287657I0000000J-000335D01*
G01*
X0236319Y0284980D01*
G75*
G02*
X0235985Y0284645I-000335J0000000D01*
G01*
G37*
G36*
G01*
X0235985Y0290866D02*
X0233307Y0290866D01*
G75*
G02*
X0232973Y0291200I0000000J0000335D01*
G01*
X0232973Y0293878D01*
G75*
G02*
X0233307Y0294212I0000335J0000000D01*
G01*
X0235985Y0294212D01*
G75*
G02*
X0236319Y0293878I0000000J-000335D01*
G01*
X0236319Y0291200D01*
G75*
G02*
X0235985Y0290866I-000335J0000000D01*
G01*
G37*
G36*
G01*
X0117495Y0140511D02*
X0119513Y0140511D01*
G75*
G02*
X0120374Y0139650I0000000J-000861D01*
G01*
X0120374Y0137928D01*
G75*
G02*
X0119513Y0137067I-000861J0000000D01*
G01*
X0117495Y0137067D01*
G75*
G02*
X0116634Y0137928I0000000J0000861D01*
G01*
X0116634Y0139650D01*
G75*
G02*
X0117495Y0140511I0000861J0000000D01*
G01*
G37*
G36*
G01*
X0117495Y0134311D02*
X0119513Y0134311D01*
G75*
G02*
X0120374Y0133449I0000000J-000861D01*
G01*
X0120374Y0131727D01*
G75*
G02*
X0119513Y0130866I-000861J0000000D01*
G01*
X0117495Y0130866D01*
G75*
G02*
X0116634Y0131727I0000000J0000861D01*
G01*
X0116634Y0133449D01*
G75*
G02*
X0117495Y0134311I0000861J0000000D01*
G01*
G37*
G36*
G01*
X0039666Y0043366D02*
X0043800Y0043366D01*
G75*
G02*
X0044193Y0042972I0000000J-000394D01*
G01*
X0044193Y0039823D01*
G75*
G02*
X0043800Y0039429I-000394J0000000D01*
G01*
X0039666Y0039429D01*
G75*
G02*
X0039272Y0039823I0000000J0000394D01*
G01*
X0039272Y0042972D01*
G75*
G02*
X0039666Y0043366I0000394J0000000D01*
G01*
G37*
G36*
G01*
X0039666Y0035492D02*
X0043800Y0035492D01*
G75*
G02*
X0044193Y0035098I0000000J-000394D01*
G01*
X0044193Y0031949D01*
G75*
G02*
X0043800Y0031555I-000394J0000000D01*
G01*
X0039666Y0031555D01*
G75*
G02*
X0039272Y0031949I0000000J0000394D01*
G01*
X0039272Y0035098D01*
G75*
G02*
X0039666Y0035492I0000394J0000000D01*
G01*
G37*
G36*
G01*
X0043800Y0015807D02*
X0039666Y0015807D01*
G75*
G02*
X0039272Y0016200I0000000J0000394D01*
G01*
X0039272Y0019350D01*
G75*
G02*
X0039666Y0019744I0000394J0000000D01*
G01*
X0043800Y0019744D01*
G75*
G02*
X0044193Y0019350I0000000J-000394D01*
G01*
X0044193Y0016200D01*
G75*
G02*
X0043800Y0015807I-000394J0000000D01*
G01*
G37*
G36*
G01*
X0043800Y0023681D02*
X0039666Y0023681D01*
G75*
G02*
X0039272Y0024074I0000000J0000394D01*
G01*
X0039272Y0027224D01*
G75*
G02*
X0039666Y0027618I0000394J0000000D01*
G01*
X0043800Y0027618D01*
G75*
G02*
X0044193Y0027224I0000000J-000394D01*
G01*
X0044193Y0024074D01*
G75*
G02*
X0043800Y0023681I-000394J0000000D01*
G01*
G37*
G36*
G01*
X0117299Y0250551D02*
X0119316Y0250551D01*
G75*
G02*
X0120178Y0249690I0000000J-000861D01*
G01*
X0120178Y0247967D01*
G75*
G02*
X0119316Y0247106I-000861J0000000D01*
G01*
X0117299Y0247106D01*
G75*
G02*
X0116437Y0247967I0000000J0000861D01*
G01*
X0116437Y0249690D01*
G75*
G02*
X0117299Y0250551I0000861J0000000D01*
G01*
G37*
G36*
G01*
X0117299Y0244350D02*
X0119316Y0244350D01*
G75*
G02*
X0120178Y0243489I0000000J-000861D01*
G01*
X0120178Y0241766D01*
G75*
G02*
X0119316Y0240905I-000861J0000000D01*
G01*
X0117299Y0240905D01*
G75*
G02*
X0116437Y0241766I0000000J0000861D01*
G01*
X0116437Y0243489D01*
G75*
G02*
X0117299Y0244350I0000861J0000000D01*
G01*
G37*
G36*
G01*
X0108170Y0141102D02*
X0108170Y0129882D01*
G75*
G02*
X0107185Y0128897I-000984J0000000D01*
G01*
X0104331Y0128897D01*
G75*
G02*
X0103347Y0129882I0000000J0000984D01*
G01*
X0103347Y0141102D01*
G75*
G02*
X0104331Y0142086I0000984J0000000D01*
G01*
X0107185Y0142086D01*
G75*
G02*
X0108170Y0141102I0000000J-000984D01*
G01*
G37*
G36*
G01*
X0084843Y0141102D02*
X0084843Y0129882D01*
G75*
G02*
X0083859Y0128897I-000984J0000000D01*
G01*
X0081004Y0128897D01*
G75*
G02*
X0080020Y0129882I0000000J0000984D01*
G01*
X0080020Y0141102D01*
G75*
G02*
X0081004Y0142086I0000984J0000000D01*
G01*
X0083859Y0142086D01*
G75*
G02*
X0084843Y0141102I0000000J-000984D01*
G01*
G37*
G36*
G01*
X0108170Y0223779D02*
X0108170Y0212559D01*
G75*
G02*
X0107185Y0211574I-000984J0000000D01*
G01*
X0104331Y0211574D01*
G75*
G02*
X0103347Y0212559I0000000J0000984D01*
G01*
X0103347Y0223779D01*
G75*
G02*
X0104331Y0224763I0000984J0000000D01*
G01*
X0107185Y0224763D01*
G75*
G02*
X0108170Y0223779I0000000J-000984D01*
G01*
G37*
G36*
G01*
X0084843Y0223779D02*
X0084843Y0212559D01*
G75*
G02*
X0083859Y0211574I-000984J0000000D01*
G01*
X0081004Y0211574D01*
G75*
G02*
X0080020Y0212559I0000000J0000984D01*
G01*
X0080020Y0223779D01*
G75*
G02*
X0081004Y0224763I0000984J0000000D01*
G01*
X0083859Y0224763D01*
G75*
G02*
X0084843Y0223779I0000000J-000984D01*
G01*
G37*
G36*
G01*
X0037796Y0080610D02*
X0041930Y0080610D01*
G75*
G02*
X0042323Y0080216I0000000J-000394D01*
G01*
X0042323Y0077067D01*
G75*
G02*
X0041930Y0076673I-000394J0000000D01*
G01*
X0037796Y0076673D01*
G75*
G02*
X0037402Y0077067I0000000J0000394D01*
G01*
X0037402Y0080216D01*
G75*
G02*
X0037796Y0080610I0000394J0000000D01*
G01*
G37*
G36*
G01*
X0037796Y0072736D02*
X0041930Y0072736D01*
G75*
G02*
X0042323Y0072342I0000000J-000394D01*
G01*
X0042323Y0069193D01*
G75*
G02*
X0041930Y0068799I-000394J0000000D01*
G01*
X0037796Y0068799D01*
G75*
G02*
X0037402Y0069193I0000000J0000394D01*
G01*
X0037402Y0072342D01*
G75*
G02*
X0037796Y0072736I0000394J0000000D01*
G01*
G37*
G36*
G01*
X0326354Y0132637D02*
X0328371Y0132637D01*
G75*
G02*
X0329233Y0131776I0000000J-000861D01*
G01*
X0329233Y0130054D01*
G75*
G02*
X0328371Y0129193I-000861J0000000D01*
G01*
X0326354Y0129193D01*
G75*
G02*
X0325493Y0130054I0000000J0000861D01*
G01*
X0325493Y0131776D01*
G75*
G02*
X0326354Y0132637I0000861J0000000D01*
G01*
G37*
G36*
G01*
X0326354Y0126437D02*
X0328371Y0126437D01*
G75*
G02*
X0329233Y0125575I0000000J-000861D01*
G01*
X0329233Y0123853D01*
G75*
G02*
X0328371Y0122992I-000861J0000000D01*
G01*
X0326354Y0122992D01*
G75*
G02*
X0325493Y0123853I0000000J0000861D01*
G01*
X0325493Y0125575D01*
G75*
G02*
X0326354Y0126437I0000861J0000000D01*
G01*
G37*
G36*
G01*
X0076811Y0269350D02*
X0072796Y0269350D01*
G75*
G02*
X0072441Y0269704I0000000J0000354D01*
G01*
X0072441Y0272539D01*
G75*
G02*
X0072796Y0272893I0000354J0000000D01*
G01*
X0076811Y0272893D01*
G75*
G02*
X0077166Y0272539I0000000J-000354D01*
G01*
X0077166Y0269704D01*
G75*
G02*
X0076811Y0269350I-000354J0000000D01*
G01*
G37*
G36*
G01*
X0076811Y0282342D02*
X0072796Y0282342D01*
G75*
G02*
X0072441Y0282697I0000000J0000354D01*
G01*
X0072441Y0285531D01*
G75*
G02*
X0072796Y0285886I0000354J0000000D01*
G01*
X0076811Y0285886D01*
G75*
G02*
X0077166Y0285531I0000000J-000354D01*
G01*
X0077166Y0282697D01*
G75*
G02*
X0076811Y0282342I-000354J0000000D01*
G01*
G37*
G36*
G01*
X0343071Y0061870D02*
X0341181Y0061870D01*
G75*
G02*
X0340945Y0062106I0000000J0000236D01*
G01*
X0340945Y0063996D01*
G75*
G02*
X0341181Y0064232I0000236J0000000D01*
G01*
X0343071Y0064232D01*
G75*
G02*
X0343307Y0063996I0000000J-000236D01*
G01*
X0343307Y0062106D01*
G75*
G02*
X0343071Y0061870I-000236J0000000D01*
G01*
G37*
G36*
G01*
X0351733Y0061870D02*
X0349843Y0061870D01*
G75*
G02*
X0349607Y0062106I0000000J0000236D01*
G01*
X0349607Y0063996D01*
G75*
G02*
X0349843Y0064232I0000236J0000000D01*
G01*
X0351733Y0064232D01*
G75*
G02*
X0351969Y0063996I0000000J-000236D01*
G01*
X0351969Y0062106D01*
G75*
G02*
X0351733Y0061870I-000236J0000000D01*
G01*
G37*
G36*
G01*
X0113790Y0186082D02*
X0110719Y0186082D01*
G75*
G02*
X0110443Y0186358I0000000J0000276D01*
G01*
X0110443Y0188563D01*
G75*
G02*
X0110719Y0188838I0000276J0000000D01*
G01*
X0113790Y0188838D01*
G75*
G02*
X0114065Y0188563I0000000J-000276D01*
G01*
X0114065Y0186358D01*
G75*
G02*
X0113790Y0186082I-000276J0000000D01*
G01*
G37*
G36*
G01*
X0113790Y0192382D02*
X0110719Y0192382D01*
G75*
G02*
X0110443Y0192657I0000000J0000276D01*
G01*
X0110443Y0194862D01*
G75*
G02*
X0110719Y0195137I0000276J0000000D01*
G01*
X0113790Y0195137D01*
G75*
G02*
X0114065Y0194862I0000000J-000276D01*
G01*
X0114065Y0192657D01*
G75*
G02*
X0113790Y0192382I-000276J0000000D01*
G01*
G37*
G36*
G01*
X0124449Y0114823D02*
X0127520Y0114823D01*
G75*
G02*
X0127796Y0114547I0000000J-000276D01*
G01*
X0127796Y0112342D01*
G75*
G02*
X0127520Y0112067I-000276J0000000D01*
G01*
X0124449Y0112067D01*
G75*
G02*
X0124174Y0112342I0000000J0000276D01*
G01*
X0124174Y0114547D01*
G75*
G02*
X0124449Y0114823I0000276J0000000D01*
G01*
G37*
G36*
G01*
X0124449Y0108523D02*
X0127520Y0108523D01*
G75*
G02*
X0127796Y0108248I0000000J-000276D01*
G01*
X0127796Y0106043D01*
G75*
G02*
X0127520Y0105767I-000276J0000000D01*
G01*
X0124449Y0105767D01*
G75*
G02*
X0124174Y0106043I0000000J0000276D01*
G01*
X0124174Y0108248D01*
G75*
G02*
X0124449Y0108523I0000276J0000000D01*
G01*
G37*
G36*
G01*
X0059548Y0015807D02*
X0055414Y0015807D01*
G75*
G02*
X0055020Y0016200I0000000J0000394D01*
G01*
X0055020Y0019350D01*
G75*
G02*
X0055414Y0019744I0000394J0000000D01*
G01*
X0059548Y0019744D01*
G75*
G02*
X0059941Y0019350I0000000J-000394D01*
G01*
X0059941Y0016200D01*
G75*
G02*
X0059548Y0015807I-000394J0000000D01*
G01*
G37*
G36*
G01*
X0059548Y0023681D02*
X0055414Y0023681D01*
G75*
G02*
X0055020Y0024074I0000000J0000394D01*
G01*
X0055020Y0027224D01*
G75*
G02*
X0055414Y0027618I0000394J0000000D01*
G01*
X0059548Y0027618D01*
G75*
G02*
X0059941Y0027224I0000000J-000394D01*
G01*
X0059941Y0024074D01*
G75*
G02*
X0059548Y0023681I-000394J0000000D01*
G01*
G37*
G36*
G01*
X0117495Y0168071D02*
X0119513Y0168071D01*
G75*
G02*
X0120374Y0167209I0000000J-000861D01*
G01*
X0120374Y0165487D01*
G75*
G02*
X0119513Y0164626I-000861J0000000D01*
G01*
X0117495Y0164626D01*
G75*
G02*
X0116634Y0165487I0000000J0000861D01*
G01*
X0116634Y0167209D01*
G75*
G02*
X0117495Y0168071I0000861J0000000D01*
G01*
G37*
G36*
G01*
X0117495Y0161870D02*
X0119513Y0161870D01*
G75*
G02*
X0120374Y0161009I0000000J-000861D01*
G01*
X0120374Y0159286D01*
G75*
G02*
X0119513Y0158425I-000861J0000000D01*
G01*
X0117495Y0158425D01*
G75*
G02*
X0116634Y0159286I0000000J0000861D01*
G01*
X0116634Y0161009D01*
G75*
G02*
X0117495Y0161870I0000861J0000000D01*
G01*
G37*
G36*
G01*
X0113790Y0158523D02*
X0110719Y0158523D01*
G75*
G02*
X0110443Y0158799I0000000J0000276D01*
G01*
X0110443Y0161004D01*
G75*
G02*
X0110719Y0161279I0000276J0000000D01*
G01*
X0113790Y0161279D01*
G75*
G02*
X0114065Y0161004I0000000J-000276D01*
G01*
X0114065Y0158799D01*
G75*
G02*
X0113790Y0158523I-000276J0000000D01*
G01*
G37*
G36*
G01*
X0113790Y0164823D02*
X0110719Y0164823D01*
G75*
G02*
X0110443Y0165098I0000000J0000276D01*
G01*
X0110443Y0167303D01*
G75*
G02*
X0110719Y0167578I0000276J0000000D01*
G01*
X0113790Y0167578D01*
G75*
G02*
X0114065Y0167303I0000000J-000276D01*
G01*
X0114065Y0165098D01*
G75*
G02*
X0113790Y0164823I-000276J0000000D01*
G01*
G37*
G36*
G01*
X0194449Y0012769D02*
X0191378Y0012769D01*
G75*
G02*
X0191103Y0013044I0000000J0000276D01*
G01*
X0191103Y0015249D01*
G75*
G02*
X0191378Y0015525I0000276J0000000D01*
G01*
X0194449Y0015525D01*
G75*
G02*
X0194725Y0015249I0000000J-000276D01*
G01*
X0194725Y0013044D01*
G75*
G02*
X0194449Y0012769I-000276J0000000D01*
G01*
G37*
G36*
G01*
X0194449Y0019068D02*
X0191378Y0019068D01*
G75*
G02*
X0191103Y0019343I0000000J0000276D01*
G01*
X0191103Y0021548D01*
G75*
G02*
X0191378Y0021824I0000276J0000000D01*
G01*
X0194449Y0021824D01*
G75*
G02*
X0194725Y0021548I0000000J-000276D01*
G01*
X0194725Y0019343D01*
G75*
G02*
X0194449Y0019068I-000276J0000000D01*
G01*
G37*
G36*
G01*
X0113790Y0130964D02*
X0110719Y0130964D01*
G75*
G02*
X0110443Y0131240I0000000J0000276D01*
G01*
X0110443Y0133445D01*
G75*
G02*
X0110719Y0133720I0000276J0000000D01*
G01*
X0113790Y0133720D01*
G75*
G02*
X0114065Y0133445I0000000J-000276D01*
G01*
X0114065Y0131240D01*
G75*
G02*
X0113790Y0130964I-000276J0000000D01*
G01*
G37*
G36*
G01*
X0113790Y0137263D02*
X0110719Y0137263D01*
G75*
G02*
X0110443Y0137539I0000000J0000276D01*
G01*
X0110443Y0139744D01*
G75*
G02*
X0110719Y0140019I0000276J0000000D01*
G01*
X0113790Y0140019D01*
G75*
G02*
X0114065Y0139744I0000000J-000276D01*
G01*
X0114065Y0137539D01*
G75*
G02*
X0113790Y0137263I-000276J0000000D01*
G01*
G37*
G36*
G01*
X0117692Y0195433D02*
X0119710Y0195433D01*
G75*
G02*
X0120571Y0194572I0000000J-000861D01*
G01*
X0120571Y0192849D01*
G75*
G02*
X0119710Y0191988I-000861J0000000D01*
G01*
X0117692Y0191988D01*
G75*
G02*
X0116831Y0192849I0000000J0000861D01*
G01*
X0116831Y0194572D01*
G75*
G02*
X0117692Y0195433I0000861J0000000D01*
G01*
G37*
G36*
G01*
X0117692Y0189232D02*
X0119710Y0189232D01*
G75*
G02*
X0120571Y0188371I0000000J-000861D01*
G01*
X0120571Y0186648D01*
G75*
G02*
X0119710Y0185787I-000861J0000000D01*
G01*
X0117692Y0185787D01*
G75*
G02*
X0116831Y0186648I0000000J0000861D01*
G01*
X0116831Y0188371D01*
G75*
G02*
X0117692Y0189232I0000861J0000000D01*
G01*
G37*
G36*
G01*
X0243071Y0284645D02*
X0240394Y0284645D01*
G75*
G02*
X0240059Y0284980I0000000J0000335D01*
G01*
X0240059Y0287657D01*
G75*
G02*
X0240394Y0287992I0000335J0000000D01*
G01*
X0243071Y0287992D01*
G75*
G02*
X0243406Y0287657I0000000J-000335D01*
G01*
X0243406Y0284980D01*
G75*
G02*
X0243071Y0284645I-000335J0000000D01*
G01*
G37*
G36*
G01*
X0243071Y0290866D02*
X0240394Y0290866D01*
G75*
G02*
X0240059Y0291200I0000000J0000335D01*
G01*
X0240059Y0293878D01*
G75*
G02*
X0240394Y0294212I0000335J0000000D01*
G01*
X0243071Y0294212D01*
G75*
G02*
X0243406Y0293878I0000000J-000335D01*
G01*
X0243406Y0291200D01*
G75*
G02*
X0243071Y0290866I-000335J0000000D01*
G01*
G37*
G36*
G01*
X0021418Y0349271D02*
X0018347Y0349271D01*
G75*
G02*
X0018071Y0349547I0000000J0000276D01*
G01*
X0018071Y0351752D01*
G75*
G02*
X0018347Y0352027I0000276J0000000D01*
G01*
X0021418Y0352027D01*
G75*
G02*
X0021693Y0351752I0000000J-000276D01*
G01*
X0021693Y0349547D01*
G75*
G02*
X0021418Y0349271I-000276J0000000D01*
G01*
G37*
G36*
G01*
X0021418Y0355571D02*
X0018347Y0355571D01*
G75*
G02*
X0018071Y0355846I0000000J0000276D01*
G01*
X0018071Y0358051D01*
G75*
G02*
X0018347Y0358326I0000276J0000000D01*
G01*
X0021418Y0358326D01*
G75*
G02*
X0021693Y0358051I0000000J-000276D01*
G01*
X0021693Y0355846D01*
G75*
G02*
X0021418Y0355571I-000276J0000000D01*
G01*
G37*
G36*
G01*
X0004311Y0282145D02*
X0005493Y0282145D01*
G75*
G02*
X0006083Y0281555I0000000J-000591D01*
G01*
X0006083Y0275059D01*
G75*
G02*
X0005493Y0274468I-000591J0000000D01*
G01*
X0004311Y0274468D01*
G75*
G02*
X0003721Y0275059I0000000J0000591D01*
G01*
X0003721Y0281555D01*
G75*
G02*
X0004311Y0282145I0000591J0000000D01*
G01*
G37*
G36*
G01*
X0009311Y0282145D02*
X0010493Y0282145D01*
G75*
G02*
X0011083Y0281555I0000000J-000591D01*
G01*
X0011083Y0275059D01*
G75*
G02*
X0010493Y0274468I-000591J0000000D01*
G01*
X0009311Y0274468D01*
G75*
G02*
X0008721Y0275059I0000000J0000591D01*
G01*
X0008721Y0281555D01*
G75*
G02*
X0009311Y0282145I0000591J0000000D01*
G01*
G37*
G36*
G01*
X0014311Y0282145D02*
X0015493Y0282145D01*
G75*
G02*
X0016083Y0281555I0000000J-000591D01*
G01*
X0016083Y0275059D01*
G75*
G02*
X0015493Y0274468I-000591J0000000D01*
G01*
X0014311Y0274468D01*
G75*
G02*
X0013721Y0275059I0000000J0000591D01*
G01*
X0013721Y0281555D01*
G75*
G02*
X0014311Y0282145I0000591J0000000D01*
G01*
G37*
G36*
G01*
X0019311Y0282145D02*
X0020493Y0282145D01*
G75*
G02*
X0021083Y0281555I0000000J-000591D01*
G01*
X0021083Y0275059D01*
G75*
G02*
X0020493Y0274468I-000591J0000000D01*
G01*
X0019311Y0274468D01*
G75*
G02*
X0018721Y0275059I0000000J0000591D01*
G01*
X0018721Y0281555D01*
G75*
G02*
X0019311Y0282145I0000591J0000000D01*
G01*
G37*
G36*
G01*
X0019311Y0262657D02*
X0020493Y0262657D01*
G75*
G02*
X0021083Y0262067I0000000J-000591D01*
G01*
X0021083Y0255571D01*
G75*
G02*
X0020493Y0254980I-000591J0000000D01*
G01*
X0019311Y0254980D01*
G75*
G02*
X0018721Y0255571I0000000J0000591D01*
G01*
X0018721Y0262067D01*
G75*
G02*
X0019311Y0262657I0000591J0000000D01*
G01*
G37*
G36*
G01*
X0014311Y0262657D02*
X0015493Y0262657D01*
G75*
G02*
X0016083Y0262067I0000000J-000591D01*
G01*
X0016083Y0255571D01*
G75*
G02*
X0015493Y0254980I-000591J0000000D01*
G01*
X0014311Y0254980D01*
G75*
G02*
X0013721Y0255571I0000000J0000591D01*
G01*
X0013721Y0262067D01*
G75*
G02*
X0014311Y0262657I0000591J0000000D01*
G01*
G37*
G36*
G01*
X0009311Y0262657D02*
X0010493Y0262657D01*
G75*
G02*
X0011083Y0262067I0000000J-000591D01*
G01*
X0011083Y0255571D01*
G75*
G02*
X0010493Y0254980I-000591J0000000D01*
G01*
X0009311Y0254980D01*
G75*
G02*
X0008721Y0255571I0000000J0000591D01*
G01*
X0008721Y0262067D01*
G75*
G02*
X0009311Y0262657I0000591J0000000D01*
G01*
G37*
G36*
G01*
X0004311Y0262657D02*
X0005493Y0262657D01*
G75*
G02*
X0006083Y0262067I0000000J-000591D01*
G01*
X0006083Y0255571D01*
G75*
G02*
X0005493Y0254980I-000591J0000000D01*
G01*
X0004311Y0254980D01*
G75*
G02*
X0003721Y0255571I0000000J0000591D01*
G01*
X0003721Y0262067D01*
G75*
G02*
X0004311Y0262657I0000591J0000000D01*
G01*
G37*
G36*
G01*
X0144056Y0098484D02*
X0140985Y0098484D01*
G75*
G02*
X0140709Y0098760I0000000J0000276D01*
G01*
X0140709Y0100964D01*
G75*
G02*
X0140985Y0101240I0000276J0000000D01*
G01*
X0144056Y0101240D01*
G75*
G02*
X0144331Y0100964I0000000J-000276D01*
G01*
X0144331Y0098760D01*
G75*
G02*
X0144056Y0098484I-000276J0000000D01*
G01*
G37*
G36*
G01*
X0144056Y0104783D02*
X0140985Y0104783D01*
G75*
G02*
X0140709Y0105059I0000000J0000276D01*
G01*
X0140709Y0107263D01*
G75*
G02*
X0140985Y0107539I0000276J0000000D01*
G01*
X0144056Y0107539D01*
G75*
G02*
X0144331Y0107263I0000000J-000276D01*
G01*
X0144331Y0105059D01*
G75*
G02*
X0144056Y0104783I-000276J0000000D01*
G01*
G37*
G36*
G01*
X0108170Y0196220D02*
X0108170Y0185000D01*
G75*
G02*
X0107185Y0184015I-000984J0000000D01*
G01*
X0104331Y0184015D01*
G75*
G02*
X0103347Y0185000I0000000J0000984D01*
G01*
X0103347Y0196220D01*
G75*
G02*
X0104331Y0197204I0000984J0000000D01*
G01*
X0107185Y0197204D01*
G75*
G02*
X0108170Y0196220I0000000J-000984D01*
G01*
G37*
G36*
G01*
X0084843Y0196220D02*
X0084843Y0185000D01*
G75*
G02*
X0083859Y0184015I-000984J0000000D01*
G01*
X0081004Y0184015D01*
G75*
G02*
X0080020Y0185000I0000000J0000984D01*
G01*
X0080020Y0196220D01*
G75*
G02*
X0081004Y0197204I0000984J0000000D01*
G01*
X0083859Y0197204D01*
G75*
G02*
X0084843Y0196220I0000000J-000984D01*
G01*
G37*
G36*
G01*
X0113790Y0103405D02*
X0110719Y0103405D01*
G75*
G02*
X0110443Y0103681I0000000J0000276D01*
G01*
X0110443Y0105886D01*
G75*
G02*
X0110719Y0106161I0000276J0000000D01*
G01*
X0113790Y0106161D01*
G75*
G02*
X0114065Y0105886I0000000J-000276D01*
G01*
X0114065Y0103681D01*
G75*
G02*
X0113790Y0103405I-000276J0000000D01*
G01*
G37*
G36*
G01*
X0113790Y0109704D02*
X0110719Y0109704D01*
G75*
G02*
X0110443Y0109980I0000000J0000276D01*
G01*
X0110443Y0112185D01*
G75*
G02*
X0110719Y0112460I0000276J0000000D01*
G01*
X0113790Y0112460D01*
G75*
G02*
X0114065Y0112185I0000000J-000276D01*
G01*
X0114065Y0109980D01*
G75*
G02*
X0113790Y0109704I-000276J0000000D01*
G01*
G37*
G36*
G01*
X0213558Y0339527D02*
X0215576Y0339527D01*
G75*
G02*
X0216437Y0338666I0000000J-000861D01*
G01*
X0216437Y0336944D01*
G75*
G02*
X0215576Y0336082I-000861J0000000D01*
G01*
X0213558Y0336082D01*
G75*
G02*
X0212697Y0336944I0000000J0000861D01*
G01*
X0212697Y0338666D01*
G75*
G02*
X0213558Y0339527I0000861J0000000D01*
G01*
G37*
G36*
G01*
X0213558Y0333326D02*
X0215576Y0333326D01*
G75*
G02*
X0216437Y0332465I0000000J-000861D01*
G01*
X0216437Y0330743D01*
G75*
G02*
X0215576Y0329882I-000861J0000000D01*
G01*
X0213558Y0329882D01*
G75*
G02*
X0212697Y0330743I0000000J0000861D01*
G01*
X0212697Y0332465D01*
G75*
G02*
X0213558Y0333326I0000861J0000000D01*
G01*
G37*
G36*
G01*
X0055414Y0043366D02*
X0059548Y0043366D01*
G75*
G02*
X0059941Y0042972I0000000J-000394D01*
G01*
X0059941Y0039823D01*
G75*
G02*
X0059548Y0039429I-000394J0000000D01*
G01*
X0055414Y0039429D01*
G75*
G02*
X0055020Y0039823I0000000J0000394D01*
G01*
X0055020Y0042972D01*
G75*
G02*
X0055414Y0043366I0000394J0000000D01*
G01*
G37*
G36*
G01*
X0055414Y0035492D02*
X0059548Y0035492D01*
G75*
G02*
X0059941Y0035098I0000000J-000394D01*
G01*
X0059941Y0031949D01*
G75*
G02*
X0059548Y0031555I-000394J0000000D01*
G01*
X0055414Y0031555D01*
G75*
G02*
X0055020Y0031949I0000000J0000394D01*
G01*
X0055020Y0035098D01*
G75*
G02*
X0055414Y0035492I0000394J0000000D01*
G01*
G37*
G36*
G01*
X0113790Y0241200D02*
X0110719Y0241200D01*
G75*
G02*
X0110443Y0241476I0000000J0000276D01*
G01*
X0110443Y0243681D01*
G75*
G02*
X0110719Y0243956I0000276J0000000D01*
G01*
X0113790Y0243956D01*
G75*
G02*
X0114065Y0243681I0000000J-000276D01*
G01*
X0114065Y0241476D01*
G75*
G02*
X0113790Y0241200I-000276J0000000D01*
G01*
G37*
G36*
G01*
X0113790Y0247500D02*
X0110719Y0247500D01*
G75*
G02*
X0110443Y0247775I0000000J0000276D01*
G01*
X0110443Y0249980D01*
G75*
G02*
X0110719Y0250256I0000276J0000000D01*
G01*
X0113790Y0250256D01*
G75*
G02*
X0114065Y0249980I0000000J-000276D01*
G01*
X0114065Y0247775D01*
G75*
G02*
X0113790Y0247500I-000276J0000000D01*
G01*
G37*
G36*
G01*
X0067422Y0015807D02*
X0063288Y0015807D01*
G75*
G02*
X0062894Y0016200I0000000J0000394D01*
G01*
X0062894Y0019350D01*
G75*
G02*
X0063288Y0019744I0000394J0000000D01*
G01*
X0067422Y0019744D01*
G75*
G02*
X0067815Y0019350I0000000J-000394D01*
G01*
X0067815Y0016200D01*
G75*
G02*
X0067422Y0015807I-000394J0000000D01*
G01*
G37*
G36*
G01*
X0067422Y0023681D02*
X0063288Y0023681D01*
G75*
G02*
X0062894Y0024074I0000000J0000394D01*
G01*
X0062894Y0027224D01*
G75*
G02*
X0063288Y0027618I0000394J0000000D01*
G01*
X0067422Y0027618D01*
G75*
G02*
X0067815Y0027224I0000000J-000394D01*
G01*
X0067815Y0024074D01*
G75*
G02*
X0067422Y0023681I-000394J0000000D01*
G01*
G37*
G36*
G01*
X0204292Y0012769D02*
X0201221Y0012769D01*
G75*
G02*
X0200945Y0013044I0000000J0000276D01*
G01*
X0200945Y0015249D01*
G75*
G02*
X0201221Y0015525I0000276J0000000D01*
G01*
X0204292Y0015525D01*
G75*
G02*
X0204567Y0015249I0000000J-000276D01*
G01*
X0204567Y0013044D01*
G75*
G02*
X0204292Y0012769I-000276J0000000D01*
G01*
G37*
G36*
G01*
X0204292Y0019068D02*
X0201221Y0019068D01*
G75*
G02*
X0200945Y0019343I0000000J0000276D01*
G01*
X0200945Y0021548D01*
G75*
G02*
X0201221Y0021824I0000276J0000000D01*
G01*
X0204292Y0021824D01*
G75*
G02*
X0204567Y0021548I0000000J-000276D01*
G01*
X0204567Y0019343D01*
G75*
G02*
X0204292Y0019068I-000276J0000000D01*
G01*
G37*
G36*
G01*
X0064528Y0066397D02*
X0061457Y0066397D01*
G75*
G02*
X0061181Y0066673I0000000J0000276D01*
G01*
X0061181Y0068878D01*
G75*
G02*
X0061457Y0069153I0000276J0000000D01*
G01*
X0064528Y0069153D01*
G75*
G02*
X0064804Y0068878I0000000J-000276D01*
G01*
X0064804Y0066673D01*
G75*
G02*
X0064528Y0066397I-000276J0000000D01*
G01*
G37*
G36*
G01*
X0064528Y0072697D02*
X0061457Y0072697D01*
G75*
G02*
X0061181Y0072972I0000000J0000276D01*
G01*
X0061181Y0075177D01*
G75*
G02*
X0061457Y0075452I0000276J0000000D01*
G01*
X0064528Y0075452D01*
G75*
G02*
X0064804Y0075177I0000000J-000276D01*
G01*
X0064804Y0072972D01*
G75*
G02*
X0064528Y0072697I-000276J0000000D01*
G01*
G37*
G36*
G01*
X0011378Y0349271D02*
X0008307Y0349271D01*
G75*
G02*
X0008032Y0349547I0000000J0000276D01*
G01*
X0008032Y0351752D01*
G75*
G02*
X0008307Y0352027I0000276J0000000D01*
G01*
X0011378Y0352027D01*
G75*
G02*
X0011654Y0351752I0000000J-000276D01*
G01*
X0011654Y0349547D01*
G75*
G02*
X0011378Y0349271I-000276J0000000D01*
G01*
G37*
G36*
G01*
X0011378Y0355571D02*
X0008307Y0355571D01*
G75*
G02*
X0008032Y0355846I0000000J0000276D01*
G01*
X0008032Y0358051D01*
G75*
G02*
X0008307Y0358326I0000276J0000000D01*
G01*
X0011378Y0358326D01*
G75*
G02*
X0011654Y0358051I0000000J-000276D01*
G01*
X0011654Y0355846D01*
G75*
G02*
X0011378Y0355571I-000276J0000000D01*
G01*
G37*
G36*
G01*
X0120827Y0284114D02*
X0117756Y0284114D01*
G75*
G02*
X0117481Y0284389I0000000J0000276D01*
G01*
X0117481Y0286594D01*
G75*
G02*
X0117756Y0286870I0000276J0000000D01*
G01*
X0120827Y0286870D01*
G75*
G02*
X0121103Y0286594I0000000J-000276D01*
G01*
X0121103Y0284389D01*
G75*
G02*
X0120827Y0284114I-000276J0000000D01*
G01*
G37*
G36*
G01*
X0120827Y0290413D02*
X0117756Y0290413D01*
G75*
G02*
X0117481Y0290689I0000000J0000276D01*
G01*
X0117481Y0292893D01*
G75*
G02*
X0117756Y0293169I0000276J0000000D01*
G01*
X0120827Y0293169D01*
G75*
G02*
X0121103Y0292893I0000000J-000276D01*
G01*
X0121103Y0290689D01*
G75*
G02*
X0120827Y0290413I-000276J0000000D01*
G01*
G37*
G36*
G01*
X0045670Y0080610D02*
X0049804Y0080610D01*
G75*
G02*
X0050197Y0080216I0000000J-000394D01*
G01*
X0050197Y0077067D01*
G75*
G02*
X0049804Y0076673I-000394J0000000D01*
G01*
X0045670Y0076673D01*
G75*
G02*
X0045276Y0077067I0000000J0000394D01*
G01*
X0045276Y0080216D01*
G75*
G02*
X0045670Y0080610I0000394J0000000D01*
G01*
G37*
G36*
G01*
X0045670Y0072736D02*
X0049804Y0072736D01*
G75*
G02*
X0050197Y0072342I0000000J-000394D01*
G01*
X0050197Y0069193D01*
G75*
G02*
X0049804Y0068799I-000394J0000000D01*
G01*
X0045670Y0068799D01*
G75*
G02*
X0045276Y0069193I0000000J0000394D01*
G01*
X0045276Y0072342D01*
G75*
G02*
X0045670Y0072736I0000394J0000000D01*
G01*
G37*
G36*
G01*
X0117299Y0222992D02*
X0119316Y0222992D01*
G75*
G02*
X0120178Y0222131I0000000J-000861D01*
G01*
X0120178Y0220408D01*
G75*
G02*
X0119316Y0219547I-000861J0000000D01*
G01*
X0117299Y0219547D01*
G75*
G02*
X0116437Y0220408I0000000J0000861D01*
G01*
X0116437Y0222131D01*
G75*
G02*
X0117299Y0222992I0000861J0000000D01*
G01*
G37*
G36*
G01*
X0117299Y0216791D02*
X0119316Y0216791D01*
G75*
G02*
X0120178Y0215930I0000000J-000861D01*
G01*
X0120178Y0214207D01*
G75*
G02*
X0119316Y0213346I-000861J0000000D01*
G01*
X0117299Y0213346D01*
G75*
G02*
X0116437Y0214207I0000000J0000861D01*
G01*
X0116437Y0215930D01*
G75*
G02*
X0117299Y0216791I0000861J0000000D01*
G01*
G37*
G36*
G01*
X0131733Y0116397D02*
X0134804Y0116397D01*
G75*
G02*
X0135079Y0116122I0000000J-000276D01*
G01*
X0135079Y0113917D01*
G75*
G02*
X0134804Y0113641I-000276J0000000D01*
G01*
X0131733Y0113641D01*
G75*
G02*
X0131457Y0113917I0000000J0000276D01*
G01*
X0131457Y0116122D01*
G75*
G02*
X0131733Y0116397I0000276J0000000D01*
G01*
G37*
G36*
G01*
X0131733Y0110098D02*
X0134804Y0110098D01*
G75*
G02*
X0135079Y0109823I0000000J-000276D01*
G01*
X0135079Y0107618D01*
G75*
G02*
X0134804Y0107342I-000276J0000000D01*
G01*
X0131733Y0107342D01*
G75*
G02*
X0131457Y0107618I0000000J0000276D01*
G01*
X0131457Y0109823D01*
G75*
G02*
X0131733Y0110098I0000276J0000000D01*
G01*
G37*
G36*
G01*
X0207028Y0323917D02*
X0207028Y0326594D01*
G75*
G02*
X0207363Y0326929I0000335J0000000D01*
G01*
X0210040Y0326929D01*
G75*
G02*
X0210374Y0326594I0000000J-000335D01*
G01*
X0210374Y0323917D01*
G75*
G02*
X0210040Y0323582I-000335J0000000D01*
G01*
X0207363Y0323582D01*
G75*
G02*
X0207028Y0323917I0000000J0000335D01*
G01*
G37*
G36*
G01*
X0213248Y0323917D02*
X0213248Y0326594D01*
G75*
G02*
X0213583Y0326929I0000335J0000000D01*
G01*
X0216260Y0326929D01*
G75*
G02*
X0216595Y0326594I0000000J-000335D01*
G01*
X0216595Y0323917D01*
G75*
G02*
X0216260Y0323582I-000335J0000000D01*
G01*
X0213583Y0323582D01*
G75*
G02*
X0213248Y0323917I0000000J0000335D01*
G01*
G37*
G36*
G01*
X0009370Y0345433D02*
X0010552Y0345433D01*
G75*
G02*
X0011142Y0344842I0000000J-000591D01*
G01*
X0011142Y0338346D01*
G75*
G02*
X0010552Y0337756I-000591J0000000D01*
G01*
X0009370Y0337756D01*
G75*
G02*
X0008780Y0338346I0000000J0000591D01*
G01*
X0008780Y0344842D01*
G75*
G02*
X0009370Y0345433I0000591J0000000D01*
G01*
G37*
G36*
G01*
X0014370Y0345433D02*
X0015552Y0345433D01*
G75*
G02*
X0016142Y0344842I0000000J-000591D01*
G01*
X0016142Y0338346D01*
G75*
G02*
X0015552Y0337756I-000591J0000000D01*
G01*
X0014370Y0337756D01*
G75*
G02*
X0013780Y0338346I0000000J0000591D01*
G01*
X0013780Y0344842D01*
G75*
G02*
X0014370Y0345433I0000591J0000000D01*
G01*
G37*
G36*
G01*
X0019370Y0345433D02*
X0020552Y0345433D01*
G75*
G02*
X0021142Y0344842I0000000J-000591D01*
G01*
X0021142Y0338346D01*
G75*
G02*
X0020552Y0337756I-000591J0000000D01*
G01*
X0019370Y0337756D01*
G75*
G02*
X0018780Y0338346I0000000J0000591D01*
G01*
X0018780Y0344842D01*
G75*
G02*
X0019370Y0345433I0000591J0000000D01*
G01*
G37*
G36*
G01*
X0024370Y0345433D02*
X0025552Y0345433D01*
G75*
G02*
X0026142Y0344842I0000000J-000591D01*
G01*
X0026142Y0338346D01*
G75*
G02*
X0025552Y0337756I-000591J0000000D01*
G01*
X0024370Y0337756D01*
G75*
G02*
X0023780Y0338346I0000000J0000591D01*
G01*
X0023780Y0344842D01*
G75*
G02*
X0024370Y0345433I0000591J0000000D01*
G01*
G37*
G36*
G01*
X0024370Y0325945D02*
X0025552Y0325945D01*
G75*
G02*
X0026142Y0325354I0000000J-000591D01*
G01*
X0026142Y0318858D01*
G75*
G02*
X0025552Y0318267I-000591J0000000D01*
G01*
X0024370Y0318267D01*
G75*
G02*
X0023780Y0318858I0000000J0000591D01*
G01*
X0023780Y0325354D01*
G75*
G02*
X0024370Y0325945I0000591J0000000D01*
G01*
G37*
G36*
G01*
X0019370Y0325945D02*
X0020552Y0325945D01*
G75*
G02*
X0021142Y0325354I0000000J-000591D01*
G01*
X0021142Y0318858D01*
G75*
G02*
X0020552Y0318267I-000591J0000000D01*
G01*
X0019370Y0318267D01*
G75*
G02*
X0018780Y0318858I0000000J0000591D01*
G01*
X0018780Y0325354D01*
G75*
G02*
X0019370Y0325945I0000591J0000000D01*
G01*
G37*
G36*
G01*
X0014370Y0325945D02*
X0015552Y0325945D01*
G75*
G02*
X0016142Y0325354I0000000J-000591D01*
G01*
X0016142Y0318858D01*
G75*
G02*
X0015552Y0318267I-000591J0000000D01*
G01*
X0014370Y0318267D01*
G75*
G02*
X0013780Y0318858I0000000J0000591D01*
G01*
X0013780Y0325354D01*
G75*
G02*
X0014370Y0325945I0000591J0000000D01*
G01*
G37*
G36*
G01*
X0009370Y0325945D02*
X0010552Y0325945D01*
G75*
G02*
X0011142Y0325354I0000000J-000591D01*
G01*
X0011142Y0318858D01*
G75*
G02*
X0010552Y0318267I-000591J0000000D01*
G01*
X0009370Y0318267D01*
G75*
G02*
X0008780Y0318858I0000000J0000591D01*
G01*
X0008780Y0325354D01*
G75*
G02*
X0009370Y0325945I0000591J0000000D01*
G01*
G37*
G36*
G01*
X0018268Y0160098D02*
X0015197Y0160098D01*
G75*
G02*
X0014922Y0160374I0000000J0000276D01*
G01*
X0014922Y0162578D01*
G75*
G02*
X0015197Y0162854I0000276J0000000D01*
G01*
X0018268Y0162854D01*
G75*
G02*
X0018544Y0162578I0000000J-000276D01*
G01*
X0018544Y0160374D01*
G75*
G02*
X0018268Y0160098I-000276J0000000D01*
G01*
G37*
G36*
G01*
X0018268Y0166397D02*
X0015197Y0166397D01*
G75*
G02*
X0014922Y0166673I0000000J0000276D01*
G01*
X0014922Y0168878D01*
G75*
G02*
X0015197Y0169153I0000276J0000000D01*
G01*
X0018268Y0169153D01*
G75*
G02*
X0018544Y0168878I0000000J-000276D01*
G01*
X0018544Y0166673D01*
G75*
G02*
X0018268Y0166397I-000276J0000000D01*
G01*
G37*
G36*
G01*
X0113790Y0213641D02*
X0110719Y0213641D01*
G75*
G02*
X0110443Y0213917I0000000J0000276D01*
G01*
X0110443Y0216122D01*
G75*
G02*
X0110719Y0216397I0000276J0000000D01*
G01*
X0113790Y0216397D01*
G75*
G02*
X0114065Y0216122I0000000J-000276D01*
G01*
X0114065Y0213917D01*
G75*
G02*
X0113790Y0213641I-000276J0000000D01*
G01*
G37*
G36*
G01*
X0113790Y0219941D02*
X0110719Y0219941D01*
G75*
G02*
X0110443Y0220216I0000000J0000276D01*
G01*
X0110443Y0222421D01*
G75*
G02*
X0110719Y0222697I0000276J0000000D01*
G01*
X0113790Y0222697D01*
G75*
G02*
X0114065Y0222421I0000000J-000276D01*
G01*
X0114065Y0220216D01*
G75*
G02*
X0113790Y0219941I-000276J0000000D01*
G01*
G37*
G36*
G01*
X0221432Y0339527D02*
X0223450Y0339527D01*
G75*
G02*
X0224311Y0338666I0000000J-000861D01*
G01*
X0224311Y0336944D01*
G75*
G02*
X0223450Y0336082I-000861J0000000D01*
G01*
X0221432Y0336082D01*
G75*
G02*
X0220571Y0336944I0000000J0000861D01*
G01*
X0220571Y0338666D01*
G75*
G02*
X0221432Y0339527I0000861J0000000D01*
G01*
G37*
G36*
G01*
X0221432Y0333326D02*
X0223450Y0333326D01*
G75*
G02*
X0224311Y0332465I0000000J-000861D01*
G01*
X0224311Y0330743D01*
G75*
G02*
X0223450Y0329882I-000861J0000000D01*
G01*
X0221432Y0329882D01*
G75*
G02*
X0220571Y0330743I0000000J0000861D01*
G01*
X0220571Y0332465D01*
G75*
G02*
X0221432Y0333326I0000861J0000000D01*
G01*
G37*
G36*
G01*
X0047540Y0043366D02*
X0051674Y0043366D01*
G75*
G02*
X0052067Y0042972I0000000J-000394D01*
G01*
X0052067Y0039823D01*
G75*
G02*
X0051674Y0039429I-000394J0000000D01*
G01*
X0047540Y0039429D01*
G75*
G02*
X0047146Y0039823I0000000J0000394D01*
G01*
X0047146Y0042972D01*
G75*
G02*
X0047540Y0043366I0000394J0000000D01*
G01*
G37*
G36*
G01*
X0047540Y0035492D02*
X0051674Y0035492D01*
G75*
G02*
X0052067Y0035098I0000000J-000394D01*
G01*
X0052067Y0031949D01*
G75*
G02*
X0051674Y0031555I-000394J0000000D01*
G01*
X0047540Y0031555D01*
G75*
G02*
X0047146Y0031949I0000000J0000394D01*
G01*
X0047146Y0035098D01*
G75*
G02*
X0047540Y0035492I0000394J0000000D01*
G01*
G37*
G36*
G01*
X0108170Y0113543D02*
X0108170Y0102323D01*
G75*
G02*
X0107185Y0101338I-000984J0000000D01*
G01*
X0104331Y0101338D01*
G75*
G02*
X0103347Y0102323I0000000J0000984D01*
G01*
X0103347Y0113543D01*
G75*
G02*
X0104331Y0114527I0000984J0000000D01*
G01*
X0107185Y0114527D01*
G75*
G02*
X0108170Y0113543I0000000J-000984D01*
G01*
G37*
G36*
G01*
X0084843Y0113543D02*
X0084843Y0102323D01*
G75*
G02*
X0083859Y0101338I-000984J0000000D01*
G01*
X0081004Y0101338D01*
G75*
G02*
X0080020Y0102323I0000000J0000984D01*
G01*
X0080020Y0113543D01*
G75*
G02*
X0081004Y0114527I0000984J0000000D01*
G01*
X0083859Y0114527D01*
G75*
G02*
X0084843Y0113543I0000000J-000984D01*
G01*
G37*
G36*
G01*
X0034056Y0053051D02*
X0029922Y0053051D01*
G75*
G02*
X0029528Y0053445I0000000J0000394D01*
G01*
X0029528Y0056594D01*
G75*
G02*
X0029922Y0056988I0000394J0000000D01*
G01*
X0034056Y0056988D01*
G75*
G02*
X0034449Y0056594I0000000J-000394D01*
G01*
X0034449Y0053445D01*
G75*
G02*
X0034056Y0053051I-000394J0000000D01*
G01*
G37*
G36*
G01*
X0034056Y0060925D02*
X0029922Y0060925D01*
G75*
G02*
X0029528Y0061319I0000000J0000394D01*
G01*
X0029528Y0064468D01*
G75*
G02*
X0029922Y0064862I0000394J0000000D01*
G01*
X0034056Y0064862D01*
G75*
G02*
X0034449Y0064468I0000000J-000394D01*
G01*
X0034449Y0061319D01*
G75*
G02*
X0034056Y0060925I-000394J0000000D01*
G01*
G37*
G36*
G01*
X0041930Y0053051D02*
X0037796Y0053051D01*
G75*
G02*
X0037402Y0053445I0000000J0000394D01*
G01*
X0037402Y0056594D01*
G75*
G02*
X0037796Y0056988I0000394J0000000D01*
G01*
X0041930Y0056988D01*
G75*
G02*
X0042323Y0056594I0000000J-000394D01*
G01*
X0042323Y0053445D01*
G75*
G02*
X0041930Y0053051I-000394J0000000D01*
G01*
G37*
G36*
G01*
X0041930Y0060925D02*
X0037796Y0060925D01*
G75*
G02*
X0037402Y0061319I0000000J0000394D01*
G01*
X0037402Y0064468D01*
G75*
G02*
X0037796Y0064862I0000394J0000000D01*
G01*
X0041930Y0064862D01*
G75*
G02*
X0042323Y0064468I0000000J-000394D01*
G01*
X0042323Y0061319D01*
G75*
G02*
X0041930Y0060925I-000394J0000000D01*
G01*
G37*
G36*
G01*
X0018307Y0053051D02*
X0014174Y0053051D01*
G75*
G02*
X0013780Y0053445I0000000J0000394D01*
G01*
X0013780Y0056594D01*
G75*
G02*
X0014174Y0056988I0000394J0000000D01*
G01*
X0018307Y0056988D01*
G75*
G02*
X0018701Y0056594I0000000J-000394D01*
G01*
X0018701Y0053445D01*
G75*
G02*
X0018307Y0053051I-000394J0000000D01*
G01*
G37*
G36*
G01*
X0018307Y0060925D02*
X0014174Y0060925D01*
G75*
G02*
X0013780Y0061319I0000000J0000394D01*
G01*
X0013780Y0064468D01*
G75*
G02*
X0014174Y0064862I0000394J0000000D01*
G01*
X0018307Y0064862D01*
G75*
G02*
X0018701Y0064468I0000000J-000394D01*
G01*
X0018701Y0061319D01*
G75*
G02*
X0018307Y0060925I-000394J0000000D01*
G01*
G37*
G36*
G01*
X0022048Y0080610D02*
X0026181Y0080610D01*
G75*
G02*
X0026575Y0080216I0000000J-000394D01*
G01*
X0026575Y0077067D01*
G75*
G02*
X0026181Y0076673I-000394J0000000D01*
G01*
X0022048Y0076673D01*
G75*
G02*
X0021654Y0077067I0000000J0000394D01*
G01*
X0021654Y0080216D01*
G75*
G02*
X0022048Y0080610I0000394J0000000D01*
G01*
G37*
G36*
G01*
X0022048Y0072736D02*
X0026181Y0072736D01*
G75*
G02*
X0026575Y0072342I0000000J-000394D01*
G01*
X0026575Y0069193D01*
G75*
G02*
X0026181Y0068799I-000394J0000000D01*
G01*
X0022048Y0068799D01*
G75*
G02*
X0021654Y0069193I0000000J0000394D01*
G01*
X0021654Y0072342D01*
G75*
G02*
X0022048Y0072736I0000394J0000000D01*
G01*
G37*
G36*
G01*
X0071162Y0043366D02*
X0075296Y0043366D01*
G75*
G02*
X0075689Y0042972I0000000J-000394D01*
G01*
X0075689Y0039823D01*
G75*
G02*
X0075296Y0039429I-000394J0000000D01*
G01*
X0071162Y0039429D01*
G75*
G02*
X0070768Y0039823I0000000J0000394D01*
G01*
X0070768Y0042972D01*
G75*
G02*
X0071162Y0043366I0000394J0000000D01*
G01*
G37*
G36*
G01*
X0071162Y0035492D02*
X0075296Y0035492D01*
G75*
G02*
X0075689Y0035098I0000000J-000394D01*
G01*
X0075689Y0031949D01*
G75*
G02*
X0075296Y0031555I-000394J0000000D01*
G01*
X0071162Y0031555D01*
G75*
G02*
X0070768Y0031949I0000000J0000394D01*
G01*
X0070768Y0035098D01*
G75*
G02*
X0071162Y0035492I0000394J0000000D01*
G01*
G37*
G36*
G01*
X0120827Y0297500D02*
X0117756Y0297500D01*
G75*
G02*
X0117481Y0297775I0000000J0000276D01*
G01*
X0117481Y0299980D01*
G75*
G02*
X0117756Y0300256I0000276J0000000D01*
G01*
X0120827Y0300256D01*
G75*
G02*
X0121103Y0299980I0000000J-000276D01*
G01*
X0121103Y0297775D01*
G75*
G02*
X0120827Y0297500I-000276J0000000D01*
G01*
G37*
G36*
G01*
X0120827Y0303799D02*
X0117756Y0303799D01*
G75*
G02*
X0117481Y0304074I0000000J0000276D01*
G01*
X0117481Y0306279D01*
G75*
G02*
X0117756Y0306555I0000276J0000000D01*
G01*
X0120827Y0306555D01*
G75*
G02*
X0121103Y0306279I0000000J-000276D01*
G01*
X0121103Y0304074D01*
G75*
G02*
X0120827Y0303799I-000276J0000000D01*
G01*
G37*
G36*
G01*
X0051674Y0015807D02*
X0047540Y0015807D01*
G75*
G02*
X0047146Y0016200I0000000J0000394D01*
G01*
X0047146Y0019350D01*
G75*
G02*
X0047540Y0019744I0000394J0000000D01*
G01*
X0051674Y0019744D01*
G75*
G02*
X0052067Y0019350I0000000J-000394D01*
G01*
X0052067Y0016200D01*
G75*
G02*
X0051674Y0015807I-000394J0000000D01*
G01*
G37*
G36*
G01*
X0051674Y0023681D02*
X0047540Y0023681D01*
G75*
G02*
X0047146Y0024074I0000000J0000394D01*
G01*
X0047146Y0027224D01*
G75*
G02*
X0047540Y0027618I0000394J0000000D01*
G01*
X0051674Y0027618D01*
G75*
G02*
X0052067Y0027224I0000000J-000394D01*
G01*
X0052067Y0024074D01*
G75*
G02*
X0051674Y0023681I-000394J0000000D01*
G01*
G37*
G36*
G01*
X0222481Y0247893D02*
X0225552Y0247893D01*
G75*
G02*
X0225827Y0247618I0000000J-000276D01*
G01*
X0225827Y0245413D01*
G75*
G02*
X0225552Y0245137I-000276J0000000D01*
G01*
X0222481Y0245137D01*
G75*
G02*
X0222205Y0245413I0000000J0000276D01*
G01*
X0222205Y0247618D01*
G75*
G02*
X0222481Y0247893I0000276J0000000D01*
G01*
G37*
G36*
G01*
X0222481Y0241594D02*
X0225552Y0241594D01*
G75*
G02*
X0225827Y0241319I0000000J-000276D01*
G01*
X0225827Y0239114D01*
G75*
G02*
X0225552Y0238838I-000276J0000000D01*
G01*
X0222481Y0238838D01*
G75*
G02*
X0222205Y0239114I0000000J0000276D01*
G01*
X0222205Y0241319D01*
G75*
G02*
X0222481Y0241594I0000276J0000000D01*
G01*
G37*
G36*
G01*
X0303977Y0283326D02*
X0307048Y0283326D01*
G75*
G02*
X0307323Y0283051I0000000J-000276D01*
G01*
X0307323Y0280846D01*
G75*
G02*
X0307048Y0280571I-000276J0000000D01*
G01*
X0303977Y0280571D01*
G75*
G02*
X0303701Y0280846I0000000J0000276D01*
G01*
X0303701Y0283051D01*
G75*
G02*
X0303977Y0283326I0000276J0000000D01*
G01*
G37*
G36*
G01*
X0303977Y0277027D02*
X0307048Y0277027D01*
G75*
G02*
X0307323Y0276752I0000000J-000276D01*
G01*
X0307323Y0274547D01*
G75*
G02*
X0307048Y0274271I-000276J0000000D01*
G01*
X0303977Y0274271D01*
G75*
G02*
X0303701Y0274547I0000000J0000276D01*
G01*
X0303701Y0276752D01*
G75*
G02*
X0303977Y0277027I0000276J0000000D01*
G01*
G37*
G36*
G01*
X0064528Y0078208D02*
X0061457Y0078208D01*
G75*
G02*
X0061181Y0078484I0000000J0000276D01*
G01*
X0061181Y0080689D01*
G75*
G02*
X0061457Y0080964I0000276J0000000D01*
G01*
X0064528Y0080964D01*
G75*
G02*
X0064804Y0080689I0000000J-000276D01*
G01*
X0064804Y0078484D01*
G75*
G02*
X0064528Y0078208I-000276J0000000D01*
G01*
G37*
G36*
G01*
X0064528Y0084508D02*
X0061457Y0084508D01*
G75*
G02*
X0061181Y0084783I0000000J0000276D01*
G01*
X0061181Y0086988D01*
G75*
G02*
X0061457Y0087263I0000276J0000000D01*
G01*
X0064528Y0087263D01*
G75*
G02*
X0064804Y0086988I0000000J-000276D01*
G01*
X0064804Y0084783D01*
G75*
G02*
X0064528Y0084508I-000276J0000000D01*
G01*
G37*
G36*
G01*
X0113288Y0305767D02*
X0113288Y0304586D01*
G75*
G02*
X0112697Y0303996I-000591J0000000D01*
G01*
X0106201Y0303996D01*
G75*
G02*
X0105611Y0304586I0000000J0000591D01*
G01*
X0105611Y0305767D01*
G75*
G02*
X0106201Y0306358I0000591J0000000D01*
G01*
X0112697Y0306358D01*
G75*
G02*
X0113288Y0305767I0000000J-000591D01*
G01*
G37*
G36*
G01*
X0113288Y0300767D02*
X0113288Y0299586D01*
G75*
G02*
X0112697Y0298996I-000591J0000000D01*
G01*
X0106201Y0298996D01*
G75*
G02*
X0105611Y0299586I0000000J0000591D01*
G01*
X0105611Y0300767D01*
G75*
G02*
X0106201Y0301358I0000591J0000000D01*
G01*
X0112697Y0301358D01*
G75*
G02*
X0113288Y0300767I0000000J-000591D01*
G01*
G37*
G36*
G01*
X0113288Y0295767D02*
X0113288Y0294586D01*
G75*
G02*
X0112697Y0293996I-000591J0000000D01*
G01*
X0106201Y0293996D01*
G75*
G02*
X0105611Y0294586I0000000J0000591D01*
G01*
X0105611Y0295767D01*
G75*
G02*
X0106201Y0296358I0000591J0000000D01*
G01*
X0112697Y0296358D01*
G75*
G02*
X0113288Y0295767I0000000J-000591D01*
G01*
G37*
G36*
G01*
X0113288Y0290767D02*
X0113288Y0289586D01*
G75*
G02*
X0112697Y0288996I-000591J0000000D01*
G01*
X0106201Y0288996D01*
G75*
G02*
X0105611Y0289586I0000000J0000591D01*
G01*
X0105611Y0290767D01*
G75*
G02*
X0106201Y0291358I0000591J0000000D01*
G01*
X0112697Y0291358D01*
G75*
G02*
X0113288Y0290767I0000000J-000591D01*
G01*
G37*
G36*
G01*
X0093800Y0290767D02*
X0093800Y0289586D01*
G75*
G02*
X0093209Y0288996I-000591J0000000D01*
G01*
X0086713Y0288996D01*
G75*
G02*
X0086122Y0289586I0000000J0000591D01*
G01*
X0086122Y0290767D01*
G75*
G02*
X0086713Y0291358I0000591J0000000D01*
G01*
X0093209Y0291358D01*
G75*
G02*
X0093800Y0290767I0000000J-000591D01*
G01*
G37*
G36*
G01*
X0093800Y0295767D02*
X0093800Y0294586D01*
G75*
G02*
X0093209Y0293996I-000591J0000000D01*
G01*
X0086713Y0293996D01*
G75*
G02*
X0086122Y0294586I0000000J0000591D01*
G01*
X0086122Y0295767D01*
G75*
G02*
X0086713Y0296358I0000591J0000000D01*
G01*
X0093209Y0296358D01*
G75*
G02*
X0093800Y0295767I0000000J-000591D01*
G01*
G37*
G36*
G01*
X0093800Y0300767D02*
X0093800Y0299586D01*
G75*
G02*
X0093209Y0298996I-000591J0000000D01*
G01*
X0086713Y0298996D01*
G75*
G02*
X0086122Y0299586I0000000J0000591D01*
G01*
X0086122Y0300767D01*
G75*
G02*
X0086713Y0301358I0000591J0000000D01*
G01*
X0093209Y0301358D01*
G75*
G02*
X0093800Y0300767I0000000J-000591D01*
G01*
G37*
G36*
G01*
X0093800Y0305767D02*
X0093800Y0304586D01*
G75*
G02*
X0093209Y0303996I-000591J0000000D01*
G01*
X0086713Y0303996D01*
G75*
G02*
X0086122Y0304586I0000000J0000591D01*
G01*
X0086122Y0305767D01*
G75*
G02*
X0086713Y0306358I0000591J0000000D01*
G01*
X0093209Y0306358D01*
G75*
G02*
X0093800Y0305767I0000000J-000591D01*
G01*
G37*
X0096899Y0004802D02*
G01*
G75*
D108*
X0126814Y0081180D02*
D03*
X0113822Y0081180D02*
D03*
D109*
X0146674Y0081574D02*
D03*
X0135257Y0081574D02*
D03*
X0146674Y0073542D02*
D03*
X0135257Y0073542D02*
D03*
D112*
X0109301Y0059526D02*
D03*
X0109301Y0063463D02*
D03*
X0105954Y0074093D02*
D03*
X0114616Y0074093D02*
D03*
X0105167Y0068845D02*
D03*
X0113828Y0068845D02*
D03*
D113*
X0117054Y0016219D02*
D03*
X0113510Y0016219D02*
D03*
X0126445Y0052952D02*
D03*
X0129989Y0052952D02*
D03*
X0118448Y0068057D02*
D03*
X0121991Y0068057D02*
D03*
X0125672Y0016219D02*
D03*
X0122129Y0016219D02*
D03*
X0105167Y0020156D02*
D03*
X0108710Y0020156D02*
D03*
D114*
X0130652Y0069632D02*
D03*
X0130652Y0073176D02*
D03*
X0109885Y0082034D02*
D03*
X0109885Y0078490D02*
D03*
X0158649Y0023717D02*
D03*
X0158649Y0027261D02*
D03*
D132*
X0146112Y0061101D02*
D03*
X0135088Y0061101D02*
D03*
D133*
X0113434Y0056778D02*
D03*
X0113434Y0062998D02*
D03*
X0127528Y0056778D02*
D03*
X0127528Y0062998D02*
D03*
X0122837Y0056778D02*
D03*
X0122837Y0062998D02*
D03*
X0118145Y0056778D02*
D03*
X0118145Y0062998D02*
D03*
X0126347Y0069022D02*
D03*
X0126347Y0075243D02*
D03*
D134*
X0116857Y0020156D02*
D03*
X0112920Y0020156D02*
D03*
X0121538Y0020156D02*
D03*
X0125475Y0020156D02*
D03*
X0118251Y0074093D02*
D03*
X0122188Y0074093D02*
D03*
X0141184Y0052479D02*
D03*
X0145121Y0052479D02*
D03*
X0148960Y0015038D02*
D03*
X0145022Y0015038D02*
D03*
D135*
X0121971Y0026916D02*
D03*
X0116971Y0026916D02*
D03*
X0111971Y0026916D02*
D03*
X0106971Y0026916D02*
D03*
X0121971Y0049553D02*
D03*
X0116971Y0049553D02*
D03*
X0111971Y0049553D02*
D03*
X0106971Y0049553D02*
D03*
X0145038Y0021633D02*
D03*
X0140038Y0021633D02*
D03*
X0135038Y0021633D02*
D03*
X0130038Y0021633D02*
D03*
X0145038Y0045058D02*
D03*
X0140038Y0045058D02*
D03*
X0135038Y0045058D02*
D03*
X0130038Y0045058D02*
D03*
D136*
X0114471Y0038234D02*
D03*
D137*
X0137538Y0033345D02*
D03*
X0303002Y0323306D02*
G01*
G75*
D298*
X0313238Y0295353D02*
D03*
X0313238Y0291416D02*
D03*
X0313238Y0306476D02*
D03*
X0313238Y0310413D02*
D03*
X0313238Y0314842D02*
D03*
X0313238Y0318779D02*
D03*
X0305955Y0295353D02*
D03*
X0305955Y0291416D02*
D03*
D299*
X0305758Y0298738D02*
D03*
X0309301Y0298738D02*
D03*
D300*
X0312471Y0302623D02*
D03*
X0306250Y0302623D02*
D03*
D301*
X0309301Y0315235D02*
D03*
X0309301Y0318778D02*
D03*
X0305758Y0306869D02*
D03*
X0305758Y0310412D02*
D03*
X0309359Y0292007D02*
D03*
X0309359Y0295550D02*
D03*
X0305758Y0318778D02*
D03*
X0305758Y0315235D02*
D03*
X0166387Y0304998D02*
%LPD*%
G01*
G36*
G01*
X0196981Y0288069D02*
X0195800Y0288069D01*
G75*
G02*
X0195209Y0288659I0000000J0000591D01*
G01*
X0195209Y0292695D01*
G75*
G02*
X0195800Y0293285I0000591J0000000D01*
G01*
X0196981Y0293285D01*
G75*
G02*
X0197571Y0292695I0000000J-000591D01*
G01*
X0197571Y0288659D01*
G75*
G02*
X0196981Y0288069I-000591J0000000D01*
G01*
G37*
G36*
G01*
X0193240Y0288069D02*
X0192059Y0288069D01*
G75*
G02*
X0191469Y0288659I0000000J0000591D01*
G01*
X0191469Y0292695D01*
G75*
G02*
X0192059Y0293285I0000591J0000000D01*
G01*
X0193240Y0293285D01*
G75*
G02*
X0193831Y0292695I0000000J-000591D01*
G01*
X0193831Y0288659D01*
G75*
G02*
X0193240Y0288069I-000591J0000000D01*
G01*
G37*
G36*
G01*
X0189500Y0288069D02*
X0188319Y0288069D01*
G75*
G02*
X0187729Y0288659I0000000J0000591D01*
G01*
X0187729Y0292695D01*
G75*
G02*
X0188319Y0293285I0000591J0000000D01*
G01*
X0189500Y0293285D01*
G75*
G02*
X0190091Y0292695I0000000J-000591D01*
G01*
X0190091Y0288659D01*
G75*
G02*
X0189500Y0288069I-000591J0000000D01*
G01*
G37*
G36*
G01*
X0189500Y0297026D02*
X0188319Y0297026D01*
G75*
G02*
X0187729Y0297616I0000000J0000591D01*
G01*
X0187729Y0301652D01*
G75*
G02*
X0188319Y0302242I0000591J0000000D01*
G01*
X0189500Y0302242D01*
G75*
G02*
X0190091Y0301652I0000000J-000591D01*
G01*
X0190091Y0297616D01*
G75*
G02*
X0189500Y0297026I-000591J0000000D01*
G01*
G37*
G36*
G01*
X0196981Y0297026D02*
X0195800Y0297026D01*
G75*
G02*
X0195209Y0297616I0000000J0000591D01*
G01*
X0195209Y0301652D01*
G75*
G02*
X0195800Y0302242I0000591J0000000D01*
G01*
X0196981Y0302242D01*
G75*
G02*
X0197571Y0301652I0000000J-000591D01*
G01*
X0197571Y0297616D01*
G75*
G02*
X0196981Y0297026I-000591J0000000D01*
G01*
G37*
G36*
G01*
X0174694Y0288344D02*
X0174694Y0287006D01*
G75*
G02*
X0174143Y0286455I-000551J0000000D01*
G01*
X0173041Y0286455D01*
G75*
G02*
X0172489Y0287006I0000000J0000551D01*
G01*
X0172489Y0288344D01*
G75*
G02*
X0173041Y0288896I0000551J0000000D01*
G01*
X0174143Y0288896D01*
G75*
G02*
X0174694Y0288344I0000000J-000551D01*
G01*
G37*
G36*
G01*
X0170915Y0288344D02*
X0170915Y0287006D01*
G75*
G02*
X0170363Y0286455I-000551J0000000D01*
G01*
X0169261Y0286455D01*
G75*
G02*
X0168710Y0287006I0000000J0000551D01*
G01*
X0168710Y0288344D01*
G75*
G02*
X0169261Y0288896I0000551J0000000D01*
G01*
X0170363Y0288896D01*
G75*
G02*
X0170915Y0288344I0000000J-000551D01*
G01*
G37*
G36*
G01*
X0197411Y0261829D02*
X0198749Y0261829D01*
G75*
G02*
X0199300Y0261278I0000000J-000551D01*
G01*
X0199300Y0260175D01*
G75*
G02*
X0198749Y0259624I-000551J0000000D01*
G01*
X0197411Y0259624D01*
G75*
G02*
X0196859Y0260175I0000000J0000551D01*
G01*
X0196859Y0261278D01*
G75*
G02*
X0197411Y0261829I0000551J0000000D01*
G01*
G37*
G36*
G01*
X0197411Y0258049D02*
X0198749Y0258049D01*
G75*
G02*
X0199300Y0257498I0000000J-000551D01*
G01*
X0199300Y0256396D01*
G75*
G02*
X0198749Y0255844I-000551J0000000D01*
G01*
X0197411Y0255844D01*
G75*
G02*
X0196859Y0256396I0000000J0000551D01*
G01*
X0196859Y0257498D01*
G75*
G02*
X0197411Y0258049I0000551J0000000D01*
G01*
G37*
G36*
G01*
X0202411Y0248482D02*
X0201072Y0248482D01*
G75*
G02*
X0200521Y0249033I0000000J0000551D01*
G01*
X0200521Y0250136D01*
G75*
G02*
X0201072Y0250687I0000551J0000000D01*
G01*
X0202411Y0250687D01*
G75*
G02*
X0202962Y0250136I0000000J-000551D01*
G01*
X0202962Y0249033D01*
G75*
G02*
X0202411Y0248482I-000551J0000000D01*
G01*
G37*
G36*
G01*
X0202411Y0252262D02*
X0201072Y0252262D01*
G75*
G02*
X0200521Y0252813I0000000J0000551D01*
G01*
X0200521Y0253915D01*
G75*
G02*
X0201072Y0254467I0000551J0000000D01*
G01*
X0202411Y0254467D01*
G75*
G02*
X0202962Y0253915I0000000J-000551D01*
G01*
X0202962Y0252813D01*
G75*
G02*
X0202411Y0252262I-000551J0000000D01*
G01*
G37*
G36*
G01*
X0193670Y0270234D02*
X0195009Y0270234D01*
G75*
G02*
X0195560Y0269683I0000000J-000551D01*
G01*
X0195560Y0268581D01*
G75*
G02*
X0195009Y0268029I-000551J0000000D01*
G01*
X0193670Y0268029D01*
G75*
G02*
X0193119Y0268581I0000000J0000551D01*
G01*
X0193119Y0269683D01*
G75*
G02*
X0193670Y0270234I0000551J0000000D01*
G01*
G37*
G36*
G01*
X0193670Y0266455D02*
X0195009Y0266455D01*
G75*
G02*
X0195560Y0265904I0000000J-000551D01*
G01*
X0195560Y0264801D01*
G75*
G02*
X0195009Y0264250I-000551J0000000D01*
G01*
X0193670Y0264250D01*
G75*
G02*
X0193119Y0264801I0000000J0000551D01*
G01*
X0193119Y0265904D01*
G75*
G02*
X0193670Y0266455I0000551J0000000D01*
G01*
G37*
G36*
G01*
X0198749Y0248679D02*
X0197411Y0248679D01*
G75*
G02*
X0196859Y0249230I0000000J0000551D01*
G01*
X0196859Y0250333D01*
G75*
G02*
X0197411Y0250884I0000551J0000000D01*
G01*
X0198749Y0250884D01*
G75*
G02*
X0199300Y0250333I0000000J-000551D01*
G01*
X0199300Y0249230D01*
G75*
G02*
X0198749Y0248679I-000551J0000000D01*
G01*
G37*
G36*
G01*
X0198749Y0252459D02*
X0197411Y0252459D01*
G75*
G02*
X0196859Y0253010I0000000J0000551D01*
G01*
X0196859Y0254112D01*
G75*
G02*
X0197411Y0254663I0000551J0000000D01*
G01*
X0198749Y0254663D01*
G75*
G02*
X0199300Y0254112I0000000J-000551D01*
G01*
X0199300Y0253010D01*
G75*
G02*
X0198749Y0252459I-000551J0000000D01*
G01*
G37*
G36*
G01*
X0177233Y0253955D02*
X0178572Y0253955D01*
G75*
G02*
X0179123Y0253404I0000000J-000551D01*
G01*
X0179123Y0252301D01*
G75*
G02*
X0178572Y0251750I-000551J0000000D01*
G01*
X0177233Y0251750D01*
G75*
G02*
X0176682Y0252301I0000000J0000551D01*
G01*
X0176682Y0253404D01*
G75*
G02*
X0177233Y0253955I0000551J0000000D01*
G01*
G37*
G36*
G01*
X0177233Y0250175D02*
X0178572Y0250175D01*
G75*
G02*
X0179123Y0249624I0000000J-000551D01*
G01*
X0179123Y0248522D01*
G75*
G02*
X0178572Y0247970I-000551J0000000D01*
G01*
X0177233Y0247970D01*
G75*
G02*
X0176682Y0248522I0000000J0000551D01*
G01*
X0176682Y0249624D01*
G75*
G02*
X0177233Y0250175I0000551J0000000D01*
G01*
G37*
G36*
G01*
X0169733Y0284464D02*
X0170521Y0284464D01*
G75*
G02*
X0170915Y0284070I0000000J-000394D01*
G01*
X0170915Y0279050D01*
G75*
G02*
X0170521Y0278657I-000394J0000000D01*
G01*
X0169733Y0278657D01*
G75*
G02*
X0169340Y0279050I0000000J0000394D01*
G01*
X0169340Y0284070D01*
G75*
G02*
X0169733Y0284464I0000394J0000000D01*
G01*
G37*
G36*
G01*
X0172293Y0284464D02*
X0173080Y0284464D01*
G75*
G02*
X0173474Y0284070I0000000J-000394D01*
G01*
X0173474Y0279050D01*
G75*
G02*
X0173080Y0278657I-000394J0000000D01*
G01*
X0172293Y0278657D01*
G75*
G02*
X0171899Y0279050I0000000J0000394D01*
G01*
X0171899Y0284070D01*
G75*
G02*
X0172293Y0284464I0000394J0000000D01*
G01*
G37*
G36*
G01*
X0174852Y0284464D02*
X0175639Y0284464D01*
G75*
G02*
X0176033Y0284070I0000000J-000394D01*
G01*
X0176033Y0279050D01*
G75*
G02*
X0175639Y0278657I-000394J0000000D01*
G01*
X0174852Y0278657D01*
G75*
G02*
X0174458Y0279050I0000000J0000394D01*
G01*
X0174458Y0284070D01*
G75*
G02*
X0174852Y0284464I0000394J0000000D01*
G01*
G37*
G36*
G01*
X0177411Y0284464D02*
X0178198Y0284464D01*
G75*
G02*
X0178592Y0284070I0000000J-000394D01*
G01*
X0178592Y0279050D01*
G75*
G02*
X0178198Y0278657I-000394J0000000D01*
G01*
X0177411Y0278657D01*
G75*
G02*
X0177017Y0279050I0000000J0000394D01*
G01*
X0177017Y0284070D01*
G75*
G02*
X0177411Y0284464I0000394J0000000D01*
G01*
G37*
G36*
G01*
X0179970Y0284464D02*
X0180757Y0284464D01*
G75*
G02*
X0181151Y0284070I0000000J-000394D01*
G01*
X0181151Y0279050D01*
G75*
G02*
X0180757Y0278657I-000394J0000000D01*
G01*
X0179970Y0278657D01*
G75*
G02*
X0179576Y0279050I0000000J0000394D01*
G01*
X0179576Y0284070D01*
G75*
G02*
X0179970Y0284464I0000394J0000000D01*
G01*
G37*
G36*
G01*
X0182529Y0284464D02*
X0183316Y0284464D01*
G75*
G02*
X0183710Y0284070I0000000J-000394D01*
G01*
X0183710Y0279050D01*
G75*
G02*
X0183316Y0278657I-000394J0000000D01*
G01*
X0182529Y0278657D01*
G75*
G02*
X0182135Y0279050I0000000J0000394D01*
G01*
X0182135Y0284070D01*
G75*
G02*
X0182529Y0284464I0000394J0000000D01*
G01*
G37*
G36*
G01*
X0185088Y0284464D02*
X0185875Y0284464D01*
G75*
G02*
X0186269Y0284070I0000000J-000394D01*
G01*
X0186269Y0279050D01*
G75*
G02*
X0185875Y0278657I-000394J0000000D01*
G01*
X0185088Y0278657D01*
G75*
G02*
X0184694Y0279050I0000000J0000394D01*
G01*
X0184694Y0284070D01*
G75*
G02*
X0185088Y0284464I0000394J0000000D01*
G01*
G37*
G36*
G01*
X0185088Y0261924D02*
X0185875Y0261924D01*
G75*
G02*
X0186269Y0261531I0000000J-000394D01*
G01*
X0186269Y0256511D01*
G75*
G02*
X0185875Y0256117I-000394J0000000D01*
G01*
X0185088Y0256117D01*
G75*
G02*
X0184694Y0256511I0000000J0000394D01*
G01*
X0184694Y0261531D01*
G75*
G02*
X0185088Y0261924I0000394J0000000D01*
G01*
G37*
G36*
G01*
X0182529Y0261924D02*
X0183316Y0261924D01*
G75*
G02*
X0183710Y0261531I0000000J-000394D01*
G01*
X0183710Y0256511D01*
G75*
G02*
X0183316Y0256117I-000394J0000000D01*
G01*
X0182529Y0256117D01*
G75*
G02*
X0182135Y0256511I0000000J0000394D01*
G01*
X0182135Y0261531D01*
G75*
G02*
X0182529Y0261924I0000394J0000000D01*
G01*
G37*
G36*
G01*
X0179970Y0261924D02*
X0180757Y0261924D01*
G75*
G02*
X0181151Y0261531I0000000J-000394D01*
G01*
X0181151Y0256511D01*
G75*
G02*
X0180757Y0256117I-000394J0000000D01*
G01*
X0179970Y0256117D01*
G75*
G02*
X0179576Y0256511I0000000J0000394D01*
G01*
X0179576Y0261531D01*
G75*
G02*
X0179970Y0261924I0000394J0000000D01*
G01*
G37*
G36*
G01*
X0177411Y0261924D02*
X0178198Y0261924D01*
G75*
G02*
X0178592Y0261531I0000000J-000394D01*
G01*
X0178592Y0256511D01*
G75*
G02*
X0178198Y0256117I-000394J0000000D01*
G01*
X0177411Y0256117D01*
G75*
G02*
X0177017Y0256511I0000000J0000394D01*
G01*
X0177017Y0261531D01*
G75*
G02*
X0177411Y0261924I0000394J0000000D01*
G01*
G37*
G36*
G01*
X0174852Y0261924D02*
X0175639Y0261924D01*
G75*
G02*
X0176033Y0261531I0000000J-000394D01*
G01*
X0176033Y0256511D01*
G75*
G02*
X0175639Y0256117I-000394J0000000D01*
G01*
X0174852Y0256117D01*
G75*
G02*
X0174458Y0256511I0000000J0000394D01*
G01*
X0174458Y0261531D01*
G75*
G02*
X0174852Y0261924I0000394J0000000D01*
G01*
G37*
G36*
G01*
X0172293Y0261924D02*
X0173080Y0261924D01*
G75*
G02*
X0173474Y0261531I0000000J-000394D01*
G01*
X0173474Y0256511D01*
G75*
G02*
X0173080Y0256117I-000394J0000000D01*
G01*
X0172293Y0256117D01*
G75*
G02*
X0171899Y0256511I0000000J0000394D01*
G01*
X0171899Y0261531D01*
G75*
G02*
X0172293Y0261924I0000394J0000000D01*
G01*
G37*
G36*
G01*
X0169733Y0261924D02*
X0170521Y0261924D01*
G75*
G02*
X0170915Y0261531I0000000J-000394D01*
G01*
X0170915Y0256511D01*
G75*
G02*
X0170521Y0256117I-000394J0000000D01*
G01*
X0169733Y0256117D01*
G75*
G02*
X0169340Y0256511I0000000J0000394D01*
G01*
X0169340Y0261531D01*
G75*
G02*
X0169733Y0261924I0000394J0000000D01*
G01*
G37*
G36*
G01*
X0177604Y0302107D02*
X0181147Y0302107D01*
G75*
G02*
X0182131Y0301123I0000000J-000984D01*
G01*
X0182131Y0299056D01*
G75*
G02*
X0181147Y0298072I-000984J0000000D01*
G01*
X0177604Y0298072D01*
G75*
G02*
X0176619Y0299056I0000000J0000984D01*
G01*
X0176619Y0301123D01*
G75*
G02*
X0177604Y0302107I0000984J0000000D01*
G01*
G37*
G36*
G01*
X0177604Y0294922D02*
X0181147Y0294922D01*
G75*
G02*
X0182131Y0293938I0000000J-000984D01*
G01*
X0182131Y0291871D01*
G75*
G02*
X0181147Y0290887I-000984J0000000D01*
G01*
X0177604Y0290887D01*
G75*
G02*
X0176619Y0291871I0000000J0000984D01*
G01*
X0176619Y0293938D01*
G75*
G02*
X0177604Y0294922I0000984J0000000D01*
G01*
G37*
G36*
G01*
X0191328Y0255864D02*
X0189871Y0255864D01*
G75*
G02*
X0189340Y0256396I0000000J0000531D01*
G01*
X0189340Y0257459D01*
G75*
G02*
X0189871Y0257990I0000531J0000000D01*
G01*
X0191328Y0257990D01*
G75*
G02*
X0191859Y0257459I0000000J-000531D01*
G01*
X0191859Y0256396D01*
G75*
G02*
X0191328Y0255864I-000531J0000000D01*
G01*
G37*
G36*
G01*
X0191328Y0259880D02*
X0189871Y0259880D01*
G75*
G02*
X0189340Y0260411I0000000J0000531D01*
G01*
X0189340Y0261474D01*
G75*
G02*
X0189871Y0262006I0000531J0000000D01*
G01*
X0191328Y0262006D01*
G75*
G02*
X0191859Y0261474I0000000J-000531D01*
G01*
X0191859Y0260411D01*
G75*
G02*
X0191328Y0259880I-000531J0000000D01*
G01*
G37*
G36*
G01*
X0202253Y0296297D02*
X0200915Y0296297D01*
G75*
G02*
X0200363Y0296848I0000000J0000551D01*
G01*
X0200363Y0297951D01*
G75*
G02*
X0200915Y0298502I0000551J0000000D01*
G01*
X0202253Y0298502D01*
G75*
G02*
X0202804Y0297951I0000000J-000551D01*
G01*
X0202804Y0296848D01*
G75*
G02*
X0202253Y0296297I-000551J0000000D01*
G01*
G37*
G36*
G01*
X0202253Y0300077D02*
X0200915Y0300077D01*
G75*
G02*
X0200363Y0300628I0000000J0000551D01*
G01*
X0200363Y0301730D01*
G75*
G02*
X0200915Y0302281I0000551J0000000D01*
G01*
X0202253Y0302281D01*
G75*
G02*
X0202804Y0301730I0000000J-000551D01*
G01*
X0202804Y0300628D01*
G75*
G02*
X0202253Y0300077I-000551J0000000D01*
G01*
G37*
G36*
G01*
X0195068Y0248187D02*
X0193611Y0248187D01*
G75*
G02*
X0193080Y0248718I0000000J0000531D01*
G01*
X0193080Y0249781D01*
G75*
G02*
X0193611Y0250313I0000531J0000000D01*
G01*
X0195068Y0250313D01*
G75*
G02*
X0195600Y0249781I0000000J-000531D01*
G01*
X0195600Y0248718D01*
G75*
G02*
X0195068Y0248187I-000531J0000000D01*
G01*
G37*
G36*
G01*
X0195068Y0252203D02*
X0193611Y0252203D01*
G75*
G02*
X0193080Y0252734I0000000J0000531D01*
G01*
X0193080Y0253797D01*
G75*
G02*
X0193611Y0254329I0000531J0000000D01*
G01*
X0195068Y0254329D01*
G75*
G02*
X0195600Y0253797I0000000J-000531D01*
G01*
X0195600Y0252734D01*
G75*
G02*
X0195068Y0252203I-000531J0000000D01*
G01*
G37*
G36*
G01*
X0191328Y0264120D02*
X0189872Y0264120D01*
G75*
G02*
X0189340Y0264652I0000000J0000531D01*
G01*
X0189340Y0265715D01*
G75*
G02*
X0189872Y0266246I0000531J0000000D01*
G01*
X0191328Y0266246D01*
G75*
G02*
X0191860Y0265715I0000000J-000531D01*
G01*
X0191860Y0264652D01*
G75*
G02*
X0191328Y0264120I-000531J0000000D01*
G01*
G37*
G36*
G01*
X0191328Y0268136D02*
X0189872Y0268136D01*
G75*
G02*
X0189340Y0268668I0000000J0000531D01*
G01*
X0189340Y0269731D01*
G75*
G02*
X0189872Y0270262I0000531J0000000D01*
G01*
X0191328Y0270262D01*
G75*
G02*
X0191860Y0269731I0000000J-000531D01*
G01*
X0191860Y0268668D01*
G75*
G02*
X0191328Y0268136I-000531J0000000D01*
G01*
G37*
G36*
G01*
X0173572Y0290887D02*
X0170029Y0290887D01*
G75*
G02*
X0169044Y0291871I0000000J0000984D01*
G01*
X0169044Y0293938D01*
G75*
G02*
X0170029Y0294922I0000984J0000000D01*
G01*
X0173572Y0294922D01*
G75*
G02*
X0174556Y0293938I0000000J-000984D01*
G01*
X0174556Y0291871D01*
G75*
G02*
X0173572Y0290887I-000984J0000000D01*
G01*
G37*
G36*
G01*
X0173572Y0298072D02*
X0170029Y0298072D01*
G75*
G02*
X0169044Y0299056I0000000J0000984D01*
G01*
X0169044Y0301123D01*
G75*
G02*
X0170029Y0302107I0000984J0000000D01*
G01*
X0173572Y0302107D01*
G75*
G02*
X0174556Y0301123I0000000J-000984D01*
G01*
X0174556Y0299056D01*
G75*
G02*
X0173572Y0298072I-000984J0000000D01*
G01*
G37*
G36*
G01*
X0202470Y0264171D02*
X0201013Y0264171D01*
G75*
G02*
X0200481Y0264703I0000000J0000531D01*
G01*
X0200481Y0265766D01*
G75*
G02*
X0201013Y0266297I0000531J0000000D01*
G01*
X0202470Y0266297D01*
G75*
G02*
X0203001Y0265766I0000000J-000531D01*
G01*
X0203001Y0264703D01*
G75*
G02*
X0202470Y0264171I-000531J0000000D01*
G01*
G37*
G36*
G01*
X0202470Y0268187D02*
X0201013Y0268187D01*
G75*
G02*
X0200481Y0268718I0000000J0000531D01*
G01*
X0200481Y0269781D01*
G75*
G02*
X0201013Y0270313I0000531J0000000D01*
G01*
X0202470Y0270313D01*
G75*
G02*
X0203001Y0269781I0000000J-000531D01*
G01*
X0203001Y0268718D01*
G75*
G02*
X0202470Y0268187I-000531J0000000D01*
G01*
G37*
G36*
G01*
X0168966Y0254486D02*
X0170422Y0254486D01*
G75*
G02*
X0170954Y0253955I0000000J-000531D01*
G01*
X0170954Y0252892D01*
G75*
G02*
X0170422Y0252360I-000531J0000000D01*
G01*
X0168966Y0252360D01*
G75*
G02*
X0168434Y0252892I0000000J0000531D01*
G01*
X0168434Y0253955D01*
G75*
G02*
X0168966Y0254486I0000531J0000000D01*
G01*
G37*
G36*
G01*
X0168966Y0250470D02*
X0170422Y0250470D01*
G75*
G02*
X0170954Y0249939I0000000J-000531D01*
G01*
X0170954Y0248876D01*
G75*
G02*
X0170422Y0248344I-000531J0000000D01*
G01*
X0168966Y0248344D01*
G75*
G02*
X0168434Y0248876I0000000J0000531D01*
G01*
X0168434Y0249939D01*
G75*
G02*
X0168966Y0250470I0000531J0000000D01*
G01*
G37*
G36*
G01*
X0180915Y0254033D02*
X0182371Y0254033D01*
G75*
G02*
X0182903Y0253502I0000000J-000531D01*
G01*
X0182903Y0252439D01*
G75*
G02*
X0182371Y0251907I-000531J0000000D01*
G01*
X0180915Y0251907D01*
G75*
G02*
X0180383Y0252439I0000000J0000531D01*
G01*
X0180383Y0253502D01*
G75*
G02*
X0180915Y0254033I0000531J0000000D01*
G01*
G37*
G36*
G01*
X0180915Y0250018D02*
X0182371Y0250018D01*
G75*
G02*
X0182903Y0249486I0000000J-000531D01*
G01*
X0182903Y0248423D01*
G75*
G02*
X0182371Y0247892I-000531J0000000D01*
G01*
X0180915Y0247892D01*
G75*
G02*
X0180383Y0248423I0000000J0000531D01*
G01*
X0180383Y0249486D01*
G75*
G02*
X0180915Y0250018I0000531J0000000D01*
G01*
G37*
G36*
G01*
X0195068Y0255569D02*
X0193611Y0255569D01*
G75*
G02*
X0193080Y0256100I0000000J0000531D01*
G01*
X0193080Y0257163D01*
G75*
G02*
X0193611Y0257695I0000531J0000000D01*
G01*
X0195068Y0257695D01*
G75*
G02*
X0195600Y0257163I0000000J-000531D01*
G01*
X0195600Y0256100D01*
G75*
G02*
X0195068Y0255569I-000531J0000000D01*
G01*
G37*
G36*
G01*
X0195068Y0259585D02*
X0193611Y0259585D01*
G75*
G02*
X0193080Y0260116I0000000J0000531D01*
G01*
X0193080Y0261179D01*
G75*
G02*
X0193611Y0261711I0000531J0000000D01*
G01*
X0195068Y0261711D01*
G75*
G02*
X0195600Y0261179I0000000J-000531D01*
G01*
X0195600Y0260116D01*
G75*
G02*
X0195068Y0259585I-000531J0000000D01*
G01*
G37*
G36*
G01*
X0186151Y0247872D02*
X0184812Y0247872D01*
G75*
G02*
X0184261Y0248423I0000000J0000551D01*
G01*
X0184261Y0249526D01*
G75*
G02*
X0184812Y0250077I0000551J0000000D01*
G01*
X0186151Y0250077D01*
G75*
G02*
X0186702Y0249526I0000000J-000551D01*
G01*
X0186702Y0248423D01*
G75*
G02*
X0186151Y0247872I-000551J0000000D01*
G01*
G37*
G36*
G01*
X0186151Y0251652D02*
X0184812Y0251652D01*
G75*
G02*
X0184261Y0252203I0000000J0000551D01*
G01*
X0184261Y0253305D01*
G75*
G02*
X0184812Y0253856I0000551J0000000D01*
G01*
X0186151Y0253856D01*
G75*
G02*
X0186702Y0253305I0000000J-000551D01*
G01*
X0186702Y0252203D01*
G75*
G02*
X0186151Y0251652I-000551J0000000D01*
G01*
G37*
G36*
G01*
X0175936Y0287020D02*
X0175936Y0288358D01*
G75*
G02*
X0176487Y0288910I0000551J0000000D01*
G01*
X0177589Y0288910D01*
G75*
G02*
X0178141Y0288358I0000000J-000551D01*
G01*
X0178141Y0287020D01*
G75*
G02*
X0177589Y0286469I-000551J0000000D01*
G01*
X0176487Y0286469D01*
G75*
G02*
X0175936Y0287020I0000000J0000551D01*
G01*
G37*
G36*
G01*
X0179715Y0287020D02*
X0179715Y0288358D01*
G75*
G02*
X0180266Y0288910I0000551J0000000D01*
G01*
X0181369Y0288910D01*
G75*
G02*
X0181920Y0288358I0000000J-000551D01*
G01*
X0181920Y0287020D01*
G75*
G02*
X0181369Y0286469I-000551J0000000D01*
G01*
X0180266Y0286469D01*
G75*
G02*
X0179715Y0287020I0000000J0000551D01*
G01*
G37*
G36*
G01*
X0189871Y0254526D02*
X0191328Y0254526D01*
G75*
G02*
X0191859Y0253994I0000000J-000531D01*
G01*
X0191859Y0252931D01*
G75*
G02*
X0191328Y0252400I-000531J0000000D01*
G01*
X0189871Y0252400D01*
G75*
G02*
X0189340Y0252931I0000000J0000531D01*
G01*
X0189340Y0253994D01*
G75*
G02*
X0189871Y0254526I0000531J0000000D01*
G01*
G37*
G36*
G01*
X0189871Y0250510D02*
X0191328Y0250510D01*
G75*
G02*
X0191859Y0249978I0000000J-000531D01*
G01*
X0191859Y0248915D01*
G75*
G02*
X0191328Y0248384I-000531J0000000D01*
G01*
X0189871Y0248384D01*
G75*
G02*
X0189340Y0248915I0000000J0000531D01*
G01*
X0189340Y0249978D01*
G75*
G02*
X0189871Y0250510I0000531J0000000D01*
G01*
G37*
G36*
G01*
X0201230Y0271927D02*
X0200048Y0271927D01*
G75*
G02*
X0199458Y0272518I0000000J0000591D01*
G01*
X0199458Y0276553D01*
G75*
G02*
X0200048Y0277144I0000591J0000000D01*
G01*
X0201230Y0277144D01*
G75*
G02*
X0201820Y0276553I0000000J-000591D01*
G01*
X0201820Y0272518D01*
G75*
G02*
X0201230Y0271927I-000591J0000000D01*
G01*
G37*
G36*
G01*
X0197489Y0271927D02*
X0196308Y0271927D01*
G75*
G02*
X0195718Y0272518I0000000J0000591D01*
G01*
X0195718Y0276553D01*
G75*
G02*
X0196308Y0277144I0000591J0000000D01*
G01*
X0197489Y0277144D01*
G75*
G02*
X0198080Y0276553I0000000J-000591D01*
G01*
X0198080Y0272518D01*
G75*
G02*
X0197489Y0271927I-000591J0000000D01*
G01*
G37*
G36*
G01*
X0193749Y0271927D02*
X0192568Y0271927D01*
G75*
G02*
X0191978Y0272518I0000000J0000591D01*
G01*
X0191978Y0276553D01*
G75*
G02*
X0192568Y0277144I0000591J0000000D01*
G01*
X0193749Y0277144D01*
G75*
G02*
X0194340Y0276553I0000000J-000591D01*
G01*
X0194340Y0272518D01*
G75*
G02*
X0193749Y0271927I-000591J0000000D01*
G01*
G37*
G36*
G01*
X0193749Y0280884D02*
X0192568Y0280884D01*
G75*
G02*
X0191978Y0281474I0000000J0000591D01*
G01*
X0191978Y0285510D01*
G75*
G02*
X0192568Y0286100I0000591J0000000D01*
G01*
X0193749Y0286100D01*
G75*
G02*
X0194340Y0285510I0000000J-000591D01*
G01*
X0194340Y0281474D01*
G75*
G02*
X0193749Y0280884I-000591J0000000D01*
G01*
G37*
G36*
G01*
X0201230Y0280884D02*
X0200048Y0280884D01*
G75*
G02*
X0199458Y0281474I0000000J0000591D01*
G01*
X0199458Y0285510D01*
G75*
G02*
X0200048Y0286100I0000591J0000000D01*
G01*
X0201230Y0286100D01*
G75*
G02*
X0201820Y0285510I0000000J-000591D01*
G01*
X0201820Y0281474D01*
G75*
G02*
X0201230Y0280884I-000591J0000000D01*
G01*
G37*
G36*
G01*
X0197411Y0270234D02*
X0198749Y0270234D01*
G75*
G02*
X0199300Y0269683I0000000J-000551D01*
G01*
X0199300Y0268581D01*
G75*
G02*
X0198749Y0268029I-000551J0000000D01*
G01*
X0197411Y0268029D01*
G75*
G02*
X0196859Y0268581I0000000J0000551D01*
G01*
X0196859Y0269683D01*
G75*
G02*
X0197411Y0270234I0000551J0000000D01*
G01*
G37*
G36*
G01*
X0197411Y0266455D02*
X0198749Y0266455D01*
G75*
G02*
X0199300Y0265904I0000000J-000551D01*
G01*
X0199300Y0264801D01*
G75*
G02*
X0198749Y0264250I-000551J0000000D01*
G01*
X0197411Y0264250D01*
G75*
G02*
X0196859Y0264801I0000000J0000551D01*
G01*
X0196859Y0265904D01*
G75*
G02*
X0197411Y0266455I0000551J0000000D01*
G01*
G37*
X0122883Y0304998D02*
%LPD*%
G01*
X0391387Y0155884D02*
%LPD*%
G01*
G36*
G01*
X0384028Y0235589D02*
X0382670Y0235589D01*
G75*
G02*
X0382089Y0236169I0000000J0000581D01*
G01*
X0382089Y0237331D01*
G75*
G02*
X0382670Y0237912I0000581J0000000D01*
G01*
X0384028Y0237912D01*
G75*
G02*
X0384609Y0237331I0000000J-000581D01*
G01*
X0384609Y0236169D01*
G75*
G02*
X0384028Y0235589I-000581J0000000D01*
G01*
G37*
G36*
G01*
X0384028Y0239408D02*
X0382670Y0239408D01*
G75*
G02*
X0382089Y0239988I0000000J0000581D01*
G01*
X0382089Y0241150D01*
G75*
G02*
X0382670Y0241730I0000581J0000000D01*
G01*
X0384028Y0241730D01*
G75*
G02*
X0384609Y0241150I0000000J-000581D01*
G01*
X0384609Y0239988D01*
G75*
G02*
X0384028Y0239408I-000581J0000000D01*
G01*
G37*
G36*
G01*
X0368739Y0250057D02*
X0367381Y0250057D01*
G75*
G02*
X0366800Y0250638I0000000J0000581D01*
G01*
X0366800Y0251799D01*
G75*
G02*
X0367381Y0252380I0000581J0000000D01*
G01*
X0368739Y0252380D01*
G75*
G02*
X0369320Y0251799I0000000J-000581D01*
G01*
X0369320Y0250638D01*
G75*
G02*
X0368739Y0250057I-000581J0000000D01*
G01*
G37*
G36*
G01*
X0368739Y0253876D02*
X0367381Y0253876D01*
G75*
G02*
X0366800Y0254457I0000000J0000581D01*
G01*
X0366800Y0255618D01*
G75*
G02*
X0367381Y0256199I0000581J0000000D01*
G01*
X0368739Y0256199D01*
G75*
G02*
X0369320Y0255618I0000000J-000581D01*
G01*
X0369320Y0254457D01*
G75*
G02*
X0368739Y0253876I-000581J0000000D01*
G01*
G37*
G36*
G01*
X0342543Y0200175D02*
X0344561Y0200175D01*
G75*
G02*
X0345422Y0199314I0000000J-000861D01*
G01*
X0345422Y0197592D01*
G75*
G02*
X0344561Y0196730I-000861J0000000D01*
G01*
X0342543Y0196730D01*
G75*
G02*
X0341682Y0197592I0000000J0000861D01*
G01*
X0341682Y0199314D01*
G75*
G02*
X0342543Y0200175I0000861J0000000D01*
G01*
G37*
G36*
G01*
X0342543Y0193975D02*
X0344561Y0193975D01*
G75*
G02*
X0345422Y0193113I0000000J-000861D01*
G01*
X0345422Y0191391D01*
G75*
G02*
X0344561Y0190530I-000861J0000000D01*
G01*
X0342543Y0190530D01*
G75*
G02*
X0341682Y0191391I0000000J0000861D01*
G01*
X0341682Y0193113D01*
G75*
G02*
X0342543Y0193975I0000861J0000000D01*
G01*
G37*
G36*
G01*
X0386869Y0241730D02*
X0388228Y0241730D01*
G75*
G02*
X0388808Y0241150I0000000J-000581D01*
G01*
X0388808Y0239988D01*
G75*
G02*
X0388228Y0239408I-000581J0000000D01*
G01*
X0386869Y0239408D01*
G75*
G02*
X0386289Y0239988I0000000J0000581D01*
G01*
X0386289Y0241150D01*
G75*
G02*
X0386869Y0241730I0000581J0000000D01*
G01*
G37*
G36*
G01*
X0386869Y0237912D02*
X0388228Y0237912D01*
G75*
G02*
X0388808Y0237331I0000000J-000581D01*
G01*
X0388808Y0236169D01*
G75*
G02*
X0388228Y0235589I-000581J0000000D01*
G01*
X0386869Y0235589D01*
G75*
G02*
X0386289Y0236169I0000000J0000581D01*
G01*
X0386289Y0237331D01*
G75*
G02*
X0386869Y0237912I0000581J0000000D01*
G01*
G37*
G36*
G01*
X0347873Y0182029D02*
X0346515Y0182029D01*
G75*
G02*
X0345934Y0182609I0000000J0000581D01*
G01*
X0345934Y0183771D01*
G75*
G02*
X0346515Y0184351I0000581J0000000D01*
G01*
X0347873Y0184351D01*
G75*
G02*
X0348454Y0183771I0000000J-000581D01*
G01*
X0348454Y0182609D01*
G75*
G02*
X0347873Y0182029I-000581J0000000D01*
G01*
G37*
G36*
G01*
X0347873Y0185847D02*
X0346515Y0185847D01*
G75*
G02*
X0345934Y0186428I0000000J0000581D01*
G01*
X0345934Y0187590D01*
G75*
G02*
X0346515Y0188170I0000581J0000000D01*
G01*
X0347873Y0188170D01*
G75*
G02*
X0348454Y0187590I0000000J-000581D01*
G01*
X0348454Y0186428D01*
G75*
G02*
X0347873Y0185847I-000581J0000000D01*
G01*
G37*
G36*
G01*
X0349743Y0190116D02*
X0348385Y0190116D01*
G75*
G02*
X0347804Y0190697I0000000J0000581D01*
G01*
X0347804Y0191858D01*
G75*
G02*
X0348385Y0192439I0000581J0000000D01*
G01*
X0349743Y0192439D01*
G75*
G02*
X0350324Y0191858I0000000J-000581D01*
G01*
X0350324Y0190697D01*
G75*
G02*
X0349743Y0190116I-000581J0000000D01*
G01*
G37*
G36*
G01*
X0349743Y0193935D02*
X0348385Y0193935D01*
G75*
G02*
X0347804Y0194516I0000000J0000581D01*
G01*
X0347804Y0195677D01*
G75*
G02*
X0348385Y0196258I0000581J0000000D01*
G01*
X0349743Y0196258D01*
G75*
G02*
X0350324Y0195677I0000000J-000581D01*
G01*
X0350324Y0194516D01*
G75*
G02*
X0349743Y0193935I-000581J0000000D01*
G01*
G37*
G36*
G01*
X0342411Y0161504D02*
X0342411Y0162862D01*
G75*
G02*
X0342991Y0163443I0000581J0000000D01*
G01*
X0344153Y0163443D01*
G75*
G02*
X0344733Y0162862I0000000J-000581D01*
G01*
X0344733Y0161504D01*
G75*
G02*
X0344153Y0160923I-000581J0000000D01*
G01*
X0342991Y0160923D01*
G75*
G02*
X0342411Y0161504I0000000J0000581D01*
G01*
G37*
G36*
G01*
X0346230Y0161504D02*
X0346230Y0162862D01*
G75*
G02*
X0346810Y0163443I0000581J0000000D01*
G01*
X0347972Y0163443D01*
G75*
G02*
X0348552Y0162862I0000000J-000581D01*
G01*
X0348552Y0161504D01*
G75*
G02*
X0347972Y0160923I-000581J0000000D01*
G01*
X0346810Y0160923D01*
G75*
G02*
X0346230Y0161504I0000000J0000581D01*
G01*
G37*
G36*
G01*
X0359999Y0211022D02*
X0361357Y0211022D01*
G75*
G02*
X0361938Y0210441I0000000J-000581D01*
G01*
X0361938Y0209280D01*
G75*
G02*
X0361357Y0208699I-000581J0000000D01*
G01*
X0359999Y0208699D01*
G75*
G02*
X0359418Y0209280I0000000J0000581D01*
G01*
X0359418Y0210441D01*
G75*
G02*
X0359999Y0211022I0000581J0000000D01*
G01*
G37*
G36*
G01*
X0359999Y0207203D02*
X0361357Y0207203D01*
G75*
G02*
X0361938Y0206622I0000000J-000581D01*
G01*
X0361938Y0205461D01*
G75*
G02*
X0361357Y0204880I-000581J0000000D01*
G01*
X0359999Y0204880D01*
G75*
G02*
X0359418Y0205461I0000000J0000581D01*
G01*
X0359418Y0206622D01*
G75*
G02*
X0359999Y0207203I0000581J0000000D01*
G01*
G37*
G36*
G01*
X0365294Y0204880D02*
X0363936Y0204880D01*
G75*
G02*
X0363356Y0205461I0000000J0000581D01*
G01*
X0363356Y0206622D01*
G75*
G02*
X0363936Y0207203I0000581J0000000D01*
G01*
X0365294Y0207203D01*
G75*
G02*
X0365875Y0206622I0000000J-000581D01*
G01*
X0365875Y0205461D01*
G75*
G02*
X0365294Y0204880I-000581J0000000D01*
G01*
G37*
G36*
G01*
X0365294Y0208699D02*
X0363936Y0208699D01*
G75*
G02*
X0363356Y0209280I0000000J0000581D01*
G01*
X0363356Y0210441D01*
G75*
G02*
X0363936Y0211022I0000581J0000000D01*
G01*
X0365294Y0211022D01*
G75*
G02*
X0365875Y0210441I0000000J-000581D01*
G01*
X0365875Y0209280D01*
G75*
G02*
X0365294Y0208699I-000581J0000000D01*
G01*
G37*
G36*
G01*
X0362854Y0252360D02*
X0364212Y0252360D01*
G75*
G02*
X0364793Y0251780I0000000J-000581D01*
G01*
X0364793Y0250618D01*
G75*
G02*
X0364212Y0250038I-000581J0000000D01*
G01*
X0362854Y0250038D01*
G75*
G02*
X0362273Y0250618I0000000J0000581D01*
G01*
X0362273Y0251780D01*
G75*
G02*
X0362854Y0252360I0000581J0000000D01*
G01*
G37*
G36*
G01*
X0362854Y0248541D02*
X0364212Y0248541D01*
G75*
G02*
X0364793Y0247961I0000000J-000581D01*
G01*
X0364793Y0246799D01*
G75*
G02*
X0364212Y0246219I-000581J0000000D01*
G01*
X0362854Y0246219D01*
G75*
G02*
X0362273Y0246799I0000000J0000581D01*
G01*
X0362273Y0247961D01*
G75*
G02*
X0362854Y0248541I0000581J0000000D01*
G01*
G37*
D312*
X0386269Y0198010D03*
X0383710Y0198010D03*
X0381151Y0198010D03*
X0378592Y0198010D03*
X0376033Y0198010D03*
X0373474Y0198010D03*
X0370915Y0198010D03*
X0370915Y0221238D03*
X0373474Y0221238D03*
X0376033Y0221238D03*
X0378592Y0221238D03*
X0381151Y0221238D03*
X0383710Y0221238D03*
X0386269Y0221238D03*
G36*
G01*
X0342775Y0188187D02*
X0344133Y0188187D01*
G75*
G02*
X0344714Y0187606I0000000J-000581D01*
G01*
X0344714Y0186445D01*
G75*
G02*
X0344133Y0185864I-000581J0000000D01*
G01*
X0342775Y0185864D01*
G75*
G02*
X0342194Y0186445I0000000J0000581D01*
G01*
X0342194Y0187606D01*
G75*
G02*
X0342775Y0188187I0000581J0000000D01*
G01*
G37*
G36*
G01*
X0342775Y0184368D02*
X0344133Y0184368D01*
G75*
G02*
X0344714Y0183788I0000000J-000581D01*
G01*
X0344714Y0182626D01*
G75*
G02*
X0344133Y0182045I-000581J0000000D01*
G01*
X0342775Y0182045D01*
G75*
G02*
X0342194Y0182626I0000000J0000581D01*
G01*
X0342194Y0183788D01*
G75*
G02*
X0342775Y0184368I0000581J0000000D01*
G01*
G37*
G36*
G01*
X0340393Y0182045D02*
X0339035Y0182045D01*
G75*
G02*
X0338454Y0182626I0000000J0000581D01*
G01*
X0338454Y0183788D01*
G75*
G02*
X0339035Y0184368I0000581J0000000D01*
G01*
X0340393Y0184368D01*
G75*
G02*
X0340974Y0183788I0000000J-000581D01*
G01*
X0340974Y0182626D01*
G75*
G02*
X0340393Y0182045I-000581J0000000D01*
G01*
G37*
G36*
G01*
X0340393Y0185864D02*
X0339035Y0185864D01*
G75*
G02*
X0338454Y0186445I0000000J0000581D01*
G01*
X0338454Y0187606D01*
G75*
G02*
X0339035Y0188187I0000581J0000000D01*
G01*
X0340393Y0188187D01*
G75*
G02*
X0340974Y0187606I0000000J-000581D01*
G01*
X0340974Y0186445D01*
G75*
G02*
X0340393Y0185864I-000581J0000000D01*
G01*
G37*
G36*
G01*
X0349842Y0242282D02*
X0348483Y0242282D01*
G75*
G02*
X0347903Y0242862I0000000J0000581D01*
G01*
X0347903Y0244024D01*
G75*
G02*
X0348483Y0244604I0000581J0000000D01*
G01*
X0349842Y0244604D01*
G75*
G02*
X0350422Y0244024I0000000J-000581D01*
G01*
X0350422Y0242862D01*
G75*
G02*
X0349842Y0242282I-000581J0000000D01*
G01*
G37*
G36*
G01*
X0349842Y0246101D02*
X0348483Y0246101D01*
G75*
G02*
X0347903Y0246681I0000000J0000581D01*
G01*
X0347903Y0247843D01*
G75*
G02*
X0348483Y0248423I0000581J0000000D01*
G01*
X0349842Y0248423D01*
G75*
G02*
X0350422Y0247843I0000000J-000581D01*
G01*
X0350422Y0246681D01*
G75*
G02*
X0349842Y0246101I-000581J0000000D01*
G01*
G37*
G36*
G01*
X0379140Y0235589D02*
X0377781Y0235589D01*
G75*
G02*
X0377201Y0236169I0000000J0000581D01*
G01*
X0377201Y0237331D01*
G75*
G02*
X0377781Y0237912I0000581J0000000D01*
G01*
X0379140Y0237912D01*
G75*
G02*
X0379720Y0237331I0000000J-000581D01*
G01*
X0379720Y0236169D01*
G75*
G02*
X0379140Y0235589I-000581J0000000D01*
G01*
G37*
G36*
G01*
X0379140Y0239408D02*
X0377781Y0239408D01*
G75*
G02*
X0377201Y0239988I0000000J0000581D01*
G01*
X0377201Y0241150D01*
G75*
G02*
X0377781Y0241730I0000581J0000000D01*
G01*
X0379140Y0241730D01*
G75*
G02*
X0379720Y0241150I0000000J-000581D01*
G01*
X0379720Y0239988D01*
G75*
G02*
X0379140Y0239408I-000581J0000000D01*
G01*
G37*
G36*
G01*
X0356062Y0207774D02*
X0357420Y0207774D01*
G75*
G02*
X0358001Y0207193I0000000J-000581D01*
G01*
X0358001Y0206032D01*
G75*
G02*
X0357420Y0205451I-000581J0000000D01*
G01*
X0356062Y0205451D01*
G75*
G02*
X0355481Y0206032I0000000J0000581D01*
G01*
X0355481Y0207193D01*
G75*
G02*
X0356062Y0207774I0000581J0000000D01*
G01*
G37*
G36*
G01*
X0356062Y0203955D02*
X0357420Y0203955D01*
G75*
G02*
X0358001Y0203374I0000000J-000581D01*
G01*
X0358001Y0202213D01*
G75*
G02*
X0357420Y0201632I-000581J0000000D01*
G01*
X0356062Y0201632D01*
G75*
G02*
X0355481Y0202213I0000000J0000581D01*
G01*
X0355481Y0203374D01*
G75*
G02*
X0356062Y0203955I0000581J0000000D01*
G01*
G37*
G36*
G01*
X0348483Y0256101D02*
X0349842Y0256101D01*
G75*
G02*
X0350422Y0255520I0000000J-000581D01*
G01*
X0350422Y0254358D01*
G75*
G02*
X0349842Y0253778I-000581J0000000D01*
G01*
X0348483Y0253778D01*
G75*
G02*
X0347903Y0254358I0000000J0000581D01*
G01*
X0347903Y0255520D01*
G75*
G02*
X0348483Y0256101I0000581J0000000D01*
G01*
G37*
G36*
G01*
X0348483Y0252282D02*
X0349842Y0252282D01*
G75*
G02*
X0350422Y0251701I0000000J-000581D01*
G01*
X0350422Y0250540D01*
G75*
G02*
X0349842Y0249959I-000581J0000000D01*
G01*
X0348483Y0249959D01*
G75*
G02*
X0347903Y0250540I0000000J0000581D01*
G01*
X0347903Y0251701D01*
G75*
G02*
X0348483Y0252282I0000581J0000000D01*
G01*
G37*
G36*
G01*
X0363936Y0203640D02*
X0365294Y0203640D01*
G75*
G02*
X0365875Y0203059I0000000J-000581D01*
G01*
X0365875Y0201898D01*
G75*
G02*
X0365294Y0201317I-000581J0000000D01*
G01*
X0363936Y0201317D01*
G75*
G02*
X0363356Y0201898I0000000J0000581D01*
G01*
X0363356Y0203059D01*
G75*
G02*
X0363936Y0203640I0000581J0000000D01*
G01*
G37*
G36*
G01*
X0363936Y0199821D02*
X0365294Y0199821D01*
G75*
G02*
X0365875Y0199240I0000000J-000581D01*
G01*
X0365875Y0198079D01*
G75*
G02*
X0365294Y0197498I-000581J0000000D01*
G01*
X0363936Y0197498D01*
G75*
G02*
X0363356Y0198079I0000000J0000581D01*
G01*
X0363356Y0199240D01*
G75*
G02*
X0363936Y0199821I0000581J0000000D01*
G01*
G37*
G36*
G01*
X0388552Y0192390D02*
X0388552Y0191032D01*
G75*
G02*
X0387972Y0190451I-000581J0000000D01*
G01*
X0386810Y0190451D01*
G75*
G02*
X0386230Y0191032I0000000J0000581D01*
G01*
X0386230Y0192390D01*
G75*
G02*
X0386810Y0192971I0000581J0000000D01*
G01*
X0387972Y0192971D01*
G75*
G02*
X0388552Y0192390I0000000J-000581D01*
G01*
G37*
G36*
G01*
X0384733Y0192390D02*
X0384733Y0191032D01*
G75*
G02*
X0384153Y0190451I-000581J0000000D01*
G01*
X0382991Y0190451D01*
G75*
G02*
X0382411Y0191032I0000000J0000581D01*
G01*
X0382411Y0192390D01*
G75*
G02*
X0382991Y0192971I0000581J0000000D01*
G01*
X0384153Y0192971D01*
G75*
G02*
X0384733Y0192390I0000000J-000581D01*
G01*
G37*
G36*
G01*
X0359999Y0218502D02*
X0361357Y0218502D01*
G75*
G02*
X0361938Y0217921I0000000J-000581D01*
G01*
X0361938Y0216760D01*
G75*
G02*
X0361357Y0216179I-000581J0000000D01*
G01*
X0359999Y0216179D01*
G75*
G02*
X0359418Y0216760I0000000J0000581D01*
G01*
X0359418Y0217921D01*
G75*
G02*
X0359999Y0218502I0000581J0000000D01*
G01*
G37*
G36*
G01*
X0359999Y0214683D02*
X0361357Y0214683D01*
G75*
G02*
X0361938Y0214103I0000000J-000581D01*
G01*
X0361938Y0212941D01*
G75*
G02*
X0361357Y0212360I-000581J0000000D01*
G01*
X0359999Y0212360D01*
G75*
G02*
X0359418Y0212941I0000000J0000581D01*
G01*
X0359418Y0214103D01*
G75*
G02*
X0359999Y0214683I0000581J0000000D01*
G01*
G37*
G36*
G01*
X0361357Y0219841D02*
X0359999Y0219841D01*
G75*
G02*
X0359418Y0220421I0000000J0000581D01*
G01*
X0359418Y0221583D01*
G75*
G02*
X0359999Y0222164I0000581J0000000D01*
G01*
X0361357Y0222164D01*
G75*
G02*
X0361938Y0221583I0000000J-000581D01*
G01*
X0361938Y0220421D01*
G75*
G02*
X0361357Y0219841I-000581J0000000D01*
G01*
G37*
G36*
G01*
X0361357Y0223660D02*
X0359999Y0223660D01*
G75*
G02*
X0359418Y0224240I0000000J0000581D01*
G01*
X0359418Y0225402D01*
G75*
G02*
X0359999Y0225982I0000581J0000000D01*
G01*
X0361357Y0225982D01*
G75*
G02*
X0361938Y0225402I0000000J-000581D01*
G01*
X0361938Y0224240D01*
G75*
G02*
X0361357Y0223660I-000581J0000000D01*
G01*
G37*
G36*
G01*
X0388552Y0188650D02*
X0388552Y0187291D01*
G75*
G02*
X0387972Y0186711I-000581J0000000D01*
G01*
X0386810Y0186711D01*
G75*
G02*
X0386230Y0187291I0000000J0000581D01*
G01*
X0386230Y0188650D01*
G75*
G02*
X0386810Y0189230I0000581J0000000D01*
G01*
X0387972Y0189230D01*
G75*
G02*
X0388552Y0188650I0000000J-000581D01*
G01*
G37*
G36*
G01*
X0384733Y0188650D02*
X0384733Y0187291D01*
G75*
G02*
X0384153Y0186711I-000581J0000000D01*
G01*
X0382991Y0186711D01*
G75*
G02*
X0382411Y0187291I0000000J0000581D01*
G01*
X0382411Y0188650D01*
G75*
G02*
X0382991Y0189230I0000581J0000000D01*
G01*
X0384153Y0189230D01*
G75*
G02*
X0384733Y0188650I0000000J-000581D01*
G01*
G37*
D313*
X0339714Y0177971D03*
X0343454Y0177971D03*
X0347194Y0177971D03*
X0347194Y0167656D03*
X0339714Y0167656D03*
G36*
G01*
X0357420Y0212459D02*
X0356062Y0212459D01*
G75*
G02*
X0355481Y0213040I0000000J0000581D01*
G01*
X0355481Y0214201D01*
G75*
G02*
X0356062Y0214782I0000581J0000000D01*
G01*
X0357420Y0214782D01*
G75*
G02*
X0358001Y0214201I0000000J-000581D01*
G01*
X0358001Y0213040D01*
G75*
G02*
X0357420Y0212459I-000581J0000000D01*
G01*
G37*
G36*
G01*
X0357420Y0216278D02*
X0356062Y0216278D01*
G75*
G02*
X0355481Y0216858I0000000J0000581D01*
G01*
X0355481Y0218020D01*
G75*
G02*
X0356062Y0218601I0000581J0000000D01*
G01*
X0357420Y0218601D01*
G75*
G02*
X0358001Y0218020I0000000J-000581D01*
G01*
X0358001Y0216858D01*
G75*
G02*
X0357420Y0216278I-000581J0000000D01*
G01*
G37*
G36*
G01*
X0353316Y0199870D02*
X0353316Y0198512D01*
G75*
G02*
X0352735Y0197931I-000581J0000000D01*
G01*
X0351574Y0197931D01*
G75*
G02*
X0350993Y0198512I0000000J0000581D01*
G01*
X0350993Y0199870D01*
G75*
G02*
X0351574Y0200451I0000581J0000000D01*
G01*
X0352735Y0200451D01*
G75*
G02*
X0353316Y0199870I0000000J-000581D01*
G01*
G37*
G36*
G01*
X0349497Y0199870D02*
X0349497Y0198512D01*
G75*
G02*
X0348917Y0197931I-000581J0000000D01*
G01*
X0347755Y0197931D01*
G75*
G02*
X0347174Y0198512I0000000J0000581D01*
G01*
X0347174Y0199870D01*
G75*
G02*
X0347755Y0200451I0000581J0000000D01*
G01*
X0348917Y0200451D01*
G75*
G02*
X0349497Y0199870I0000000J-000581D01*
G01*
G37*
G36*
G01*
X0373749Y0191032D02*
X0373749Y0192390D01*
G75*
G02*
X0374330Y0192971I0000581J0000000D01*
G01*
X0375491Y0192971D01*
G75*
G02*
X0376072Y0192390I0000000J-000581D01*
G01*
X0376072Y0191032D01*
G75*
G02*
X0375491Y0190451I-000581J0000000D01*
G01*
X0374330Y0190451D01*
G75*
G02*
X0373749Y0191032I0000000J0000581D01*
G01*
G37*
G36*
G01*
X0377568Y0191032D02*
X0377568Y0192390D01*
G75*
G02*
X0378149Y0192971I0000581J0000000D01*
G01*
X0379310Y0192971D01*
G75*
G02*
X0379891Y0192390I0000000J-000581D01*
G01*
X0379891Y0191032D01*
G75*
G02*
X0379310Y0190451I-000581J0000000D01*
G01*
X0378149Y0190451D01*
G75*
G02*
X0377568Y0191032I0000000J0000581D01*
G01*
G37*
G36*
G01*
X0372794Y0234152D02*
X0374153Y0234152D01*
G75*
G02*
X0374733Y0233571I0000000J-000581D01*
G01*
X0374733Y0232410D01*
G75*
G02*
X0374153Y0231829I-000581J0000000D01*
G01*
X0372794Y0231829D01*
G75*
G02*
X0372214Y0232410I0000000J0000581D01*
G01*
X0372214Y0233571D01*
G75*
G02*
X0372794Y0234152I0000581J0000000D01*
G01*
G37*
G36*
G01*
X0372794Y0230333D02*
X0374153Y0230333D01*
G75*
G02*
X0374733Y0229752I0000000J-000581D01*
G01*
X0374733Y0228591D01*
G75*
G02*
X0374153Y0228010I-000581J0000000D01*
G01*
X0372794Y0228010D01*
G75*
G02*
X0372214Y0228591I0000000J0000581D01*
G01*
X0372214Y0229752D01*
G75*
G02*
X0372794Y0230333I0000581J0000000D01*
G01*
G37*
G36*
G01*
X0372794Y0241730D02*
X0374153Y0241730D01*
G75*
G02*
X0374733Y0241150I0000000J-000581D01*
G01*
X0374733Y0239988D01*
G75*
G02*
X0374153Y0239408I-000581J0000000D01*
G01*
X0372794Y0239408D01*
G75*
G02*
X0372214Y0239988I0000000J0000581D01*
G01*
X0372214Y0241150D01*
G75*
G02*
X0372794Y0241730I0000581J0000000D01*
G01*
G37*
G36*
G01*
X0372794Y0237912D02*
X0374153Y0237912D01*
G75*
G02*
X0374733Y0237331I0000000J-000581D01*
G01*
X0374733Y0236169D01*
G75*
G02*
X0374153Y0235589I-000581J0000000D01*
G01*
X0372794Y0235589D01*
G75*
G02*
X0372214Y0236169I0000000J0000581D01*
G01*
X0372214Y0237331D01*
G75*
G02*
X0372794Y0237912I0000581J0000000D01*
G01*
G37*
G36*
G01*
X0373749Y0187291D02*
X0373749Y0188650D01*
G75*
G02*
X0374330Y0189230I0000581J0000000D01*
G01*
X0375491Y0189230D01*
G75*
G02*
X0376072Y0188650I0000000J-000581D01*
G01*
X0376072Y0187291D01*
G75*
G02*
X0375491Y0186711I-000581J0000000D01*
G01*
X0374330Y0186711D01*
G75*
G02*
X0373749Y0187291I0000000J0000581D01*
G01*
G37*
G36*
G01*
X0377568Y0187291D02*
X0377568Y0188650D01*
G75*
G02*
X0378149Y0189230I0000581J0000000D01*
G01*
X0379310Y0189230D01*
G75*
G02*
X0379891Y0188650I0000000J-000581D01*
G01*
X0379891Y0187291D01*
G75*
G02*
X0379310Y0186711I-000581J0000000D01*
G01*
X0378149Y0186711D01*
G75*
G02*
X0377568Y0187291I0000000J0000581D01*
G01*
G37*
G36*
G01*
X0363936Y0221652D02*
X0365294Y0221652D01*
G75*
G02*
X0365875Y0221071I0000000J-000581D01*
G01*
X0365875Y0219910D01*
G75*
G02*
X0365294Y0219329I-000581J0000000D01*
G01*
X0363936Y0219329D01*
G75*
G02*
X0363356Y0219910I0000000J0000581D01*
G01*
X0363356Y0221071D01*
G75*
G02*
X0363936Y0221652I0000581J0000000D01*
G01*
G37*
G36*
G01*
X0363936Y0217833D02*
X0365294Y0217833D01*
G75*
G02*
X0365875Y0217252I0000000J-000581D01*
G01*
X0365875Y0216091D01*
G75*
G02*
X0365294Y0215510I-000581J0000000D01*
G01*
X0363936Y0215510D01*
G75*
G02*
X0363356Y0216091I0000000J0000581D01*
G01*
X0363356Y0217252D01*
G75*
G02*
X0363936Y0217833I0000581J0000000D01*
G01*
G37*
G36*
G01*
X0373749Y0183551D02*
X0373749Y0184910D01*
G75*
G02*
X0374330Y0185490I0000581J0000000D01*
G01*
X0375491Y0185490D01*
G75*
G02*
X0376072Y0184910I0000000J-000581D01*
G01*
X0376072Y0183551D01*
G75*
G02*
X0375491Y0182971I-000581J0000000D01*
G01*
X0374330Y0182971D01*
G75*
G02*
X0373749Y0183551I0000000J0000581D01*
G01*
G37*
G36*
G01*
X0377568Y0183551D02*
X0377568Y0184910D01*
G75*
G02*
X0378149Y0185490I0000581J0000000D01*
G01*
X0379310Y0185490D01*
G75*
G02*
X0379891Y0184910I0000000J-000581D01*
G01*
X0379891Y0183551D01*
G75*
G02*
X0379310Y0182971I-000581J0000000D01*
G01*
X0378149Y0182971D01*
G75*
G02*
X0377568Y0183551I0000000J0000581D01*
G01*
G37*
G36*
G01*
X0382411Y0183551D02*
X0382411Y0184910D01*
G75*
G02*
X0382991Y0185490I0000581J0000000D01*
G01*
X0384153Y0185490D01*
G75*
G02*
X0384733Y0184910I0000000J-000581D01*
G01*
X0384733Y0183551D01*
G75*
G02*
X0384153Y0182971I-000581J0000000D01*
G01*
X0382991Y0182971D01*
G75*
G02*
X0382411Y0183551I0000000J0000581D01*
G01*
G37*
G36*
G01*
X0386230Y0183551D02*
X0386230Y0184910D01*
G75*
G02*
X0386810Y0185490I0000581J0000000D01*
G01*
X0387972Y0185490D01*
G75*
G02*
X0388552Y0184910I0000000J-000581D01*
G01*
X0388552Y0183551D01*
G75*
G02*
X0387972Y0182971I-000581J0000000D01*
G01*
X0386810Y0182971D01*
G75*
G02*
X0386230Y0183551I0000000J0000581D01*
G01*
G37*
G36*
G01*
X0376604Y0168738D02*
X0375265Y0168738D01*
G75*
G02*
X0374714Y0169289I0000000J0000551D01*
G01*
X0374714Y0170392D01*
G75*
G02*
X0375265Y0170943I0000551J0000000D01*
G01*
X0376604Y0170943D01*
G75*
G02*
X0377155Y0170392I0000000J-000551D01*
G01*
X0377155Y0169289D01*
G75*
G02*
X0376604Y0168738I-000551J0000000D01*
G01*
G37*
G36*
G01*
X0376604Y0172518D02*
X0375265Y0172518D01*
G75*
G02*
X0374714Y0173069I0000000J0000551D01*
G01*
X0374714Y0174171D01*
G75*
G02*
X0375265Y0174722I0000551J0000000D01*
G01*
X0376604Y0174722D01*
G75*
G02*
X0377155Y0174171I0000000J-000551D01*
G01*
X0377155Y0173069D01*
G75*
G02*
X0376604Y0172518I-000551J0000000D01*
G01*
G37*
G36*
G01*
X0350344Y0223679D02*
X0351800Y0223679D01*
G75*
G02*
X0352332Y0223148I0000000J-000531D01*
G01*
X0352332Y0222085D01*
G75*
G02*
X0351800Y0221553I-000531J0000000D01*
G01*
X0350344Y0221553D01*
G75*
G02*
X0349812Y0222085I0000000J0000531D01*
G01*
X0349812Y0223148D01*
G75*
G02*
X0350344Y0223679I0000531J0000000D01*
G01*
G37*
G36*
G01*
X0350344Y0219664D02*
X0351800Y0219664D01*
G75*
G02*
X0352332Y0219132I0000000J-000531D01*
G01*
X0352332Y0218069D01*
G75*
G02*
X0351800Y0217538I-000531J0000000D01*
G01*
X0350344Y0217538D01*
G75*
G02*
X0349812Y0218069I0000000J0000531D01*
G01*
X0349812Y0219132D01*
G75*
G02*
X0350344Y0219664I0000531J0000000D01*
G01*
G37*
G36*
G01*
X0364877Y0162951D02*
X0364877Y0161494D01*
G75*
G02*
X0364345Y0160963I-000531J0000000D01*
G01*
X0363282Y0160963D01*
G75*
G02*
X0362751Y0161494I0000000J0000531D01*
G01*
X0362751Y0162951D01*
G75*
G02*
X0363282Y0163482I0000531J0000000D01*
G01*
X0364345Y0163482D01*
G75*
G02*
X0364877Y0162951I0000000J-000531D01*
G01*
G37*
G36*
G01*
X0360861Y0162951D02*
X0360861Y0161494D01*
G75*
G02*
X0360329Y0160963I-000531J0000000D01*
G01*
X0359266Y0160963D01*
G75*
G02*
X0358735Y0161494I0000000J0000531D01*
G01*
X0358735Y0162951D01*
G75*
G02*
X0359266Y0163482I0000531J0000000D01*
G01*
X0360329Y0163482D01*
G75*
G02*
X0360861Y0162951I0000000J-000531D01*
G01*
G37*
G36*
G01*
X0388828Y0163561D02*
X0387647Y0163561D01*
G75*
G02*
X0387056Y0164152I0000000J0000591D01*
G01*
X0387056Y0168778D01*
G75*
G02*
X0387647Y0169368I0000591J0000000D01*
G01*
X0388828Y0169368D01*
G75*
G02*
X0389418Y0168778I0000000J-000591D01*
G01*
X0389418Y0164152D01*
G75*
G02*
X0388828Y0163561I-000591J0000000D01*
G01*
G37*
G36*
G01*
X0381348Y0163561D02*
X0380167Y0163561D01*
G75*
G02*
X0379576Y0164152I0000000J0000591D01*
G01*
X0379576Y0168778D01*
G75*
G02*
X0380167Y0169368I0000591J0000000D01*
G01*
X0381348Y0169368D01*
G75*
G02*
X0381938Y0168778I0000000J-000591D01*
G01*
X0381938Y0164152D01*
G75*
G02*
X0381348Y0163561I-000591J0000000D01*
G01*
G37*
G36*
G01*
X0385088Y0170943D02*
X0383907Y0170943D01*
G75*
G02*
X0383316Y0171534I0000000J0000591D01*
G01*
X0383316Y0176160D01*
G75*
G02*
X0383907Y0176750I0000591J0000000D01*
G01*
X0385088Y0176750D01*
G75*
G02*
X0385678Y0176160I0000000J-000591D01*
G01*
X0385678Y0171534D01*
G75*
G02*
X0385088Y0170943I-000591J0000000D01*
G01*
G37*
G36*
G01*
X0350896Y0161514D02*
X0350896Y0162853D01*
G75*
G02*
X0351448Y0163404I0000551J0000000D01*
G01*
X0352550Y0163404D01*
G75*
G02*
X0353101Y0162853I0000000J-000551D01*
G01*
X0353101Y0161514D01*
G75*
G02*
X0352550Y0160963I-000551J0000000D01*
G01*
X0351448Y0160963D01*
G75*
G02*
X0350896Y0161514I0000000J0000551D01*
G01*
G37*
G36*
G01*
X0354676Y0161514D02*
X0354676Y0162853D01*
G75*
G02*
X0355227Y0163404I0000551J0000000D01*
G01*
X0356329Y0163404D01*
G75*
G02*
X0356881Y0162853I0000000J-000551D01*
G01*
X0356881Y0161514D01*
G75*
G02*
X0356329Y0160963I-000551J0000000D01*
G01*
X0355227Y0160963D01*
G75*
G02*
X0354676Y0161514I0000000J0000551D01*
G01*
G37*
G36*
G01*
X0353967Y0192301D02*
X0355148Y0192301D01*
G75*
G02*
X0355739Y0191711I0000000J-000591D01*
G01*
X0355739Y0186002D01*
G75*
G02*
X0355148Y0185412I-000591J0000000D01*
G01*
X0353967Y0185412D01*
G75*
G02*
X0353377Y0186002I0000000J0000591D01*
G01*
X0353377Y0191711D01*
G75*
G02*
X0353967Y0192301I0000591J0000000D01*
G01*
G37*
G36*
G01*
X0358967Y0192301D02*
X0360148Y0192301D01*
G75*
G02*
X0360739Y0191711I0000000J-000591D01*
G01*
X0360739Y0186002D01*
G75*
G02*
X0360148Y0185412I-000591J0000000D01*
G01*
X0358967Y0185412D01*
G75*
G02*
X0358377Y0186002I0000000J0000591D01*
G01*
X0358377Y0191711D01*
G75*
G02*
X0358967Y0192301I0000591J0000000D01*
G01*
G37*
G36*
G01*
X0363967Y0192301D02*
X0365148Y0192301D01*
G75*
G02*
X0365739Y0191711I0000000J-000591D01*
G01*
X0365739Y0186002D01*
G75*
G02*
X0365148Y0185412I-000591J0000000D01*
G01*
X0363967Y0185412D01*
G75*
G02*
X0363377Y0186002I0000000J0000591D01*
G01*
X0363377Y0191711D01*
G75*
G02*
X0363967Y0192301I0000591J0000000D01*
G01*
G37*
G36*
G01*
X0368967Y0192301D02*
X0370148Y0192301D01*
G75*
G02*
X0370739Y0191711I0000000J-000591D01*
G01*
X0370739Y0186002D01*
G75*
G02*
X0370148Y0185412I-000591J0000000D01*
G01*
X0368967Y0185412D01*
G75*
G02*
X0368377Y0186002I0000000J0000591D01*
G01*
X0368377Y0191711D01*
G75*
G02*
X0368967Y0192301I0000591J0000000D01*
G01*
G37*
G36*
G01*
X0368967Y0172026D02*
X0370148Y0172026D01*
G75*
G02*
X0370739Y0171435I0000000J-000591D01*
G01*
X0370739Y0165727D01*
G75*
G02*
X0370148Y0165136I-000591J0000000D01*
G01*
X0368967Y0165136D01*
G75*
G02*
X0368377Y0165727I0000000J0000591D01*
G01*
X0368377Y0171435D01*
G75*
G02*
X0368967Y0172026I0000591J0000000D01*
G01*
G37*
G36*
G01*
X0363967Y0172026D02*
X0365148Y0172026D01*
G75*
G02*
X0365739Y0171435I0000000J-000591D01*
G01*
X0365739Y0165727D01*
G75*
G02*
X0365148Y0165136I-000591J0000000D01*
G01*
X0363967Y0165136D01*
G75*
G02*
X0363377Y0165727I0000000J0000591D01*
G01*
X0363377Y0171435D01*
G75*
G02*
X0363967Y0172026I0000591J0000000D01*
G01*
G37*
G36*
G01*
X0358967Y0172026D02*
X0360148Y0172026D01*
G75*
G02*
X0360739Y0171435I0000000J-000591D01*
G01*
X0360739Y0165727D01*
G75*
G02*
X0360148Y0165136I-000591J0000000D01*
G01*
X0358967Y0165136D01*
G75*
G02*
X0358377Y0165727I0000000J0000591D01*
G01*
X0358377Y0171435D01*
G75*
G02*
X0358967Y0172026I0000591J0000000D01*
G01*
G37*
G36*
G01*
X0353967Y0172026D02*
X0355148Y0172026D01*
G75*
G02*
X0355739Y0171435I0000000J-000591D01*
G01*
X0355739Y0165727D01*
G75*
G02*
X0355148Y0165136I-000591J0000000D01*
G01*
X0353967Y0165136D01*
G75*
G02*
X0353377Y0165727I0000000J0000591D01*
G01*
X0353377Y0171435D01*
G75*
G02*
X0353967Y0172026I0000591J0000000D01*
G01*
G37*
X0312943Y0189743D02*
G01*
G75*
D63*
X0259596Y0048404D02*
D03*
D62*
X0273376Y0048404D02*
D03*
D65*
X0179478Y0154507D02*
D03*
D60*
X0221211Y0048404D02*
D03*
X0305463Y0189349D02*
D03*
D61*
X0191683Y0189349D02*
D03*
X0297195Y0048404D02*
D03*
D58*
X0312549Y0153719D02*
D03*
D59*
X0312549Y0185215D02*
D03*
D57*
X0312549Y0099979D02*
D03*
D66*
X0179478Y0177341D02*
D03*
D64*
X0179478Y0061790D02*
D03*
D55*
X0312549Y0082460D02*
D03*
X0312549Y0058444D02*
D03*
D56*
X0312549Y0070452D02*
D03*
X0179478Y0096042D02*
D03*
D392*
X0260974Y0104704D02*
D03*
X0260974Y0129999D02*
D03*
X0260974Y0114743D02*
D03*
X0260974Y0119959D02*
D03*
X0268061Y0089448D02*
D03*
X0260974Y0089448D02*
D03*
X0260974Y0099487D02*
D03*
X0268061Y0099487D02*
D03*
X0268061Y0129999D02*
D03*
X0268061Y0119959D02*
D03*
X0268061Y0114743D02*
D03*
X0268061Y0104704D02*
D03*
D393*
X0260974Y0108149D02*
D03*
X0260974Y0123404D02*
D03*
X0260974Y0111298D02*
D03*
X0260974Y0126554D02*
D03*
X0260974Y0096042D02*
D03*
X0260974Y0092893D02*
D03*
X0268061Y0092893D02*
D03*
X0268061Y0096042D02*
D03*
X0268061Y0123404D02*
D03*
X0268061Y0126554D02*
D03*
X0268061Y0108149D02*
D03*
X0268061Y0111298D02*
D03*
D396*
X0259006Y0051554D02*
D03*
X0262943Y0051554D02*
D03*
X0264518Y0055097D02*
D03*
X0268455Y0055097D02*
D03*
X0256644Y0072420D02*
D03*
X0260581Y0072420D02*
D03*
X0227991Y0130122D02*
D03*
X0231928Y0130122D02*
D03*
X0236187Y0130122D02*
D03*
X0240124Y0130122D02*
D03*
X0279509Y0097655D02*
D03*
X0283446Y0097655D02*
D03*
X0279509Y0101378D02*
D03*
X0283446Y0101378D02*
D03*
X0281925Y0064546D02*
D03*
X0277988Y0064546D02*
D03*
X0193291Y0053613D02*
D03*
X0229039Y0053852D02*
D03*
X0214124Y0130122D02*
D03*
X0246408Y0075964D02*
D03*
X0246408Y0080294D02*
D03*
X0249838Y0084513D02*
D03*
X0261115Y0084458D02*
D03*
X0240699Y0114118D02*
D03*
X0249488Y0114118D02*
D03*
X0253425Y0122603D02*
D03*
X0188508Y0152469D02*
D03*
X0214124Y0134625D02*
D03*
X0255069Y0051554D02*
D03*
X0268455Y0084549D02*
D03*
X0290108Y0083151D02*
D03*
X0304173Y0083151D02*
D03*
X0290108Y0087381D02*
D03*
X0304173Y0087381D02*
D03*
X0264470Y0134289D02*
D03*
X0309006Y0136200D02*
D03*
X0242471Y0075964D02*
D03*
X0253425Y0114118D02*
D03*
X0244636Y0114118D02*
D03*
X0244636Y0118606D02*
D03*
X0240699Y0118606D02*
D03*
X0186565Y0138562D02*
D03*
X0190502Y0138562D02*
D03*
X0192445Y0152469D02*
D03*
X0277890Y0081645D02*
D03*
X0281827Y0081645D02*
D03*
X0308111Y0083151D02*
D03*
X0264518Y0084549D02*
D03*
X0249488Y0122603D02*
D03*
X0257178Y0084458D02*
D03*
X0253775Y0084513D02*
D03*
X0294045Y0087381D02*
D03*
X0268407Y0134289D02*
D03*
X0305069Y0136200D02*
D03*
X0232976Y0053852D02*
D03*
X0259006Y0051554D02*
D03*
X0285778Y0076578D02*
D03*
X0289715Y0076578D02*
D03*
X0294045Y0083151D02*
D03*
X0210187Y0134625D02*
D03*
X0210187Y0130122D02*
D03*
X0242471Y0080294D02*
D03*
X0197228Y0053613D02*
D03*
X0206544Y0053613D02*
D03*
X0202607Y0053613D02*
D03*
X0300236Y0087381D02*
D03*
X0309006Y0132263D02*
D03*
X0305069Y0132263D02*
D03*
X0309006Y0119861D02*
D03*
X0305069Y0119861D02*
D03*
X0309006Y0115727D02*
D03*
X0305069Y0115727D02*
D03*
X0309006Y0107459D02*
D03*
X0305069Y0107459D02*
D03*
X0309006Y0111593D02*
D03*
X0305069Y0111593D02*
D03*
X0309006Y0103326D02*
D03*
X0305069Y0103326D02*
D03*
X0309006Y0123995D02*
D03*
X0305069Y0123995D02*
D03*
X0309006Y0128129D02*
D03*
X0305069Y0128129D02*
D03*
D398*
X0254016Y0100767D02*
D03*
X0254016Y0096534D02*
D03*
X0208612Y0184625D02*
D03*
X0213337Y0184625D02*
D03*
X0218061Y0184625D02*
D03*
X0222785Y0184625D02*
D03*
X0292864Y0056278D02*
D03*
X0288730Y0056278D02*
D03*
X0197550Y0148499D02*
D03*
X0197550Y0144562D02*
D03*
X0308479Y0057460D02*
D03*
X0308479Y0061396D02*
D03*
X0254016Y0092597D02*
D03*
X0254016Y0104704D02*
D03*
X0201722Y0148995D02*
D03*
X0201722Y0145058D02*
D03*
X0226495Y0176771D02*
D03*
X0226495Y0172834D02*
D03*
X0222785Y0172834D02*
D03*
X0222785Y0176771D02*
D03*
X0222785Y0162184D02*
D03*
X0222785Y0166121D02*
D03*
X0222785Y0180688D02*
D03*
X0218061Y0180688D02*
D03*
X0208612Y0180688D02*
D03*
X0213337Y0180688D02*
D03*
X0307444Y0147494D02*
D03*
X0307444Y0143557D02*
D03*
X0257234Y0144467D02*
D03*
X0257234Y0148404D02*
D03*
X0257234Y0154704D02*
D03*
X0257234Y0158641D02*
D03*
X0285187Y0144467D02*
D03*
X0285187Y0148404D02*
D03*
X0261762Y0169861D02*
D03*
X0261762Y0165924D02*
D03*
X0291092Y0169861D02*
D03*
X0291092Y0165924D02*
D03*
X0303888Y0169861D02*
D03*
X0303888Y0165924D02*
D03*
X0286996Y0176771D02*
D03*
X0286996Y0180708D02*
D03*
X0308612Y0177145D02*
D03*
X0308612Y0173208D02*
D03*
X0308415Y0180294D02*
D03*
X0308415Y0184231D02*
D03*
X0308479Y0068986D02*
D03*
X0308479Y0065049D02*
D03*
X0292864Y0052341D02*
D03*
X0288730Y0052341D02*
D03*
X0284990Y0165924D02*
D03*
X0284990Y0169861D02*
D03*
X0280660Y0165924D02*
D03*
X0280660Y0169861D02*
D03*
X0272195Y0165924D02*
D03*
X0272195Y0169861D02*
D03*
X0268029Y0180708D02*
D03*
X0268029Y0176771D02*
D03*
X0229282Y0148404D02*
D03*
X0229282Y0144467D02*
D03*
X0299557Y0165924D02*
D03*
X0299557Y0169861D02*
D03*
X0249186Y0180708D02*
D03*
X0249186Y0176771D02*
D03*
X0253297Y0165924D02*
D03*
X0253297Y0169861D02*
D03*
X0266092Y0165924D02*
D03*
X0266092Y0169861D02*
D03*
X0230206Y0180708D02*
D03*
X0230206Y0176771D02*
D03*
X0234399Y0165924D02*
D03*
X0234399Y0169861D02*
D03*
X0242864Y0165924D02*
D03*
X0242864Y0169861D02*
D03*
X0247195Y0165924D02*
D03*
X0247195Y0169861D02*
D03*
X0229418Y0162184D02*
D03*
X0229418Y0166121D02*
D03*
D400*
X0273386Y0059487D02*
D03*
X0281126Y0068962D02*
D03*
X0299459Y0092332D02*
D03*
D403*
X0225738Y0060904D02*
D03*
X0232038Y0060904D02*
D03*
X0262352Y0059526D02*
D03*
X0268652Y0059526D02*
D03*
X0262352Y0064152D02*
D03*
X0268652Y0064152D02*
D03*
D400*
X0290207Y0096073D02*
D03*
X0281126Y0076442D02*
D03*
X0271874Y0072702D02*
D03*
X0273386Y0052007D02*
D03*
X0282638Y0055747D02*
D03*
X0299459Y0099813D02*
D03*
D424*
X0264912Y0069349D02*
D03*
X0264912Y0075570D02*
D03*
D425*
X0235482Y0140137D02*
D03*
X0235482Y0147223D02*
D03*
X0245522Y0147223D02*
D03*
X0245522Y0140137D02*
D03*
X0263435Y0147223D02*
D03*
X0291388Y0147223D02*
D03*
X0273474Y0151160D02*
D03*
X0218356Y0176357D02*
D03*
X0218356Y0169271D02*
D03*
X0208317Y0169271D02*
D03*
X0208317Y0176357D02*
D03*
X0301427Y0158247D02*
D03*
X0301427Y0151160D02*
D03*
X0291388Y0151160D02*
D03*
X0291388Y0158247D02*
D03*
X0291388Y0140137D02*
D03*
X0301427Y0147223D02*
D03*
X0301427Y0140137D02*
D03*
X0273474Y0158247D02*
D03*
X0263435Y0151160D02*
D03*
X0263435Y0158247D02*
D03*
X0263435Y0140137D02*
D03*
X0273474Y0147223D02*
D03*
X0273474Y0140137D02*
D03*
X0272490Y0182066D02*
D03*
X0272490Y0174979D02*
D03*
X0282530Y0174979D02*
D03*
X0282530Y0182066D02*
D03*
X0291388Y0182066D02*
D03*
X0291388Y0174979D02*
D03*
X0301427Y0174979D02*
D03*
X0301427Y0182066D02*
D03*
X0253592Y0182066D02*
D03*
X0253592Y0174979D02*
D03*
X0263632Y0174979D02*
D03*
X0263632Y0182066D02*
D03*
X0234695Y0182066D02*
D03*
X0234695Y0174979D02*
D03*
X0244734Y0174979D02*
D03*
X0244734Y0182066D02*
D03*
X0235482Y0158247D02*
D03*
X0235482Y0151160D02*
D03*
X0245522Y0151160D02*
D03*
X0245522Y0158247D02*
D03*
X0207923Y0158247D02*
D03*
X0207923Y0151160D02*
D03*
X0217963Y0151160D02*
D03*
X0217963Y0158247D02*
D03*
X0217963Y0140137D02*
D03*
X0217963Y0147223D02*
D03*
X0207923Y0147223D02*
D03*
X0207923Y0140137D02*
D03*
D426*
X0242077Y0147223D02*
D03*
X0238927Y0147223D02*
D03*
X0238927Y0140137D02*
D03*
X0242077Y0140137D02*
D03*
X0266880Y0147223D02*
D03*
X0294833Y0147223D02*
D03*
X0270030Y0151160D02*
D03*
X0211762Y0169271D02*
D03*
X0214911Y0169271D02*
D03*
X0214911Y0176357D02*
D03*
X0211762Y0176357D02*
D03*
X0294833Y0151160D02*
D03*
X0297982Y0151160D02*
D03*
X0297982Y0158247D02*
D03*
X0294833Y0158247D02*
D03*
X0297982Y0147223D02*
D03*
X0294833Y0140137D02*
D03*
X0297982Y0140137D02*
D03*
X0266880Y0151160D02*
D03*
X0270030Y0158247D02*
D03*
X0266880Y0158247D02*
D03*
X0270029Y0147223D02*
D03*
X0266880Y0140137D02*
D03*
X0270029Y0140137D02*
D03*
X0275935Y0182066D02*
D03*
X0279085Y0182066D02*
D03*
X0279085Y0174979D02*
D03*
X0275935Y0174979D02*
D03*
X0294832Y0182066D02*
D03*
X0297982Y0182066D02*
D03*
X0297982Y0174979D02*
D03*
X0294832Y0174979D02*
D03*
X0257037Y0182066D02*
D03*
X0260187Y0182066D02*
D03*
X0260187Y0174979D02*
D03*
X0257037Y0174979D02*
D03*
X0238140Y0182066D02*
D03*
X0241289Y0182066D02*
D03*
X0241289Y0174979D02*
D03*
X0238140Y0174979D02*
D03*
X0238927Y0158247D02*
D03*
X0242077Y0158247D02*
D03*
X0242077Y0151160D02*
D03*
X0238927Y0151160D02*
D03*
X0211368Y0158247D02*
D03*
X0214518Y0158247D02*
D03*
X0214518Y0151160D02*
D03*
X0211368Y0151160D02*
D03*
X0214518Y0140137D02*
D03*
X0211368Y0140137D02*
D03*
X0211368Y0147223D02*
D03*
X0214518Y0147223D02*
D03*
D427*
X0203140Y0062873D02*
D03*
X0203140Y0057883D02*
D03*
X0209360Y0057883D02*
D03*
X0209360Y0062873D02*
D03*
D428*
X0190502Y0069763D02*
D03*
X0223179Y0069763D02*
D03*
X0190502Y0123896D02*
D03*
X0223179Y0123896D02*
D03*
D429*
X0200738Y0087794D02*
D03*
X0200738Y0079133D02*
D03*
X0200738Y0083463D02*
D03*
X0200738Y0092125D02*
D03*
X0200738Y0096456D02*
D03*
X0200738Y0100786D02*
D03*
X0200738Y0105117D02*
D03*
X0200738Y0109448D02*
D03*
D430*
X0182431Y0168404D02*
D03*
X0195635Y0168404D02*
D03*
X0189912Y0176436D02*
D03*
X0203115Y0176436D02*
D03*
X0186171Y0159152D02*
D03*
X0199375Y0159152D02*
D03*
X0199375Y0185688D02*
D03*
X0287549Y0070767D02*
D03*
X0291289Y0061515D02*
D03*
X0186171Y0185688D02*
D03*
D235*
X0188508Y0142631D02*
D03*
X0192445Y0142631D02*
D03*
X0188508Y0148635D02*
D03*
X0190476Y0148635D02*
D03*
X0190476Y0142631D02*
D03*
X0192445Y0148635D02*
D03*
D431*
X0279073Y0085983D02*
D03*
X0284191Y0085983D02*
D03*
X0281632Y0085983D02*
D03*
X0279073Y0093464D02*
D03*
X0284191Y0093464D02*
D03*
D238*
X0275856Y0105491D02*
D03*
X0298848Y0108050D02*
D03*
X0298848Y0105491D02*
D03*
X0275856Y0128522D02*
D03*
X0298848Y0131081D02*
D03*
X0298848Y0133641D02*
D03*
X0298848Y0128522D02*
D03*
X0298848Y0125963D02*
D03*
X0298848Y0123404D02*
D03*
X0298848Y0120845D02*
D03*
X0298848Y0118286D02*
D03*
X0298848Y0115727D02*
D03*
X0298848Y0113168D02*
D03*
X0298848Y0110609D02*
D03*
X0275856Y0133641D02*
D03*
X0275856Y0131081D02*
D03*
X0275856Y0125963D02*
D03*
X0275856Y0123404D02*
D03*
X0275856Y0120845D02*
D03*
X0275856Y0118286D02*
D03*
X0275856Y0115727D02*
D03*
X0275856Y0113168D02*
D03*
X0275856Y0110609D02*
D03*
X0275856Y0108050D02*
D03*
D432*
X0301919Y0067904D02*
D03*
X0301919Y0056486D02*
D03*
D433*
X0243829Y0065769D02*
D03*
X0256821Y0065769D02*
D03*
X0307906Y0076969D02*
D03*
X0294914Y0076969D02*
D03*
D240*
X0245054Y0091174D02*
D03*
X0245054Y0105741D02*
D03*
D241*
X0193478Y0146617D02*
D03*
X0193478Y0144649D02*
D03*
X0187474Y0144649D02*
D03*
X0187474Y0146617D02*
D03*
D434*
X0258465Y0078651D02*
D03*
X0252560Y0078651D02*
D03*
D430*
X0189912Y0168404D02*
D03*
X0203115Y0168404D02*
D03*
X0195635Y0176436D02*
D03*
X0295030Y0070767D02*
D03*
X0182431Y0176436D02*
D03*
D243*
X0255662Y0129310D02*
D03*
X0248969Y0129310D02*
D03*
D435*
X0239301Y0055773D02*
D03*
X0250718Y0055773D02*
D03*
D436*
X0308218Y0090137D02*
D03*
X0308218Y0096436D02*
D03*
M02*
